<svg width="1280" height="1031" viewBox="0 0 1280 1031" fill="none" xmlns="http://www.w3.org/2000/svg">
<path d="M180.889 1224L1896 880.752" stroke="#E63946" stroke-opacity="0.42" stroke-miterlimit="10"/>
<path d="M172.861 1214.18C177.486 1217.09 670.109 1121.93 672.711 1120.16C675.986 1117.94 1124.54 1020.22 1127.22 1019.43C1128.79 1018.96 1881 861.764 1888.7 881.09" stroke="#E63946" stroke-opacity="0.42" stroke-miterlimit="10"/>
<path d="M164.832 1204.37C174.082 1210.18 664.433 1118.9 669.636 1115.37C676.187 1110.92 1115.03 1007.21 1120.39 1005.61C1123.53 1004.68 1865.99 842.775 1881.4 881.429" stroke="#E63946" stroke-opacity="0.42" stroke-miterlimit="10"/>
<path d="M156.805 1194.55C170.679 1203.27 658.758 1115.88 666.563 1110.57C676.389 1103.9 1105.52 994.19 1113.56 991.797C1118.26 990.397 1850.99 823.787 1874.1 881.768" stroke="#E63946" stroke-opacity="0.42" stroke-miterlimit="10"/>
<path d="M148.773 1184.74C167.272 1196.36 653.081 1112.85 663.486 1105.78C676.588 1096.88 1096 981.173 1106.72 977.982C1112.99 976.116 1835.98 804.799 1866.8 882.107" stroke="#E63946" stroke-opacity="0.42" stroke-miterlimit="10"/>
<path d="M140.748 1174.92C163.872 1189.45 647.408 1109.82 660.416 1100.99C676.792 1089.86 1086.49 968.157 1099.89 964.168C1107.73 961.835 1820.98 785.811 1859.51 882.446" stroke="#E63946" stroke-opacity="0.42" stroke-miterlimit="10"/>
<path d="M132.719 1165.1C160.467 1182.54 641.732 1106.8 657.341 1096.19C676.992 1082.84 1076.98 955.138 1093.06 950.353C1102.47 947.553 1805.97 766.822 1852.21 882.784" stroke="#E63946" stroke-opacity="0.42" stroke-miterlimit="10"/>
<path d="M124.691 1155.29C157.065 1175.63 636.058 1103.77 654.269 1091.4C677.195 1075.82 1067.47 942.12 1086.23 936.537C1097.2 933.271 1790.97 747.833 1844.91 883.122" stroke="#E63946" stroke-opacity="0.42" stroke-miterlimit="10"/>
<path d="M116.664 1145.47C153.662 1168.72 630.384 1100.74 651.196 1086.6C677.398 1068.8 1057.96 929.104 1079.4 922.723C1091.94 918.99 1775.97 728.845 1837.61 883.461" stroke="#E63946" stroke-opacity="0.42" stroke-miterlimit="10"/>
<path d="M108.637 1135.65C150.26 1161.81 624.709 1097.72 648.123 1081.81C677.601 1061.78 1048.44 916.085 1072.56 908.907C1086.68 904.708 1760.96 709.856 1830.31 883.799" stroke="#E63946" stroke-opacity="0.42" stroke-miterlimit="10"/>
<path d="M100.609 1125.84C146.857 1154.9 619.036 1094.69 645.051 1077.02C677.803 1054.76 1038.93 903.068 1065.73 895.093C1081.41 890.427 1745.96 690.868 1823.02 884.138" stroke="#E63946" stroke-opacity="0.42" stroke-miterlimit="10"/>
<path d="M92.5801 1116.02C143.452 1147.99 613.359 1091.66 641.976 1072.22C678.004 1047.74 1029.42 890.052 1058.9 881.278C1076.15 876.146 1730.95 671.88 1815.72 884.477" stroke="#E63946" stroke-opacity="0.42" stroke-miterlimit="10"/>
<path d="M84.5508 1106.21C140.048 1141.08 607.683 1088.64 638.902 1067.43C678.205 1040.73 1019.91 877.034 1052.07 867.463C1070.88 861.863 1715.95 652.89 1808.42 884.815" stroke="#E63946" stroke-opacity="0.42" stroke-miterlimit="10"/>
<path d="M76.5195 1096.39C136.641 1134.17 602.005 1085.61 635.825 1062.63C678.404 1033.71 1010.39 864.016 1045.23 853.647C1065.61 847.581 1700.94 633.901 1801.12 885.154" stroke="#E63946" stroke-opacity="0.42" stroke-miterlimit="10"/>
<path d="M68.4961 1086.57C133.243 1127.26 596.335 1082.58 632.757 1057.84C678.611 1026.69 1000.88 850.999 1038.4 839.833C1060.35 833.301 1685.94 614.913 1793.82 885.492" stroke="#E63946" stroke-opacity="0.42" stroke-miterlimit="10"/>
<path d="M60.4707 1076.76C129.842 1120.35 590.662 1079.56 629.686 1053.04C678.815 1019.67 991.373 837.982 1031.57 826.018C1055.09 819.019 1670.94 595.924 1786.53 885.831" stroke="#E63946" stroke-opacity="0.42" stroke-miterlimit="10"/>
<path d="M52.4375 1066.94C126.434 1113.44 584.983 1076.53 626.607 1048.25C679.011 1012.65 981.855 824.965 1024.73 812.204C1049.82 804.738 1655.93 576.937 1779.22 886.17" stroke="#E63946" stroke-opacity="0.42" stroke-miterlimit="10"/>
<path d="M44.4121 1057.13C123.033 1106.53 579.31 1073.5 623.537 1043.46C679.216 1005.63 972.345 811.947 1017.91 798.389C1044.56 790.456 1640.93 557.948 1771.93 886.509" stroke="#E63946" stroke-opacity="0.42" stroke-miterlimit="10"/>
<path d="M36.3809 1047.31C119.627 1099.62 573.632 1070.48 620.459 1038.66C679.414 998.609 962.829 798.93 1011.07 784.573C1039.29 776.174 1625.92 538.959 1764.63 886.846" stroke="#E63946" stroke-opacity="0.42" stroke-miterlimit="10"/>
<path d="M28.3535 1037.49C116.224 1092.71 567.958 1067.45 617.387 1033.87C679.617 991.59 953.318 785.911 1004.24 770.759C1034.03 761.893 1610.92 519.971 1757.33 887.185" stroke="#E63946" stroke-opacity="0.42" stroke-miterlimit="10"/>
<path d="M20.3262 1027.68C112.821 1085.8 562.284 1064.42 614.314 1029.07C679.819 984.572 943.806 772.895 997.406 756.945C1028.77 747.613 1595.92 500.984 1750.03 887.525" stroke="#E63946" stroke-opacity="0.42" stroke-miterlimit="10"/>
<path d="M12.2969 1017.86C109.417 1078.89 556.607 1061.4 611.24 1024.28C680.02 977.552 934.293 759.878 990.572 743.13C1023.5 733.331 1580.91 481.995 1742.73 887.864" stroke="#E63946" stroke-opacity="0.42" stroke-miterlimit="10"/>
<path d="M4.26758 1008.04C106.012 1071.98 550.932 1058.37 608.165 1019.49C680.221 970.534 924.779 746.86 983.739 729.315C1018.23 719.05 1565.91 463.007 1735.43 888.202" stroke="#E63946" stroke-opacity="0.42" stroke-miterlimit="10"/>
<path d="M-3.75977 998.228C102.61 1065.07 545.257 1055.34 605.093 1014.69C680.424 963.514 915.267 733.843 976.907 715.501C1012.97 704.768 1550.9 444.018 1728.13 888.541" stroke="#E63946" stroke-opacity="0.42" stroke-miterlimit="10"/>
<path d="M-11.7871 988.411C99.2071 1058.16 539.583 1052.32 602.02 1009.9C680.627 956.495 905.756 720.826 970.076 701.685C1007.71 690.486 1535.9 425.029 1720.83 888.879" stroke="#E63946" stroke-opacity="0.42" stroke-miterlimit="10"/>
<path d="M-19.8145 978.595C95.8045 1051.25 533.909 1049.29 598.947 1005.1C680.829 949.476 896.244 707.808 963.244 687.87C1002.44 676.204 1520.9 406.041 1713.54 889.218" stroke="#E63946" stroke-opacity="0.42" stroke-miterlimit="10"/>
<path d="M-27.8418 968.779C92.402 1044.34 528.235 1046.26 595.875 1000.31C681.031 942.456 886.733 694.791 956.412 674.055C997.179 661.923 1505.89 387.053 1706.24 889.556" stroke="#E63946" stroke-opacity="0.42" stroke-miterlimit="10"/>
<path d="M-35.873 958.962C88.9954 1037.43 522.556 1043.24 592.798 995.515C681.23 935.437 877.218 681.773 949.576 660.24C991.912 647.641 1490.88 368.064 1698.94 889.894" stroke="#E63946" stroke-opacity="0.42" stroke-miterlimit="10"/>
<path d="M-43.9004 949.147C85.5929 1030.52 516.883 1040.21 589.726 990.722C681.433 928.418 867.705 668.757 942.745 646.426C986.648 633.361 1475.88 349.076 1691.64 890.234" stroke="#E63946" stroke-opacity="0.42" stroke-miterlimit="10"/>
<path d="M-51.9277 939.331C82.1903 1023.61 511.208 1037.18 586.653 985.928C681.636 921.399 858.194 655.739 935.913 632.611C981.385 619.079 1460.88 330.087 1684.34 890.572" stroke="#E63946" stroke-opacity="0.42" stroke-miterlimit="10"/>
<path d="M-59.9551 929.513C78.7877 1016.7 505.534 1034.16 583.581 981.132C681.838 914.378 848.683 642.72 929.081 618.795C976.121 604.796 1445.87 311.098 1677.04 890.909" stroke="#E63946" stroke-opacity="0.42" stroke-miterlimit="10"/>
<path d="M-67.9844 919.698C75.3832 1009.79 499.858 1031.13 580.506 976.339C682.039 907.36 839.169 629.704 922.248 604.981C970.856 590.515 1430.87 292.11 1669.74 891.249" stroke="#E63946" stroke-opacity="0.42" stroke-miterlimit="10"/>
<path d="M-76.0117 909.882C71.9806 1002.88 494.184 1028.1 577.432 971.545C682.241 900.341 829.657 616.686 915.415 591.166C965.591 576.234 1415.86 273.122 1662.44 891.588" stroke="#E63946" stroke-opacity="0.42" stroke-miterlimit="10"/>
<path d="M-84.0449 900.065C68.5721 995.971 488.504 1025.08 574.354 966.751C682.438 893.321 820.14 603.669 908.578 577.351C960.322 561.953 1400.85 254.133 1655.14 891.926" stroke="#E63946" stroke-opacity="0.42" stroke-miterlimit="10"/>
<path d="M-92.0664 890.249C65.1754 989.062 482.836 1022.05 571.287 961.957C682.647 886.302 810.633 590.652 901.752 563.536C955.064 547.67 1385.86 235.144 1647.85 892.264" stroke="#E63946" stroke-opacity="0.42" stroke-miterlimit="10"/>
<path d="M-100.1 880.433C61.767 982.152 477.155 1019.02 568.209 957.163C682.844 879.283 801.116 577.635 894.915 549.722C949.795 533.39 1370.85 216.156 1640.55 892.604" stroke="#E63946" stroke-opacity="0.42" stroke-miterlimit="10"/>
<path d="M-108.127 870.616C58.3644 975.241 471.481 1016 565.136 952.368C683.046 872.263 791.605 564.616 888.083 535.905C944.531 519.107 1355.84 197.166 1633.25 892.941" stroke="#E63946" stroke-opacity="0.42" stroke-miterlimit="10"/>
<path d="M-116.156 860.8C54.9598 968.332 465.805 1012.97 562.062 947.574C683.246 865.245 782.091 551.6 881.25 522.091C939.266 504.826 1340.84 178.178 1625.95 893.28" stroke="#E63946" stroke-opacity="0.42" stroke-miterlimit="10"/>
<path d="M-124.184 850.984C51.5573 961.422 460.131 1009.94 558.989 942.78C683.449 858.225 772.58 538.583 874.418 508.276C934.002 490.545 1325.84 159.19 1618.65 893.618" stroke="#E63946" stroke-opacity="0.42" stroke-miterlimit="10"/>
<path d="M-132.209 841.168C48.1566 954.512 454.458 1006.92 555.919 937.987C683.654 851.207 763.07 525.565 867.589 494.462C928.74 476.264 1310.83 140.202 1611.35 893.958" stroke="#E63946" stroke-opacity="0.42" stroke-miterlimit="10"/>
<path d="M-140.24 831.352C44.7501 947.601 448.781 1003.89 552.842 933.192C683.853 844.186 753.554 512.548 860.753 480.647C923.473 461.982 1295.83 121.213 1604.05 894.296" stroke="#E63946" stroke-opacity="0.42" stroke-miterlimit="10"/>
<path d="M-148.266 821.536C41.3495 940.692 443.108 1000.86 549.771 928.398C684.057 837.168 744.045 499.531 853.924 466.832C918.211 447.701 1280.83 102.225 1596.76 894.635" stroke="#E63946" stroke-opacity="0.42" stroke-miterlimit="10"/>
<path d="M-156.297 811.719C37.943 933.781 437.43 997.835 546.695 923.603C684.256 830.147 734.529 486.512 847.088 453.016C912.944 433.418 1265.82 83.2355 1589.46 894.972" stroke="#E63946" stroke-opacity="0.42" stroke-miterlimit="10"/>
<path d="M-164.322 801.903C34.5424 926.871 431.758 994.809 543.624 918.81C684.461 823.129 725.02 473.496 840.258 439.202C907.682 419.138 1250.82 64.2479 1582.16 895.312" stroke="#E63946" stroke-opacity="0.42" stroke-miterlimit="10"/>
<path d="M-172.354 792.087C31.1358 919.962 426.08 991.782 540.548 914.016C684.66 816.11 715.504 460.478 833.423 425.387C902.415 404.855 1235.81 45.2589 1574.86 895.65" stroke="#E63946" stroke-opacity="0.42" stroke-miterlimit="10"/>
<path d="M-180.379 782.271C27.7352 913.052 420.407 988.756 537.477 909.222C684.864 809.091 705.995 447.461 826.593 411.572C897.153 390.574 1220.81 26.2711 1567.56 895.989" stroke="#E63946" stroke-opacity="0.42" stroke-miterlimit="10"/>
<path d="M-188.41 772.455C24.3297 906.142 414.73 985.729 534.401 904.428C685.063 802.071 696.479 434.444 819.758 397.757C891.886 376.293 1205.8 7.28235 1560.26 896.327" stroke="#E63946" stroke-opacity="0.42" stroke-miterlimit="10"/>
<path d="M-196.436 762.639C20.9291 899.232 409.057 982.702 531.33 899.633C685.267 795.052 686.969 421.426 812.928 383.942C886.624 362.011 1190.8 -11.706 1552.97 896.666" stroke="#E63946" stroke-opacity="0.42" stroke-miterlimit="10"/>
<path d="M-204.467 752.822C17.5216 892.321 403.379 979.676 528.254 894.839C685.466 788.032 677.454 408.408 806.093 370.127C881.357 347.729 1175.79 -30.6951 1545.66 897.004" stroke="#E63946" stroke-opacity="0.42" stroke-miterlimit="10"/>
<path d="M-212.494 743.006C14.1191 885.413 397.705 976.65 525.181 890.046C685.669 781.014 667.943 395.392 799.261 356.313C876.093 333.449 1160.79 -49.6823 1538.37 897.343" stroke="#E63946" stroke-opacity="0.42" stroke-miterlimit="10"/>
<path d="M-220.52 733.19C10.7184 878.502 392.033 973.623 522.109 885.251C685.873 773.994 658.432 382.375 792.431 342.498C870.831 319.167 1145.79 -68.6712 1531.07 897.682" stroke="#E63946" stroke-opacity="0.42" stroke-miterlimit="10"/>
<path d="M-228.549 723.373C7.31391 871.592 386.356 970.596 519.035 880.456C686.073 766.975 648.919 369.356 785.597 328.682C865.565 304.885 1130.78 -87.6606 1523.77 898.02" stroke="#E63946" stroke-opacity="0.42" stroke-miterlimit="10"/>
<path d="M-236.576 713.557C3.91127 864.682 380.683 967.569 515.962 875.663C686.276 759.956 639.406 356.339 778.765 314.868C860.301 290.604 1115.78 -106.648 1516.47 898.359" stroke="#E63946" stroke-opacity="0.42" stroke-miterlimit="10"/>
<path d="M-244.605 703.741C0.506768 857.772 375.006 964.542 512.888 870.869C686.477 752.936 629.893 343.322 771.932 301.053C855.035 276.322 1100.77 -125.638 1509.17 898.697" stroke="#E63946" stroke-opacity="0.42" stroke-miterlimit="10"/>
<path d="M-252.631 693.925C-2.8939 850.862 369.333 961.515 509.817 866.074C686.682 745.916 620.384 330.305 765.102 287.238C849.774 262.04 1085.77 -144.626 1501.88 899.036" stroke="#E63946" stroke-opacity="0.42" stroke-miterlimit="10"/>
<path d="M-260.666 684.108C-6.30428 843.952 363.652 958.489 506.737 861.281C686.877 738.898 610.864 317.287 758.263 273.423C844.502 247.759 1070.76 -163.614 1494.57 899.375" stroke="#E63946" stroke-opacity="0.42" stroke-miterlimit="10"/>
<path d="M-268.688 674.292C-9.70096 837.042 357.983 955.462 503.67 856.486C687.085 731.879 601.359 304.27 751.438 259.608C839.245 233.478 1055.76 -182.603 1487.28 899.713" stroke="#E63946" stroke-opacity="0.42" stroke-miterlimit="10"/>
<path d="M-276.721 664.476C-13.1095 830.132 352.303 952.436 500.592 851.692C687.281 724.859 591.842 291.253 744.6 245.793C833.975 219.195 1040.75 -201.592 1479.98 900.051" stroke="#E63946" stroke-opacity="0.42" stroke-miterlimit="10"/>
<path d="M-284.748 654.66C-16.5121 823.222 346.629 949.409 497.518 846.898C687.483 717.84 582.328 278.235 737.767 231.978C828.711 204.914 1025.75 -220.58 1472.68 900.391" stroke="#E63946" stroke-opacity="0.42" stroke-miterlimit="10"/>
<path d="M-292.775 644.844C-19.9146 816.312 340.955 946.383 494.446 842.105C687.686 710.821 572.817 265.218 730.936 218.164C823.447 190.633 1010.75 -239.568 1465.38 900.729" stroke="#E63946" stroke-opacity="0.42" stroke-miterlimit="10"/>
<path d="M-300.803 635.028C-23.3172 809.402 335.28 943.355 491.373 837.31C687.889 703.801 563.306 252.2 724.104 204.348C818.184 176.351 995.742 -258.557 1458.08 901.067" stroke="#E63946" stroke-opacity="0.42" stroke-miterlimit="10"/>
<path d="M-308.83 625.211C-26.7188 802.492 329.607 940.329 488.301 832.516C688.092 696.782 553.795 239.183 717.274 190.533C812.921 162.07 980.74 -277.546 1450.78 901.406" stroke="#E63946" stroke-opacity="0.42" stroke-miterlimit="10"/>
<path d="M-316.859 615.395C-30.1233 795.583 323.931 937.302 485.227 827.722C688.293 689.763 544.282 226.166 710.44 176.719C807.656 147.788 965.734 -296.534 1443.48 901.745" stroke="#E63946" stroke-opacity="0.42" stroke-miterlimit="10"/>
<path d="M-324.889 605.579C-33.528 788.673 318.254 934.276 482.152 822.928C688.494 682.744 534.768 213.149 703.606 162.904C802.39 133.507 950.728 -315.522 1436.18 902.083" stroke="#E63946" stroke-opacity="0.42" stroke-miterlimit="10"/>
<path d="M-332.918 595.762C-36.9334 781.762 312.579 931.248 479.078 818.133C688.695 675.724 525.255 200.131 696.773 149.088C797.125 119.224 935.723 -334.512 1428.89 902.421" stroke="#E63946" stroke-opacity="0.42" stroke-miterlimit="10"/>
<path d="M-340.943 585.946C-40.334 774.852 306.906 928.222 476.006 813.339C688.899 668.705 515.744 187.113 689.943 135.274C791.862 104.944 920.721 -353.5 1421.59 902.76" stroke="#E63946" stroke-opacity="0.42" stroke-miterlimit="10"/>
<path d="M-348.973 576.131C-43.7386 767.942 301.23 925.196 472.931 808.545C689.099 661.686 506.23 174.096 683.109 121.459C786.597 90.6619 905.716 -372.488 1414.29 903.099" stroke="#E63946" stroke-opacity="0.42" stroke-miterlimit="10"/>
</svg>
