<svg width="124" height="53" viewBox="0 0 124 53" fill="none" xmlns="http://www.w3.org/2000/svg">
<path d="M48.3545 34.2622L50.1867 23.2091H53.3259L51.4936 34.2622H48.3545ZM53.378 21.6508C52.9531 22.0412 52.4761 22.2368 51.9469 22.2368C51.4177 22.2368 51.0035 22.042 50.7037 21.6508C50.4038 21.2604 50.2964 20.792 50.38 20.2474C50.4636 19.7166 50.7175 19.2523 51.1424 18.8546C51.5673 18.4569 52.0366 18.2581 52.552 18.2581C53.0674 18.2581 53.4816 18.4537 53.7945 18.8441C54.1082 19.2345 54.2224 19.7028 54.1388 20.2474C54.0552 20.7928 53.8014 21.2612 53.3765 21.6508H53.378Z" fill="#DDE1E2"/>
<path d="M53.8057 34.2622L54.9722 27.2057L56.4731 18.1241H59.6123L58.0822 27.3794L56.9448 34.2622H53.8057Z" fill="#DDE1E2"/>
<path d="M59.2578 34.2622L60.4243 27.2057L61.9253 18.1241H65.0644L63.5343 27.3794L62.3969 34.2622H59.2578Z" fill="#DDE1E2"/>
<path d="M71.372 22.8999C72.9174 22.8999 74.1468 23.46 75.0587 24.5801C75.9706 25.7001 76.2805 27.0856 75.9883 28.7357C75.9185 29.2073 75.8073 29.6496 75.6539 30.0619H68.1761C68.3295 31.0936 69.0466 31.609 70.3274 31.609C71.2048 31.609 71.9357 31.3216 72.5209 30.747L74.7143 32.6479C73.5164 33.9303 71.9848 34.5707 70.1188 34.5707C68.3502 34.5707 67.0096 33.9887 66.0976 32.824C65.1857 31.6601 64.8613 30.2235 65.1267 28.5133C65.3629 26.9071 66.0739 25.5695 67.2573 24.5013C68.4407 23.4332 69.8128 22.8983 71.372 22.8983V22.8999ZM68.6148 27.5418H73.0432C72.9458 26.4071 72.3192 25.8397 71.1634 25.8397C70.0076 25.8397 69.1578 26.4071 68.6148 27.5418Z" fill="#DDE1E2"/>
<path d="M84.3852 21.6622C83.0898 21.5445 82.352 22.0599 82.171 23.2092H84.1137L83.5914 26.3925H81.6433L80.3387 34.2622H77.1996L78.5042 26.3925H77.1045L77.6268 23.2092H79.0318C79.2972 21.5883 79.9207 20.3684 80.9047 19.5511C81.888 18.7329 83.2225 18.3758 84.9075 18.4789L84.3852 21.6622Z" fill="#DDE1E2"/>
<path d="M92.156 23.2091H95.6234L90.2838 33.914C89.3597 35.767 88.358 37.0469 87.2789 37.7539C86.1998 38.4617 84.9497 38.7709 83.5293 38.6824L84.0309 35.5876C84.7825 35.5876 85.3539 35.4626 85.7435 35.2118C86.1331 34.961 86.5089 34.4821 86.8717 33.7752L84.5532 23.2091H87.7913L89.0774 29.9491L92.156 23.2091Z" fill="#DDE1E2"/>
<path d="M43.1437 15.8726C43.929 15.966 45.1761 16.5934 45.7874 17.1275C48.0767 19.1274 48.2615 22.641 46.3196 24.9875C47.9762 27.0629 48.1204 29.7843 46.5842 31.988C45.5903 33.4132 43.9329 34.078 42.3008 34.1819C38.3771 34.4327 34.2256 33.9968 30.2781 34.1819C28.9528 34.0634 28.1858 33.1641 28.4182 31.7315L32.8335 19.4634C32.8627 19.353 32.7806 19.336 32.7116 19.2929C32.358 19.073 31.6693 19.0235 31.3579 18.78C31.2659 18.7085 31.2045 18.6769 31.2636 18.5413L36.4421 14.0911L37.6684 20.9771C37.2466 21.1029 36.2495 20.3221 35.9911 20.702L32.5375 30.5375H42.7625C42.8676 30.5375 43.3968 30.2819 43.5157 30.1999C44.5196 29.5027 44.5135 27.8485 43.5157 27.1481C43.4321 27.0897 42.8868 26.8104 42.8392 26.8104H35.9842L37.2842 23.2116L42.8975 23.145C44.1783 22.8123 44.7451 21.0826 43.7956 20.0461C42.8055 18.965 40.7385 19.616 39.4339 19.4334L38.8173 15.8726C40.1901 15.992 41.8 15.7127 43.1444 15.8726H43.1437Z" fill="#DDE1E2"/>
<path d="M37.6676 20.9763C37.2458 21.1021 36.2488 20.3213 35.9896 20.7011L33.1495 28.7908L31.2275 34.1485C30.91 34.1567 30.5933 34.1672 30.2781 34.1818C28.9528 34.0633 28.1858 33.164 28.4182 31.7306L32.8335 19.4633C32.8627 19.3521 32.7806 19.3359 32.7116 19.2929C32.358 19.0729 31.6693 19.0226 31.3579 18.7791C31.2659 18.7077 31.2045 18.6768 31.2636 18.5405L36.4413 14.0902L37.6676 20.9763Z" fill="#DDE1E2"/>
</svg>
