<svg width="323" height="56" viewBox="0 0 323 56" fill="none" xmlns="http://www.w3.org/2000/svg">
<path opacity="0.8" d="M70.7718 16.452C70.8755 16.4534 70.9784 16.434 71.0747 16.395C71.1709 16.356 71.2585 16.2982 71.3323 16.2248C71.4061 16.1514 71.4647 16.064 71.5048 15.9676C71.5448 15.8712 71.5654 15.7677 71.5654 15.6633V12.3515C71.5644 12.1436 71.482 11.9444 71.336 11.7974C71.1901 11.6504 70.9924 11.5673 70.7859 11.5664H51.3712C51.1466 11.5664 50.9312 11.6563 50.7724 11.8162C50.6136 11.9762 50.5244 12.1931 50.5244 12.4193V15.4741C50.5244 15.7319 50.6258 15.9792 50.8064 16.1618C50.9871 16.3444 51.2322 16.4474 51.4881 16.4484L70.7718 16.452Z" fill="white"/>
<path opacity="0.55" d="M70.7718 29.327C70.8746 29.3284 70.9767 29.3094 71.0722 29.271C71.1677 29.2327 71.2549 29.1758 71.3285 29.1035C71.4022 29.0313 71.4611 28.9451 71.5017 28.85C71.5423 28.7548 71.564 28.6526 71.5654 28.549V25.2301C71.5654 25.0215 71.4834 24.8215 71.3373 24.6737C71.1912 24.5259 70.993 24.4423 70.7859 24.4414H51.3712C51.1466 24.4414 50.9312 24.5313 50.7724 24.6912C50.6136 24.8512 50.5244 25.0681 50.5244 25.2943V28.3491C50.524 28.4769 50.5485 28.6035 50.5968 28.7217C50.645 28.8399 50.7159 28.9473 50.8054 29.0378C50.8949 29.1283 51.0013 29.2002 51.1185 29.2492C51.2356 29.2982 51.3612 29.3234 51.4881 29.3234L70.7718 29.327Z" fill="white"/>
<path opacity="0.35" d="M70.7718 42.2039C70.9794 42.2039 71.1786 42.1208 71.3254 41.9729C71.4722 41.825 71.5547 41.6244 71.5547 41.4152V38.107C71.5547 37.8985 71.4727 37.6984 71.3267 37.5506C71.1806 37.4028 70.9823 37.3193 70.7753 37.3184H51.3712C51.1466 37.3184 50.9312 37.4082 50.7724 37.5682C50.6136 37.7281 50.5244 37.9451 50.5244 38.1713V41.2297C50.5244 41.4871 50.6259 41.734 50.8067 41.916C50.9874 42.0981 51.2325 42.2003 51.4881 42.2003L70.7718 42.2039Z" fill="white"/>
<path d="M106.055 31.7224V34.1348L90.6083 12.3408C90.4384 12.1011 90.214 11.9057 89.954 11.771C89.6939 11.6363 89.4057 11.5662 89.1132 11.5664H85.6448C85.3526 11.5664 85.0723 11.6833 84.8657 11.8915C84.6591 12.0996 84.543 12.3819 84.543 12.6763V41.4899C84.5439 41.6985 84.6268 41.8982 84.7735 42.0453C84.9203 42.1924 85.1189 42.275 85.3259 42.275H89.2231C89.3257 42.275 89.4274 42.2546 89.5222 42.2149C89.617 42.1753 89.703 42.1171 89.7755 42.0438C89.8479 41.9706 89.9052 41.8836 89.9442 41.7879C89.9831 41.6922 90.003 41.5898 90.0025 41.4864V22.169L89.96 19.9029L105.279 41.5042C105.449 41.743 105.673 41.9375 105.932 42.0716C106.192 42.2057 106.479 42.2754 106.771 42.275H110.395C110.54 42.275 110.684 42.2462 110.818 42.1903C110.952 42.1343 111.074 42.0523 111.177 41.9489C111.279 41.8455 111.361 41.7228 111.416 41.5877C111.472 41.4526 111.5 41.3078 111.5 41.1616V12.3551C111.5 12.1462 111.417 11.9461 111.27 11.7984C111.123 11.6507 110.925 11.5673 110.717 11.5664H106.82C106.613 11.5664 106.415 11.649 106.268 11.7961C106.121 11.9433 106.038 12.143 106.037 12.3515L106.055 31.7224Z" fill="white"/>
<path d="M121.682 16.4941H130.068V41.475C130.068 41.6832 130.15 41.8829 130.297 42.0301C130.443 42.1774 130.641 42.2601 130.848 42.2601H134.692C134.899 42.2592 135.097 42.1756 135.243 42.0278C135.389 41.88 135.471 41.68 135.471 41.4714V16.4905H143.854C143.957 16.491 144.059 16.471 144.154 16.4315C144.25 16.3921 144.336 16.3341 144.409 16.2608C144.483 16.1875 144.541 16.1004 144.58 16.0045C144.62 15.9086 144.64 15.8057 144.64 15.7019V12.3473C144.64 12.2439 144.621 12.1414 144.582 12.0457C144.543 11.9501 144.485 11.8631 144.413 11.7898C144.341 11.7165 144.254 11.6584 144.16 11.6187C144.065 11.579 143.963 11.5586 143.861 11.5586H121.682C121.475 11.5586 121.277 11.6412 121.13 11.7883C120.983 11.9355 120.9 12.1352 120.899 12.3437V15.7019C120.899 15.8057 120.919 15.9087 120.958 16.0048C120.997 16.1009 121.055 16.1882 121.127 16.2618C121.2 16.3355 121.287 16.3939 121.382 16.4337C121.477 16.4736 121.579 16.4941 121.682 16.4941Z" fill="white"/>
<path d="M173.755 30.6905C176.876 29.0561 178.591 25.9085 178.591 21.8259C178.591 15.313 174.34 11.5801 166.931 11.5801H155.428C155.177 11.5773 154.935 11.6748 154.755 11.8514C154.575 12.028 154.472 12.2692 154.468 12.5223V41.4894C154.469 41.6979 154.552 41.8976 154.698 42.0448C154.845 42.1919 155.044 42.2745 155.251 42.2745H159.148C159.355 42.2736 159.553 42.1901 159.699 42.0422C159.845 41.8944 159.927 41.6944 159.927 41.4858V32.2072H162.786C168.235 32.2072 171.101 34.948 172.533 41.6179C172.572 41.8046 172.674 41.9722 172.821 42.0929C172.968 42.2136 173.151 42.2802 173.34 42.2816H178.031C178.146 42.2821 178.259 42.2585 178.364 42.2123C178.469 42.1661 178.563 42.0983 178.64 42.0133C178.718 41.9283 178.777 41.8279 178.813 41.7187C178.85 41.6094 178.864 41.4936 178.853 41.3788C178.76 40.3376 178.586 39.3054 178.332 38.2918C177.571 35.2692 175.278 31.4399 173.755 30.6905ZM166.744 27.236H159.931V16.4514H166.744C172.147 16.4514 172.954 19.8096 172.954 21.8045C172.954 23.7994 172.147 27.2217 166.744 27.2217V27.236Z" fill="white"/>
<path d="M194.555 11.5664H190.661C190.231 11.5664 189.882 11.9179 189.882 12.3515V41.4899C189.882 41.9235 190.231 42.275 190.661 42.275H194.555C194.985 42.275 195.334 41.9235 195.334 41.4899V12.3515C195.334 11.9179 194.985 11.5664 194.555 11.5664Z" fill="white"/>
<path d="M250.461 11.5664H246.568C246.137 11.5664 245.788 11.9179 245.788 12.3515V41.4899C245.788 41.9235 246.137 42.275 246.568 42.275H250.461C250.892 42.275 251.241 41.9235 251.241 41.4899V12.3515C251.241 11.9179 250.892 11.5664 250.461 11.5664Z" fill="white"/>
<path d="M261.055 16.4941H269.444V41.475C269.444 41.6832 269.526 41.8829 269.673 42.0301C269.819 42.1774 270.017 42.2601 270.224 42.2601H274.068C274.275 42.2592 274.473 42.1756 274.619 42.0278C274.765 41.88 274.847 41.68 274.847 41.4714V16.4905H283.229C283.333 16.491 283.435 16.471 283.53 16.4315C283.626 16.3921 283.712 16.3341 283.785 16.2608C283.858 16.1875 283.916 16.1004 283.956 16.0045C283.996 15.9086 284.016 15.8057 284.016 15.7019V12.3473C284.016 12.1387 283.934 11.9387 283.788 11.7909C283.642 11.643 283.444 11.5595 283.237 11.5586H261.058C260.851 11.5586 260.653 11.6412 260.506 11.7883C260.359 11.9355 260.276 12.1352 260.275 12.3437V15.7019C260.275 15.8054 260.295 15.9081 260.334 16.0039C260.373 16.0998 260.43 16.187 260.502 16.2606C260.575 16.3342 260.661 16.3926 260.755 16.4327C260.85 16.4728 260.952 16.4936 261.055 16.4941Z" fill="white"/>
<path d="M305.142 24.5172L297.447 11.8055C297.408 11.7393 297.352 11.6845 297.286 11.6464C297.219 11.6082 297.144 11.588 297.068 11.5878C296.217 11.5878 293.397 11.5878 292.008 11.5878C291.929 11.5864 291.851 11.6064 291.782 11.6458C291.713 11.6852 291.656 11.7426 291.616 11.8119C291.577 11.8811 291.557 11.9598 291.558 12.0397C291.559 12.1195 291.581 12.1977 291.622 12.2659L302.385 30.5911V41.5078C302.386 41.7163 302.469 41.916 302.616 42.0632C302.763 42.2103 302.961 42.2929 303.168 42.2929H307.165C307.372 42.292 307.57 42.2084 307.716 42.0606C307.862 41.9128 307.944 41.7128 307.944 41.5042V30.5733L318.707 12.248C318.748 12.1798 318.77 12.1019 318.771 12.0222C318.772 11.9426 318.752 11.8641 318.713 11.7947C318.675 11.7254 318.618 11.6677 318.55 11.6276C318.481 11.5875 318.404 11.5664 318.325 11.5664H313.315C313.239 11.5667 313.163 11.5864 313.096 11.6239C313.03 11.6613 312.973 11.7152 312.932 11.7805L305.142 24.5172Z" fill="white"/>
<path d="M220.903 37.8862C218.964 37.888 217.06 37.3691 215.386 36.3831C213.712 35.3971 212.33 33.9796 211.381 32.2764C210.432 30.5733 209.95 28.6462 209.987 26.6934C210.023 24.7407 210.575 22.8329 211.586 21.1666C212.598 19.5003 214.032 18.1356 215.741 17.2131C217.45 16.2906 219.372 15.8436 221.309 15.9181C223.247 15.9927 225.13 16.5861 226.764 17.6372C228.398 18.6883 229.725 20.1592 230.607 21.8984C230.689 22.0639 230.815 22.2034 230.97 22.3017C231.126 22.3999 231.305 22.453 231.489 22.4551H235.22C235.379 22.4546 235.536 22.4149 235.677 22.3395C235.818 22.2641 235.938 22.1553 236.028 22.0224C236.118 21.8895 236.174 21.7367 236.192 21.577C236.209 21.4174 236.188 21.2558 236.13 21.1062C234.782 17.5005 232.217 14.4874 228.886 12.5944C225.554 10.7014 221.668 10.0492 217.907 10.7519C214.146 11.4547 210.75 13.4675 208.314 16.4382C205.878 19.4088 204.557 23.1479 204.582 27.0008C204.608 30.8537 205.977 34.5749 208.452 37.513C210.927 40.451 214.348 42.4186 218.118 43.0713C221.888 43.7241 225.766 43.0203 229.072 41.0833C232.379 39.1462 234.904 36.0993 236.205 32.476C236.257 32.3274 236.273 32.1683 236.251 32.0122C236.23 31.856 236.171 31.7074 236.08 31.5789C235.99 31.4504 235.87 31.3458 235.73 31.274C235.591 31.2022 235.436 31.1653 235.28 31.1663H231.578C231.391 31.1685 231.209 31.2231 231.052 31.324C230.895 31.4249 230.769 31.5681 230.688 31.7373C229.79 33.5806 228.398 35.1336 226.668 36.2204C224.939 37.3071 222.941 37.8842 220.903 37.8862Z" fill="white"/>
<path d="M24.57 37.8862C22.6311 37.888 20.7267 37.3691 19.0531 36.3831C17.3793 35.3971 15.9968 33.9796 15.0478 32.2764C14.0987 30.5733 13.6175 28.6462 13.6536 26.6934C13.6897 24.7407 14.2419 22.8329 15.2533 21.1666C16.2647 19.5003 17.6987 18.1356 19.4077 17.2131C21.1167 16.2906 23.039 15.8436 24.9765 15.9181C26.914 15.9927 28.7968 16.5861 30.431 17.6372C32.0651 18.6883 33.3916 20.1592 34.2739 21.8984C34.3559 22.0639 34.4817 22.2034 34.6373 22.3017C34.7929 22.3999 34.9724 22.453 35.1561 22.4551H38.8867C39.0462 22.4546 39.2031 22.4149 39.344 22.3395C39.4848 22.2641 39.6053 22.1553 39.6949 22.0224C39.7846 21.8895 39.8408 21.7367 39.8586 21.577C39.8764 21.4174 39.8553 21.2558 39.7972 21.1062C38.4489 17.5005 35.8844 14.4874 32.5528 12.5944C29.2212 10.7014 25.3347 10.0492 21.5738 10.7519C17.8129 11.4547 14.4172 13.4675 11.9812 16.4382C9.54519 19.4088 8.22417 23.1479 8.24938 27.0008C8.27459 30.8537 9.64443 34.5749 12.1191 37.513C14.5937 40.451 18.0155 42.4186 21.7853 43.0713C25.5551 43.7241 29.4327 43.0203 32.7392 41.0833C36.0458 39.1462 38.5706 36.0993 39.8716 32.476C39.9239 32.3274 39.94 32.1683 39.9184 32.0122C39.8968 31.856 39.8381 31.7074 39.7474 31.5789C39.6567 31.4504 39.5366 31.3458 39.3972 31.274C39.2579 31.2022 39.1034 31.1653 38.9469 31.1663H35.2482C35.0604 31.1721 34.878 31.231 34.7219 31.3364C34.5659 31.4418 34.4425 31.5895 34.366 31.7623C33.463 33.602 32.067 35.1505 30.3358 36.2327C28.6047 37.3149 26.6075 37.8877 24.57 37.8862Z" fill="white"/>
</svg>
