<svg width="124" height="53" viewBox="0 0 124 53" fill="none" xmlns="http://www.w3.org/2000/svg">
<path d="M27.683 26.9355C27.4184 26.9355 27.2197 26.7253 27.2197 26.4452V12.2925C27.2197 12.0125 27.4184 11.8022 27.683 11.8022H34.3033C38.3421 11.8022 41.63 15.048 41.63 19.3693C41.63 23.6905 38.3421 26.9363 34.3033 26.9363H27.683V26.9355ZM34.3033 12.7365H28.1462V26.0013H34.3033C37.8121 26.0013 40.6813 23.1053 40.6813 19.3685C40.6813 15.6316 37.8343 12.7356 34.3033 12.7356V12.7365Z" fill="#DDE1E2"/>
<path d="M45.9553 11.5684C46.4853 11.5684 46.9263 12.0351 46.9263 12.5959C46.9263 13.1568 46.4853 13.6235 45.9553 13.6235C45.4254 13.6235 44.9844 13.1568 44.9844 12.5959C44.9844 12.0351 45.4254 11.5684 45.9553 11.5684ZM48.6036 26.6553C48.6036 26.8185 48.4932 27.122 48.1626 27.122C47.9417 27.122 47.6994 27.075 47.5667 27.0287C46.1762 26.6083 45.4921 25.2073 45.4921 23.4323V16.1225C45.4921 15.8425 45.6907 15.6323 45.9553 15.6323C46.2199 15.6323 46.4186 15.8425 46.4186 16.1225V23.4323C46.4186 25.0207 47.0367 26.0945 48.1619 26.1878C48.4042 26.1878 48.6029 26.398 48.6029 26.6545L48.6036 26.6553Z" fill="#DDE1E2"/>
<path d="M51.3398 16.1227C51.3398 15.8427 51.5385 15.6325 51.8031 15.6325C52.0677 15.6325 52.2663 15.8427 52.2663 16.1227V17.4303C53.215 16.2161 54.716 15.5383 56.5474 15.5383C59.5485 15.5383 61.2036 17.5472 61.2036 20.6996V26.6312C61.2036 26.9112 61.005 27.1214 60.7404 27.1214C60.4758 27.1214 60.2771 26.9112 60.2771 26.6312V20.793C60.2771 17.8734 58.9971 16.4725 56.437 16.4725C54.561 16.4725 52.9504 17.4303 52.2663 18.901V26.6312C52.2663 26.9112 52.0677 27.1214 51.8031 27.1214C51.5385 27.1214 51.3398 26.9112 51.3398 26.6312V16.1219V16.1227Z" fill="#DDE1E2"/>
<path d="M73.3192 24.3196C73.3851 24.2027 73.5178 24.1329 73.672 24.1329C73.9151 24.1329 74.1137 24.3431 74.1137 24.5996C74.1137 24.74 74.0478 24.8561 73.981 24.9502C72.9219 26.4218 71.421 27.2854 69.5458 27.2854C66.1252 27.2854 64.0068 24.6467 64.0068 21.4001C64.0068 18.1535 66.3905 15.5383 69.3249 15.5383C72.2592 15.5383 74.6429 18.177 74.6429 21.4001C74.6429 21.7272 74.6429 22.1005 74.0915 22.1005H64.9993C65.2861 24.4827 67.0294 26.3511 69.545 26.3511C71.266 26.3511 72.5024 25.5103 73.3184 24.3196H73.3192ZM64.9556 21.1671H73.7164C73.606 18.5983 71.6863 16.4734 69.3249 16.4734C66.9634 16.4734 65.066 18.5983 64.9556 21.1671Z" fill="#DDE1E2"/>
<path d="M76.8947 15.7719H85.6119C85.8542 15.7719 86.0529 15.9821 86.0529 16.2386C86.0529 16.4017 85.9869 16.4951 85.9424 16.5421L77.5343 26.0003H85.898C86.1411 26.0003 86.3397 26.2105 86.3397 26.467C86.3397 26.7235 86.1411 26.9337 85.898 26.9337H76.4974C76.2106 26.9337 76.0557 26.7235 76.0557 26.4897C76.0557 26.3493 76.1002 26.256 76.1883 26.1391L84.5742 16.7037H76.8947C76.6524 16.7037 76.4537 16.4934 76.4537 16.237C76.4537 15.9805 76.6524 15.7703 76.8947 15.7703V15.7719Z" fill="#DDE1E2"/>
<path d="M88.8775 15.6323C89.0317 15.6323 89.2089 15.7021 89.2971 15.9359L93.5122 25.8145L97.7933 15.8888C97.8815 15.7021 98.0142 15.6323 98.1906 15.6323C98.433 15.6323 98.6316 15.8425 98.6316 16.099C98.6316 16.1688 98.6094 16.2622 98.5871 16.3092L93.5337 28.0327C92.8718 29.5976 91.9231 30.7883 90.5548 31.0456C90.4666 31.0691 90.3784 31.0691 90.334 31.0691C90.0916 31.0691 89.893 30.8589 89.893 30.6024C89.893 30.3459 90.0694 30.1584 90.2902 30.1357C91.3939 30.0188 92.1662 28.945 92.7177 27.6602L93.049 26.8891L88.481 16.3101C88.4588 16.2403 88.4365 16.1932 88.4365 16.0998C88.4365 15.8434 88.6352 15.6331 88.8775 15.6331V15.6323Z" fill="#DDE1E2"/>
<path d="M73.4245 29.9768C69.5008 35.3694 61.4278 36.1778 55.7662 33.6252C54.6955 34.6519 53.9309 36.1462 53.7514 37.6794C53.6379 38.6461 53.8381 39.1063 53.4185 40.1119C52.41 42.5306 49.0546 41.3318 48.8199 38.8758C48.6519 37.1137 49.6122 34.7769 50.8554 33.6179C51.6239 32.9012 52.5266 32.5197 53.3932 31.9735C52.5388 31.2884 51.8394 30.4127 51.2212 29.4915C53.0519 30.3948 54.7945 31.4402 56.7417 32.066C61.3994 33.5627 65.5295 33.3922 70.0683 31.5709L73.4245 29.976V29.9768ZM54.4256 32.8809C53.4308 31.4849 52.038 33.6861 51.7159 34.6771C51.5203 35.2793 51.4099 36.0017 51.4513 36.6364L52.94 33.9141C53.361 33.484 53.8396 33.0229 54.4256 32.8809Z" fill="#DDE1E2"/>
</svg>
