<svg width="289" height="56" viewBox="0 0 289 56" fill="none" xmlns="http://www.w3.org/2000/svg">
<path fill-rule="evenodd" clip-rule="evenodd" d="M36.0791 0H54.642L32.5615 24.7486L54.642 49.5033H36.0791L20.6747 32.2325H0L11.3304 18.563H19.5201L36.0791 0Z" fill="white"/>
<path fill-rule="evenodd" clip-rule="evenodd" d="M57.9857 0.376881L61.4734 0L39.3928 24.7486L61.4734 49.5033L57.9857 49.8801L35.9111 25.1315L57.9857 0.376881Z" fill="white"/>
<path fill-rule="evenodd" clip-rule="evenodd" d="M64.8237 0.376881L68.3054 0L46.2248 24.7486L68.3054 49.5033L64.8237 49.8801L42.7432 25.1315L64.8237 0.376881Z" fill="white"/>
<path fill-rule="evenodd" clip-rule="evenodd" d="M38.9144 4.34961H45.3752L28.6368 23.0382L24.9099 27.2019H9.23633L12.9573 23.0382H22.176L38.9144 4.34961Z" fill="#CAC5C5"/>
<path fill-rule="evenodd" clip-rule="evenodd" d="M104.247 9.19531H117.115L112.569 17.9892L105.079 22.135L108.77 25.3415L103.272 35.966H90.3984L104.247 9.19531Z" fill="white"/>
<path fill-rule="evenodd" clip-rule="evenodd" d="M88.2624 9.19531C92.5516 9.19531 96.8409 9.19531 101.13 9.19531C100.67 10.0927 96.7572 17.6542 94.0412 22.9007C92.5576 25.7662 91.4928 28.1711 89.2674 30.4982C83.9013 36.1035 78.9599 35.966 71.0095 35.966C68.9815 35.966 66.9595 35.966 64.9375 35.966C66.3194 33.2919 67.7013 30.6178 69.0892 27.9437C69.5558 27.9437 70.0284 27.9437 70.501 27.9437C76.7106 27.9437 78.6249 27.8301 81.4844 22.2965C83.7398 17.9294 86.0011 13.5624 88.2624 9.19531Z" fill="white"/>
<path fill-rule="evenodd" clip-rule="evenodd" d="M195.985 28.4216L192.085 35.9653H179.217L182.992 28.6729L176.441 17.7852H189.949L193.455 24.24L203.116 17.7852H213.059L195.985 28.4216Z" fill="white"/>
<path fill-rule="evenodd" clip-rule="evenodd" d="M269.202 21.8298L268.083 23.9954H285.306L283.218 28.171H265.923L264.53 30.863H281.944L279.39 35.9659H249.018L258.488 17.6602H288.459L286.371 21.8298H269.202Z" fill="white"/>
<path fill-rule="evenodd" clip-rule="evenodd" d="M221.882 27.6731L217.593 35.9645H204.719L214.159 17.7246H246.367C249.101 17.7246 250.675 19.962 249.861 22.6959C249.047 25.4358 246.146 27.6731 243.412 27.6731H239.865L250.112 35.9645H232.644L222.474 27.6731H221.882ZM224.993 21.655H235.42C236.562 21.655 237.22 22.3429 236.879 23.1804C236.538 24.0239 235.324 24.7119 234.181 24.7119H223.413L224.993 21.655Z" fill="white"/>
<path fill-rule="evenodd" clip-rule="evenodd" d="M131.747 9.19531H150.938L137.036 17.9773H145.159L141.008 25.9995H128.391L139.566 35.966H122.989L107.591 22.5597L131.747 9.19531Z" fill="white"/>
<path fill-rule="evenodd" clip-rule="evenodd" d="M147.331 17.7852H174.957L170.806 25.8074H163.747L158.488 35.9653H145.62L150.873 25.8074H143.186L147.331 17.7852Z" fill="white"/>
<path d="M155.868 56.0004V46.5065H153.589V45.2383H159.069V46.5065H156.783V56.0004H155.868Z" fill="white"/>
<path d="M164.231 50.5743C164.231 48.7916 164.537 47.3917 165.153 46.3807C165.769 45.3697 166.565 44.8672 167.54 44.8672C168.18 44.8672 168.754 45.1065 169.269 45.5791C169.783 46.0517 170.172 46.7157 170.441 47.5652C170.71 48.4087 170.842 49.3778 170.842 50.4486C170.842 51.5434 170.704 52.5185 170.417 53.38C170.136 54.2414 169.735 54.8935 169.215 55.3362C168.7 55.7788 168.138 56.0002 167.54 56.0002C166.888 56.0002 166.307 55.7549 165.793 55.2644C165.278 54.7798 164.889 54.1098 164.626 53.2603C164.363 52.4168 164.231 51.5195 164.231 50.5743ZM165.177 50.5982C165.177 51.8964 165.398 52.9133 165.847 53.6611C166.295 54.4089 166.858 54.7858 167.534 54.7858C168.222 54.7858 168.79 54.4089 169.233 53.6551C169.681 52.8954 169.903 51.8305 169.903 50.4427C169.903 49.5692 169.807 48.8035 169.615 48.1515C169.424 47.4994 169.149 46.9909 168.784 46.632C168.413 46.273 168 46.0936 167.546 46.0936C166.9 46.0936 166.343 46.4345 165.877 47.1285C165.41 47.8224 165.177 48.977 165.177 50.5982Z" fill="white"/>
<path d="M178.212 56.0004V46.5065H175.933V45.2383H181.418V46.5065H179.127V56.0004H178.212Z" fill="white"/>
<path d="M186.587 56.0004L189.243 45.2383H190.23L193.06 56.0004H192.019L191.211 52.74H188.322L187.562 56.0004H186.587ZM188.585 51.5795H190.93L190.206 48.6003C189.991 47.697 189.823 46.9552 189.716 46.3689C189.632 47.0629 189.506 47.7449 189.345 48.4268L188.585 51.5795Z" fill="white"/>
<path d="M198.671 56.0004V45.2383H199.586V54.7321H202.996V56.0004H198.671Z" fill="white"/>
<path d="M219.436 52.0458L220.351 52.4047C220.16 53.5713 219.813 54.4626 219.316 55.0788C218.82 55.695 218.21 56.0001 217.486 56.0001C216.744 56.0001 216.14 55.7668 215.667 55.2942C215.2 54.8216 214.847 54.1336 214.602 53.2422C214.363 52.3449 214.237 51.3818 214.237 50.3528C214.237 49.2341 214.375 48.259 214.65 47.4215C214.925 46.59 215.32 45.9558 215.829 45.5251C216.331 45.0884 216.893 44.873 217.504 44.873C218.198 44.873 218.778 45.1482 219.25 45.6926C219.723 46.243 220.046 47.0147 220.232 48.0078L219.334 48.3368C219.173 47.5531 218.939 46.9848 218.634 46.6259C218.329 46.2669 217.946 46.0934 217.486 46.0934C216.953 46.0934 216.511 46.2908 216.152 46.6857C215.793 47.0805 215.541 47.6129 215.398 48.2829C215.254 48.947 215.183 49.6409 215.183 50.3468C215.183 51.2621 215.266 52.0637 215.44 52.7457C215.613 53.4277 215.876 53.9362 216.235 54.2772C216.6 54.6122 216.989 54.7857 217.414 54.7857C217.928 54.7857 218.359 54.5524 218.712 54.0917C219.071 53.6311 219.31 52.9491 219.436 52.0458Z" fill="white"/>
<path d="M225.328 50.5743C225.328 48.7916 225.633 47.3917 226.249 46.3807C226.866 45.3697 227.661 44.8672 228.636 44.8672C229.276 44.8672 229.851 45.1065 230.365 45.5791C230.874 46.0517 231.269 46.7157 231.538 47.5652C231.807 48.4087 231.939 49.3778 231.939 50.4486C231.939 51.5434 231.801 52.5185 231.514 53.38C231.233 54.2414 230.832 54.8935 230.311 55.3362C229.791 55.7788 229.235 56.0002 228.63 56.0002C227.978 56.0002 227.398 55.7549 226.889 55.2644C226.375 54.7798 225.986 54.1098 225.723 53.2603C225.46 52.4168 225.328 51.5195 225.328 50.5743ZM226.267 50.5982C226.267 51.8964 226.495 52.9133 226.943 53.6611C227.392 54.4089 227.954 54.7858 228.63 54.7858C229.318 54.7858 229.881 54.4089 230.329 53.6551C230.772 52.8954 230.999 51.8305 230.999 50.4427C230.999 49.5692 230.898 48.8035 230.712 48.1515C230.521 47.4994 230.24 46.9909 229.875 46.632C229.51 46.273 229.097 46.0936 228.642 46.0936C227.99 46.0936 227.434 46.4345 226.967 47.1285C226.501 47.8224 226.267 48.977 226.267 50.5982Z" fill="white"/>
<path d="M237.28 56.0004V45.2383H238.327L242.377 53.6852V45.2383H243.352V56.0004H242.305L238.255 47.5415V56.0004H237.28Z" fill="white"/>
<path d="M251.189 56.0004V46.5065H248.916V45.2383H254.396V46.5065H252.105V56.0004H251.189Z" fill="white"/>
<path d="M259.924 56.0004V45.2383H262.993C263.609 45.2383 264.076 45.334 264.399 45.5314C264.716 45.7228 264.973 46.0638 265.164 46.5544C265.356 47.0449 265.457 47.5833 265.457 48.1756C265.457 48.9413 265.296 49.5814 264.979 50.1078C264.662 50.6283 264.171 50.9633 263.507 51.1069C263.746 51.2864 263.932 51.4598 264.058 51.6393C264.327 52.0222 264.578 52.5008 264.817 53.0691L266.02 56.0004H264.871L263.956 53.763C263.687 53.1169 263.465 52.6204 263.292 52.2794C263.118 51.9384 262.969 51.6931 262.831 51.5615C262.694 51.4239 262.556 51.3282 262.412 51.2744C262.305 51.2385 262.137 51.2205 261.904 51.2205H260.839V56.0004H259.924ZM260.839 49.9882H262.807C263.226 49.9882 263.555 49.9224 263.788 49.7848C264.028 49.6532 264.207 49.4378 264.327 49.1387C264.446 48.8456 264.512 48.5225 264.512 48.1756C264.512 47.6671 264.393 47.2483 264.153 46.9193C263.914 46.5903 263.543 46.4288 263.029 46.4288H260.839V49.9882Z" fill="white"/>
<path d="M270.877 50.5743C270.877 48.7916 271.182 47.3917 271.798 46.3807C272.414 45.3697 273.21 44.8672 274.185 44.8672C274.825 44.8672 275.4 45.1065 275.914 45.5791C276.428 46.0517 276.817 46.7157 277.087 47.5652C277.356 48.4087 277.487 49.3778 277.487 50.4486C277.487 51.5434 277.35 52.5185 277.063 53.38C276.781 54.2414 276.381 54.8935 275.866 55.3362C275.34 55.7788 274.783 56.0002 274.185 56.0002C273.533 56.0002 272.953 55.7549 272.438 55.2644C271.924 54.7798 271.535 54.1098 271.272 53.2603C271.009 52.4168 270.877 51.5195 270.877 50.5743ZM271.816 50.5982C271.816 51.8964 272.043 52.9133 272.492 53.6611C272.941 54.4089 273.503 54.7858 274.179 54.7858C274.867 54.7858 275.435 54.4089 275.878 53.6551C276.321 52.8954 276.548 51.8305 276.548 50.4427C276.548 49.5692 276.452 48.8035 276.261 48.1515C276.07 47.4994 275.794 46.9909 275.429 46.632C275.059 46.273 274.652 46.0936 274.191 46.0936C273.545 46.0936 272.989 46.4345 272.522 47.1285C272.055 47.8224 271.816 48.977 271.816 50.5982Z" fill="white"/>
<path d="M282.656 56.0004V45.2383H283.572V54.7321H286.981V56.0004H282.656Z" fill="white"/>
</svg>
