<svg width="120" height="100" viewBox="0 0 108 56" fill="none" xmlns="http://www.w3.org/2000/svg">
<path d="M70.3197 20.2022C70.3197 8.58353 78.958 0.322266 89.5541 0.322266C99.9636 0.322266 106.759 7.48955 106.759 17.2813C106.759 25.5807 100.912 31.7462 92.6504 31.7462C85.1701 31.7462 79.9694 26.479 79.9694 19.3678C79.9694 12.9565 84.5466 8.4602 90.0149 8.4602C94.6117 8.4602 97.2497 11.0769 97.2497 14.781C97.2497 17.1684 95.7324 19.6105 92.3747 20.1655C93.6192 21.3715 94.9353 22.5012 96.3158 23.5485C96.3158 23.5485 93.8801 25.2545 93.8723 25.2597C92.3581 24.2998 88.747 21.1767 87.2395 19.0192L89.5601 17.3943C91.7447 18.0061 93.8761 16.8562 93.8761 14.7949C93.8761 12.9967 92.498 11.8115 89.9812 11.8115C86.6319 11.8115 83.8506 14.755 83.8506 19.1515C83.8506 24.1398 87.466 27.6459 92.5853 27.6459C97.9369 27.6459 102.063 23.621 102.063 17.424C102.063 10.4968 97.3907 5.13104 89.7816 5.13104C81.9921 5.13104 75.9172 11.4012 75.9172 19.6793C75.8897 22.3251 76.4502 24.9439 77.5583 27.3466L72.7235 30.7316C71.1228 27.4535 70.3002 23.8502 70.3197 20.2022Z" fill="#E1E1E1"/>
<path d="M4.27058 40.6516H4.2856C5.02557 38.9705 6.25112 37.8813 8.36798 37.8813C9.38083 37.8688 10.3799 38.117 11.2692 38.6019L9.25564 42.3205C8.73478 42.0835 8.16623 41.97 7.59428 41.9888C7.13733 41.9682 6.68188 42.0544 6.26407 42.2405C5.84628 42.4268 5.47764 42.7078 5.18744 43.0614C4.53547 43.8548 4.30063 44.6549 4.30063 46.9407V54.7809H0.1875V38.2799H4.27058V40.6516Z" fill="white"/>
<path fill-rule="evenodd" clip-rule="evenodd" d="M19.0152 55.1791C13.5467 55.1791 10.4141 52.0708 10.4141 46.61C10.4141 42.1653 12.9081 37.8809 18.3117 37.8809C23.428 37.8809 25.1349 41.6539 25.1349 45.8103C25.1349 46.6763 25.1079 47.3984 25.0392 48.1536H14.6158C15.0499 50.3521 16.5511 51.4769 19.2481 51.5075C20.6537 51.5428 22.0465 51.2325 23.3041 50.6038L24.7108 54.0622C22.9163 54.845 20.9724 55.2263 19.0152 55.1791ZM21.0994 45.1359C21.0994 43.1208 20.1089 41.3298 18.0343 41.3298C16.2177 41.3298 14.9226 42.6046 14.5707 45.1359H21.0994Z" fill="white"/>
<path d="M75.9619 38.2807V35.29L80.0684 32.4141V38.2807H84.4092V41.764H80.0684V49.5268C80.0684 50.7543 80.597 51.423 81.8189 51.423C82.441 51.4112 83.0497 51.24 83.5868 50.926L84.9655 54.4117C83.815 54.9317 82.5652 55.195 81.3026 55.1837C79.5772 55.1837 78.1932 54.8063 77.2952 53.8832C76.3955 52.9586 75.9618 51.7114 75.9618 49.8438V41.764H70.3198V49.5705C70.3198 50.7543 70.8485 51.423 72.0705 51.423C72.6926 51.4112 73.3012 51.24 73.8383 50.926L75.2173 54.4117C74.0667 54.9315 72.8167 55.195 71.5543 55.1837C69.8286 55.1837 68.4447 54.8063 67.547 53.8832C66.6472 52.9586 66.2136 51.7114 66.2136 49.8438V41.764H63.6768V38.2807H66.2136V35.2895L70.3198 32.4141V38.2807H75.9619Z" fill="white"/>
<path d="M62.0253 54.7803H57.8984V38.2812H62.0253V54.7803Z" fill="white"/>
<path d="M57.8173 35.2827C57.534 34.8586 57.3828 34.36 57.3828 33.85C57.3829 33.1661 57.6547 32.5103 58.1382 32.0268C58.6217 31.5432 59.2776 31.2716 59.9615 31.2715C60.4715 31.2715 60.9701 31.4227 61.3941 31.7061C61.8183 31.9894 62.1488 32.3922 62.3439 32.8633C62.5391 33.3346 62.5902 33.8531 62.4906 34.3533C62.3912 34.8535 62.1456 35.313 61.7849 35.6737C61.4243 36.0343 60.9647 36.2798 60.4645 36.3794C59.9643 36.4789 59.4458 36.4277 58.9746 36.2326C58.5034 36.0373 58.1007 35.7068 57.8173 35.2827Z" fill="white"/>
<path d="M41.6738 54.7796V33.4112L45.8176 30.5098V44.3231L51.0084 38.2807H56.3334L49.7328 45.5852L56.2517 54.7796H51.0533L45.8176 47.0682V54.7796H41.6738Z" fill="white"/>
<path d="M34.9803 55.1783C36.6867 55.2197 38.3799 54.8685 39.9291 54.1517L38.5329 50.6221C37.5136 51.2144 36.3496 51.5113 35.1712 51.4796C32.5646 51.4711 30.7673 49.8615 30.7673 46.529C30.7673 43.4563 32.3783 41.5793 35.2076 41.5793C36.3732 41.5575 37.523 41.8538 38.5329 42.4365L39.9643 38.9224C38.3793 38.1961 36.6497 37.8397 34.9067 37.88C29.8026 37.88 26.6191 41.4297 26.6191 46.6092C26.6191 52.0564 29.9581 55.1783 34.9803 55.1783Z" fill="white"/>
</svg>
