<svg width="124" height="53" viewBox="0 0 124 53" fill="none" xmlns="http://www.w3.org/2000/svg">
<path d="M16.4859 24.0272H19.5315V24.153C19.5315 24.6075 19.6458 24.9241 19.8735 25.1043C20.1013 25.2836 20.504 25.3737 21.0823 25.3737H21.8776C22.36 25.3737 22.6975 25.3047 22.8915 25.1676C23.0848 25.0304 23.1814 24.7877 23.1814 24.4395V23.8925C23.1814 23.5954 23.1047 23.3819 22.9505 23.2529C22.7964 23.1238 22.4497 23.0256 21.909 22.9583L19.3328 22.6636C18.3734 22.5516 17.6724 22.2335 17.2299 21.7083C16.7873 21.184 16.5657 20.4056 16.5657 19.3732V18.5989C16.5657 18.0153 16.6531 17.495 16.828 17.0381C17.0028 16.5811 17.2575 16.2061 17.5911 15.9148C17.8772 15.6623 18.2246 15.4846 18.6326 15.3807C19.0406 15.2768 19.6504 15.2249 20.461 15.2249H22.3615C23.5434 15.2249 24.4476 15.4773 25.0727 15.9821C25.6985 16.487 26.0107 17.2166 26.0107 18.1695V19.0274H22.9651V18.8927C22.9651 18.5169 22.8815 18.2564 22.7143 18.1103C22.5471 17.9642 22.2465 17.8911 21.8116 17.8911H21.08C20.5761 17.8911 20.2302 17.9544 20.0423 18.0802C19.8544 18.206 19.76 18.4236 19.76 18.732V19.2539C19.76 19.7141 20.1865 19.9941 21.0401 20.0956L23.3854 20.3732C24.3978 20.4965 25.1532 20.809 25.6517 21.3114C26.1503 21.8138 26.3995 22.5192 26.3995 23.4274V24.6311C26.3995 25.6692 26.0943 26.4995 25.4853 27.122C24.8756 27.7446 24.0565 28.0562 23.028 28.0562H20.4441C19.0606 28.0562 18.0551 27.8038 17.427 27.299C16.7988 26.7941 16.4844 25.9922 16.4844 24.8924V24.0256L16.4859 24.0272Z" fill="#DDE1E2"/>
<path d="M29.252 31.5748V18.7597H32.2975V19.9293C32.6365 19.4415 33.0315 19.0835 33.4825 18.8563C33.9327 18.629 34.4711 18.5154 35.0969 18.5154C36.2151 18.5154 37.1216 18.9602 37.8165 19.8489C38.5106 20.7385 38.858 21.9065 38.858 23.3536C38.858 24.8008 38.5121 26.0158 37.8203 26.8965C37.1285 27.7771 36.1998 28.2179 35.0332 28.2179C34.4979 28.2179 34.0316 28.1221 33.6335 27.9322C33.2363 27.7414 32.8888 27.4468 32.592 27.0483V31.5757H29.2527L29.252 31.5748ZM35.4221 23.3544C35.4221 22.6361 35.3078 22.1037 35.08 21.7555C34.8522 21.4081 34.5048 21.2336 34.0385 21.2336C33.5346 21.2336 33.168 21.4032 32.9372 21.7425C32.7063 22.0818 32.5913 22.6191 32.5913 23.3536C32.5913 24.0435 32.7094 24.5614 32.9448 24.9063C33.1803 25.2513 33.5346 25.4242 34.0063 25.4242C34.478 25.4242 34.8254 25.2505 35.0639 24.9023C35.3024 24.5549 35.4221 24.0387 35.4221 23.3536V23.3544Z" fill="#DDE1E2"/>
<path d="M52.0391 27.9061V18.7596H55.2119V20.4259C55.4397 19.7644 55.7672 19.2799 56.1936 18.9747C56.6201 18.6687 57.1884 18.5161 57.8993 18.5161H58.2092V22.1426C58.0819 22.1312 57.9599 22.1215 57.8434 22.1134C57.7268 22.1052 57.6156 22.1004 57.5097 22.1004C56.8156 22.1004 56.3048 22.2659 55.9789 22.5971C55.6529 22.9282 55.4896 23.4469 55.4896 24.1538V27.9069H52.0391V27.9061Z" fill="#DDE1E2"/>
<path d="M64.654 24.515C64.654 24.8234 64.7384 25.041 64.9086 25.1668C65.0781 25.2934 65.3803 25.3559 65.8152 25.3559C65.9425 25.3559 66.0391 25.3543 66.1051 25.3518C66.171 25.3494 66.2362 25.3445 66.2999 25.3388V27.9726C65.8758 28.0002 65.49 28.0213 65.1433 28.036C64.7959 28.0498 64.4715 28.0571 64.1693 28.0571C63.0772 28.0571 62.3156 27.8639 61.883 27.4767C61.4512 27.0896 61.2349 26.411 61.2349 25.4403V20.8545H60.0186V18.7596H61.2349V15.9326H64.654V18.7596H66.2684V20.8545H64.654V24.515Z" fill="#DDE1E2"/>
<path d="M72.4432 15.2087H68.9766V17.8255H72.4432V15.2087Z" fill="#DDE1E2"/>
<path d="M72.4432 18.7598H68.9766V27.9063H72.4432V18.7598Z" fill="#DDE1E2"/>
<path d="M75.9468 27.9062V20.8213H74.873V18.7597H75.9468V18.1875C75.9468 17.1664 76.1868 16.4149 76.6662 15.9327C77.1455 15.4506 77.8918 15.2087 78.9041 15.2087H80.8284V17.4976C80.7862 17.4976 80.7249 17.4952 80.6459 17.4895C80.5661 17.4838 80.5078 17.4814 80.471 17.4814C80.0523 17.4814 79.7608 17.556 79.5967 17.7046C79.4326 17.8531 79.3505 18.1128 79.3505 18.4829C79.3505 18.5113 79.3528 18.5544 79.3582 18.6136C79.3635 18.6729 79.3658 18.7216 79.3658 18.7605H80.8292V20.8221H79.3658V27.907H75.9468V27.9062Z" fill="#DDE1E2"/>
<path d="M83.218 31.5076V28.7983H84.1958C84.5294 28.7983 84.771 28.7382 84.919 28.6173C85.0671 28.4963 85.1415 28.2991 85.1415 28.0239C85.1415 27.9063 85.1269 27.7748 85.0978 27.6287C85.0686 27.4826 85.0226 27.317 84.9589 27.1319L82.0645 18.7598H85.5472L87.0581 24.305L88.5291 18.7598H91.7649L88.9663 27.8559C88.648 28.877 88.4033 29.5766 88.2307 29.9557C88.0582 30.3347 87.8741 30.622 87.6778 30.8185C87.4178 31.0936 87.1056 31.2884 86.7398 31.4029C86.374 31.5181 85.7803 31.5757 84.9589 31.5757C84.7204 31.5757 84.4527 31.5701 84.1559 31.5587C83.8591 31.5473 83.5462 31.5303 83.218 31.5084V31.5076Z" fill="#DDE1E2"/>
<path d="M49.8602 22.4658C49.5074 22.2921 49.1093 22.1655 48.6438 22.081C48.2526 22.0096 47.807 21.965 47.2425 21.9414C47.1873 21.939 47.1321 21.9366 47.0761 21.935C45.5138 21.8708 43.8979 21.8051 43.2598 20.2646C44.3787 19.4383 45.8176 19.1096 47.2448 19.4878C49.0088 19.9545 50.3065 21.3814 50.7659 23.1094C50.4967 22.8448 50.1991 22.6338 49.8602 22.4658Z" fill="#DDE1E2"/>
<path d="M50.8496 24.8536C50.8872 25.145 50.8741 25.4477 50.8036 25.748C50.8028 25.7529 50.8013 25.7578 50.8005 25.7626C50.6034 26.597 50.2245 27.3332 49.7199 27.9354C49.3264 28.4054 48.7313 28.6318 48.1468 28.5239C48.1361 28.5223 48.1254 28.5198 48.1146 28.5174C47.8623 28.4663 47.6261 28.3656 47.4014 28.2317C48.8716 27.5921 50.1125 26.4079 50.8488 24.8528L50.8496 24.8536Z" fill="#DDE1E2"/>
<path d="M48.1964 29.1586C47.1986 29.6732 46.0313 29.8323 44.8709 29.5255C44.1154 29.3258 43.4459 28.95 42.8906 28.4492C43.0026 28.4857 43.1161 28.519 43.2312 28.5491C44.4161 28.8632 45.6064 28.821 46.7016 28.4882C47.0897 28.7901 47.5176 29.0279 48.0039 29.1269C48.0683 29.1399 48.132 29.1505 48.1964 29.1578V29.1586Z" fill="#DDE1E2"/>
<path d="M42.8907 28.4491C42.4858 28.0847 42.1422 27.6537 41.8707 27.1773C41.6651 26.8161 41.6552 26.3632 41.8569 25.9996C41.8776 25.9622 41.8998 25.9265 41.9244 25.8933C42.1046 25.6408 42.3293 25.5069 42.6123 25.4842C43.3356 25.4257 44.3564 26.1148 45.0482 26.825C45.1947 26.976 45.3427 27.1383 45.4991 27.3096C45.8657 27.7122 46.2577 28.1432 46.7033 28.4897C45.608 28.8225 44.4177 28.8639 43.2328 28.5506C43.1178 28.5206 43.0042 28.4865 42.8923 28.4508L42.8907 28.4491Z" fill="#DDE1E2"/>
<path d="M47.4025 28.2316C46.8595 27.9078 46.3848 27.3867 45.9216 26.877C45.762 26.7017 45.6109 26.5353 45.4568 26.377C45.2812 26.1968 44.8072 25.7366 44.2028 25.3665C43.5954 24.994 43.0447 24.8243 42.5669 24.8633C42.3499 24.8811 42.1482 24.942 41.9664 25.0451C41.7723 25.1555 41.6006 25.3146 41.4556 25.5175C41.4027 25.5913 41.3551 25.6709 41.3129 25.7553C41.125 24.9583 41.1135 24.1028 41.3152 23.2505C41.5607 22.2124 42.0868 21.3269 42.7863 20.6614C42.9642 21.0388 43.2027 21.3602 43.4972 21.6175C43.8009 21.8829 44.1599 22.0826 44.5955 22.2287C45.3694 22.4876 46.2253 22.5225 47.0528 22.5566C47.108 22.559 47.1633 22.5615 47.2185 22.5631C48.1219 22.6012 48.8536 22.6978 49.4603 22.9575C50.2295 23.2879 50.7434 24.0249 50.8492 24.8536C50.1129 26.4079 48.872 27.5929 47.4018 28.2325L47.4025 28.2316Z" fill="#DDE1E2"/>
<path d="M22.3969 41.4965C22.4468 41.5103 22.4997 41.5225 22.5511 41.5355L22.7068 41.5736L22.785 41.5923L22.8241 41.6012L22.8563 41.6085C22.9369 41.6256 23.0174 41.6426 23.0987 41.6596L23.1593 41.6726L23.1746 41.6759L23.2253 41.6824L23.2621 41.6872L23.4101 41.7075C23.5098 41.7205 23.6087 41.7335 23.7084 41.7465C23.7583 41.7546 23.8074 41.7554 23.8572 41.7595L24.006 41.7692C24.1057 41.7749 24.2054 41.7814 24.3044 41.7871C24.4025 41.7871 24.5015 41.7871 24.5996 41.7871H24.7477C24.7967 41.7854 24.8474 41.7871 24.8957 41.783L25.1886 41.7652C25.9694 41.7108 26.7249 41.5647 27.4496 41.3699C28.1744 41.1751 28.8677 40.93 29.5357 40.6686C29.8701 40.5363 30.1953 40.4032 30.5205 40.2628C30.6785 40.1938 30.8365 40.1256 30.9945 40.0574L31.1087 40.0071L31.1663 39.982L31.1808 39.9755C31.1808 39.9755 31.1977 39.9673 31.2016 39.9657L31.2315 39.9519C31.3112 39.9146 31.391 39.8773 31.4708 39.8407C32.7516 39.2555 33.9779 38.5973 35.1322 37.9041C36.2841 37.2085 37.364 36.4772 38.3618 35.75C38.4868 35.6591 38.6103 35.5682 38.7338 35.4789L38.8258 35.4116L38.9163 35.3426C38.9761 35.2971 39.036 35.2508 39.0958 35.2054C39.3335 35.0228 39.5705 34.845 39.7983 34.6648C40.0253 34.4838 40.2485 34.3053 40.4679 34.1308C40.5783 34.0439 40.6841 33.9546 40.79 33.867C40.8958 33.7793 41.0001 33.6925 41.1037 33.6056C41.2072 33.5196 41.31 33.4344 41.4112 33.35C41.5125 33.2647 41.6099 33.1795 41.708 33.0951C41.9028 32.9263 42.0938 32.7615 42.2794 32.6008C42.4627 32.4377 42.6406 32.2778 42.814 32.1227C42.9873 31.9677 43.156 31.8176 43.3156 31.6682C43.6369 31.3703 43.9368 31.0976 44.216 30.8257C44.4522 30.5985 44.6823 30.3801 44.8732 30.1943C44.7459 30.1715 44.6178 30.1431 44.4898 30.109C43.6032 29.8745 42.8301 29.4061 42.2134 28.782C42.1321 28.8737 42.0501 28.9662 41.9642 29.0612L41.4703 29.6123L40.9503 30.1732C40.9204 30.2048 40.8905 30.2373 40.8613 30.2697C40.8023 30.3339 40.7424 30.3988 40.6788 30.4645L40.0744 31.0928C39.9924 31.178 39.908 31.2656 39.8213 31.3509L39.2147 31.9572C39.0758 32.0943 38.9317 32.2323 38.7921 32.3654C38.7192 32.4352 38.6464 32.505 38.572 32.5765L38.3273 32.811L37.8963 33.2063C36.8985 34.1202 35.8907 34.97 34.8998 35.733C33.7593 36.6071 32.5959 37.4033 31.447 38.0965L31.1969 38.2499C31.1862 38.2564 31.1762 38.2629 31.1655 38.2686L30.5427 38.6297C30.2383 38.8051 29.9299 38.9755 29.5994 39.1524C28.8455 39.5534 28.1989 39.857 27.5654 40.1086C26.7647 40.4259 26.02 40.6475 25.2884 40.7855L25.0023 40.8366C24.9501 40.8472 24.9018 40.8529 24.8596 40.8577L24.3864 40.9145L23.8741 40.9438C23.8334 40.9462 23.7836 40.9486 23.7276 40.947L23.1999 40.9389L22.8372 40.9072L22.469 40.8634C22.4269 40.8577 22.3847 40.8529 22.3448 40.8464L21.9644 40.7749L21.5633 40.6759L21.5556 40.6735C21.1023 40.5436 20.679 40.3707 20.2978 40.1589C20.0363 40.0144 19.7901 39.8488 19.5615 39.6646C19.5815 39.6906 19.6006 39.7165 19.6206 39.7417C19.8944 40.0858 20.2203 40.3902 20.5716 40.641C20.9236 40.8926 21.2987 41.0915 21.6798 41.2498C21.7749 41.2855 21.8708 41.322 21.9659 41.3577L22.038 41.3845L22.1093 41.4072L22.2528 41.4519L22.3969 41.4965Z" fill="#DDE1E2"/>
<path d="M40.7442 28.8762L41.235 28.3283C41.3462 28.2041 41.4528 28.0848 41.5556 27.968C41.0172 27.149 40.6943 26.175 40.6483 25.1523C40.6322 25.1734 40.6169 25.1945 40.6008 25.2157C40.5195 25.3236 40.4336 25.438 40.3431 25.5598C40.1559 25.8114 39.9726 26.0476 39.764 26.3211C39.5608 26.5914 39.3222 26.8868 39.0738 27.2018C38.9495 27.3608 38.8184 27.5199 38.6834 27.6847C38.5484 27.8495 38.4096 28.0191 38.2669 28.1928C38.122 28.364 37.9732 28.5394 37.8206 28.7187C37.7439 28.808 37.6679 28.9005 37.5889 28.9906C37.5099 29.0807 37.4294 29.1716 37.3481 29.2634C37.2668 29.3551 37.1848 29.4484 37.1019 29.5426C37.0191 29.6367 36.9355 29.7325 36.8496 29.825C36.6778 30.0125 36.5022 30.2041 36.3242 30.3989C36.1448 30.5928 35.9584 30.7836 35.7713 30.9808C35.7245 31.0303 35.6769 31.0798 35.6301 31.1293L35.5588 31.204L35.486 31.2771C35.3886 31.3745 35.2911 31.4727 35.1922 31.5709C34.403 32.3606 33.5463 33.1633 32.6229 33.9425C31.6987 34.7193 30.7086 35.4733 29.6617 36.1713L29.4661 36.3044L29.4416 36.3215C29.4362 36.3247 29.4447 36.3215 29.4347 36.3263L29.4217 36.3345L29.3687 36.3685L29.2629 36.4367C29.1264 36.5244 28.9891 36.612 28.8518 36.6997C28.5849 36.8701 28.3111 37.0373 28.0419 37.1981C27.5012 37.5178 26.9605 37.8125 26.4183 38.0584C25.8768 38.3043 25.3338 38.5024 24.7969 38.6322L24.596 38.6801C24.5623 38.6891 24.5293 38.6931 24.4963 38.6996L24.3966 38.7167L24.1964 38.7524L23.9993 38.7735L23.9004 38.7848C23.8674 38.7881 23.8337 38.7938 23.8014 38.7938L23.6066 38.8011L23.5085 38.8051H23.4839C23.4939 38.8084 23.444 38.8035 23.5031 38.81H23.4878L23.4256 38.8067C23.3436 38.8027 23.2607 38.7994 23.1787 38.7954L22.9992 38.7824C22.9701 38.78 22.9417 38.78 22.9118 38.7767L22.8174 38.7637L22.7223 38.7516L22.6748 38.7459L22.6295 38.7369C22.5682 38.7256 22.5076 38.7142 22.4462 38.7029C22.2085 38.6485 21.9868 38.5746 21.7851 38.4788C21.3825 38.2873 21.0588 38.0065 20.808 37.6096C20.683 37.4123 20.5772 37.1875 20.492 36.944C20.4061 36.7013 20.344 36.4383 20.2972 36.1681C20.2512 35.8978 20.2205 35.6186 20.206 35.3369C20.1922 35.0545 20.1899 34.7712 20.1991 34.488C20.219 33.9214 20.2765 33.3589 20.3594 32.8151C20.4407 32.2705 20.5442 31.7438 20.6592 31.2389C20.8893 30.2292 21.1601 29.3104 21.4239 28.5028C20.3356 30.4881 19.7366 32.1423 19.4505 33.5075C19.278 34.3605 19.1852 35.2436 19.2657 36.1145C19.3562 37.0893 19.6821 38.0535 20.3402 38.7613C20.9407 39.4074 21.6609 39.6419 22.4992 39.7994C22.5275 39.8035 22.5574 39.8075 22.5866 39.8116L22.8658 39.8457L23.2285 39.8798L23.7447 39.8879H23.7554C23.7715 39.8887 23.7961 39.8879 23.8221 39.8862C23.836 39.8862 23.8498 39.8846 23.8628 39.8838L24.2885 39.8603L24.5638 39.8278L24.744 39.8059C24.7732 39.8026 24.8008 39.7986 24.8192 39.7953L25.1137 39.7426C25.7832 39.616 26.4697 39.4114 27.2113 39.1176C27.8103 38.8798 28.4254 38.59 29.1463 38.2077C29.4661 38.0365 29.766 37.8709 30.0605 37.7013L30.6764 37.345C30.6833 37.3401 30.6894 37.3368 30.6902 37.336L30.9456 37.1794C32.0669 36.5033 33.1981 35.729 34.3087 34.8775C35.2758 34.1324 36.2613 33.3013 37.2377 32.4077L37.6564 32.0238L37.8957 31.7949C37.9701 31.7235 38.0445 31.652 38.1181 31.5814C38.2608 31.4451 38.3958 31.316 38.5261 31.187L39.1336 30.5799C39.2126 30.5019 39.2885 30.4224 39.369 30.3388L39.9719 29.7122C40.0294 29.6513 40.0861 29.5905 40.1421 29.5296C40.1728 29.4963 40.2035 29.463 40.2334 29.4314L40.7434 28.8811L40.7442 28.8762Z" fill="#DDE1E2"/>
<path d="M93.5668 20.4349C93.4978 17.9634 94.9695 15.957 97.3003 15.5666C99.4209 15.2111 102.173 15.9034 102.756 18.396C103.665 22.283 100.313 24.834 98.3878 27.5555C98.3088 27.6675 98.1861 27.799 98.1854 27.9434H105.481V31.0602H93.701V28.2624L98.9209 21.3902C99.5452 20.6077 100.098 18.8773 98.6824 18.6703C97.502 18.4983 96.8578 19.2239 96.8478 20.4349H93.5683H93.5668Z" fill="#DDE1E2"/>
<path d="M108.627 15.6177L104.143 24.614H106.285V21.1434H109.565V24.5085L109.665 24.6148H110.77V27.4483H109.565V30.9546C109.565 30.9765 109.649 31.009 109.631 31.061H106.284V27.2356H99.457C100.686 25.4387 102.522 23.8852 103.186 21.7254C103.518 20.6459 103.595 19.5696 103.433 18.4511L104.879 15.6185H108.627L108.627 15.6177Z" fill="#DDE1E2"/>
</svg>
