<svg width="214" height="56" viewBox="0 0 214 56" fill="none" xmlns="http://www.w3.org/2000/svg">
<g clip-path="url(#clip0_1091_2068)">
<path d="M21.404 5.3504H13.6885V19.9104H8.30624V5.3504H0.55957V0.963733H21.404V5.3504ZM23.9862 19.9415V0.963733H42.1862V5.0704H29.3373V8.30595H41.4085V12.1326H29.3373V15.8348H42.8085V19.9415H23.9862ZM45.1107 10.8571C45.1107 8.49262 45.5773 6.56373 46.4796 5.0704C47.3818 3.57707 48.7818 2.48818 50.5862 1.77262C52.3907 1.05707 54.6307 0.714844 57.3062 0.714844C59.9818 0.714844 58.9862 0.714844 59.7018 0.777066C60.4173 0.808177 61.0707 0.870399 61.6929 0.963733C62.3151 1.05707 62.9062 1.1504 63.4974 1.27484C64.0885 1.39929 64.6796 1.55484 65.3329 1.7104L64.244 5.59929C63.4662 5.44373 62.6885 5.31929 61.9418 5.19484C61.1951 5.10151 60.4796 5.00818 59.7951 4.97707C59.0796 4.91484 58.3951 4.88373 57.6796 4.88373C56.4662 4.88373 55.4085 5.00818 54.5062 5.22595C53.6351 5.44373 52.8885 5.78595 52.3285 6.25262C51.7685 6.71929 51.364 7.34151 51.084 8.08818C50.804 8.83484 50.6796 9.73707 50.6796 10.7948C50.6796 11.8526 50.804 12.5371 51.084 13.2215C51.364 13.906 51.7685 14.466 52.3285 14.9015C52.8885 15.3371 53.604 15.6482 54.444 15.866C55.284 16.0837 56.3107 16.1771 57.4929 16.1771C58.6751 16.1771 59.9507 16.1148 61.2573 15.9593C62.5329 15.8037 63.7773 15.586 64.9285 15.306L65.8929 19.0704C65.2707 19.2571 64.6485 19.4126 64.0262 19.5682C63.404 19.7237 62.7196 19.8482 61.9729 19.9415C61.2262 20.0348 60.4485 20.1282 59.5774 20.1904C58.7062 20.2526 57.7418 20.2837 56.684 20.2837C54.8173 20.2837 53.1373 20.0971 51.7062 19.7548C50.2751 19.4126 49.0618 18.8526 48.0974 18.106C47.1329 17.3593 46.3862 16.3948 45.8885 15.2126C45.3907 14.0304 45.1418 12.5993 45.1418 10.9193L45.1107 10.8571ZM68.8174 19.9415V0.963733H74.2307V9.05262H84.6529V0.963733H90.0662V19.9415H84.6529V13.5015H74.2307V19.9415H68.8174Z" fill="#C8C6C6"/>
<path fill-rule="evenodd" clip-rule="evenodd" d="M46.1373 36.3694H60.604C63.9018 36.3694 66.5773 38.9516 66.5773 42.125V55.3161H44.924C42.9329 55.3161 41.284 53.7294 41.284 51.8005V47.2272C41.284 45.4228 42.8085 43.9605 44.6751 43.9605H56.684L55.4085 46.6361H46.5729C46.1685 46.6361 45.764 46.9161 45.764 47.3516V50.9605C45.764 51.365 46.1996 51.6761 46.5729 51.6761H61.8796V43.0272C61.8796 41.3472 60.3862 40.0716 58.7374 40.0716H44.364L46.1062 36.4005L46.1373 36.3694ZM165.075 29.4628V55.285H143.982C141.991 55.285 140.342 53.6983 140.342 51.7694V42.0939C140.342 38.9205 143.017 36.3383 146.315 36.3383H158.355L156.582 40.0094H148.182C146.533 40.0094 145.04 41.285 145.04 42.965V50.8983C145.04 51.3028 145.475 51.6139 145.848 51.6139H160.408V29.4628H165.075ZM90.9374 55.285H95.604V42.0939C95.604 38.9205 92.9285 36.3383 89.6307 36.3383H79.7062L77.9329 40.0094H87.764C89.4129 40.0094 90.9062 41.285 90.9062 42.965V55.285H90.9374ZM71.4929 29.4628V55.285H76.1596V29.4628H71.4929ZM32.5107 55.285H37.1773V42.0939C37.1773 38.9205 34.5018 36.3383 31.204 36.3383H0.55957V55.285H5.22624V40.725C5.22624 40.3205 5.66179 40.0094 6.03513 40.0094H15.6796C16.084 40.0094 16.4885 40.2894 16.4885 40.725V55.285H21.1551V40.725C21.1551 40.3205 21.5907 40.0094 21.964 40.0094H29.2751C30.924 40.0094 32.4173 41.285 32.4173 42.965V55.285H32.5107ZM189.466 36.3694H177.737C174.44 36.3694 171.764 38.9516 171.764 42.125V55.3161H176.431V42.9961C176.431 41.3161 177.924 40.0405 179.573 40.0405H187.662L189.435 36.3694H189.466ZM129.64 36.3694C132.937 36.3694 135.613 38.9516 135.613 42.125V55.3161H130.946V42.9961C130.946 41.3161 129.453 40.0405 127.804 40.0405H116.573V55.3161H111.906V36.4005C117.817 36.4005 123.728 36.4005 129.671 36.4005L129.64 36.3694ZM101.391 37.5516L106.057 34.8761V55.285H101.391V37.5516ZM106.088 32.2316V29.4316H101.422V34.9072L106.088 32.2316ZM192.733 36.3694H207.2C210.497 36.3694 213.173 38.9516 213.173 42.125V55.3161H191.52C189.528 55.3161 187.88 53.7294 187.88 51.8005V47.2272C187.88 45.4228 189.404 43.9605 191.271 43.9605H203.28L202.004 46.6361H193.168C192.764 46.6361 192.36 46.9161 192.36 47.3516V50.9605C192.36 51.365 192.795 51.6761 193.168 51.6761H208.475V43.0272C208.475 41.3472 206.982 40.0716 205.333 40.0716H190.96L192.702 36.4005L192.733 36.3694Z" fill="white"/>
</g>
<defs>
<clipPath id="clip0_1091_2068">
<rect width="213.733" height="56" fill="white"/>
</clipPath>
</defs>
</svg>
