<svg width="1280" height="2639" viewBox="0 0 1280 2639" fill="none" xmlns="http://www.w3.org/2000/svg">
<path d="M2351.21 1532.9L708.804 3401.28" stroke="#E63946" stroke-opacity="0.42" stroke-miterlimit="10"/>
<path d="M2344.82 1516.04C2345.11 1523.8 1877.6 2062.88 1873.57 2064.83C1868.5 2067.28 1429.18 2550.28 1426.29 2553.01C1424.6 2554.61 696.082 3369.3 714.406 3392.54" stroke="#E63946" stroke-opacity="0.42" stroke-miterlimit="10"/>
<path d="M2338.44 1499.17C2339.02 1514.69 1877.91 2053.74 1869.85 2057.63C1859.71 2062.54 1419.91 2529.3 1414.13 2534.77C1410.75 2537.97 683.364 3337.32 720.015 3383.79" stroke="#E63946" stroke-opacity="0.42" stroke-miterlimit="10"/>
<path d="M2332.06 1482.3C2332.93 1505.59 1878.21 2044.6 1866.13 2050.44C1850.92 2057.8 1410.64 2508.33 1401.98 2516.53C1396.91 2521.33 670.647 3305.33 725.623 3375.04" stroke="#E63946" stroke-opacity="0.42" stroke-miterlimit="10"/>
<path d="M2325.68 1465.43C2326.85 1496.48 1878.52 2035.45 1862.42 2043.24C1842.14 2053.05 1401.38 2487.35 1389.82 2498.29C1383.06 2504.68 657.933 3273.35 731.233 3366.28" stroke="#E63946" stroke-opacity="0.42" stroke-miterlimit="10"/>
<path d="M2319.3 1448.56C2320.76 1487.38 1878.83 2026.31 1858.7 2036.05C1833.35 2048.31 1392.11 2466.38 1377.67 2480.05C1369.22 2488.05 645.215 3241.37 736.84 3357.54" stroke="#E63946" stroke-opacity="0.42" stroke-miterlimit="10"/>
<path d="M2312.92 1431.69C2314.67 1478.27 1879.14 2017.17 1854.98 2028.85C1824.56 2043.56 1382.84 2445.41 1365.51 2461.81C1355.37 2471.41 632.499 3209.38 742.449 3348.79" stroke="#E63946" stroke-opacity="0.42" stroke-miterlimit="10"/>
<path d="M2306.53 1414.82C2308.57 1469.16 1879.44 2008.03 1851.26 2021.66C1815.77 2038.82 1373.56 2424.44 1353.35 2443.57C1341.52 2454.77 619.775 3177.4 748.051 3340.04" stroke="#E63946" stroke-opacity="0.42" stroke-miterlimit="10"/>
<path d="M2300.15 1397.96C2302.48 1460.06 1879.75 1998.89 1847.54 2014.47C1806.98 2034.08 1364.3 2403.46 1341.19 2425.33C1327.67 2438.13 607.056 3145.42 753.658 3331.29" stroke="#E63946" stroke-opacity="0.42" stroke-miterlimit="10"/>
<path d="M2293.77 1381.09C2296.39 1450.96 1880.06 1989.75 1843.82 2007.27C1798.19 2029.34 1355.03 2382.49 1329.03 2407.1C1313.83 2421.49 594.34 3113.43 759.266 3322.55" stroke="#E63946" stroke-opacity="0.42" stroke-miterlimit="10"/>
<path d="M2287.39 1364.22C2290.3 1441.85 1880.37 1980.61 1840.1 2000.08C1789.4 2024.6 1345.76 2361.52 1316.88 2388.86C1299.98 2404.85 581.623 3081.45 764.874 3313.8" stroke="#E63946" stroke-opacity="0.42" stroke-miterlimit="10"/>
<path d="M2281.01 1347.35C2284.21 1432.74 1880.68 1971.46 1836.38 1992.88C1780.61 2019.85 1336.49 2340.55 1304.72 2370.62C1286.14 2388.21 568.906 3049.47 770.482 3305.05" stroke="#E63946" stroke-opacity="0.42" stroke-miterlimit="10"/>
<path d="M2274.63 1330.48C2278.12 1423.64 1880.98 1962.32 1832.66 1985.69C1771.82 2015.11 1327.22 2319.57 1292.56 2352.38C1272.29 2371.57 556.183 3017.48 776.086 3296.3" stroke="#E63946" stroke-opacity="0.42" stroke-miterlimit="10"/>
<path d="M2268.25 1313.61C2272.03 1414.53 1881.29 1953.17 1828.94 1978.49C1763.03 2010.36 1317.95 2298.59 1280.41 2334.13C1258.44 2354.93 543.467 2985.49 781.694 3287.55" stroke="#E63946" stroke-opacity="0.42" stroke-miterlimit="10"/>
<path d="M2261.86 1296.75C2265.93 1405.43 1881.6 1944.04 1825.22 1971.3C1754.24 2005.63 1308.68 2277.63 1268.25 2315.9C1244.59 2338.29 530.748 2953.52 787.3 3278.8" stroke="#E63946" stroke-opacity="0.42" stroke-miterlimit="10"/>
<path d="M2255.48 1279.88C2259.84 1396.33 1881.9 1934.9 1821.5 1964.11C1745.45 2000.89 1299.41 2256.66 1256.09 2297.66C1230.74 2321.66 518.026 2921.54 792.904 3270.06" stroke="#E63946" stroke-opacity="0.42" stroke-miterlimit="10"/>
<path d="M2249.1 1263.01C2253.76 1387.21 1882.22 1925.75 1817.79 1956.91C1736.67 1996.14 1290.15 2235.68 1243.94 2279.42C1216.9 2305.01 505.314 2889.55 798.517 3261.3" stroke="#E63946" stroke-opacity="0.42" stroke-miterlimit="10"/>
<path d="M2242.72 1246.14C2247.66 1378.11 1882.52 1916.61 1814.06 1949.72C1727.88 1991.4 1280.88 2214.71 1231.78 2261.18C1203.05 2288.37 492.593 2857.57 804.121 3252.56" stroke="#E63946" stroke-opacity="0.42" stroke-miterlimit="10"/>
<path d="M2236.33 1229.27C2241.57 1369 1882.82 1907.46 1810.34 1942.52C1719.09 1986.65 1271.61 2193.73 1219.62 2242.94C1189.2 2271.73 479.874 2825.58 809.727 3243.8" stroke="#E63946" stroke-opacity="0.42" stroke-miterlimit="10"/>
<path d="M2229.96 1212.4C2235.48 1359.9 1883.14 1898.32 1806.63 1935.32C1710.3 1981.91 1262.34 2172.76 1207.47 2224.7C1175.36 2255.09 467.16 2793.6 815.338 3235.06" stroke="#E63946" stroke-opacity="0.42" stroke-miterlimit="10"/>
<path d="M2223.58 1195.53C2229.39 1350.79 1883.45 1889.18 1802.91 1928.13C1701.52 1977.17 1253.07 2151.79 1195.31 2206.46C1161.52 2238.45 454.445 2761.62 820.948 3226.31" stroke="#E63946" stroke-opacity="0.42" stroke-miterlimit="10"/>
<path d="M2217.19 1178.66C2223.3 1341.69 1883.75 1880.04 1799.19 1920.93C1692.72 1972.42 1243.8 2130.81 1183.15 2188.22C1147.67 2221.81 441.723 2729.63 826.551 3217.56" stroke="#E63946" stroke-opacity="0.42" stroke-miterlimit="10"/>
<path d="M2210.81 1161.8C2217.21 1332.58 1884.06 1870.9 1795.47 1913.74C1683.94 1967.68 1234.53 2109.84 1171 2169.98C1133.82 2205.17 429.007 2697.65 832.161 3208.81" stroke="#E63946" stroke-opacity="0.42" stroke-miterlimit="10"/>
<path d="M2204.43 1144.93C2211.12 1323.47 1884.37 1861.76 1791.75 1906.55C1675.15 1962.94 1225.27 2088.87 1158.84 2151.74C1119.98 2188.53 416.289 2665.67 837.767 3200.06" stroke="#E63946" stroke-opacity="0.42" stroke-miterlimit="10"/>
<path d="M2198.05 1128.06C2205.03 1314.37 1884.67 1852.61 1788.03 1899.35C1666.36 1958.19 1216 2067.89 1146.68 2133.5C1106.13 2171.89 403.571 2633.68 843.375 3191.31" stroke="#E63946" stroke-opacity="0.42" stroke-miterlimit="10"/>
<path d="M2191.67 1111.19C2198.94 1305.26 1884.98 1843.47 1784.31 1892.16C1657.57 1953.45 1206.73 2046.92 1134.53 2115.27C1092.28 2155.25 390.854 2601.7 848.983 3182.56" stroke="#E63946" stroke-opacity="0.42" stroke-miterlimit="10"/>
<path d="M2185.28 1094.33C2192.85 1296.16 1885.29 1834.33 1780.59 1884.97C1648.78 1948.71 1197.46 2025.95 1122.37 2097.03C1078.44 2138.61 378.134 2569.72 854.587 3173.82" stroke="#E63946" stroke-opacity="0.42" stroke-miterlimit="10"/>
<path d="M2178.9 1077.45C2186.76 1287.05 1885.6 1825.19 1776.87 1877.77C1639.99 1943.96 1188.19 2004.97 1110.21 2078.78C1064.59 2121.97 365.417 2537.73 860.196 3165.06" stroke="#E63946" stroke-opacity="0.42" stroke-miterlimit="10"/>
<path d="M2172.52 1060.59C2180.67 1277.95 1885.9 1816.04 1773.15 1870.57C1631.2 1939.22 1178.92 1984 1098.06 2060.55C1050.74 2105.33 352.698 2505.75 865.803 3156.32" stroke="#E63946" stroke-opacity="0.42" stroke-miterlimit="10"/>
<path d="M2166.14 1043.72C2174.57 1268.84 1886.21 1806.9 1769.43 1863.38C1622.41 1934.48 1169.65 1963.03 1085.9 2042.31C1036.89 2088.69 339.978 2473.77 871.407 3147.57" stroke="#E63946" stroke-opacity="0.42" stroke-miterlimit="10"/>
<path d="M2159.76 1026.85C2168.48 1259.74 1886.52 1797.76 1765.71 1856.19C1613.62 1929.74 1160.38 1942.06 1073.74 2024.07C1023.05 2072.05 327.259 2441.78 877.014 3138.82" stroke="#E63946" stroke-opacity="0.42" stroke-miterlimit="10"/>
<path d="M2153.38 1009.98C2162.4 1250.63 1886.83 1788.62 1762 1848.99C1604.83 1924.99 1151.11 1921.08 1061.59 2005.83C1009.2 2055.41 314.545 2409.8 882.624 3130.07" stroke="#E63946" stroke-opacity="0.42" stroke-miterlimit="10"/>
<path d="M2147 993.113C2156.3 1241.52 1887.13 1779.48 1758.27 1841.79C1596.04 1920.25 1141.84 1900.11 1049.43 1987.59C995.356 2038.77 301.825 2377.82 888.23 3121.32" stroke="#E63946" stroke-opacity="0.42" stroke-miterlimit="10"/>
<path d="M2140.62 976.239C2150.22 1232.41 1887.45 1770.33 1754.56 1834.59C1587.26 1915.5 1132.58 1879.13 1037.27 1969.35C981.513 2022.13 289.111 2345.83 893.841 3112.57" stroke="#E63946" stroke-opacity="0.42" stroke-miterlimit="10"/>
<path d="M2134.23 959.378C2144.12 1223.32 1887.75 1761.2 1750.84 1827.41C1578.47 1910.77 1123.31 1858.17 1025.11 1951.11C967.662 2005.49 276.388 2313.85 899.444 3103.83" stroke="#E63946" stroke-opacity="0.42" stroke-miterlimit="10"/>
<path d="M2127.85 942.504C2138.03 1214.2 1888.06 1752.05 1747.12 1820.21C1569.68 1906.02 1114.04 1837.19 1012.96 1932.87C953.818 1988.85 263.673 2281.86 905.054 3095.07" stroke="#E63946" stroke-opacity="0.42" stroke-miterlimit="10"/>
<path d="M2121.47 925.635C2131.94 1205.1 1888.37 1742.91 1743.4 1813.01C1560.89 1901.28 1104.77 1816.22 1000.8 1914.63C939.971 1972.21 250.955 2249.88 910.66 3086.32" stroke="#E63946" stroke-opacity="0.42" stroke-miterlimit="10"/>
<path d="M2115.09 908.765C2125.85 1195.99 1888.68 1733.76 1739.68 1805.82C1552.1 1896.53 1095.5 1795.24 988.646 1896.39C926.126 1955.57 238.238 2217.89 916.269 3077.57" stroke="#E63946" stroke-opacity="0.42" stroke-miterlimit="10"/>
<path d="M2108.71 891.898C2119.76 1186.89 1888.99 1724.62 1735.96 1798.62C1543.32 1891.79 1086.24 1774.27 976.491 1878.15C912.282 1938.93 225.523 2185.91 921.878 3068.83" stroke="#E63946" stroke-opacity="0.42" stroke-miterlimit="10"/>
<path d="M2102.33 875.033C2113.67 1177.79 1889.29 1715.48 1732.24 1791.43C1534.52 1887.05 1076.96 1753.3 964.329 1859.92C898.429 1922.29 212.799 2153.93 927.481 3060.08" stroke="#E63946" stroke-opacity="0.42" stroke-miterlimit="10"/>
<path d="M2095.94 858.161C2107.58 1168.68 1889.6 1706.34 1728.52 1784.23C1525.73 1882.3 1067.7 1732.32 952.173 1841.67C884.583 1905.65 200.082 2121.95 933.088 3051.33" stroke="#E63946" stroke-opacity="0.42" stroke-miterlimit="10"/>
<path d="M2089.56 841.296C2101.49 1159.57 1889.91 1697.2 1724.8 1777.04C1516.95 1877.57 1058.43 1711.35 940.018 1823.44C870.738 1889.01 187.365 2089.97 938.697 3042.58" stroke="#E63946" stroke-opacity="0.42" stroke-miterlimit="10"/>
<path d="M2083.18 824.423C2095.4 1150.46 1890.21 1688.05 1721.08 1769.84C1508.16 1872.82 1049.16 1690.38 927.86 1805.19C856.891 1872.37 174.647 2057.98 944.303 3033.83" stroke="#E63946" stroke-opacity="0.42" stroke-miterlimit="10"/>
<path d="M2076.8 807.558C2089.31 1141.36 1890.52 1678.91 1717.37 1762.65C1499.37 1868.08 1039.89 1669.41 915.704 1786.96C843.046 1855.73 161.929 2026 949.911 3025.09" stroke="#E63946" stroke-opacity="0.42" stroke-miterlimit="10"/>
<path d="M2070.42 790.685C2083.22 1132.25 1890.83 1669.77 1713.64 1755.45C1490.58 1863.33 1030.62 1648.43 903.545 1768.71C829.196 1839.09 149.209 1994.01 955.516 3016.33" stroke="#E63946" stroke-opacity="0.42" stroke-miterlimit="10"/>
<path d="M2064.04 773.821C2077.13 1123.15 1891.14 1660.63 1709.93 1748.26C1481.79 1858.59 1021.35 1627.46 891.389 1750.48C815.351 1822.45 136.492 1962.03 961.124 3007.59" stroke="#E63946" stroke-opacity="0.42" stroke-miterlimit="10"/>
<path d="M2057.66 756.949C2071.04 1114.04 1891.44 1651.48 1706.21 1741.07C1473 1853.85 1012.08 1606.48 879.233 1732.24C801.505 1805.81 123.775 1930.05 966.732 2998.83" stroke="#E63946" stroke-opacity="0.42" stroke-miterlimit="10"/>
<path d="M2051.27 740.083C2064.94 1104.94 1891.75 1642.34 1702.49 1733.87C1464.21 1849.11 1002.81 1585.51 867.074 1714C787.657 1789.17 111.055 1898.07 972.338 2990.09" stroke="#E63946" stroke-opacity="0.42" stroke-miterlimit="10"/>
<path d="M2044.9 723.211C2058.86 1095.83 1892.06 1633.2 1698.77 1726.68C1455.42 1844.36 993.548 1564.54 854.921 1695.76C773.813 1772.53 98.3414 1866.08 977.948 2981.34" stroke="#E63946" stroke-opacity="0.42" stroke-miterlimit="10"/>
<path d="M2038.51 706.344C2052.77 1086.73 1892.37 1624.06 1695.05 1719.48C1446.64 1839.62 984.279 1543.57 842.764 1677.52C759.967 1755.89 85.6228 1834.1 983.555 2972.59" stroke="#E63946" stroke-opacity="0.42" stroke-miterlimit="10"/>
<path d="M2032.13 689.478C2046.67 1077.62 1892.68 1614.92 1691.33 1712.29C1437.85 1834.88 975.009 1522.6 830.606 1659.28C746.119 1739.25 72.9044 1802.12 989.162 2963.84" stroke="#E63946" stroke-opacity="0.42" stroke-miterlimit="10"/>
<path d="M2025.75 672.608C2040.58 1068.51 1892.98 1605.78 1687.61 1705.09C1429.05 1830.13 965.736 1501.62 818.445 1641.04C732.269 1722.61 60.1813 1770.13 994.764 2955.09" stroke="#E63946" stroke-opacity="0.42" stroke-miterlimit="10"/>
<path d="M2019.36 655.741C2034.49 1059.41 1893.29 1596.63 1683.89 1697.9C1420.26 1825.39 956.468 1480.65 806.289 1622.8C718.423 1705.97 47.4645 1738.15 1000.37 2946.35" stroke="#E63946" stroke-opacity="0.42" stroke-miterlimit="10"/>
<path d="M2012.99 638.871C2028.4 1050.3 1893.6 1587.49 1680.17 1690.7C1411.48 1820.65 947.201 1459.67 794.133 1604.56C704.577 1689.33 34.7465 1706.16 1005.98 2937.59" stroke="#E63946" stroke-opacity="0.42" stroke-miterlimit="10"/>
<path d="M2006.6 622.007C2022.31 1041.2 1893.9 1578.35 1676.45 1683.51C1402.69 1815.91 937.932 1438.71 781.976 1586.33C690.73 1672.7 22.0285 1674.18 1011.59 2928.85" stroke="#E63946" stroke-opacity="0.42" stroke-miterlimit="10"/>
<path d="M2000.22 605.129C2016.22 1032.09 1894.21 1569.2 1672.74 1676.31C1393.9 1811.16 928.665 1417.72 769.822 1568.08C676.887 1656.05 9.3134 1642.19 1017.2 2920.09" stroke="#E63946" stroke-opacity="0.42" stroke-miterlimit="10"/>
<path d="M1993.84 588.268C2010.13 1022.99 1894.52 1560.07 1669.02 1669.12C1385.11 1806.42 919.396 1396.76 757.665 1549.85C663.04 1639.42 -3.40509 1610.22 1022.8 2911.35" stroke="#E63946" stroke-opacity="0.42" stroke-miterlimit="10"/>
<path d="M1987.46 571.394C2004.04 1013.88 1894.83 1550.92 1665.3 1661.92C1376.33 1801.67 910.131 1375.78 745.511 1531.6C649.196 1622.77 -16.1202 1578.23 1028.41 2902.6" stroke="#E63946" stroke-opacity="0.42" stroke-miterlimit="10"/>
<path d="M1981.08 554.526C1997.95 1004.77 1895.14 1541.78 1661.58 1654.73C1367.53 1796.93 900.857 1354.81 733.349 1513.36C635.344 1606.13 -28.8428 1546.24 1034.02 2893.85" stroke="#E63946" stroke-opacity="0.42" stroke-miterlimit="10"/>
<path d="M1974.7 537.659C1991.86 995.668 1895.45 1532.64 1657.86 1647.54C1358.75 1792.19 891.591 1333.83 721.195 1495.12C621.501 1589.49 -41.5584 1514.26 1039.63 2885.1" stroke="#E63946" stroke-opacity="0.42" stroke-miterlimit="10"/>
<path d="M1968.32 520.791C1985.77 986.563 1895.75 1523.5 1654.14 1640.34C1349.96 1787.45 882.322 1312.86 709.038 1476.89C607.654 1572.85 -54.2763 1482.28 1045.23 2876.35" stroke="#E63946" stroke-opacity="0.42" stroke-miterlimit="10"/>
<path d="M1961.93 503.924C1979.67 977.46 1896.06 1514.36 1650.41 1633.15C1341.16 1782.71 873.046 1291.89 696.875 1458.65C593.802 1556.22 -67.0008 1450.3 1050.83 2867.61" stroke="#E63946" stroke-opacity="0.42" stroke-miterlimit="10"/>
<path d="M1955.55 487.054C1973.58 968.353 1896.36 1505.21 1646.7 1625.95C1332.38 1777.96 863.781 1270.92 684.721 1440.41C579.957 1539.57 -79.7154 1418.31 1056.44 2858.86" stroke="#E63946" stroke-opacity="0.42" stroke-miterlimit="10"/>
<path d="M1949.17 470.184C1967.49 959.246 1896.67 1496.07 1642.98 1618.76C1323.59 1773.22 854.512 1249.94 672.564 1422.17C566.11 1522.93 -92.4334 1386.33 1062.05 2850.11" stroke="#E63946" stroke-opacity="0.42" stroke-miterlimit="10"/>
<path d="M1942.79 453.314C1961.41 950.138 1896.98 1486.92 1639.26 1611.56C1314.8 1768.47 845.246 1228.97 660.41 1403.93C552.266 1506.29 -105.149 1354.34 1067.66 2841.36" stroke="#E63946" stroke-opacity="0.42" stroke-miterlimit="10"/>
<path d="M1936.4 436.449C1955.31 941.035 1897.29 1477.79 1635.54 1604.37C1306.01 1763.73 835.972 1208 648.248 1385.69C538.415 1489.65 -117.872 1322.36 1073.26 2832.61" stroke="#E63946" stroke-opacity="0.42" stroke-miterlimit="10"/>
<path d="M1930.03 419.579C1949.22 931.928 1897.6 1468.64 1631.82 1597.17C1297.22 1758.99 826.707 1187.02 636.094 1367.45C524.571 1473.01 -130.586 1290.38 1078.87 2823.86" stroke="#E63946" stroke-opacity="0.42" stroke-miterlimit="10"/>
</svg>
