<svg width="94" height="128" viewBox="0 0 94 128" fill="none" xmlns="http://www.w3.org/2000/svg">
<path d="M84.7197 42.4405L84.6643 39.6935C84.6643 39.6935 84.5148 37.6056 82.7038 36.3817C82.7038 36.3817 77.2099 32.9978 76.7613 19.8668C76.7613 19.8668 76.0192 1.61842 54.7636 2.00609L44.8613 2.18885" stroke="#D9D9D9" stroke-width="2.88" stroke-linecap="round" stroke-linejoin="round"/>
<path d="M10.96 43.8084L10.9102 41.0615C10.9102 41.0615 10.9822 38.968 12.7488 37.6832C12.7488 37.6832 18.1153 34.0999 18.0766 20.9578C18.0766 20.9578 18.143 2.69283 39.3986 2.29408L49.3009 2.11133" stroke="#D9D9D9" stroke-width="2.88" stroke-linecap="round" stroke-linejoin="round"/>
<path d="M67.5707 41.0008L24.9395 41.7896L25.8028 88.4519L68.4341 87.6632L67.5707 41.0008Z" fill="#745615"/>
<path d="M72.5919 83.0573C61.9253 82.0548 56.6253 79.0033 55.717 78.4329L36.7598 78.7818C35.8736 79.3854 30.6899 82.6253 20.0676 84.0264C20.0676 84.0264 -0.207698 85.1618 1.04393 121.935C1.04393 121.935 16.4401 128.537 47.155 127.911C77.8698 127.402 93.0112 120.23 93.0112 120.23C92.9004 83.4339 72.5919 83.0517 72.5919 83.0517V83.0573Z" fill="#F7C7AD"/>
<path d="M20.0676 84.0318C20.0676 84.0318 -0.207698 85.1672 1.04393 121.941C1.04393 121.941 16.4401 128.542 47.155 127.917C77.8698 127.407 93.0112 120.235 93.0112 120.235C92.9004 83.4392 72.5919 83.0571 72.5919 83.0571C72.5919 83.0571 52.8095 82.0215 46.4627 90.5503C46.4627 90.5503 40.0051 80.3213 20.0732 84.0263L20.0676 84.0318Z" fill="white"/>
<path d="M55.7238 68.2142L36.3711 68.5723L36.6315 82.648L55.9842 82.2899L55.7238 68.2142Z" fill="#F7C7AD"/>
<g style="mix-blend-mode:multiply">
<path d="M36.447 72.579C36.663 72.8338 36.8845 73.0775 37.1171 73.3101C37.7319 73.9248 38.3688 74.5119 39.061 75.0435C39.0832 75.0657 39.0998 75.0768 39.1219 75.0934C39.3435 75.2484 39.565 75.398 39.7921 75.5475C40.1354 75.7746 40.4843 75.9961 40.8443 76.1955C41.3649 76.4945 41.891 76.777 42.4393 77.0373C42.611 77.1037 43.1261 77.3031 43.2811 77.353C43.8073 77.5191 44.3278 77.6853 44.865 77.8126C45.4189 77.9455 45.9672 78.0785 46.521 78.1726C46.377 78.1505 47.9886 78.3886 47.6065 78.3609C48.9135 78.4827 50.226 78.5603 51.5386 78.5049C52.0979 78.4828 52.6628 78.4606 53.2277 78.4107C53.4049 78.3941 54.2412 78.2501 54.3298 78.2501C54.8615 78.1228 55.3876 77.9677 55.9082 77.7849L55.731 68.2039L36.375 68.5638L36.447 72.5347C36.5024 72.6178 36.519 72.6455 36.447 72.579Z" fill="#DADADA"/>
</g>
<path d="M67.5994 42.5288C67.9095 59.1988 58.3008 72.8947 46.1334 73.1218C33.9715 73.3489 23.8643 60.0129 23.5541 43.3429C23.244 26.6729 32.9081 16.0396 45.07 15.8125C57.2319 15.5855 67.2837 25.8533 67.5939 42.5232L67.5994 42.5288Z" fill="#F7C7AD"/>
<g style="mix-blend-mode:soft-light" opacity="0.5">
<path d="M33.5831 29.5362C33.5831 29.4975 33.5942 29.4587 33.5998 29.4199C36.6458 25.7094 40.8991 23.5938 45.6342 23.5107C55.1378 23.3335 62.991 31.3528 63.2291 44.3786C63.3897 53.057 60.1056 60.6997 55.0879 64.8921C55.0879 64.8921 26.2339 61.9901 33.5776 29.5362H33.5831Z" fill="white"/>
</g>
<g style="mix-blend-mode:multiply">
<path d="M42.5853 66.548C34.998 61.9568 30.7557 54.0095 29.5595 45.3921C28.4352 37.2952 30.3293 28.2846 35.358 21.7717C37.1081 19.5121 39.3566 17.5848 41.8598 16.1338C31.2542 18.0112 23.2736 28.1794 23.5561 43.3485C23.8662 60.0184 33.9734 73.3544 46.1353 73.1273C49.6687 73.0609 52.9861 71.8591 55.9047 69.7767C51.3025 70.0149 46.6614 69.018 42.5798 66.5535L42.5853 66.548Z" fill="#EDEDED"/>
</g>
<path d="M35.846 79.3525C33.8134 80.51 28.7571 82.8859 20.0676 84.0323C20.0676 84.0323 -0.207698 85.1676 1.04393 121.941C1.04393 121.941 16.4401 128.543 47.155 127.917C77.8698 127.407 93.0112 120.235 93.0112 120.235C92.9004 83.4397 72.5919 83.0576 72.5919 83.0576C63.8637 82.2379 58.7298 80.0448 56.653 78.9648C56.653 78.9648 67.9176 102.873 47.0996 124.96C47.0996 124.96 26.1984 104.202 35.846 79.3525Z" fill="#D42A26"/>
<path d="M29.6973 96.9639C29.7083 97.0082 29.7139 97.058 29.725 97.1023C29.808 97.4789 29.8966 97.85 29.9853 98.2266C30.0406 98.1989 30.096 98.1767 30.1514 98.1546C29.9963 97.7669 29.8413 97.3682 29.6973 96.9639Z" fill="#00B1C3"/>
<path d="M72.5882 83.0576C63.86 82.2379 58.7261 80.0448 56.6493 78.9648C56.6493 78.9648 67.914 102.873 47.0959 124.96C47.0959 124.96 26.1947 104.202 35.8423 79.3525C33.8098 80.51 28.7534 82.8859 20.064 84.0323C20.064 84.0323 16.8684 92.8768 24.1069 100.547C24.1069 100.547 27.1473 98.8359 28.8143 99.2789L23.0158 103.704C23.0158 103.704 24.7105 120.407 43.0641 127.994L52.2852 127.823C52.2852 127.823 67.9306 119.842 70.3009 99.4562C70.3009 99.4562 68.8056 97.8224 64.2421 96.4932C64.2421 96.4932 67.0057 95.4964 70.2345 95.9062C70.2345 95.9062 76.1493 92.6553 72.5827 83.0576H72.5882Z" fill="#AB251C"/>
<g style="mix-blend-mode:multiply">
<path d="M72.5943 83.0576C63.8661 82.2379 58.7322 80.0448 56.6554 78.9648C56.6554 78.9648 67.9201 102.873 47.102 124.96C47.102 124.96 46.8971 124.755 46.5426 124.373C43.9342 125.231 41.1374 123.802 38.9886 122.434C36.4853 120.834 34.0208 118.978 31.9772 116.802C29.9336 114.62 27.7183 111.9 27.2254 108.854C26.5553 104.712 28.0395 101.234 31.6006 98.9356C32.2486 98.5147 32.9685 98.2821 33.6996 98.2045C32.8744 92.4337 33.2565 86.0427 35.8539 79.3525C33.8214 80.51 28.765 82.8859 20.0756 84.0323C20.0756 84.0323 20.0313 84.1597 19.9648 84.3923C22.302 84.132 24.5837 83.6391 26.8377 84.8962C31.3015 87.3829 30.6646 92.8879 27.9509 96.3991C26.8211 97.8556 25.1818 98.9356 23.4318 99.7774C23.6533 100.038 23.8803 100.292 24.124 100.553C24.124 100.553 27.1645 98.8414 28.8315 99.2845L23.033 103.709C23.033 103.709 24.7277 120.413 43.0813 128L52.3024 127.828C52.3024 127.828 67.9478 119.848 70.3181 99.4617C70.3181 99.4617 68.8228 97.8279 64.2593 96.4988C64.2593 96.4988 67.0229 95.5019 70.2517 95.9117C70.2517 95.9117 76.1665 92.6608 72.5999 83.0631L72.5943 83.0576Z" fill="#EDEDED"/>
</g>
<g style="mix-blend-mode:multiply">
<path d="M72.5884 83.0574C70.135 82.8248 67.9695 82.487 66.0699 82.0938C66.5185 83.2512 66.8397 84.4364 66.9228 85.7102C67.1166 88.5901 66.2361 91.8188 64.0762 93.8569C62.7526 95.103 61.2517 95.978 59.6512 96.5872C59.6456 96.7201 59.6345 96.8586 59.629 96.997C68.0526 105.592 58.4217 123.486 47.6167 124.389C47.445 124.583 47.2733 124.766 47.0961 124.959C47.0961 124.959 47.0684 124.932 47.0352 124.893L47.0905 127.917L52.2909 127.823C52.2909 127.823 67.9363 119.842 70.3067 99.456C70.3067 99.456 68.8113 97.8222 64.2479 96.4931C64.2479 96.4931 67.0114 95.4962 70.2402 95.906C70.2402 95.906 76.155 92.6551 72.5884 83.0574Z" fill="#EDEDED"/>
</g>
<path d="M47.4017 124.483L46.7759 124.494L46.1445 90.5614L46.7704 90.5503L47.4017 124.483Z" fill="#C6C6C6"/>
<path d="M35.8452 79.3525C35.8452 79.3525 27.0893 82.6921 31.5531 93.5525C31.5531 93.5525 32.3285 81.9389 46.6558 94.5715C46.6558 94.5715 47.4145 84.8021 41.9982 82.8305C41.9982 82.8305 35.8951 82.0275 35.8452 79.3525Z" fill="#DEDEDE"/>
<path d="M56.8524 78.9648C56.8524 78.9648 64.8385 81.8281 60.6073 91.7138C60.6073 91.7138 56.0439 81.6287 46.6511 94.577C46.6511 94.577 45.0893 83.8717 50.8269 82.6699C50.8269 82.6699 56.8968 81.6398 56.8469 78.9648H56.8524Z" fill="#DEDEDE"/>
<path d="M32.1325 16.3111C32.1325 16.3111 47.357 37.0959 65.1457 41.9695L63.7943 74.7501C63.7943 74.7501 64.3759 80.8698 57.2814 84.0764C57.2814 84.0764 70.0137 87.2221 72.3564 78.1284L70.6063 38.1703C70.6063 38.1703 66.7407 -3.40491 32.127 16.3166L32.1325 16.3111Z" fill="#DC9F2E"/>
<path d="M29.4661 84.5911L28.6908 42.6503C27.5665 24.5183 42.4975 22.3916 42.4975 22.3916L35.3754 14.915C35.3754 14.915 10.387 20.2982 19.1318 76.5939C19.1318 76.5939 18.6832 85.1172 29.4661 84.6021V84.5911Z" fill="#DC9F2E"/>
<g style="mix-blend-mode:multiply">
<path d="M35.1543 18.3988C35.1543 18.3988 35.6804 17.9724 36.6939 17.3742C37.2034 17.0807 37.8292 16.7263 38.5824 16.3884C38.959 16.2112 39.3633 16.0451 39.7898 15.8623C40.2217 15.6961 40.6814 15.5245 41.1743 15.3749C41.6617 15.2143 42.1767 15.0759 42.7139 14.9374C42.9798 14.8599 43.2622 14.8156 43.5447 14.7602C43.8271 14.6993 44.1096 14.6439 44.4086 14.6051C45.5827 14.4113 46.851 14.3559 48.1691 14.4224C48.5013 14.4501 48.8336 14.4777 49.1659 14.4999C49.4982 14.5553 49.8305 14.6107 50.1684 14.6605C50.5062 14.7048 50.8385 14.7934 51.1763 14.882L51.6803 15.0149L51.935 15.0814L52.1787 15.17C52.511 15.2919 52.8433 15.4137 53.1756 15.5355C53.5023 15.6629 53.818 15.8291 54.1392 15.9786L54.621 16.2112C54.7817 16.2943 54.9257 16.394 55.0807 16.4826L55.9945 17.0419C57.1409 17.8837 58.243 18.7975 59.1291 19.8664C59.3562 20.1267 59.5833 20.387 59.8048 20.6528C59.9986 20.9297 60.198 21.2067 60.3919 21.478C60.5857 21.7549 60.7906 22.0208 60.9623 22.3032C61.1284 22.5912 61.2891 22.8737 61.4552 23.1561C61.6158 23.433 61.7764 23.7155 61.937 23.9924C62.0699 24.2804 62.2029 24.5628 62.3358 24.8452C62.5905 25.4101 62.873 25.9473 63.0557 26.5067C63.2551 27.055 63.4489 27.5922 63.6372 28.1072C63.7923 28.6334 63.9308 29.1484 64.0692 29.6358C64.1966 30.1287 64.3517 30.5884 64.4292 31.0425C64.5178 31.4966 64.5953 31.9231 64.6784 32.3274C64.7504 32.7316 64.839 33.1027 64.8833 33.4571C64.9276 33.806 64.9664 34.1328 64.9996 34.4263C65.0716 35.0078 65.1104 35.4675 65.1436 35.7832C65.1713 36.0933 65.1879 36.2595 65.1879 36.2595C65.1879 36.2595 65.127 36.1044 65.0218 35.8053C64.9166 35.5063 64.756 35.0798 64.5677 34.526C64.4735 34.2491 64.3738 33.95 64.2575 33.6178C64.1301 33.291 63.9972 32.9366 63.8532 32.56C63.5597 31.8123 63.2606 30.9539 62.8564 30.0622C62.657 29.6136 62.4631 29.1373 62.2472 28.6611C62.0146 28.1903 61.7709 27.703 61.5217 27.2045C61.289 26.695 60.9844 26.2132 60.702 25.7092C60.558 25.46 60.414 25.2052 60.27 24.9449C60.1039 24.7013 59.9377 24.4576 59.7716 24.2028C59.6054 23.9536 59.4393 23.7044 59.2676 23.4552C59.0959 23.2059 58.8965 22.9789 58.7138 22.7352C58.5255 22.4971 58.3372 22.2534 58.1489 22.0152C57.944 21.7882 57.7335 21.5666 57.5286 21.3396C56.709 20.4202 55.7453 19.6338 54.7484 18.9083L53.9675 18.4209C53.8346 18.3434 53.7073 18.2493 53.5743 18.1828L53.1645 17.9779L52.7547 17.773C52.6162 17.7065 52.4889 17.6234 52.3449 17.5736C52.0624 17.4628 51.78 17.3465 51.4975 17.2358C50.3566 16.8426 49.1881 16.5269 48.0195 16.405C46.851 16.2721 45.7046 16.2167 44.608 16.2887C43.5114 16.3441 42.4647 16.4549 41.5122 16.6321C39.5959 16.9644 38.012 17.4351 36.9099 17.7896C36.3616 17.9779 35.9241 18.1219 35.6361 18.2382C35.3481 18.3489 35.1875 18.4099 35.1875 18.4099L35.1543 18.3988Z" fill="#C6C6C6"/>
</g>
<g style="mix-blend-mode:multiply">
<path d="M34.4121 21.6386C34.4121 21.6386 34.8939 21.2122 35.841 20.6141C36.3172 20.315 36.9043 19.9661 37.6132 19.6172C38.3221 19.2794 39.1362 18.9083 40.0666 18.6037C40.997 18.2991 42.0271 18.0167 43.1569 17.8671C44.2812 17.7065 45.4996 17.6401 46.7623 17.7785C48.0195 17.9059 49.3265 18.1884 50.5615 18.7256L51.0322 18.9139C51.1818 18.9859 51.3313 19.0689 51.4808 19.1465C51.7799 19.3015 52.09 19.4566 52.378 19.6283C52.9374 20.016 53.53 20.3593 54.0339 20.8135C54.2887 21.0294 54.5601 21.2454 54.8037 21.4725L55.5126 22.1925L55.8615 22.5524C55.9723 22.6743 56.072 22.8072 56.1772 22.9401C56.3821 23.2004 56.587 23.4552 56.792 23.7155C57.0079 23.9647 57.1741 24.2471 57.3513 24.5185C57.5285 24.7899 57.7002 25.0557 57.8719 25.3271L58.0048 25.5265L58.1156 25.7369C58.1931 25.8754 58.2651 26.0138 58.3371 26.1523C58.4811 26.4292 58.6251 26.7006 58.7746 26.9775C58.9242 27.2488 59.0405 27.5258 59.1568 27.8027C59.2731 28.0796 59.3894 28.3509 59.5057 28.6223C59.6164 28.8937 59.7438 29.1595 59.8324 29.4309C59.921 29.7023 60.0152 29.9681 60.1038 30.2339C60.1924 30.4942 60.2755 30.7545 60.3641 31.0148C60.4472 31.2696 60.5358 31.5243 60.5912 31.7791C60.7185 32.2831 60.8459 32.7704 60.9622 33.2356C61.0231 33.4682 61.073 33.7008 61.1284 33.9224C61.1671 34.1494 61.2114 34.371 61.2502 34.5814C61.3222 35.0134 61.3942 35.4232 61.4607 35.8054C61.6102 36.5696 61.66 37.2508 61.7154 37.8046C61.7763 38.3585 61.804 38.796 61.8317 39.095C61.8539 39.3941 61.8649 39.5492 61.8649 39.5492C61.8649 39.5492 61.8096 39.3996 61.7099 39.1172C61.6157 38.8347 61.4662 38.4249 61.3056 37.8932C61.1339 37.3671 60.9401 36.7247 60.6687 36.0047C60.5413 35.6447 60.4029 35.2626 60.2589 34.8583C60.1924 34.6534 60.1149 34.4485 60.0429 34.238C59.9598 34.0331 59.8712 33.8171 59.7826 33.6011C59.6109 33.1636 59.4337 32.715 59.2454 32.2443C59.0626 31.7735 58.83 31.3139 58.614 30.8265C58.5033 30.5828 58.398 30.3391 58.2817 30.0899C58.171 29.8407 58.0325 29.6081 57.9051 29.3589C57.7778 29.1152 57.6448 28.866 57.5175 28.6168C57.3901 28.362 57.2627 28.1128 57.1021 27.8747C56.9526 27.631 56.803 27.3873 56.6535 27.1381L56.4264 26.767L56.3157 26.5787L56.1883 26.4015C56.0166 26.1633 55.8505 25.9307 55.6788 25.6926C55.5071 25.4545 55.352 25.2052 55.1527 24.9893C54.9644 24.7622 54.7705 24.5407 54.5822 24.3136C54.4881 24.2028 54.3939 24.0865 54.2942 23.9758L53.9841 23.6601L53.3583 23.0343C53.1423 22.8349 52.9097 22.6632 52.6826 22.4694C52.2506 22.0651 51.7467 21.7771 51.2759 21.4393C51.0267 21.2897 50.7719 21.1624 50.5227 21.0128C50.3953 20.9464 50.2735 20.8688 50.1461 20.8024L49.7529 20.6307C49.4871 20.5199 49.2323 20.387 48.9665 20.2984C48.6951 20.2098 48.4293 20.1156 48.1635 20.027C47.8976 19.9384 47.6207 19.8886 47.3493 19.8221C47.2164 19.7889 47.078 19.7557 46.945 19.7224C46.8066 19.7003 46.6737 19.6781 46.5352 19.656C46.2639 19.6172 45.9925 19.5563 45.7156 19.5397C45.4442 19.5175 45.1728 19.4954 44.907 19.4732C44.6356 19.4566 44.3698 19.4621 44.104 19.4566C43.8381 19.4455 43.5778 19.4566 43.3175 19.4677C42.2819 19.4954 41.2961 19.6338 40.3878 19.8C39.4796 19.955 38.6544 20.1821 37.9233 20.3815C37.1978 20.5919 36.5609 20.8024 36.0459 20.9907C35.5308 21.1845 35.121 21.334 34.8496 21.4559C34.5783 21.5722 34.4287 21.6386 34.4287 21.6386H34.4121Z" fill="#C6C6C6"/>
</g>
<g style="mix-blend-mode:multiply">
<path d="M32.0943 23.7214C32.0943 23.7214 31.8783 23.8322 31.5294 24.1091C31.1749 24.3805 30.6931 24.8291 30.167 25.4549C29.6353 26.0807 29.0815 26.9114 28.5664 27.9194C28.068 28.9329 27.6139 30.1291 27.276 31.4805C26.9438 32.8318 26.7111 34.3215 26.6004 35.9165C26.5007 37.5115 26.5062 39.2007 26.6115 40.9508C26.7111 42.7839 26.7721 44.606 26.8164 46.5C26.8607 48.383 26.905 50.2992 26.9548 52.2099C26.977 54.1206 26.9991 56.0368 27.0213 57.9198C27.0434 59.8028 27.0213 61.6581 27.0213 63.4525C27.0268 65.2468 26.9825 66.9803 26.9604 68.6251C26.9438 70.27 26.8939 71.8262 26.8551 73.2606C26.7776 76.1294 26.6558 78.5274 26.5672 80.2055C26.473 81.878 26.3955 82.8417 26.3955 82.8417C26.3955 82.8417 26.2792 81.8891 26.1241 80.2166C25.969 78.544 25.7641 76.1571 25.5758 73.2883C25.4817 71.8539 25.3764 70.3032 25.2934 68.6584C25.2103 67.0135 25.0995 65.2801 25.0442 63.4912C24.9777 61.6968 24.8891 59.8471 24.8392 57.9586C24.7894 56.0756 24.7451 54.1649 24.6952 52.2487C24.6676 50.3325 24.6454 48.4218 24.6177 46.5388C24.5789 44.6669 24.6122 42.7784 24.5845 41.0283C24.5734 40.5686 24.5734 40.1145 24.5845 39.6604C24.5845 39.2118 24.6011 38.7632 24.6288 38.3201C24.6786 37.434 24.7728 36.5701 24.8891 35.7338C25.0054 34.8975 25.1605 34.0834 25.3377 33.3081C25.537 32.5327 25.7475 31.7906 26.0078 31.0928C26.4952 29.6916 27.132 28.4732 27.8022 27.4763C28.4723 26.4739 29.1867 25.6986 29.8347 25.1337C30.4771 24.5632 31.0642 24.2199 31.4629 24.0094C31.8672 23.799 32.0943 23.727 32.0943 23.727V23.7214Z" fill="#C6C6C6"/>
</g>
<g style="mix-blend-mode:multiply">
<path d="M27.3118 25.8915C27.3118 25.8915 27.1124 25.9968 26.7857 26.2515C26.4589 26.5063 26.0103 26.9161 25.5174 27.5031C25.0245 28.0846 24.5095 28.86 24.0332 29.7904C23.568 30.7374 23.1471 31.8451 22.8314 33.0967C22.5213 34.3484 22.3053 35.7384 22.2056 37.2171C22.1114 38.7014 22.117 40.2687 22.2111 41.8969C22.3053 43.6027 22.3607 45.2974 22.405 47.053C22.4493 48.803 22.488 50.5808 22.5323 52.3586C22.5489 54.1363 22.5711 55.9141 22.5933 57.6642C22.6099 59.4142 22.5933 61.1366 22.5933 62.8036C22.5988 64.4706 22.56 66.0822 22.5379 67.6107C22.5213 69.1393 22.477 70.5848 22.4382 71.9195C22.3662 74.5889 22.2554 76.8152 22.1668 78.3715C22.128 79.1523 22.0782 79.7616 22.0505 80.1769C22.0228 80.5923 22.0062 80.8138 22.0062 80.8138C22.0062 80.8138 21.9841 80.5923 21.9398 80.1769C21.901 79.7616 21.8234 79.1523 21.757 78.377C21.613 76.8208 21.4192 74.6055 21.2475 71.9416C21.1589 70.6069 21.0592 69.167 20.9872 67.6384C20.9096 66.1099 20.81 64.5038 20.7601 62.8368C20.6992 61.1698 20.6161 59.4475 20.5718 57.6974C20.5275 55.9473 20.4832 54.1695 20.4389 52.3918C20.4167 50.614 20.3946 48.8363 20.3724 47.0862C20.3337 45.3472 20.3669 43.5916 20.3447 41.9634C20.306 40.2576 20.3946 38.6017 20.6217 37.0454C20.7269 36.2646 20.8764 35.5114 21.037 34.7859C21.2253 34.0659 21.4192 33.3736 21.6573 32.7312C22.1114 31.4297 22.6985 30.2944 23.3243 29.364C23.9501 28.4336 24.6147 27.7081 25.2184 27.193C25.8165 26.6613 26.3592 26.3401 26.7303 26.1463C27.1069 25.9524 27.3173 25.886 27.3173 25.886L27.3118 25.8915Z" fill="#C6C6C6"/>
</g>
<path d="M86.0198 43.3204C86.042 44.3671 85.2057 45.2255 84.1535 45.2477C83.1012 45.2643 82.2372 44.4336 82.2151 43.3924C82.1985 42.3457 83.0347 41.4872 84.0815 41.4651C85.1282 41.4485 85.9977 42.2737 86.0143 43.3204H86.0198Z" fill="#BE7500"/>
<path d="M68.8915 38.2036C68.8416 35.5342 70.9794 33.33 73.6599 33.2802C76.3403 33.2303 78.5556 35.3514 78.6055 38.0264L78.8104 48.8979C78.8602 51.5673 76.7225 53.7659 74.042 53.8213C71.3615 53.8712 69.1462 51.75 69.0964 49.0806L68.897 38.2091L68.8915 38.2036Z" fill="#464F5B"/>
<g style="mix-blend-mode:multiply">
<path d="M74.7495 38.353C76.8983 40.9116 77.2362 43.9188 76.699 47.1199C76.2393 49.8613 74.2511 52.6581 71.41 53.1067C72.1742 53.5719 73.0714 53.8378 74.0351 53.8211C76.7156 53.7713 78.8533 51.5671 78.8035 48.8977L78.5986 38.0262C78.5487 35.3568 76.3334 33.2357 73.6529 33.28C71.554 33.3187 69.7984 34.6756 69.1504 36.542C71.1995 36.254 73.3483 36.6915 74.7384 38.353H74.7495Z" fill="#C6C6C6"/>
</g>
<g style="mix-blend-mode:soft-light" opacity="0.5">
<path d="M70.6172 38.1703C70.6172 37.8934 70.8332 37.6608 71.1156 37.6553C71.3925 37.6553 71.6251 37.8713 71.6307 38.1482L71.8578 50.4319C71.8578 50.7088 71.6418 50.9414 71.3648 50.9414C71.0879 50.9414 70.8553 50.7254 70.8498 50.4485L70.6227 38.1648L70.6172 38.1703Z" fill="white"/>
</g>
<path d="M77.9215 36.0657L78.1929 50.8748C81.4438 49.9167 83.7809 46.8984 83.7145 43.3706C83.648 39.8372 81.2002 36.9075 77.916 36.0712L77.9215 36.0657Z" fill="#F9B233"/>
<g style="mix-blend-mode:multiply">
<path d="M81.4702 46.2395C78.9669 44.6999 78.2913 42.468 77.9922 39.782L78.1971 50.8805C80.2961 50.2603 82.0129 48.776 82.9489 46.8543C82.4283 46.7269 81.9298 46.5275 81.4702 46.2451V46.2395Z" fill="#DADADA"/>
</g>
<path d="M80.5435 47.4521C80.5435 47.4521 83.8055 72.7839 57.0781 72.5623" stroke="#D9D9D9" stroke-width="3.28" stroke-linecap="round" stroke-linejoin="round"/>
<path d="M58.0472 72.6399C58.0694 73.8638 57.0891 74.8717 55.8596 74.8939L52.869 74.9493C51.6395 74.9714 50.6205 74.0023 50.6039 72.7783C50.5817 71.5544 51.562 70.5464 52.7915 70.5243L55.7821 70.4689C57.0116 70.4467 58.0251 71.4215 58.0472 72.6399Z" fill="#232A33"/>
<path d="M9.68547 44.7388C9.70209 45.7799 10.5716 46.6107 11.6183 46.5941C12.6706 46.5719 13.5013 45.7135 13.4847 44.6668C13.4681 43.62 12.5986 42.7893 11.5463 42.8115C10.4996 42.8281 9.66332 43.692 9.67993 44.7388H9.68547Z" fill="#BE7500"/>
<path d="M26.6133 38.9842C26.5634 36.3148 24.3482 34.1937 21.6677 34.2435C18.9872 34.2934 16.8494 36.4976 16.8993 39.167L17.0987 50.0385C17.1485 52.7079 19.3638 54.829 22.0443 54.7792C24.7303 54.7293 26.8625 52.5251 26.8127 49.8557L26.6077 38.9842H26.6133Z" fill="#464F5B"/>
<g style="mix-blend-mode:multiply">
<path d="M20.7633 39.3497C18.7142 41.9859 18.4816 45.0042 19.1406 48.1832C19.7 50.9024 21.7934 53.6272 24.6456 53.9706C23.8979 54.4635 23.0118 54.7625 22.0482 54.7792C19.3677 54.829 17.1524 52.7079 17.1026 50.0385L16.9032 39.167C16.8534 36.4976 18.9911 34.2934 21.6716 34.2435C23.7706 34.2048 25.576 35.4952 26.2904 37.3338C24.2358 37.1179 22.1036 37.644 20.7689 39.3497H20.7633Z" fill="#C6C6C6"/>
</g>
<g style="mix-blend-mode:soft-light" opacity="0.5">
<path d="M24.9003 39.0177C24.9003 38.7407 24.6622 38.5192 24.3853 38.5248C24.1028 38.5303 23.8813 38.7629 23.8868 39.0398L24.1139 51.3235C24.1139 51.6004 24.3465 51.822 24.6289 51.8164C24.9058 51.8109 25.1329 51.5838 25.1274 51.3014L24.9003 39.0177Z" fill="white"/>
</g>
<path d="M17.5187 37.1848L17.7901 51.994C14.5115 51.1577 12.0581 48.228 11.9916 44.6946C11.9252 41.1612 14.2678 38.1485 17.5132 37.1848H17.5187Z" fill="#F9B233"/>
<g style="mix-blend-mode:multiply">
<path d="M14.3439 47.4807C16.7918 45.8469 17.3844 43.5984 17.5893 40.8958L17.7942 51.9943C15.6731 51.4515 13.9064 50.0338 12.8984 48.1452C13.408 47.9957 13.9008 47.7797 14.3494 47.4807H14.3439Z" fill="#DADADA"/>
</g>
</svg>
