<svg width="200" height="193" viewBox="0 0 200 193" fill="none" xmlns="http://www.w3.org/2000/svg">
<g clip-path="url(#clip0_1333_3687)">
<path d="M7.68962 113.941C7.68962 113.941 11.6155 112.651 13.4999 121.709C15.3843 130.768 15.6634 135.776 15.6634 135.776C15.6634 135.776 16.2785 137.734 17.7223 136.958C19.1662 136.182 21.5784 133.518 23.3712 134.608C25.2338 135.737 25.2818 138.17 23.9906 141.374C22.6994 144.578 20.1345 151.701 19.9034 152.346C19.6765 152.978 19.7899 154.033 20.8543 153.662C21.923 153.292 28.6667 148.946 30.538 152.267C32.4094 155.589 27.3494 163.924 26.8128 164.848C26.2763 165.768 26.3548 166.247 26.7605 166.622C27.1662 166.997 29.2948 165.323 31.2665 164.164C33.2338 163.008 35.7201 162.01 36.6405 164.015C37.5609 166.021 36.1433 172.926 26.6689 182.185L21.9971 186.186L16.1345 184.234C3.85974 179.286 -0.0835572 173.444 -0.000678231 171.239C0.0822007 169.033 2.7605 169.007 5.0244 169.325C7.28831 169.643 9.89245 170.38 10.1236 169.879C10.3548 169.377 10.2458 168.906 9.39954 168.257C8.5533 167.607 0.692888 161.831 1.15527 158.048C1.61764 154.264 9.51295 155.707 10.6427 155.646C11.7725 155.58 11.4715 154.565 11.0222 154.068C10.5642 153.558 5.47369 147.952 3.05712 145.484C0.640543 143.013 -0.240591 140.746 1.05058 138.994C2.29376 137.302 5.53913 138.845 7.17053 139.011C8.80194 139.177 8.62309 137.132 8.62309 137.132C8.62309 137.132 6.97424 132.398 5.25559 123.305C3.53694 114.211 7.76813 113.919 7.76813 113.919" fill="#F5F5F5"/>
<path d="M22.0458 184.892C20.759 178.218 18.9052 169.016 16.8201 158.854C14.7394 148.697 12.8594 139.499 11.5377 132.834C10.879 129.508 10.3468 126.814 9.97605 124.939C9.79285 124.015 9.6489 123.292 9.54857 122.795C9.50059 122.555 9.46133 122.372 9.4308 122.237C9.40462 122.11 9.38281 122.049 9.38281 122.049C9.38281 122.049 9.38717 122.115 9.40898 122.241C9.43079 122.376 9.46569 122.564 9.50495 122.803C9.59655 123.305 9.72741 124.028 9.89317 124.957C10.2334 126.827 10.7438 129.53 11.385 132.865C12.6718 139.538 14.5257 148.741 16.6064 158.898C18.6914 169.059 20.5671 178.257 21.8888 184.922" fill="#E0E0E0"/>
<path d="M20.1477 138.466C20.1477 138.466 20.0431 138.588 19.886 138.823C19.729 139.063 19.5109 139.412 19.2448 139.848C18.717 140.72 18.0147 141.949 17.2688 143.318C16.5403 144.665 15.8817 145.885 15.3757 146.827C15.1488 147.241 14.9569 147.599 14.7955 147.886C14.6559 148.135 14.5861 148.279 14.5992 148.287C14.6123 148.296 14.7039 148.165 14.8653 147.93C15.0223 147.69 15.2404 147.341 15.5022 146.901C16.0212 146.021 16.7061 144.787 17.452 143.418C18.1892 142.075 18.8566 140.864 19.3713 139.922C19.6025 139.508 19.7944 139.155 19.9558 138.863C20.091 138.61 20.1608 138.47 20.1477 138.462V138.466Z" fill="#E0E0E0"/>
<path d="M14.0273 148.248C14.0579 148.2 11.5933 146.644 8.52244 144.778C5.45156 142.912 2.93902 141.439 2.90848 141.487C2.87795 141.535 5.34251 143.091 8.41339 144.957C11.4843 146.823 13.9968 148.296 14.0273 148.248Z" fill="#E0E0E0"/>
<path d="M17.9276 163.701C17.9276 163.701 17.7749 163.636 17.4957 163.558C17.1686 163.47 16.7716 163.361 16.3049 163.235C15.3016 162.96 13.9145 162.577 12.3965 162.102C10.8785 161.626 9.52188 161.151 8.54042 160.798C8.08241 160.637 7.69418 160.497 7.37575 160.384C7.10095 160.288 6.94391 160.24 6.93955 160.253C6.93519 160.266 7.07914 160.341 7.34522 160.458C7.61131 160.576 7.99953 160.742 8.48372 160.938C9.45209 161.326 10.8087 161.827 12.331 162.302C13.849 162.782 15.2493 163.144 16.2656 163.379C16.776 163.497 17.186 163.584 17.4739 163.636C17.7618 163.688 17.9188 163.715 17.9232 163.701H17.9276Z" fill="#E0E0E0"/>
<path d="M25.4171 156.073C25.4171 156.073 25.2906 156.156 25.09 156.339C24.8893 156.518 24.6058 156.788 24.2568 157.119C23.5589 157.786 22.608 158.715 21.5654 159.748C20.5229 160.785 19.5851 161.731 18.9177 162.42C18.5818 162.764 18.3157 163.048 18.1325 163.248C17.9493 163.449 17.8533 163.562 17.8664 163.571C17.8751 163.58 17.9929 163.488 18.1936 163.305C18.3942 163.126 18.6778 162.856 19.0267 162.525C19.7247 161.858 20.6756 160.929 21.7181 159.896C22.7606 158.859 23.6985 157.913 24.3659 157.224C24.7018 156.879 24.9678 156.596 25.151 156.396C25.3342 156.195 25.4302 156.082 25.4171 156.073Z" fill="#E0E0E0"/>
<path d="M30.5942 169.281C30.5942 169.281 30.4371 169.395 30.1798 169.626C29.8963 169.887 29.5386 170.223 29.1111 170.624C28.2125 171.474 26.9824 172.656 25.6345 173.968C24.2867 175.284 23.0696 176.483 22.2016 177.355C21.7916 177.773 21.447 178.122 21.1765 178.401C20.9366 178.649 20.8101 178.793 20.8232 178.806C20.8319 178.815 20.9802 178.693 21.2376 178.462C21.5211 178.2 21.8788 177.865 22.3063 177.464C23.2049 176.614 24.435 175.432 25.7828 174.12C27.1307 172.804 28.3434 171.605 29.2158 170.733C29.6258 170.315 29.9704 169.966 30.2409 169.687C30.4808 169.438 30.6073 169.295 30.5942 169.281Z" fill="#E0E0E0"/>
<path d="M20.9905 178.51C20.9905 178.51 20.8029 178.427 20.4496 178.314C20.057 178.192 19.5554 178.035 18.9534 177.847C17.6928 177.455 15.9479 176.906 14.0417 176.247C12.1355 175.594 10.4212 174.957 9.18676 174.486C8.59789 174.264 8.10497 174.077 7.72111 173.933C7.37215 173.802 7.18022 173.741 7.17586 173.754C7.1715 173.767 7.3547 173.859 7.69058 174.011C8.02646 174.164 8.51937 174.377 9.13006 174.626C10.3558 175.131 12.0614 175.79 13.9719 176.448C15.8825 177.106 17.6361 177.634 18.9098 177.991C19.5466 178.17 20.0657 178.305 20.4234 178.392C20.7811 178.479 20.9817 178.523 20.9861 178.505L20.9905 178.51Z" fill="#E0E0E0"/>
<path d="M107.483 22.6287C108.513 20.7847 109.102 18.6618 109.102 16.395C109.102 9.3723 103.47 3.6748 96.5215 3.6748C95.3612 3.6748 94.2401 3.8361 93.1758 4.13252C98.4975 5.61466 102.41 10.5406 102.41 16.395C102.41 22.2494 98.4975 27.1753 93.1758 28.6575C94.2401 28.9539 95.3612 29.1152 96.5215 29.1152C98.9686 29.1152 101.254 28.4046 103.187 27.1841L109.106 29.4727L107.488 22.633L107.483 22.6287Z" fill="#EBEBEB"/>
<path d="M188.145 186.187C188.145 186.248 146.666 186.3 95.5123 186.3C44.3586 186.3 2.87109 186.248 2.87109 186.187C2.87109 186.126 44.3411 186.073 95.5123 186.073C146.684 186.073 188.145 186.126 188.145 186.187Z" fill="#263238"/>
<path d="M52.799 172.189L53.1567 183.039L55.9135 191.54C56.1142 192.154 55.7521 192.804 55.124 192.961C54.775 193.048 54.4043 192.961 54.1338 192.73C52.389 191.234 46.0029 185.707 46.0248 184.914C46.0466 183.994 44.8906 173.497 44.8906 173.497L52.8034 172.193L52.799 172.189Z" fill="#E8505B"/>
<path d="M55.1233 192.956L45.9805 184.177L46.0066 184.634C46.0285 185.031 46.1898 185.406 46.4647 185.698C47.1975 186.47 49.2695 188.553 54.1026 192.73C54.3818 192.974 54.77 193.061 55.1277 192.961L55.1233 192.956Z" fill="#E0E0E0"/>
<path d="M48.0092 180.559C48.2928 180.733 48.4018 181.138 48.2404 181.426C48.079 181.714 47.669 181.831 47.3811 181.666C47.0976 181.5 46.9449 181.016 47.1412 180.746C47.3331 180.476 47.826 180.367 48.0616 180.598" fill="white"/>
<path d="M52.3799 188.362C52.441 188.388 52.6547 187.808 53.2829 187.464C53.9023 187.102 54.5086 187.224 54.5173 187.154C54.526 187.128 54.3821 187.05 54.1291 187.028C53.8761 187.006 53.5097 187.063 53.1651 187.255C52.8205 187.451 52.5849 187.73 52.4715 187.961C52.3581 188.192 52.3494 188.353 52.3755 188.357L52.3799 188.362Z" fill="#263238"/>
<path d="M53.2361 189.77C53.2884 189.813 53.6199 189.443 54.1695 189.251C54.7192 189.046 55.2077 189.124 55.2208 189.055C55.247 188.998 54.7148 188.798 54.0867 189.024C53.4585 189.247 53.175 189.743 53.2317 189.77H53.2361Z" fill="#263238"/>
<path d="M50.8368 186.579C50.8891 186.627 51.3908 186.051 52.2239 185.681C53.0483 185.293 53.8117 185.289 53.8117 185.214C53.8248 185.158 53.0134 185.049 52.1236 185.463C51.2337 185.864 50.7801 186.553 50.8368 186.579Z" fill="#263238"/>
<path d="M50.4527 183.292C50.4832 183.357 51.0721 183.07 51.8485 183C52.625 182.917 53.2531 183.083 53.2749 183.013C53.3011 182.956 52.6599 182.677 51.8267 182.765C50.9892 182.843 50.4178 183.244 50.4527 183.292Z" fill="#263238"/>
<path d="M50.2693 180.11C50.3085 180.171 50.8887 179.774 51.7131 179.765C52.5375 179.739 53.1351 180.11 53.17 180.044C53.1875 180.023 53.061 179.892 52.8036 179.761C52.5463 179.63 52.1537 179.517 51.7087 179.526C51.2638 179.534 50.8756 179.665 50.6226 179.809C50.3696 179.948 50.2518 180.084 50.2693 180.11Z" fill="#263238"/>
<path d="M51.6608 179.164C51.6608 179.164 51.6913 179.015 51.6521 178.754C51.6128 178.492 51.5168 178.109 51.2682 177.699C51.1417 177.503 51.0021 177.25 50.6924 177.128C50.5397 177.063 50.3173 177.106 50.1951 177.254C50.0774 177.403 50.0468 177.581 50.0512 177.751C50.0992 178.44 50.7273 179.072 51.5081 179.129C52.2889 179.172 52.9694 178.689 53.2442 178.078C53.3009 177.921 53.3402 177.73 53.2442 177.551C53.1526 177.372 52.9258 177.311 52.7731 177.346C52.4547 177.411 52.2627 177.607 52.0795 177.756C51.7218 178.078 51.5081 178.405 51.386 178.641C51.2638 178.876 51.2289 179.02 51.242 179.024C51.2813 179.05 51.4863 178.475 52.1886 177.886C52.3674 177.751 52.5724 177.577 52.8036 177.542C52.917 177.525 53.0174 177.564 53.061 177.651C53.109 177.738 53.0915 177.873 53.0392 177.995C52.808 178.497 52.1842 178.937 51.5212 178.889C50.8625 178.85 50.3129 178.292 50.2693 177.738C50.2606 177.603 50.2867 177.468 50.3565 177.385C50.422 177.302 50.5266 177.276 50.6313 177.311C50.8451 177.385 51.0021 177.603 51.1286 177.786C51.6302 178.558 51.6172 179.177 51.6651 179.164H51.6608Z" fill="#263238"/>
<path d="M73.9289 173.802L73.3662 181.914C73.3662 181.914 81.4273 185.21 81.4709 186.718L65.6934 186.195L66.051 173.519L73.9289 173.802Z" fill="#E8505B"/>
<path d="M68.5105 181.064C68.2008 181.138 67.9784 181.474 68.0394 181.784C68.1005 182.093 68.4407 182.324 68.7504 182.254C69.0601 182.185 69.3393 181.792 69.2434 181.487C69.1474 181.186 68.733 180.938 68.4495 181.077" fill="#E0E0E0"/>
<path d="M65.6934 186.191L65.7806 184.914L80.8777 185.894C80.8777 185.894 81.5712 186.221 81.4753 186.714L65.6977 186.191H65.6934Z" fill="#E0E0E0"/>
<path d="M73.6283 181.84C73.6239 181.919 73.2357 181.941 72.8475 182.176C72.4549 182.403 72.2455 182.73 72.1757 182.695C72.1059 182.677 72.2368 182.22 72.7079 181.945C73.179 181.666 73.6414 181.771 73.6239 181.84H73.6283Z" fill="#263238"/>
<path d="M75.26 182.577C75.2731 182.651 74.9373 182.773 74.6668 183.087C74.3833 183.396 74.3091 183.745 74.2306 183.741C74.1564 183.75 74.1216 183.296 74.4662 182.908C74.8108 182.516 75.2644 182.498 75.2644 182.573L75.26 182.577Z" fill="#263238"/>
<path d="M76.1319 184.591C76.0621 184.604 75.9661 184.216 76.1799 183.802C76.3893 183.383 76.7557 183.231 76.7862 183.296C76.8255 183.362 76.5855 183.58 76.4154 183.924C76.2366 184.264 76.2061 184.587 76.1275 184.591H76.1319Z" fill="#263238"/>
<path d="M73.5501 179.979C73.5152 180.049 73.1663 179.931 72.7301 179.944C72.2939 179.948 71.9493 180.084 71.91 180.018C71.8664 179.962 72.2066 179.687 72.7213 179.678C73.2361 179.665 73.5894 179.922 73.5501 179.979Z" fill="#263238"/>
<path d="M73.6327 178.34C73.6327 178.37 73.3274 178.409 72.8432 178.309C72.6033 178.261 72.3197 178.17 72.0231 178.026C71.8748 177.956 71.7265 177.869 71.5782 177.769C71.5084 177.721 71.4211 177.668 71.347 177.577C71.2641 177.494 71.2205 177.289 71.3252 177.167C71.4081 177.049 71.5564 177.001 71.6698 177.001C71.7876 177.001 71.8792 177.028 71.9664 177.054C72.1409 177.102 72.3023 177.167 72.4506 177.237C72.7472 177.385 72.9871 177.564 73.1616 177.738C73.5149 178.091 73.6327 178.379 73.6065 178.396C73.5716 178.423 73.4015 178.174 73.0395 177.882C72.8563 177.738 72.6251 177.586 72.3459 177.464C72.2063 177.403 72.058 177.35 71.8966 177.307C71.7309 177.259 71.5869 177.25 71.5433 177.324C71.5258 177.35 71.5258 177.363 71.5564 177.411C71.5913 177.459 71.6567 177.503 71.7265 177.551C71.8617 177.647 72.0013 177.729 72.1365 177.804C72.407 177.947 72.6687 178.052 72.8912 178.122C73.3404 178.261 73.6371 178.292 73.6327 178.335V178.34Z" fill="#263238"/>
<path d="M73.5273 178.444C73.5011 178.458 73.3572 178.174 73.3441 177.673C73.3397 177.424 73.3746 177.128 73.4793 176.81C73.5317 176.653 73.6058 176.491 73.6974 176.339C73.7934 176.186 73.9155 175.981 74.2165 175.955C74.3736 175.955 74.5001 176.082 74.5393 176.186C74.5873 176.295 74.596 176.387 74.6091 176.478C74.6309 176.662 74.6222 176.845 74.5917 177.01C74.5306 177.346 74.3823 177.621 74.2252 177.817C73.9025 178.213 73.5797 178.296 73.5709 178.27C73.5448 178.231 73.8196 178.091 74.0682 177.708C74.1903 177.516 74.3038 177.267 74.343 176.975C74.3648 176.832 74.3648 176.675 74.343 176.518C74.3256 176.348 74.2645 176.213 74.2034 176.226C74.1249 176.226 73.9853 176.343 73.9199 176.474C73.8327 176.614 73.7629 176.757 73.7105 176.897C73.6015 177.18 73.5491 177.451 73.5317 177.682C73.4968 178.144 73.5666 178.436 73.523 178.444H73.5273Z" fill="#263238"/>
<path d="M41.4922 93.745L43.8215 180.951L56.2708 180.576L59.237 90.772L41.4922 93.745Z" fill="#4C4C4C"/>
<path d="M67.3636 90.6237C67.3636 90.6237 76.6024 127.59 76.8859 133.893C77.1694 140.197 74.9099 179.595 74.9099 179.595H62.7223L63.7387 134.73L54.4824 96.7615L56.7245 90.8155L67.3592 90.6194L67.3636 90.6237Z" fill="#4C4C4C"/>
<path d="M59.8437 95.166C59.8437 95.166 59.8481 95.2053 59.8481 95.2837C59.8481 95.3753 59.8481 95.4886 59.8394 95.6281C59.8263 95.9507 59.8088 96.3953 59.7914 96.9577C59.739 98.1303 59.6605 99.7911 59.5689 101.84C59.3552 105.977 59.0673 111.666 58.7445 117.947C58.3955 124.229 58.0815 129.918 57.8546 134.055C57.7325 136.103 57.6278 137.764 57.558 138.933C57.5188 139.495 57.4882 139.94 57.4664 140.258C57.4533 140.397 57.4446 140.511 57.4359 140.602C57.4271 140.681 57.4228 140.72 57.4184 140.72C57.4141 140.72 57.4141 140.681 57.4141 140.602C57.4141 140.511 57.4141 140.397 57.4228 140.258C57.4359 139.935 57.4533 139.495 57.4708 138.928C57.5231 137.756 57.6016 136.095 57.6932 134.046C57.907 129.909 58.1949 124.22 58.5177 117.934C58.8666 111.653 59.1807 105.968 59.4075 101.831C59.5297 99.7824 59.6343 98.1216 59.7041 96.9533C59.7434 96.391 59.7739 95.9463 59.7957 95.6281C59.8088 95.4886 59.8176 95.3753 59.8263 95.2837C59.835 95.2053 59.8394 95.166 59.8437 95.166Z" fill="#455A64"/>
<path d="M58.4734 43.2217C58.4734 43.2217 62.9924 65.6455 63.0622 71.962C63.1277 78.2785 65.3479 90.6238 65.3479 90.6238H45.7623L45.3392 56.4607L43.9434 46.2688L46.8834 42.0796L58.4734 43.2217Z" fill="#F5F5F5"/>
<path d="M58.7129 43.8842C58.7129 43.8842 63.3846 45.2574 64.6191 46.9836C65.5918 48.3481 66.9092 74.1372 66.9092 74.1372L68.9157 96.8531L66.9572 96.67L64.1916 88.1652L58.7173 43.8799L58.7129 43.8842Z" fill="#E8505B"/>
<path d="M64.6191 46.9792L77.81 59.076L94.0412 53.8188L97.2734 60.6279L79.9561 68.4832C77.4828 69.5382 75.9299 68.9584 74.2113 67.5809L65.1251 60.3097L64.6191 46.9749V46.9792Z" fill="#E8505B"/>
<path d="M91.023 55.9942C91.1146 56.1686 91.0492 56.3822 90.8747 56.4737C90.7002 56.5653 90.4865 56.4999 90.3949 56.3255C90.3033 56.1512 90.3687 55.9376 90.5432 55.846C90.7177 55.7545 90.9314 55.8199 91.023 55.9942Z" fill="#263238"/>
<path d="M90.7086 56.5259C90.6737 56.5259 90.6388 56.5215 90.6039 56.5085C90.5079 56.4779 90.4338 56.4169 90.3858 56.3297C90.3378 56.2425 90.3291 56.1423 90.3596 56.0507C90.3901 55.9592 90.4512 55.8807 90.5385 55.8328C90.6257 55.7848 90.726 55.7761 90.8176 55.8066C90.9092 55.8371 90.9877 55.8982 91.0357 55.9853C91.0837 56.0725 91.0924 56.1728 91.0619 56.2643C91.0357 56.3559 90.9703 56.4343 90.8831 56.4823C90.8307 56.5128 90.7696 56.5259 90.7086 56.5259ZM90.7042 55.8153C90.6475 55.8153 90.5952 55.8284 90.5428 55.8546C90.4599 55.8982 90.4032 55.9723 90.3771 56.0595C90.3509 56.1466 90.3596 56.2425 90.4032 56.321C90.4469 56.4038 90.521 56.4605 90.6082 56.4867C90.6955 56.5128 90.7915 56.5041 90.87 56.4605C90.9529 56.4169 91.0096 56.3428 91.0357 56.2556C91.0619 56.1684 91.0532 56.0725 91.0096 55.9941C90.9485 55.8764 90.8263 55.811 90.7042 55.811V55.8153Z" fill="#263238"/>
<path d="M92.3785 55.6673C92.4701 55.8417 92.4046 56.0553 92.2302 56.1468C92.0557 56.2384 91.8419 56.173 91.7503 55.9986C91.6587 55.8243 91.7242 55.6107 91.8986 55.5191C92.0731 55.4276 92.2869 55.493 92.3785 55.6673Z" fill="#263238"/>
<path d="M92.0691 56.2034C92.0342 56.2034 91.9993 56.1991 91.9644 56.186C91.8684 56.1598 91.7943 56.0944 91.7463 56.0073C91.6503 55.8285 91.7201 55.6062 91.899 55.5103C91.9862 55.4667 92.0865 55.4536 92.1781 55.4842C92.2697 55.5147 92.3482 55.5757 92.3962 55.6629C92.4442 55.7501 92.4529 55.8503 92.4224 55.9419C92.3919 56.0334 92.3308 56.1119 92.2436 56.1598C92.1912 56.1904 92.1301 56.2034 92.0691 56.2034ZM92.0647 55.4929C92.008 55.4929 91.9513 55.506 91.9033 55.5321C91.7376 55.6237 91.6721 55.8329 91.7637 55.9986C91.8073 56.0814 91.8815 56.138 91.9687 56.1642C92.056 56.1904 92.152 56.1816 92.2305 56.138C92.3962 56.0465 92.4617 55.8373 92.3744 55.6716C92.3308 55.5888 92.2566 55.5321 92.1694 55.506C92.1345 55.4972 92.104 55.4929 92.0691 55.4929H92.0647Z" fill="#263238"/>
<path d="M93.6754 55.4102C93.767 55.5846 93.7015 55.7982 93.527 55.8898C93.3526 55.9813 93.1388 55.9159 93.0472 55.7415C92.9556 55.5672 93.021 55.3536 93.1955 55.262C93.37 55.1705 93.5837 55.2359 93.6754 55.4102Z" fill="#263238"/>
<path d="M93.3653 55.9418C93.3304 55.9418 93.2955 55.9375 93.2562 55.9244C93.1646 55.8939 93.0861 55.8328 93.0381 55.7456C92.9901 55.6585 92.9814 55.5582 93.012 55.4667C93.0381 55.3708 93.1036 55.2966 93.1908 55.2487C93.3696 55.1528 93.5921 55.2225 93.6881 55.4013C93.784 55.58 93.7142 55.8023 93.5354 55.8982C93.4831 55.9287 93.422 55.9418 93.3653 55.9418ZM93.3609 55.2313C93.3042 55.2313 93.2519 55.2443 93.1995 55.2705C93.1166 55.3141 93.0599 55.3882 93.0338 55.4754C93.0076 55.5626 93.0163 55.6585 93.0599 55.7369C93.1036 55.8198 93.1777 55.8764 93.265 55.9026C93.3522 55.9287 93.4482 55.92 93.5267 55.8764C93.6924 55.7849 93.7579 55.5756 93.6706 55.41C93.6096 55.2923 93.4874 55.2269 93.3653 55.2269L93.3609 55.2313Z" fill="#263238"/>
<path d="M94.2031 54.1632L95.4594 53.7012L98.3427 59.7692L97.117 60.2923L94.2031 54.1632Z" fill="#E0E0E0"/>
<path d="M65.0424 51.7612C65.0424 51.7612 65.0817 52.001 65.1166 52.4413C65.1646 52.9164 65.23 53.5398 65.3042 54.2896C65.4874 55.8894 65.7273 58.0211 65.9934 60.3838C66.2551 62.7639 66.4688 64.9261 66.5648 66.4954C66.6171 67.28 66.639 67.9165 66.6433 68.3568C66.6433 68.7971 66.6346 69.0412 66.6215 69.0412C66.6041 69.0412 66.5822 68.7971 66.5561 68.3611C66.5255 67.9252 66.4776 67.2931 66.4034 66.5085C66.2638 64.9479 66.0283 62.7901 65.7665 60.4099C65.5048 58.0298 65.2693 55.872 65.1428 54.307C65.0773 53.5224 65.0424 52.8903 65.025 52.45C65.0163 52.0097 65.025 51.7656 65.0381 51.7656L65.0424 51.7612Z" fill="#263238"/>
<path d="M67.9255 54.7865C67.9865 54.804 67.6158 56.26 67.101 58.0385C66.5863 59.8171 66.1152 61.2425 66.0585 61.2251C66.0018 61.2077 66.3682 59.7517 66.8829 57.9731C67.3977 56.1946 67.8688 54.7691 67.9255 54.7865Z" fill="#263238"/>
<path d="M77.6707 63.1651C77.6446 63.1782 77.5093 62.9689 77.3785 62.5897C77.2476 62.2104 77.1429 61.6568 77.1822 61.0421C77.2214 60.4275 77.3959 59.887 77.5704 59.5295C77.7449 59.1677 77.9106 58.9802 77.9325 58.9933C77.9979 59.0238 77.4744 59.8739 77.409 61.0552C77.3261 62.2366 77.7405 63.1433 77.6707 63.1694V63.1651Z" fill="#263238"/>
<path d="M76.1615 77.1758L77.8496 77.3066L77.1822 84.3467L75.5508 84.1592L76.1615 77.1758Z" fill="#E0E0E0"/>
<path d="M46.8877 42.5678L37.7842 48.3656C35.6467 49.8652 34.7525 52.5897 35.577 55.0657L42.5606 76.9882L40.0437 96.9098L59.9913 96.0642L59.5072 87.3326L57.8147 71.7092C57.5006 68.8103 56.7809 65.9725 55.6729 63.2785L46.8877 42.5635V42.5678Z" fill="#E8505B"/>
<path d="M37.3779 56.2731L46.4815 75.3142C47.2187 76.853 48.6102 77.9733 50.2678 78.3656L75.5328 84.3465L76.1783 76.9969L56.8937 69.7475L47.1925 51.138C45.7181 48.3088 42.1544 47.3062 39.4193 48.954C36.9068 50.4667 36.0126 53.675 37.3779 56.2688V56.2731Z" fill="#E8505B"/>
<path d="M76.1783 76.9927C76.1783 76.9927 76.1434 76.9883 76.0736 76.9665C75.9951 76.9403 75.8992 76.9055 75.777 76.8662C75.5022 76.766 75.1184 76.6308 74.6342 76.4565C73.6265 76.0859 72.1871 75.5585 70.403 74.9002C66.8043 73.5576 61.8054 71.6875 56.1434 69.5733L56.1042 69.5558L56.0824 69.5166C55.5458 68.4486 54.9788 67.3326 54.403 66.1949C52.8196 63.1173 51.2449 60.2184 49.7705 57.6029C49.0333 56.2951 48.3223 55.0614 47.6505 53.9062C47.3147 53.3308 46.9875 52.7772 46.6734 52.241C46.5208 51.9707 46.3594 51.7136 46.1936 51.4738C46.0409 51.221 45.8534 51.003 45.6789 50.785C44.9591 49.9176 44.078 49.3552 43.2536 49.0283C42.4248 48.7013 41.644 48.6011 41.0159 48.6316C39.7378 48.6752 39.1533 49.1721 39.1445 49.1329C39.1445 49.1329 39.1794 49.1024 39.2492 49.0588C39.3234 49.0108 39.4281 48.9367 39.5851 48.8757C39.8904 48.7362 40.3703 48.5793 41.0115 48.5444C41.6483 48.5052 42.4466 48.588 43.3016 48.9149C44.1478 49.2375 45.0595 49.8086 45.801 50.6891C45.9842 50.9115 46.1762 51.1338 46.3332 51.3866C46.5077 51.6351 46.6691 51.8923 46.8217 52.1582C47.1402 52.69 47.4717 53.2436 47.8119 53.8147C48.4924 54.9655 49.2078 56.1948 49.9493 57.5026C51.4324 60.1138 53.0159 63.0083 54.5993 66.0903C55.1838 67.2237 55.7465 68.3483 56.2743 69.4163L56.2132 69.3597C61.8621 71.5 66.8523 73.3919 70.4466 74.7564C72.222 75.4408 73.6527 75.99 74.6516 76.3736C75.1314 76.5611 75.5109 76.7137 75.7814 76.8183C75.8992 76.8662 75.9951 76.9055 76.0736 76.9403C76.1391 76.9665 76.1696 76.9839 76.1696 76.9883L76.1783 76.9927Z" fill="#263238"/>
<path d="M71.8853 81.5786C71.8853 81.7748 71.7239 81.9361 71.5276 81.9361C71.3313 81.9361 71.1699 81.7748 71.1699 81.5786C71.1699 81.3825 71.3313 81.2212 71.5276 81.2212C71.7239 81.2212 71.8853 81.3825 71.8853 81.5786Z" fill="#263238"/>
<path d="M71.5285 81.9447C71.3279 81.9447 71.1621 81.7791 71.1621 81.5786C71.1621 81.3781 71.3279 81.2124 71.5285 81.2124C71.7292 81.2124 71.8949 81.3781 71.8949 81.5786C71.8949 81.7791 71.7292 81.9447 71.5285 81.9447ZM71.5285 81.2298C71.3366 81.2298 71.1839 81.3824 71.1839 81.5742C71.1839 81.766 71.3366 81.9186 71.5285 81.9186C71.7205 81.9186 71.8731 81.766 71.8731 81.5742C71.8731 81.3824 71.7205 81.2298 71.5285 81.2298Z" fill="#263238"/>
<path d="M73.2369 81.9317C73.2369 82.1278 73.0755 82.2891 72.8792 82.2891C72.6829 82.2891 72.5215 82.1278 72.5215 81.9317C72.5215 81.7355 72.6829 81.5742 72.8792 81.5742C73.0755 81.5742 73.2369 81.7355 73.2369 81.9317Z" fill="#263238"/>
<path d="M72.8801 82.2978C72.6794 82.2978 72.5137 82.1321 72.5137 81.9316C72.5137 81.7311 72.6794 81.5654 72.8801 81.5654C73.0807 81.5654 73.2465 81.7311 73.2465 81.9316C73.2465 82.1321 73.0807 82.2978 72.8801 82.2978ZM72.8801 81.5872C72.6882 81.5872 72.5355 81.7442 72.5355 81.9316C72.5355 82.119 72.6882 82.276 72.8801 82.276C73.072 82.276 73.2247 82.119 73.2247 81.9316C73.2247 81.7442 73.072 81.5872 72.8801 81.5872Z" fill="#263238"/>
<path d="M74.1448 82.6685C74.3423 82.6685 74.5025 82.5085 74.5025 82.3111C74.5025 82.1137 74.3423 81.9536 74.1448 81.9536C73.9472 81.9536 73.7871 82.1137 73.7871 82.3111C73.7871 82.5085 73.9472 82.6685 74.1448 82.6685Z" fill="#263238"/>
<path d="M74.1457 82.6772C73.9451 82.6772 73.7793 82.5115 73.7793 82.311C73.7793 82.1105 73.9451 81.9448 74.1457 81.9448C74.3464 81.9448 74.5121 82.1105 74.5121 82.311C74.5121 82.5115 74.3464 82.6772 74.1457 82.6772ZM74.1457 81.9666C73.9538 81.9666 73.8011 82.1192 73.8011 82.311C73.8011 82.5028 73.9538 82.6554 74.1457 82.6554C74.3376 82.6554 74.4903 82.4984 74.4903 82.311C74.4903 82.1236 74.3376 81.9666 74.1457 81.9666Z" fill="#263238"/>
<path d="M75.533 84.3466C75.533 84.3466 75.4893 84.3466 75.4108 84.3292C75.3192 84.3074 75.2014 84.2812 75.0575 84.2507C74.7303 84.1722 74.2767 84.0633 73.6965 83.9238C72.5013 83.6273 70.7958 83.2089 68.702 82.6945C64.4839 81.6613 58.6606 80.1966 52.2047 78.7014C51.3977 78.5096 50.5951 78.357 49.81 78.1434C49.0291 77.9298 48.2527 77.6116 47.6507 77.0667C47.0488 76.5218 46.6649 75.8243 46.329 75.153C46.0062 74.473 45.6878 73.8104 45.3781 73.1609C44.148 70.5715 43.0444 68.2349 42.1109 66.2689C41.1949 64.316 40.449 62.7292 39.9255 61.6133C39.6769 61.0727 39.4806 60.6499 39.341 60.3448C39.28 60.2096 39.232 60.1006 39.1927 60.0135C39.1622 59.9393 39.1447 59.9001 39.1491 59.8958C39.1491 59.8958 39.1753 59.9306 39.2145 60.0047C39.2582 60.0876 39.3149 60.1965 39.3803 60.3273C39.5286 60.6281 39.738 61.0466 40.0041 61.5784C40.545 62.6857 41.3083 64.2637 42.2549 66.2035C43.2014 68.1652 44.3225 70.493 45.5657 73.0737C45.8797 73.7188 46.1982 74.3814 46.5253 75.0571C46.8612 75.7241 47.2363 76.3954 47.8034 76.9054C48.3705 77.4155 49.1077 77.7206 49.8754 77.9298C50.6475 78.1391 51.4544 78.2917 52.2614 78.4878C58.7216 79.983 64.5362 81.4695 68.7456 82.5463C70.835 83.0912 72.5319 83.5358 73.7227 83.8453C74.2985 84.0022 74.7478 84.1243 75.0749 84.2115C75.2189 84.2551 75.3323 84.2856 75.4239 84.3117C75.5024 84.3379 75.5417 84.351 75.5417 84.3553L75.533 84.3466Z" fill="#263238"/>
<path d="M55.1273 83.1523C55.1273 83.1523 55.027 83.2569 54.8263 83.4051C54.6257 83.5577 54.3247 83.7669 53.9495 84.0197C53.1993 84.5167 52.1262 85.1924 50.8132 85.6501C49.4959 86.1122 48.196 86.1688 47.2974 86.0032C46.8481 85.9247 46.4948 85.807 46.2592 85.7068C46.0237 85.6065 45.9059 85.5324 45.9103 85.5193C45.9277 85.4801 46.4337 85.7329 47.3192 85.8463C48.2004 85.9683 49.4523 85.8855 50.7391 85.4365C52.0259 84.9875 53.0946 84.3467 53.8667 83.8846C54.6344 83.4182 55.1098 83.1261 55.1273 83.1523Z" fill="#263238"/>
<path d="M56.2361 85.6804C56.2361 85.6804 56.2667 85.7327 56.2972 85.8461C56.3365 85.955 56.3714 86.1207 56.415 86.3343C56.4935 86.7659 56.5327 87.4067 56.3975 88.1826C56.2536 88.9542 55.9221 89.8609 55.2634 90.6804C54.6134 91.5043 53.6189 92.1757 52.4542 92.507C51.2896 92.8295 50.0856 92.7685 49.1042 92.4023C48.1184 92.0449 47.3594 91.4389 46.8403 90.8548C46.3212 90.262 46.0246 89.6909 45.8675 89.2811C45.789 89.0762 45.7367 88.915 45.7149 88.8016C45.6887 88.6883 45.6756 88.6316 45.6843 88.6272C45.7367 88.5967 45.9155 89.6037 46.9624 90.7415C47.4859 91.2951 48.2274 91.8661 49.1783 92.2018C50.1249 92.5462 51.2765 92.5941 52.3975 92.2846C53.5142 91.9664 54.4739 91.33 55.1064 90.5453C55.7476 89.765 56.0878 88.8932 56.2449 88.1521C56.5458 86.6351 56.1794 85.6804 56.2449 85.6804H56.2361Z" fill="#263238"/>
<path d="M47.8685 25.2137L47.9252 41.4561C47.934 44.2199 50.2546 46.4126 53.0157 46.2644C55.5937 46.1292 57.609 43.9932 57.5959 41.4126C57.5915 40.192 57.5872 39.1719 57.5959 39.0455C57.5959 39.0455 61.7311 38.6401 62.0147 34.5468C62.1499 32.5677 62.1019 28.47 62.0147 24.7647C61.923 20.7847 58.778 17.5458 54.7998 17.3192L54.4029 17.2974C50.1237 17.3017 47.7377 20.9373 47.8642 25.2137H47.8685Z" fill="#B78876"/>
<path d="M57.6039 38.9889C57.6039 38.9889 54.9998 39.0499 52.3477 37.1667C52.3477 37.1667 53.4425 40.1877 57.5559 40.0525L57.6083 38.9889H57.6039Z" fill="#AA6550"/>
<path d="M61.0052 27.1754C60.9965 27.4849 60.7304 27.7334 60.4076 27.7334C60.0848 27.7334 59.8274 27.4805 59.8362 27.171C59.8449 26.8615 60.111 26.613 60.4338 26.613C60.7565 26.613 61.0139 26.8659 61.0095 27.1754H61.0052Z" fill="#263238"/>
<path d="M61.1181 26.4866C61.0396 26.5607 60.6165 26.2033 59.9883 26.1727C59.3602 26.1292 58.8804 26.4256 58.8149 26.3471C58.7844 26.3122 58.8629 26.1771 59.0767 26.042C59.2817 25.9068 59.6306 25.7848 60.0232 25.8109C60.4158 25.8371 60.7386 25.9984 60.9174 26.1553C61.1006 26.3166 61.1617 26.4561 61.1225 26.4866H61.1181Z" fill="#263238"/>
<path d="M54.8802 27.1273C54.8715 27.4368 54.6054 27.6853 54.2826 27.6853C53.9598 27.6853 53.7024 27.4324 53.7112 27.1229C53.7199 26.8134 53.986 26.5649 54.3088 26.5649C54.6315 26.5649 54.8889 26.8178 54.8845 27.1273H54.8802Z" fill="#263238"/>
<path d="M54.849 26.3427C54.7705 26.4168 54.3474 26.0637 53.7149 26.0289C53.0868 25.9853 52.6069 26.2817 52.5415 26.2032C52.511 26.1684 52.5895 26.0332 52.8032 25.8981C53.0082 25.763 53.3572 25.6409 53.7498 25.6627C54.1424 25.6888 54.4652 25.8501 54.644 26.0071C54.8272 26.1684 54.8883 26.3079 54.849 26.3384V26.3427Z" fill="#263238"/>
<path d="M56.8418 31.2904C56.8418 31.2555 57.2344 31.2076 57.8756 31.164C58.037 31.1553 58.1897 31.1335 58.2246 31.0245C58.2682 30.9111 58.2115 30.7324 58.1461 30.5406C58.0152 30.1439 57.88 29.7254 57.7404 29.2895C57.1777 27.5109 56.7807 26.0506 56.8549 26.0288C56.929 26.007 57.4394 27.4325 58.0021 29.211C58.1373 29.6513 58.2638 30.0698 58.386 30.4665C58.4383 30.6539 58.5299 30.8675 58.4339 31.1029C58.386 31.2206 58.2595 31.2991 58.1548 31.3209C58.0501 31.3471 57.9585 31.3427 57.88 31.3427C57.2387 31.3427 56.8418 31.3209 56.8418 31.286V31.2904Z" fill="#263238"/>
<path d="M55.1019 25.035C55.0321 25.2006 54.4039 25.0873 53.6624 25.1309C52.9165 25.1614 52.3101 25.3445 52.2185 25.1875C52.1793 25.1134 52.2927 24.9565 52.5413 24.8039C52.79 24.6514 53.1782 24.5162 53.6275 24.4944C54.0724 24.4726 54.4781 24.5642 54.7398 24.6906C55.0059 24.817 55.1324 24.9565 55.1019 25.0393V25.035Z" fill="#263238"/>
<path d="M61.0643 24.9827C60.9465 25.1178 60.519 24.9478 59.9999 24.9086C59.4808 24.8519 59.0315 24.9478 58.9356 24.7952C58.8963 24.7211 58.9748 24.5816 59.1755 24.4552C59.3718 24.3332 59.6989 24.2373 60.0566 24.2721C60.4143 24.3027 60.7197 24.4509 60.8898 24.6078C61.0643 24.7647 61.1166 24.9173 61.0643 24.9827Z" fill="#263238"/>
<path d="M48.0304 28.2653C47.9606 28.2304 45.2605 27.2714 45.1907 30.0787C45.1209 32.886 47.9519 32.376 47.9606 32.2975C47.9693 32.2191 48.0304 28.2696 48.0304 28.2696V28.2653Z" fill="#B78876"/>
<path d="M47.1272 31.2121C47.1272 31.2121 47.0792 31.247 46.992 31.2819C46.9091 31.3168 46.7695 31.3386 46.6256 31.2819C46.3333 31.1642 46.0934 30.689 46.0934 30.1834C46.0934 29.9262 46.1501 29.6864 46.2461 29.4859C46.3377 29.281 46.4729 29.1415 46.6212 29.1197C46.7695 29.0892 46.8742 29.1808 46.9048 29.2592C46.9397 29.3377 46.9222 29.3944 46.9353 29.3987C46.944 29.4074 46.9964 29.3551 46.9789 29.2374C46.9702 29.1808 46.9353 29.1154 46.8742 29.0587C46.8088 29.002 46.7085 28.9715 46.6038 28.9802C46.3857 28.9889 46.185 29.1851 46.0803 29.4031C45.9626 29.621 45.8884 29.8957 45.8928 30.179C45.8928 30.7457 46.1719 31.2819 46.5776 31.4083C46.7739 31.465 46.9397 31.4083 47.0269 31.3473C47.1141 31.2819 47.1316 31.2165 47.1229 31.2121H47.1272Z" fill="#AA6550"/>
<path d="M46.477 28.082C46.9088 28.0036 47.6286 28.4395 47.7856 28.8492C47.947 29.259 47.9601 29.7167 48.1171 30.1265C48.2742 30.5363 48.6667 30.9242 49.0986 30.8458C49.3996 30.7935 49.6264 30.5275 49.718 30.2398C49.814 29.9521 49.7965 29.6383 49.7791 29.3375C49.6875 28.021 49.4868 26.7089 49.5086 25.388C49.5304 24.0672 49.7965 22.7115 50.5512 21.626C51.3058 20.5449 52.6275 19.7908 53.9361 19.9695C54.8042 20.0872 55.5762 20.5885 56.4356 20.7585C57.4519 20.9591 58.5599 20.6626 59.3363 19.9695C59.3625 19.9477 59.4148 19.9085 59.4759 19.8693C59.7594 19.6862 59.9034 19.3331 59.7943 19.0105C59.7594 18.9015 59.7115 18.8013 59.646 18.7315C58.019 17.0488 54.9525 16.4298 52.6537 16.8701C50.3549 17.3104 48.1346 18.7882 47.0397 20.8588C45.9448 22.9251 46.0626 25.8981 46.477 28.0777" fill="#263238"/>
<path d="M55.3534 31.7874C55.4537 31.7831 55.458 32.4631 56.0426 32.947C56.6271 33.4309 57.3512 33.3568 57.3599 33.4527C57.3686 33.4962 57.1985 33.5834 56.8888 33.5922C56.5878 33.6009 56.1473 33.505 55.7896 33.2085C55.4319 32.9121 55.2792 32.5154 55.2574 32.2364C55.2312 31.9531 55.3054 31.7831 55.3534 31.7874Z" fill="#263238"/>
<path d="M94.5527 54.8521C94.5527 54.8521 97.628 52.1537 98.2081 51.9532C98.7926 51.7571 103.416 51.6699 103.73 51.9009C104.045 52.1319 108.729 54.6995 107.953 55.0919C107.177 55.4842 103.927 53.6446 103.927 53.6446L103.382 53.7187C103.382 53.7187 106.217 55.2313 106.723 55.8155C107.19 56.3517 106.745 56.9925 106.212 56.7484C105.685 56.5042 103.251 55.1006 103.059 55.1529C102.867 55.2052 105.65 56.8355 105.907 57.1363C106.252 57.5417 106.029 58.3264 105.497 58.0997C105.183 57.9646 102.614 56.2645 102.614 56.2645C102.614 56.2645 104.551 57.8948 104.69 58.1651C104.917 58.601 104.481 58.9977 104.036 58.7231C103.73 58.5356 102.409 57.2366 101.999 56.9881C101.999 56.9881 101.545 56.9576 100.878 57.6681C100.21 58.3787 97.5756 59.3552 97.5756 59.3552L94.5615 54.8565L94.5527 54.8521Z" fill="#B78876"/>
<path d="M107.94 55.1049C107.94 55.1354 107.556 55.1572 106.945 55.0438C106.644 54.9828 106.287 54.8869 105.903 54.7343C105.537 54.5599 105.14 54.3594 104.725 54.1458C104.42 53.9889 104.123 53.8363 103.844 53.6881L103.901 53.7012C102.522 53.7143 101.523 53.6881 101.523 53.6314C101.523 53.5748 102.518 53.5094 103.901 53.4614H103.927L103.957 53.4745C104.237 53.614 104.529 53.7622 104.834 53.9148C105.24 54.124 105.624 54.3246 105.99 54.512C106.352 54.6733 106.692 54.7823 106.98 54.8607C107.561 55.0177 107.936 55.0569 107.936 55.0918L107.94 55.1049Z" fill="#AA6550"/>
<path d="M95.6953 55.6325C95.9003 56.0205 96.4238 56.1207 96.8513 56.0292C97.2787 55.9376 97.667 55.7066 98.0857 55.5845C99.3463 55.2227 100.742 55.894 101.985 55.4712C102.16 55.4102 102.352 55.2838 102.33 55.105C102.313 54.935 102.121 54.8522 101.959 54.7999C100.581 54.3596 99.2024 53.9237 97.824 53.4834" fill="#B78876"/>
<path d="M97.8284 53.4833C97.8284 53.4833 97.9986 53.5008 98.2908 53.5792C98.5831 53.6577 99.0018 53.7754 99.5209 53.928C100.057 54.0893 100.668 54.2767 101.336 54.4772C101.506 54.5295 101.68 54.5862 101.859 54.6385C102.02 54.7039 102.26 54.7126 102.417 54.9698C102.487 55.1006 102.443 55.2837 102.352 55.3752C102.265 55.4711 102.16 55.5278 102.055 55.567C101.85 55.6368 101.645 55.6847 101.431 55.7065C100.572 55.7937 99.7957 55.5932 99.0978 55.5801C98.7488 55.567 98.4173 55.5932 98.1251 55.6717C97.8328 55.7501 97.5624 55.8809 97.305 55.9724C96.7903 56.186 96.2843 56.1468 96.0095 55.9812C95.7259 55.8199 95.6823 55.6193 95.6954 55.6237C95.7172 55.6063 95.787 55.7763 96.0531 55.8983C96.3192 56.0204 96.7554 56.0335 97.2396 55.8112C97.4838 55.7109 97.7499 55.5714 98.0684 55.4755C98.3868 55.3796 98.7401 55.3447 99.1022 55.3534C99.8306 55.3578 100.611 55.5452 101.401 55.4624C101.597 55.445 101.789 55.397 101.964 55.3404C102.134 55.2793 102.247 55.1573 102.195 55.0744C102.151 54.9785 101.959 54.9175 101.785 54.8608C101.606 54.8042 101.436 54.7475 101.261 54.6908C100.598 54.4685 99.9964 54.268 99.4598 54.0893C98.9495 53.9149 98.5351 53.771 98.2516 53.6621C97.968 53.5574 97.8154 53.492 97.8197 53.4746L97.8284 53.4833Z" fill="#AA6550"/>
<path d="M77.0911 77.3455L82.1903 76.8398C82.1903 76.8398 88.9341 81.4563 88.2885 82.472C87.6429 83.4877 86.535 82.472 86.535 82.472C86.535 82.472 87.7345 83.9497 85.7978 84.4118C85.7978 84.4118 85.3354 85.4275 84.5982 85.336H84.1358C84.1358 85.336 83.7171 86.6263 83.0933 86.3517C82.4695 86.0727 80.5895 84.4118 80.5895 84.4118L75.3594 83.9497L77.0955 77.3455H77.0911Z" fill="#B78876"/>
<path d="M80.2615 82.6028C80.2615 82.6028 78.9573 83.1041 78.6825 83.6273C78.412 84.1504 78.255 85.3884 79.0969 85.6107C79.4197 85.6979 80.58 85.5627 80.58 85.5627L80.2572 84.1896C80.2572 84.1896 80.7457 83.6273 81.038 83.3831C81.3172 83.1521 81.0118 82.2497 80.2615 82.5985V82.6028Z" fill="#FFBE9D"/>
<path d="M81.731 83.3002C81.731 83.3002 80.4268 83.8015 80.152 84.3247C79.8815 84.8478 80.0604 85.7283 80.9022 85.955C81.225 86.0422 82.2501 85.9071 82.2501 85.9071L82.1149 85.6411C81.8488 85.1268 81.7354 84.7083 82.2021 84.3682C82.2283 84.3508 82.49 84.1067 82.5075 84.0893C82.7648 83.8495 82.4813 82.9559 81.731 83.3046V83.3002Z" fill="#FFBE9D"/>
<path d="M82.0468 85.8591C81.8069 85.6412 81.7851 85.2488 81.9421 84.9611C82.0991 84.6778 82.3958 84.4903 82.7098 84.4032C82.9148 84.3465 83.1678 84.3378 83.3074 84.4991C83.3947 84.6037 83.4078 84.7563 83.3903 84.8914C83.3423 85.2532 83.1068 85.5583 82.8799 85.8461C82.7578 85.9986 82.6095 86.1643 82.4132 86.1599C82.2125 86.1556 82.073 85.9725 81.9596 85.8068" fill="#FFBE9D"/>
<path d="M54.4866 44.7736L55.6295 44.3376L56.624 46.1118L56.07 48.0081L54.901 48.2958L53.7363 46.8268L54.4866 44.7736Z" fill="#E8505B"/>
<path d="M54.9004 48.2957C54.9004 48.2957 56.3835 56.4518 57.6223 62.1886C57.6223 62.1886 58.6387 66.9663 59.0487 68.0648C59.5067 69.2941 60.92 71.1337 60.92 71.1337L62.3551 71.6873L61.4784 63.6271L56.0738 48.0037L54.9048 48.2914L54.9004 48.2957Z" fill="#E8505B"/>
<g opacity="0.4">
<path d="M54.4866 44.7736L55.6295 44.3376L56.624 46.1118L56.07 48.0081L54.901 48.2958L53.7363 46.8268L54.4866 44.7736Z" fill="black"/>
</g>
<g opacity="0.4">
<path d="M54.9004 48.2957C54.9004 48.2957 56.3835 56.4518 57.6223 62.1886C57.6223 62.1886 58.7826 66.9183 59.0487 68.0648C59.2014 68.7405 60.92 71.1337 60.92 71.1337L62.3551 71.6873L61.4784 63.6271L56.0738 48.0037L54.9048 48.2914L54.9004 48.2957Z" fill="black"/>
</g>
<path d="M47.6024 39.8171L54.4857 44.7736L52.9983 48.8625L46.7344 42.4196L47.6024 39.8171Z" fill="#F5F5F5"/>
<path d="M55.6289 44.3376L57.5526 40.0525L58.6431 43.5878L57.1295 47.3062L55.6289 44.3376Z" fill="#F5F5F5"/>
<path d="M54.4848 44.7735C54.4848 44.7735 54.4674 44.8869 54.4063 45.0874C54.3278 45.3228 54.2362 45.6061 54.1271 45.9418C53.8829 46.6698 53.5208 47.6986 53.0933 48.8973L53.0323 49.063L52.9145 48.9322C52.4172 48.383 51.8763 47.7857 51.3093 47.1624C50.0617 45.7805 48.945 44.5207 48.1424 43.6009C47.7673 43.165 47.4532 42.7988 47.2002 42.5024C46.9821 42.2408 46.8687 42.0882 46.8774 42.0795C46.8905 42.0708 47.0257 42.1972 47.2656 42.4413C47.5317 42.7247 47.8632 43.0734 48.2602 43.4919C49.0933 44.3855 50.2318 45.6279 51.475 47.0098C52.0377 47.6375 52.5743 48.2347 53.0672 48.7884L52.8883 48.8232C53.3333 47.6288 53.7171 46.6131 53.9963 45.8938C54.1271 45.5669 54.2406 45.2923 54.3322 45.0612C54.415 44.8694 54.463 44.7648 54.4761 44.7692L54.4848 44.7735Z" fill="#263238"/>
<path d="M58.6435 43.5879C58.674 43.601 58.5475 43.9802 58.3207 44.5905C58.0939 45.2008 57.7711 46.0334 57.396 46.9532C57.3393 47.0883 57.2869 47.2235 57.2346 47.3499L57.1212 47.6245L57.0252 47.3455C56.4407 45.6716 55.5944 44.5644 55.6511 44.5295C55.673 44.512 55.9085 44.7692 56.2269 45.2444C56.5454 45.7195 56.9336 46.4214 57.2389 47.2714H57.0296C57.0819 47.1407 57.1342 47.0055 57.1909 46.8704C57.5617 45.9549 57.915 45.1267 58.1768 44.5338C58.4385 43.941 58.6173 43.5792 58.6479 43.5923L58.6435 43.5879Z" fill="#263238"/>
<path d="M146.125 172.669L148.777 183.192L153.279 190.912C153.602 191.47 153.388 192.185 152.812 192.468C152.489 192.63 152.11 192.625 151.791 192.451C149.772 191.361 142.356 187.316 142.204 186.535C142.029 185.629 138.666 175.62 138.666 175.62L146.121 172.669H146.125Z" fill="#E8505B"/>
<g opacity="0.6">
<path d="M152.812 192.473L142.012 185.833L142.134 186.278C142.239 186.662 142.478 186.997 142.806 187.22C143.687 187.817 146.156 189.412 151.761 192.468C152.088 192.647 152.481 192.647 152.812 192.477V192.473Z" fill="white"/>
</g>
<g opacity="0.6">
<path d="M143.224 181.862C143.538 181.971 143.73 182.342 143.634 182.66C143.538 182.978 143.159 183.179 142.844 183.074C142.53 182.97 142.282 182.529 142.413 182.229C142.543 181.923 143.001 181.714 143.281 181.889" fill="white"/>
</g>
<path d="M149.158 188.562C149.223 188.576 149.31 187.961 149.851 187.494C150.379 187.011 150.998 186.997 150.994 186.932C150.994 186.906 150.841 186.858 150.588 186.893C150.335 186.923 149.991 187.059 149.694 187.32C149.402 187.582 149.227 187.909 149.166 188.157C149.105 188.406 149.131 188.567 149.158 188.567V188.562Z" fill="#263238"/>
<path d="M150.287 189.757C150.348 189.787 150.592 189.356 151.09 189.051C151.583 188.737 152.076 188.706 152.076 188.636C152.093 188.575 151.526 188.493 150.963 188.85C150.396 189.199 150.226 189.744 150.287 189.757Z" fill="#263238"/>
<path d="M147.271 187.15C147.332 187.185 147.703 186.518 148.436 185.977C149.16 185.424 149.906 185.258 149.889 185.188C149.889 185.127 149.073 185.197 148.292 185.79C147.507 186.374 147.21 187.137 147.271 187.154V187.15Z" fill="#263238"/>
<path d="M146.195 184.016C146.238 184.072 146.753 183.671 147.495 183.436C148.236 183.192 148.886 183.218 148.89 183.144C148.903 183.083 148.219 182.948 147.42 183.209C146.622 183.462 146.147 183.976 146.19 184.016H146.195Z" fill="#263238"/>
<path d="M145.339 180.947C145.387 180.999 145.871 180.489 146.678 180.306C147.481 180.106 148.144 180.341 148.161 180.271C148.175 180.245 148.022 180.145 147.743 180.071C147.464 179.997 147.053 179.97 146.622 180.071C146.19 180.175 145.836 180.385 145.623 180.576C145.405 180.768 145.317 180.925 145.339 180.942V180.947Z" fill="#263238"/>
<path d="M146.496 179.726C146.496 179.726 146.496 179.574 146.4 179.325C146.308 179.077 146.129 178.724 145.798 178.375C145.632 178.214 145.444 177.996 145.113 177.939C144.947 177.909 144.738 177.996 144.655 178.17C144.568 178.34 144.576 178.523 144.62 178.689C144.816 179.351 145.562 179.835 146.339 179.722C147.111 179.596 147.673 178.981 147.813 178.327C147.839 178.161 147.83 177.965 147.7 177.813C147.569 177.656 147.338 177.643 147.194 177.712C146.897 177.843 146.749 178.079 146.605 178.262C146.326 178.65 146.186 179.016 146.116 179.273C146.046 179.53 146.042 179.678 146.055 179.678C146.099 179.696 146.177 179.09 146.74 178.362C146.884 178.192 147.05 177.978 147.268 177.896C147.372 177.856 147.482 177.874 147.543 177.948C147.608 178.022 147.621 178.157 147.595 178.292C147.473 178.833 146.958 179.391 146.304 179.487C145.654 179.587 144.995 179.16 144.834 178.628C144.799 178.501 144.794 178.362 144.842 178.266C144.89 178.17 144.986 178.122 145.095 178.135C145.322 178.161 145.519 178.345 145.68 178.497C146.334 179.142 146.452 179.753 146.496 179.726Z" fill="#263238"/>
<path d="M113.229 174.635L113.792 182.747C113.792 182.747 105.731 186.043 105.688 187.551L121.465 187.028L121.107 174.351L113.229 174.635Z" fill="#E8505B"/>
<path d="M118.647 181.902C118.956 181.976 119.179 182.311 119.118 182.621C119.057 182.93 118.716 183.161 118.407 183.092C118.097 183.022 117.818 182.63 117.914 182.324C118.01 182.024 118.424 181.775 118.708 181.915" fill="#E0E0E0"/>
<path d="M121.465 187.024L121.378 185.746L106.281 186.727C106.281 186.727 105.587 187.054 105.683 187.547L121.46 187.024H121.465Z" fill="#E0E0E0"/>
<path d="M113.535 182.673C113.54 182.752 113.928 182.773 114.316 183.009C114.709 183.236 114.918 183.562 114.988 183.528C115.058 183.51 114.927 183.052 114.456 182.778C113.984 182.499 113.522 182.603 113.54 182.673H113.535Z" fill="#263238"/>
<path d="M111.903 183.414C111.89 183.488 112.226 183.61 112.496 183.924C112.78 184.234 112.854 184.582 112.932 184.578C113.006 184.587 113.041 184.133 112.697 183.745C112.352 183.353 111.898 183.336 111.898 183.41L111.903 183.414Z" fill="#263238"/>
<path d="M111.026 185.424C111.096 185.437 111.192 185.049 110.978 184.635C110.768 184.216 110.402 184.064 110.371 184.129C110.332 184.194 110.572 184.412 110.742 184.757C110.917 185.097 110.952 185.419 111.03 185.424H111.026Z" fill="#263238"/>
<path d="M113.612 180.812C113.647 180.882 113.996 180.764 114.432 180.777C114.869 180.781 115.213 180.916 115.252 180.851C115.296 180.794 114.956 180.52 114.441 180.511C113.926 180.498 113.573 180.755 113.612 180.812Z" fill="#263238"/>
<path d="M113.529 179.172C113.529 179.203 113.835 179.242 114.319 179.142C114.559 179.094 114.842 179.002 115.139 178.859C115.287 178.789 115.436 178.702 115.584 178.601C115.654 178.553 115.741 178.501 115.815 178.41C115.898 178.327 115.942 178.122 115.837 178C115.754 177.882 115.606 177.834 115.492 177.834C115.374 177.834 115.283 177.86 115.196 177.887C115.021 177.934 114.86 178 114.711 178.07C114.415 178.218 114.175 178.397 114 178.571C113.647 178.924 113.529 179.212 113.556 179.229C113.59 179.255 113.761 179.007 114.123 178.715C114.306 178.571 114.537 178.418 114.816 178.296C114.956 178.235 115.104 178.183 115.265 178.139C115.431 178.091 115.575 178.083 115.619 178.157C115.636 178.183 115.636 178.196 115.606 178.244C115.571 178.292 115.505 178.336 115.436 178.383C115.3 178.479 115.161 178.562 115.026 178.636C114.755 178.78 114.493 178.885 114.271 178.955C113.822 179.094 113.525 179.125 113.529 179.168V179.172Z" fill="#263238"/>
<path d="M113.631 179.277C113.657 179.29 113.801 179.007 113.814 178.506C113.819 178.257 113.784 177.961 113.679 177.643C113.627 177.486 113.552 177.324 113.461 177.172C113.365 177.019 113.243 176.814 112.942 176.788C112.785 176.788 112.658 176.915 112.619 177.019C112.571 177.128 112.562 177.22 112.549 177.311C112.527 177.494 112.536 177.677 112.567 177.843C112.628 178.179 112.776 178.453 112.933 178.649C113.256 179.046 113.579 179.129 113.587 179.103C113.614 179.064 113.339 178.924 113.09 178.541C112.968 178.349 112.855 178.1 112.815 177.808C112.794 177.664 112.794 177.507 112.815 177.35C112.833 177.18 112.894 177.045 112.955 177.058C113.033 177.058 113.173 177.176 113.238 177.307C113.326 177.446 113.395 177.59 113.448 177.73C113.557 178.013 113.609 178.283 113.627 178.514C113.662 178.976 113.592 179.268 113.635 179.277H113.631Z" fill="#263238"/>
<path d="M108.924 86.3909L111.463 180.79L123.907 180.419L122.952 99.3944L138.813 182.669L150.054 179.739L135.541 86.5696L108.924 86.3909Z" fill="#4C4C4C"/>
<path d="M115.746 180.916C115.685 180.916 115.633 161.348 115.633 137.215C115.633 113.082 115.685 93.5095 115.746 93.5095C115.807 93.5095 115.86 113.074 115.86 137.215C115.86 161.356 115.807 180.916 115.746 180.916Z" fill="#455A64"/>
<path d="M142.364 182.642C142.303 182.651 139.394 163.889 135.869 140.742C132.344 117.585 129.535 98.8146 129.601 98.8015C129.662 98.7928 132.571 117.551 136.096 140.707C139.62 163.854 142.425 182.634 142.364 182.642Z" fill="#455A64"/>
<path d="M126.76 27.3585C127.131 26.3515 127.611 25.4055 127.812 24.355C127.96 23.5703 128.196 22.3933 127.882 21.661C127.567 20.9286 126.804 20.2268 125.844 20.4229C125.605 18.8711 124.78 17.6156 123.21 16.8527C121.796 16.1683 120.409 15.8327 118.843 15.7193C118.372 15.6845 117.635 15.7193 117.208 15.9242C116.78 16.1335 116.388 16.5563 116.226 16.9835C115.402 16.334 114.22 16.1422 113.02 16.4691C111.82 16.7961 110.451 17.4412 109.923 18.5703C109.596 19.2677 109.478 20.1309 109.827 21.2294C110.063 21.9617 110.835 23.1126 111.559 22.8467" fill="#263238"/>
<path d="M120.693 47.716C117.657 47.655 115.271 45.0961 115.424 42.0621C115.498 40.5538 115.568 39.342 115.568 39.342C115.568 39.342 111.459 38.8101 111.306 34.7212C111.153 30.6366 111.624 21.2294 111.624 21.2294C116.309 19.076 121.792 19.6252 125.954 22.6636L126.573 23.1126L126.189 42.4326C126.128 45.41 123.668 47.7727 120.689 47.7117L120.693 47.716Z" fill="#FFBE9D"/>
<path d="M115.559 39.2852C115.559 39.2852 118.15 39.4291 120.854 37.6375C120.854 37.6375 119.594 40.811 115.502 40.5451L115.559 39.2896V39.2852Z" fill="#EB996E"/>
<path d="M126.176 27.3673C126.246 27.3368 128.968 26.4649 128.946 29.2636C128.929 32.0622 126.12 31.465 126.115 31.3821C126.115 31.3037 126.172 27.3673 126.172 27.3673H126.176Z" fill="#FFBE9D"/>
<path d="M126.979 30.3316C126.979 30.3316 127.026 30.3665 127.109 30.4057C127.188 30.445 127.327 30.4711 127.476 30.4144C127.772 30.3098 128.025 29.839 128.043 29.3377C128.052 29.0849 127.999 28.8408 127.912 28.6402C127.829 28.4354 127.698 28.2915 127.55 28.2654C127.402 28.2305 127.297 28.3177 127.262 28.3961C127.223 28.4746 127.24 28.5313 127.227 28.5356C127.218 28.5443 127.166 28.4877 127.192 28.3743C127.205 28.3177 127.236 28.2523 127.306 28.2C127.371 28.1477 127.471 28.1171 127.576 28.1302C127.79 28.1477 127.986 28.3482 128.082 28.5661C128.191 28.7885 128.257 29.0631 128.248 29.3464C128.226 29.9088 127.934 30.4362 127.528 30.5496C127.332 30.5975 127.166 30.5409 127.083 30.4711C126.996 30.4014 126.983 30.3403 126.992 30.336L126.979 30.3316Z" fill="#EB996E"/>
<path d="M112.689 27.6157C112.689 27.9252 112.947 28.1824 113.27 28.1911C113.592 28.1999 113.854 27.9601 113.858 27.6506C113.858 27.3411 113.601 27.0839 113.283 27.0752C112.96 27.0665 112.698 27.3106 112.694 27.6157H112.689Z" fill="#263238"/>
<path d="M112.546 26.9661C112.62 27.0403 113.056 26.7002 113.684 26.6872C114.312 26.6654 114.779 26.9749 114.849 26.8964C114.879 26.8615 114.805 26.7264 114.6 26.5869C114.4 26.4474 114.059 26.3123 113.667 26.3253C113.274 26.3384 112.951 26.491 112.764 26.6436C112.576 26.7961 112.511 26.9356 112.55 26.9705L112.546 26.9661Z" fill="#263238"/>
<path d="M118.85 27.6113C118.85 27.9208 119.107 28.178 119.425 28.1867C119.748 28.1955 120.01 27.9557 120.014 27.6462C120.014 27.3367 119.757 27.0795 119.438 27.0708C119.116 27.0621 118.854 27.3062 118.85 27.6113Z" fill="#263238"/>
<path d="M118.727 26.9268C118.801 27.0009 119.238 26.6609 119.866 26.6479C120.494 26.6261 120.965 26.9356 121.03 26.8571C121.061 26.8222 120.987 26.6871 120.782 26.5476C120.581 26.4081 120.241 26.273 119.848 26.286C119.456 26.2991 119.133 26.4517 118.945 26.6043C118.758 26.7568 118.692 26.8963 118.732 26.9312L118.727 26.9268Z" fill="#263238"/>
<path d="M116.563 31.6435C116.563 31.6086 116.175 31.5519 115.538 31.4865C115.376 31.4735 115.224 31.4473 115.193 31.3383C115.154 31.225 115.215 31.0506 115.289 30.8588C115.429 30.4665 115.577 30.0567 115.734 29.6251C116.349 27.8684 116.79 26.4255 116.72 26.4037C116.65 26.3775 116.092 27.7812 115.477 29.538C115.328 29.9695 115.189 30.3836 115.054 30.7803C114.997 30.9634 114.897 31.1727 114.988 31.4124C115.036 31.5301 115.154 31.6173 115.259 31.6391C115.363 31.6696 115.451 31.6653 115.533 31.6696C116.17 31.6871 116.567 31.6827 116.567 31.6435H116.563Z" fill="#263238"/>
<path d="M118.426 32.0316C118.326 32.0316 118.339 32.7116 117.767 33.2086C117.196 33.7099 116.468 33.6488 116.463 33.7448C116.454 33.7883 116.629 33.8712 116.934 33.8755C117.235 33.8755 117.671 33.7709 118.025 33.4658C118.374 33.1606 118.518 32.7596 118.535 32.4806C118.553 32.1929 118.474 32.0272 118.426 32.0316Z" fill="#263238"/>
<path d="M118.504 24.4683C118.569 24.6383 119.197 24.5424 119.935 24.6121C120.676 24.6688 121.278 24.8693 121.37 24.7124C121.413 24.6383 121.304 24.4814 121.06 24.3201C120.816 24.1631 120.432 24.0149 119.991 23.9757C119.546 23.9365 119.145 24.0193 118.879 24.1326C118.613 24.2503 118.478 24.3855 118.508 24.4683H118.504Z" fill="#263238"/>
<path d="M112.734 25.1396C112.847 25.2791 113.279 25.1221 113.798 25.1003C114.317 25.0611 114.762 25.1701 114.858 25.0219C114.901 24.9478 114.827 24.8083 114.631 24.6775C114.439 24.5467 114.116 24.4465 113.759 24.4639C113.401 24.4857 113.096 24.6208 112.917 24.7734C112.738 24.926 112.681 25.0742 112.729 25.1396H112.734Z" fill="#263238"/>
<path d="M126.791 23.4438C126.765 24.6383 127.066 25.9547 126.887 27.1317C126.861 27.3105 126.411 27.7943 126.377 27.9687C126.163 29.0106 125.744 29.4639 125.103 28.4133C124.854 28.0079 124.675 26.8702 124.571 26.4081C124.291 25.157 124.012 23.9059 123.733 22.6505C122.769 23.13 121.718 23.5049 120.64 23.4656C119.563 23.4264 118.459 22.912 117.945 21.9661C117.456 22.8248 116.562 23.4438 115.589 23.5964C114.612 23.749 113.574 23.4351 112.845 22.7682C112.497 23.361 111.628 23.5441 111.035 23.2041C110.438 22.8597 110.154 22.0838 110.324 21.4168C110.582 20.4142 111.637 19.8431 112.623 19.5249C116.483 18.2825 120.811 19.0715 124.357 21.0332C124.876 21.3209 125.386 21.6348 125.796 22.062C126.206 22.4892 126.773 22.9861 126.804 23.579" fill="#263238"/>
<path d="M123.852 23.1169C123.86 23.1561 124.118 23.0646 124.488 23.2172C124.672 23.2913 124.872 23.4177 125.073 23.5921C125.274 23.7664 125.47 23.9931 125.71 24.2154C125.945 24.4378 126.216 24.6296 126.504 24.7167C126.792 24.8039 127.066 24.7865 127.28 24.7255C127.712 24.6034 127.886 24.368 127.865 24.3506C127.843 24.3201 127.638 24.4944 127.245 24.5598C127.053 24.5903 126.813 24.5903 126.573 24.5031C126.334 24.4203 126.098 24.2503 125.876 24.0367C125.649 23.8275 125.444 23.6008 125.217 23.4177C124.994 23.239 124.759 23.1125 124.545 23.0515C124.105 22.9207 123.834 23.0908 123.856 23.1082L123.852 23.1169Z" fill="#455A64"/>
<path d="M124.326 24.3374C124.33 24.3723 124.535 24.3418 124.771 24.5336C124.884 24.6252 124.998 24.769 125.129 24.939C125.255 25.109 125.438 25.3008 125.661 25.4316C126.11 25.7106 126.607 25.7542 126.935 25.7019C127.27 25.6496 127.445 25.5275 127.432 25.5014C127.419 25.4665 127.227 25.5275 126.917 25.5319C126.612 25.5362 126.176 25.4752 125.783 25.2267C125.382 25 125.185 24.5772 124.863 24.3941C124.548 24.2023 124.3 24.3069 124.322 24.3374H124.326Z" fill="#455A64"/>
<path d="M113.54 16.3864C113.54 16.3864 113.409 16.3515 113.182 16.4213C112.96 16.4867 112.646 16.6654 112.393 17.0141C111.891 17.716 111.778 18.9627 112.166 20.1658C112.559 21.3908 113.453 22.2365 114.168 22.6288C114.526 22.8337 114.844 22.947 115.062 23.0124C115.285 23.0734 115.411 23.0865 115.416 23.0734C115.429 23.0299 114.932 22.9209 114.255 22.4893C113.588 22.0708 112.764 21.2557 112.393 20.0961C112.022 18.954 112.114 17.7683 112.532 17.1144C112.742 16.7875 113.017 16.6044 113.213 16.5128C113.414 16.4256 113.54 16.4126 113.54 16.3908V16.3864Z" fill="#455A64"/>
<path d="M110.15 18.0863C110.124 18.0863 110.098 18.3914 110.185 18.8753C110.272 19.3548 110.495 20.0087 110.909 20.6364C111.328 21.2642 111.847 21.7219 112.257 21.9878C112.667 22.2537 112.959 22.3496 112.972 22.3234C113.016 22.2581 111.908 21.7219 111.11 20.5057C110.294 19.2981 110.224 18.0732 110.15 18.0863Z" fill="#455A64"/>
<path d="M87.5942 75.0527L81.6095 75.3535C80.8462 75.3928 80.2485 76.0292 80.266 76.7921C80.2922 78.1565 80.5234 80.031 81.5921 79.8522L82.2725 76.8749L87.2409 81.2559C87.7426 81.7093 88.362 82.0144 89.0294 82.1321L90.1984 82.01L87.5986 75.0527H87.5942Z" fill="#FFBE9D"/>
<path d="M116.214 43.0168L113.086 44.0499L111.533 70.0134V93.0388L130.739 95.1661L130.962 61.9576L129.723 45.4274L126.787 41.9226L116.214 43.0168Z" fill="#E0E0E0"/>
<path d="M115.254 44.2592V41.744L126.665 40.1572L126.207 45.9506L123.585 50.4973L119.298 50.7327L116.2 48.8234L115.254 44.2592Z" fill="#E0E0E0"/>
<path d="M116.274 43.9673C116.213 43.9673 116.182 43.4485 116.209 42.8164C116.235 42.1843 116.309 41.6743 116.37 41.6743C116.431 41.6743 116.462 42.1931 116.435 42.8251C116.409 43.4572 116.335 43.9673 116.274 43.9673Z" fill="#263238"/>
<path d="M119.127 43.7579C119.066 43.7579 119.048 43.1781 119.087 42.4719C119.127 41.7657 119.214 41.1946 119.275 41.199C119.336 41.199 119.353 41.7788 119.314 42.485C119.275 43.1912 119.188 43.7622 119.127 43.7579Z" fill="#263238"/>
<path d="M121.889 43.4703C121.828 43.466 121.819 42.8557 121.876 42.1102C121.933 41.3648 122.024 40.7632 122.09 40.7676C122.151 40.772 122.159 41.3823 122.103 42.1277C122.046 42.8731 121.954 43.4747 121.889 43.4703Z" fill="#263238"/>
<path d="M124.541 43.0343C124.48 43.0343 124.406 42.4589 124.441 41.7483C124.471 41.0334 124.598 40.4667 124.659 40.4754C124.724 40.4842 124.698 41.0552 124.667 41.7571C124.633 42.4589 124.606 43.0299 124.541 43.0343Z" fill="#263238"/>
<path d="M123.271 54.0109C123.271 54.0109 123.231 54.1679 123.118 54.4381C123.009 54.7084 122.835 55.092 122.612 55.5584C122.167 56.4957 121.508 57.7729 120.697 59.1374C119.886 60.5018 119.079 61.6919 118.468 62.5288C118.163 62.9473 117.905 63.283 117.722 63.5053C117.539 63.732 117.434 63.8497 117.421 63.841C117.395 63.8192 117.761 63.2917 118.337 62.4329C118.913 61.5742 119.698 60.3754 120.505 59.0197C121.312 57.664 121.993 56.4041 122.472 55.4843C122.952 54.5645 123.24 53.9935 123.271 54.0066V54.0109Z" fill="#263238"/>
<path d="M126.73 41.5215L129.827 43.0123L135.812 44.4727C138.438 44.9304 140.243 47.3716 139.903 50.0132L136.771 74.4292L140.51 98.0998L125.679 97.6595L124.811 88.8539V64.4423L126.734 41.5215H126.73Z" fill="#455A64"/>
<path d="M124.807 70.07C124.807 70.07 124.816 69.9653 124.851 69.7692C124.894 69.5512 124.951 69.2635 125.021 68.9104C125.182 68.1432 125.405 67.0708 125.68 65.7631C126.264 63.0865 127.062 59.4335 127.943 55.4012C128.192 54.2896 128.432 53.2085 128.663 52.1667L128.689 52.2669C128.34 51.9007 127.996 51.5433 127.66 51.1945L127.603 51.1335L127.647 51.0638C128.262 50.0437 128.838 49.0803 129.374 48.1954V48.2826C128.589 46.3907 127.935 44.8126 127.468 43.6793C127.254 43.1431 127.08 42.7115 126.953 42.3889C126.835 42.0925 126.779 41.9312 126.787 41.9268C126.796 41.9225 126.87 42.0751 127.006 42.3671C127.145 42.681 127.333 43.1082 127.568 43.6357C128.052 44.7603 128.729 46.3253 129.544 48.2085L129.562 48.2521L129.536 48.2957C129.008 49.1849 128.441 50.1483 127.83 51.1771L127.817 51.0463C128.153 51.3951 128.497 51.7525 128.851 52.1143L128.89 52.1579L128.877 52.2146C128.646 53.2521 128.41 54.3375 128.162 55.4491C127.254 59.4771 126.434 63.1257 125.832 65.7979C125.527 67.1013 125.278 68.165 125.099 68.9278C125.012 69.2766 124.942 69.5599 124.89 69.7779C124.838 69.9697 124.811 70.0743 124.803 70.07H124.807Z" fill="#263238"/>
<path d="M87.8477 74.0674L100.969 66.757L107.329 49.6209C108.218 47.2277 110.059 45.3096 112.419 44.3288L114.107 43.627L114.116 88.7449L114.456 99.4337L107.346 97.3064L110.971 75.8241L109.719 65.2487L108.471 70.362C108.027 72.1929 106.857 73.7622 105.23 74.7125L91.5728 81.8006L87.852 74.0674H87.8477Z" fill="#455A64"/>
<path d="M88.004 74.4031L86.9004 74.73L90.0062 82.132L91.4544 81.5696L88.004 74.4031Z" fill="#E0E0E0"/>
<path d="M103.341 69.7997C103.276 69.8215 103.049 68.9584 102.36 68.1389C101.684 67.3106 100.877 66.9314 100.907 66.8703C100.916 66.8137 101.814 67.1188 102.534 67.995C103.263 68.8625 103.398 69.7997 103.341 69.7997Z" fill="#263238"/>
<path d="M89.4211 74.1633C89.4341 74.1938 89.3556 74.2505 89.3469 74.3769C89.3338 74.5077 89.4254 74.6515 89.5955 74.5992C89.77 74.5513 89.7657 74.3812 89.6871 74.281C89.613 74.1807 89.5127 74.172 89.5083 74.1371C89.4952 74.111 89.6304 74.0412 89.7962 74.1633C89.8703 74.2243 89.9532 74.3289 89.9445 74.4815C89.9445 74.6341 89.8093 74.7779 89.6566 74.8172C89.5083 74.8651 89.3207 74.8172 89.2335 74.6864C89.1463 74.5643 89.155 74.4292 89.1855 74.3377C89.2597 74.1415 89.4123 74.1284 89.4123 74.1589L89.4211 74.1633Z" fill="#263238"/>
<path d="M90.4768 73.7187C90.4899 73.7492 90.4114 73.8059 90.4027 73.9323C90.3896 74.0631 90.4812 74.2069 90.6513 74.1546C90.8258 74.1067 90.8214 73.9367 90.7429 73.8364C90.6688 73.7361 90.5684 73.7274 90.5641 73.6926C90.551 73.6664 90.6862 73.5966 90.852 73.7187C90.9261 73.7797 91.009 73.8844 91.0003 74.0369C91.0003 74.1895 90.8651 74.3334 90.7124 74.3726C90.5641 74.4205 90.3765 74.3726 90.2893 74.2418C90.202 74.1198 90.2108 73.9846 90.2457 73.8931C90.3198 73.6969 90.4725 73.6838 90.4725 73.7143L90.4768 73.7187Z" fill="#263238"/>
<path d="M114.102 70.7675C114.102 70.7675 114.075 70.6715 114.045 70.4885C114.014 70.2792 113.975 70.0133 113.923 69.6864C113.822 68.9584 113.687 67.9558 113.522 66.7265C113.199 64.1981 112.763 60.7543 112.278 56.9444C112.213 56.4038 112.147 55.872 112.082 55.3445V55.314L112.091 55.2879C112.422 54.4465 112.741 53.6314 113.05 52.8511V52.9339C112.719 52.1754 112.405 51.4561 112.104 50.7717L112.091 50.7368L112.099 50.702C112.68 48.6008 113.168 46.8353 113.522 45.5668C113.696 44.9652 113.836 44.4857 113.936 44.1239C114.036 43.7926 114.093 43.6139 114.106 43.6182C114.115 43.6182 114.08 43.8013 113.997 44.1414C113.905 44.5032 113.788 44.9914 113.635 45.5973C113.303 46.8746 112.841 48.6444 112.291 50.7543V50.6889C112.588 51.3689 112.911 52.0882 113.247 52.8423L113.264 52.8816L113.247 52.9252C112.941 53.7055 112.623 54.5206 112.296 55.362L112.304 55.3053C112.37 55.8284 112.435 56.3646 112.501 56.9051C112.959 60.7151 113.373 64.1632 113.679 66.6959C113.814 67.9296 113.927 68.9366 114.01 69.6646C114.041 69.9959 114.067 70.2661 114.089 70.4754C114.106 70.6628 114.11 70.7587 114.102 70.7587V70.7675Z" fill="#263238"/>
<path d="M110.944 75.9463C110.944 75.9463 110.922 75.8722 110.9 75.7327C110.878 75.567 110.848 75.3622 110.817 75.118C110.747 74.547 110.651 73.7798 110.538 72.8469C110.307 70.9288 109.98 68.2828 109.587 65.3621C109.194 62.4414 108.811 59.7998 108.527 57.8904C108.392 56.9619 108.278 56.1947 108.196 55.628C108.165 55.3839 108.139 55.179 108.117 55.009C108.1 54.8695 108.095 54.791 108.104 54.791C108.113 54.791 108.13 54.8608 108.161 55.0003C108.196 55.1659 108.235 55.3664 108.283 55.6105C108.383 56.1424 108.523 56.9096 108.684 57.8643C109.007 59.7692 109.417 62.4066 109.81 65.3316C110.202 68.2523 110.503 70.907 110.695 72.8295C110.791 73.7928 110.861 74.5688 110.904 75.1093C110.922 75.3578 110.935 75.5627 110.948 75.7283C110.957 75.8722 110.957 75.9463 110.948 75.9463H110.944Z" fill="#263238"/>
<path d="M109.135 91.9837C109.135 91.9837 109.209 92.1494 109.44 92.3499C109.662 92.5417 110.112 92.7422 110.635 92.6158C111.159 92.4938 111.669 92.0055 111.935 91.3386C112.21 90.6672 112.24 89.8433 112.301 88.9933C112.354 88.1476 112.336 87.3237 112.057 86.6568C111.791 85.9854 111.272 85.5364 110.866 85.1572C110.452 84.7779 110.129 84.4379 109.959 84.1676C109.784 83.8974 109.732 83.7274 109.745 83.723C109.763 83.7143 109.841 83.8712 110.033 84.1153C110.221 84.3638 110.548 84.6733 110.975 85.0351C111.39 85.4013 111.948 85.8503 112.249 86.5739C112.554 87.2888 112.581 88.1476 112.524 89.0064C112.463 89.8564 112.428 90.7021 112.123 91.417C111.83 92.1276 111.259 92.655 110.666 92.7684C110.068 92.8861 109.597 92.6376 109.374 92.4109C109.257 92.2932 109.196 92.1799 109.161 92.1058C109.13 92.0273 109.121 91.9837 109.13 91.9794L109.135 91.9837Z" fill="#263238"/>
<path d="M104.258 75.0527C104.258 75.0527 104.681 70.0527 108.655 69.5906C108.655 69.5906 108.729 73.6664 104.258 75.0527Z" fill="#263238"/>
<path d="M125.493 93.7756C125.754 93.9499 137.03 101.317 137.03 101.317L138.33 100.275L138.945 83.3745L127.957 75.0527L126.444 75.5715L125.488 93.7756H125.493Z" fill="#E8505B"/>
<path d="M127.835 75.2925L128.289 93.5881H125.863L126.675 75.6543L127.835 75.2925Z" fill="#E0E0E0"/>
<path d="M131.468 97.786C131.468 97.786 131.725 98.5969 132.768 98.671C132.799 98.671 132.833 98.6971 132.864 98.7494C133.099 99.1505 133.496 99.4338 133.959 99.4338C134.316 99.4338 134.748 99.351 135.198 99.0764C135.8 98.7102 136.873 96.3039 136.873 96.3039L139.416 90.6413L135.137 89.4861L129.701 91.1775C129.701 91.2777 128.428 96.4172 128.428 96.4172C128.428 96.4172 129.457 96.705 129.954 95.6064C130.452 94.5079 130.914 93.8104 130.914 93.8104L131.32 96.1252L129.776 96.6526C129.776 96.6526 129.588 97.507 130.439 97.8253L131.468 97.7817V97.786Z" fill="#FFBE9D"/>
<path d="M133.389 58.0213L140.512 71.1251L134.715 88.3222L141.162 91.9491L149.354 72.8209C149.96 71.4041 149.934 69.7912 149.284 68.3919L139.234 46.8181L133.389 58.0213Z" fill="#455A64"/>
<path d="M134.713 88.3223L134.111 89.6518L140.192 92.93L140.829 91.7617L134.713 88.3223Z" fill="#E0E0E0"/>
<path d="M134.715 88.3222C134.715 88.3222 134.715 88.2917 134.732 88.235C134.754 88.1653 134.776 88.0825 134.806 87.9822C134.88 87.7468 134.985 87.4199 135.116 87.0101C135.399 86.147 135.801 84.922 136.298 83.3963C137.327 80.31 138.763 76.0118 140.403 71.0902L140.411 71.1818C139.583 69.7737 138.732 68.2873 137.868 66.7528C136.298 63.9498 134.854 61.2471 133.624 58.7493C133.013 57.4982 132.446 56.2994 131.966 55.1573C131.443 54.0152 131.312 52.8164 131.373 51.7615C131.443 50.7022 131.652 49.7519 132.01 48.9846C132.363 48.2131 132.83 47.6376 133.266 47.2409C133.707 46.8443 134.117 46.6176 134.4 46.4912C134.684 46.3647 134.845 46.3342 134.845 46.3342C134.867 46.3691 134.187 46.5086 133.323 47.3063C132.904 47.7074 132.455 48.2828 132.119 49.0413C131.783 49.7954 131.583 50.737 131.526 51.7745C131.478 52.812 131.613 53.9759 132.132 55.0875C132.616 56.2209 133.192 57.411 133.803 58.6621C135.046 61.1512 136.49 63.8452 138.06 66.6438C138.92 68.1783 139.77 69.6648 140.595 71.0728L140.621 71.1164L140.603 71.1643C138.933 76.0728 137.471 80.3623 136.424 83.4442C135.897 84.9613 135.478 86.1818 135.177 87.0362C135.033 87.4417 134.915 87.7642 134.832 87.9953C134.793 88.0955 134.763 88.174 134.741 88.2437C134.719 88.3004 134.706 88.3266 134.701 88.3266L134.715 88.3222Z" fill="#263238"/>
<path d="M145.327 70.9987C145.309 71.0292 145.056 70.8941 144.625 70.7503C144.197 70.6064 143.578 70.4756 142.888 70.4974C142.199 70.5192 141.589 70.6892 141.17 70.8592C140.747 71.0292 140.507 71.1818 140.485 71.1513C140.472 71.1295 140.686 70.929 141.104 70.7154C141.523 70.4974 142.16 70.2969 142.884 70.2707C143.608 70.2489 144.258 70.4146 144.686 70.602C145.117 70.7895 145.344 70.9769 145.331 70.9987H145.327Z" fill="#263238"/>
<path d="M131.961 54.9001L137.078 72.0188L137.802 66.391L131.961 54.9001Z" fill="#263238"/>
<path d="M140.415 88.5271C140.428 88.5576 140.35 88.6142 140.341 88.7407C140.328 88.8714 140.42 89.0153 140.59 88.963C140.764 88.915 140.76 88.745 140.681 88.6448C140.607 88.5445 140.507 88.5358 140.502 88.5009C140.489 88.4747 140.625 88.405 140.79 88.5271C140.865 88.5881 140.947 88.6927 140.939 88.8453C140.939 88.9978 140.803 89.1417 140.651 89.1809C140.502 89.2289 140.315 89.1809 140.228 89.0502C140.14 88.9281 140.149 88.793 140.18 88.7014C140.254 88.5053 140.406 88.4922 140.406 88.5227L140.415 88.5271Z" fill="#263238"/>
<path d="M140.931 87.2934C140.944 87.3239 140.865 87.3806 140.857 87.507C140.844 87.6378 140.935 87.7816 141.105 87.7293C141.28 87.6814 141.275 87.5114 141.197 87.4111C141.123 87.3109 141.022 87.3021 141.018 87.2673C141.005 87.2411 141.14 87.1714 141.306 87.2934C141.38 87.3544 141.463 87.4591 141.454 87.6116C141.454 87.7642 141.319 87.9081 141.166 87.9473C141.018 87.9952 140.83 87.9473 140.743 87.8165C140.656 87.6945 140.665 87.5593 140.695 87.4678C140.769 87.2716 140.922 87.2585 140.922 87.2891L140.931 87.2934Z" fill="#263238"/>
<path d="M147.931 65.4929C147.168 65.894 146.902 67.0186 146.989 67.8774C147.076 68.7362 147.39 69.5688 147.368 70.4319C147.351 71.0466 147.163 71.6438 147.041 72.2453C146.919 72.8469 146.862 73.4964 147.098 74.0631C147.334 74.6342 147.936 75.0876 148.542 74.9742L149.148 73.7536C150.108 71.8181 150.077 69.5339 149.061 67.6246L147.931 65.4929Z" fill="#263238"/>
<path d="M185.28 157.516C185.672 156.156 186.514 154.844 187.81 154.286C189.162 153.702 190.728 154.033 192.111 154.539C193.494 155.04 194.855 155.711 196.32 155.803C197.79 155.894 199.448 155.197 199.888 153.793C200.303 152.472 199.505 151.064 198.51 150.11C196.416 148.096 193.267 147.241 190.44 147.917C187.614 148.593 185.197 150.785 184.246 153.532" fill="#E8505B"/>
<g opacity="0.5">
<path d="M185.28 157.516C185.672 156.156 186.514 154.844 187.81 154.286C189.162 153.702 190.728 154.033 192.111 154.539C193.494 155.04 194.855 155.711 196.32 155.803C197.79 155.894 199.448 155.197 199.888 153.793C200.303 152.472 199.505 151.064 198.51 150.11C196.416 148.096 193.267 147.241 190.44 147.917C187.614 148.593 185.197 150.785 184.246 153.532" fill="black"/>
</g>
<path d="M173.641 163.41C171.486 161.365 171.595 157.804 172.668 155.031C173.741 152.263 176.088 150.136 178.709 148.732C183.791 146.016 190.142 145.812 195.386 148.192C192.808 148.279 190.317 149.739 188.986 151.949C187.804 153.911 187.543 156.287 186.566 158.357C185.479 160.663 183.482 162.525 181.109 163.453C178.731 164.382 176.001 164.364 173.636 163.405" fill="#E8505B"/>
<path d="M172.603 151.117C170.217 148.301 169.898 143.784 170.251 140.11C170.605 136.439 171.455 132.743 170.875 129.098C170.531 126.94 169.693 124.879 169.41 122.712C169.126 120.545 169.527 118.096 171.207 116.696C173.139 115.088 176.179 115.467 178.186 116.975C180.197 118.484 181.357 120.855 182.208 123.222C184.075 128.414 184.764 134.172 183.229 139.473C181.693 144.774 178.09 149.512 172.808 151.112" fill="#E8505B"/>
<path d="M171.46 174.212C171.46 174.212 171.451 174.099 171.451 173.889C171.451 173.676 171.451 173.362 171.469 172.961C171.499 172.154 171.578 170.986 171.757 169.552C171.94 168.118 172.223 166.418 172.673 164.561C173.117 162.699 173.876 160.711 174.954 158.78C176.031 156.849 177.349 155.18 178.679 153.802C180.014 152.425 181.379 151.357 182.583 150.554C183.181 150.14 183.757 149.831 184.254 149.539C184.764 149.273 185.209 149.05 185.571 148.876C185.933 148.724 186.217 148.606 186.43 148.514C186.627 148.436 186.731 148.397 186.736 148.401C186.736 148.405 186.64 148.458 186.448 148.549C186.239 148.645 185.959 148.776 185.606 148.942C185.248 149.129 184.812 149.356 184.311 149.63C183.822 149.927 183.255 150.245 182.666 150.663C181.475 151.474 180.132 152.547 178.814 153.92C177.501 155.293 176.201 156.949 175.128 158.867C172.934 162.704 172.332 166.736 171.896 169.561C171.7 170.986 171.599 172.15 171.547 172.956C171.525 173.344 171.508 173.654 171.49 173.885C171.477 174.099 171.469 174.208 171.46 174.208V174.212Z" fill="#263238"/>
<path d="M150.88 140.014C146.466 142.677 146.479 145.101 147.216 147.385C147.953 149.674 150.662 151.261 152.908 150.406C154.178 149.922 155.098 148.82 155.883 147.712C156.669 146.605 157.406 145.419 158.509 144.622C159.609 143.824 161.205 143.523 162.313 144.312" fill="#E8505B"/>
<g opacity="0.5">
<path d="M150.88 140.014C146.466 142.677 146.479 145.101 147.216 147.385C147.953 149.674 150.662 151.261 152.908 150.406C154.178 149.922 155.098 148.82 155.883 147.712C156.669 146.605 157.406 145.419 158.509 144.622C159.609 143.824 161.205 143.523 162.313 144.312" fill="black"/>
</g>
<path d="M147.574 142.934C148.73 141.339 151.579 140.877 153.38 141.675C155.182 142.468 156.499 144.046 157.681 145.624C158.863 147.198 160.01 148.863 161.646 149.957C163.282 151.051 165.568 151.448 167.195 150.345C168.263 149.622 168.887 148.362 169.079 147.084C169.275 145.807 169.088 144.504 168.822 143.24C168.434 141.391 167.797 139.456 166.314 138.283C164.66 136.971 162.37 136.91 160.263 136.98C157.847 137.058 155.391 137.241 153.123 138.078C150.854 138.915 148.538 140.724 147.574 142.943" fill="#E8505B"/>
<path d="M167.792 170.681C167.792 170.681 167.784 170.646 167.779 170.585C167.779 170.511 167.77 170.415 167.766 170.302C167.757 170.036 167.744 169.67 167.727 169.208C167.701 168.24 167.661 166.867 167.609 165.18C167.557 163.48 167.487 161.457 167.365 159.212C167.238 156.967 167.073 154.5 166.732 151.932C166.558 150.65 166.357 149.395 165.999 148.235C165.642 147.071 165.166 145.99 164.647 145.001C164.124 144.011 163.548 143.113 162.942 142.324C162.331 141.54 161.698 140.855 161.079 140.28C159.827 139.138 158.628 138.436 157.773 138.03C157.559 137.93 157.371 137.834 157.201 137.765C157.035 137.699 156.891 137.642 156.769 137.599C156.66 137.555 156.577 137.52 156.503 137.494C156.442 137.468 156.416 137.455 156.416 137.451C156.416 137.451 156.451 137.455 156.512 137.472C156.586 137.494 156.673 137.525 156.782 137.56C156.905 137.603 157.053 137.651 157.223 137.708C157.397 137.773 157.585 137.865 157.808 137.956C158.676 138.344 159.897 139.033 161.175 140.175C161.808 140.751 162.449 141.435 163.073 142.224C163.692 143.013 164.276 143.92 164.809 144.918C165.336 145.916 165.821 147.006 166.187 148.179C166.549 149.36 166.754 150.62 166.929 151.906C167.269 154.482 167.43 156.954 167.548 159.203C167.661 161.453 167.714 163.475 167.753 165.175C167.788 166.875 167.801 168.253 167.805 169.203C167.805 169.665 167.805 170.031 167.805 170.297C167.805 170.415 167.805 170.507 167.801 170.581C167.801 170.646 167.797 170.677 167.792 170.677V170.681Z" fill="#263238"/>
<path d="M169.379 172.673C169.379 172.673 169.131 172.019 168.895 170.777C168.664 169.539 168.494 167.703 168.694 165.454C168.882 163.205 169.458 160.563 170.378 157.73C171.285 154.892 172.516 151.858 173.567 148.593C174.086 146.958 174.531 145.345 174.836 143.758C175.146 142.172 175.338 140.624 175.464 139.146C175.713 136.186 175.678 133.505 175.604 131.26C175.53 129.015 175.408 127.198 175.333 125.942C175.299 125.323 175.268 124.839 175.246 124.495C175.237 124.338 175.233 124.212 175.229 124.12C175.229 124.037 175.229 123.994 175.229 123.989C175.229 123.989 175.237 124.033 175.246 124.116C175.255 124.212 175.268 124.334 175.285 124.491C175.316 124.835 175.355 125.319 175.408 125.933C175.504 127.189 175.648 129.002 175.739 131.252C175.831 133.501 175.879 136.186 175.639 139.159C175.521 140.646 175.329 142.198 175.019 143.793C174.718 145.389 174.273 147.015 173.75 148.649C172.694 151.923 171.46 154.953 170.548 157.782C169.624 160.602 169.039 163.227 168.834 165.463C168.616 167.699 168.769 169.521 168.974 170.759C169.083 171.378 169.183 171.853 169.27 172.176C169.309 172.329 169.336 172.451 169.357 172.542C169.375 172.625 169.384 172.669 169.379 172.669V172.673Z" fill="#263238"/>
<path d="M180.323 174.665H159.595L159.119 170.681H180.323V174.665Z" fill="#455A64"/>
<path d="M161.82 174.212L164.411 186.174H175.674L178.099 174.212H161.82Z" fill="#455A64"/>
<path d="M180.324 174.665C180.324 174.722 175.766 174.752 170.147 174.735C164.525 174.717 159.971 174.661 159.971 174.608C159.971 174.556 164.529 174.521 170.152 174.539C175.774 174.556 180.328 174.613 180.328 174.665H180.324Z" fill="#455A64"/>
<path d="M176.765 180.572C176.739 180.611 176.154 180.01 174.941 179.526C174.339 179.286 173.576 179.099 172.721 179.081C171.862 179.055 170.933 179.26 169.99 179.582C169.044 179.901 168.163 180.271 167.303 180.476C166.44 180.664 165.637 180.65 164.983 180.546C164.324 180.441 163.818 180.249 163.491 180.075C163.33 179.983 163.207 179.909 163.133 179.848C163.055 179.792 163.015 179.757 163.02 179.752C163.033 179.735 163.199 179.857 163.526 180.01C163.857 180.158 164.359 180.328 165.005 180.411C165.646 180.493 166.431 180.493 167.264 180.302C168.093 180.092 168.974 179.718 169.929 179.395C170.88 179.068 171.844 178.859 172.725 178.898C173.607 178.929 174.383 179.133 174.994 179.395C175.609 179.648 176.054 179.957 176.346 180.184C176.49 180.297 176.599 180.393 176.669 180.463C176.739 180.528 176.773 180.568 176.769 180.572H176.765Z" fill="#263238"/>
<path d="M176.608 181.37C176.582 181.409 176.019 180.825 174.854 180.337C174.274 180.097 173.542 179.914 172.713 179.896C171.884 179.874 170.981 180.062 170.074 180.371C169.162 180.677 168.303 181.03 167.487 181.252C166.671 181.474 165.899 181.553 165.254 181.5C164.608 181.457 164.106 181.274 163.792 181.108C163.635 181.021 163.518 180.947 163.443 180.886C163.369 180.829 163.33 180.799 163.334 180.79C163.347 180.772 163.504 180.89 163.823 181.034C164.141 181.174 164.634 181.33 165.262 181.357C165.886 181.387 166.636 181.3 167.435 181.069C168.237 180.842 169.088 180.485 170.008 180.18C170.929 179.866 171.862 179.678 172.717 179.709C173.568 179.735 174.322 179.94 174.907 180.201C175.496 180.459 175.923 180.764 176.202 180.982C176.342 181.091 176.447 181.187 176.512 181.252C176.577 181.317 176.612 181.352 176.608 181.361V181.37Z" fill="white"/>
<path d="M176.969 179.779C176.943 179.818 176.336 179.207 175.093 178.676C174.478 178.414 173.702 178.183 172.816 178.131C171.935 178.07 170.971 178.296 169.998 178.628C169.021 178.955 168.114 179.351 167.215 179.534C166.317 179.696 165.492 179.648 164.816 179.534C164.14 179.417 163.617 179.225 163.276 179.046C163.111 178.955 162.98 178.876 162.901 178.815C162.823 178.754 162.779 178.719 162.784 178.715C162.797 178.697 162.967 178.82 163.307 178.976C163.652 179.129 164.171 179.299 164.834 179.395C165.497 179.486 166.308 179.517 167.176 179.351C168.035 179.168 168.947 178.767 169.929 178.436C170.906 178.1 171.905 177.869 172.821 177.943C173.732 178.009 174.522 178.262 175.141 178.545C175.765 178.824 176.223 179.142 176.524 179.377C176.672 179.495 176.786 179.591 176.855 179.665C176.93 179.735 176.965 179.774 176.96 179.779H176.969Z" fill="white"/>
<path d="M180.507 174.683C180.507 174.735 175.843 174.783 170.094 174.783C164.345 174.783 159.678 174.739 159.678 174.683C159.678 174.626 164.341 174.582 170.094 174.582C175.848 174.582 180.507 174.626 180.507 174.683Z" fill="#263238"/>
<path d="M22.0992 170.132C22.8451 171.195 24.2933 170.842 24.9651 170.193C25.6369 169.543 25.9204 168.602 26.1777 167.704C26.7666 165.65 27.3642 163.501 26.9237 161.413C26.7928 160.79 26.5572 160.166 26.121 159.704C25.6805 159.242 25.0087 158.968 24.3893 159.129C23.6608 159.321 23.2028 160.036 22.8757 160.716C21.9117 162.717 21.4013 164.931 21.3926 167.15C21.3926 168.187 21.5104 169.273 22.0949 170.132" fill="#E8505B"/>
<g opacity="0.2">
<path d="M22.0992 170.132C22.8451 171.195 24.2933 170.842 24.9651 170.193C25.6369 169.543 25.9204 168.602 26.1777 167.704C26.7666 165.65 27.3642 163.501 26.9237 161.413C26.7928 160.79 26.5572 160.166 26.121 159.704C25.6805 159.242 25.0087 158.968 24.3893 159.129C23.6608 159.321 23.2028 160.036 22.8757 160.716C21.9117 162.717 21.4013 164.931 21.3926 167.15C21.3926 168.187 21.5104 169.273 22.0949 170.132" fill="black"/>
</g>
<path d="M24.8948 175.524C26.1118 174.896 27.5512 174.813 28.9035 175.036C29.6319 175.158 30.3909 175.371 30.8839 175.921C31.3768 176.465 31.4727 177.429 30.9057 177.895C30.5654 178.174 30.0943 178.218 29.6581 178.214C28.5981 178.2 27.4247 178.013 26.5741 178.654C26.09 179.016 25.7715 179.622 25.1914 179.8C24.6243 179.975 23.9875 179.643 23.6908 179.133C23.3899 178.623 23.3811 177.987 23.5207 177.411C23.5207 177.411 23.669 176.16 24.8948 175.528V175.524Z" fill="#E8505B"/>
<path d="M20.0532 171.662C20.8645 170.703 21.0172 169.303 20.6552 168.1C20.2931 166.897 19.4818 165.873 18.5439 165.04C17.4447 164.059 16.1535 163.296 14.762 162.808C14.2168 162.616 13.6366 162.464 13.0608 162.521C12.485 162.577 11.9049 162.869 11.6344 163.384C11.2375 164.142 11.617 165.062 12.0314 165.812C12.7598 167.133 13.5886 168.401 14.5134 169.591C15.2593 170.55 16.1099 171.496 17.244 171.932C18.3782 172.364 19.5559 172.316 20.1579 171.527" fill="#E8505B"/>
<path d="M22.0519 186.187C22.0519 186.187 22.0868 186.017 22.1173 185.703C22.1522 185.35 22.1958 184.91 22.2438 184.382C22.3049 183.828 22.3877 183.166 22.5404 182.447C22.6931 181.727 22.933 180.951 23.2427 180.162C23.5611 179.378 23.9537 178.667 24.4117 178.096C24.8654 177.525 25.3932 177.111 25.8861 176.871C26.379 176.627 26.8239 176.527 27.1293 176.483C27.439 176.453 27.6091 176.426 27.6091 176.413C27.6091 176.4 27.4346 176.396 27.1206 176.405C26.8065 176.426 26.3441 176.505 25.825 176.74C25.3016 176.971 24.7432 177.394 24.2678 177.978C23.788 178.558 23.3823 179.29 23.0595 180.088C22.7454 180.89 22.5055 181.675 22.3616 182.412C22.2133 183.144 22.1478 183.811 22.1042 184.373C22.0606 184.936 22.0475 185.389 22.0388 185.703C22.03 186.017 22.0388 186.191 22.0475 186.191L22.0519 186.187Z" fill="#263238"/>
<path d="M22.1428 185.171C22.1428 185.171 22.1559 185.093 22.1559 184.949C22.1559 184.779 22.1559 184.569 22.1559 184.308C22.1559 183.75 22.1559 182.943 22.1865 181.95C22.2344 179.962 22.4089 177.211 22.7404 174.194C23.072 171.174 23.5169 168.458 23.9182 166.509C24.0142 166.021 24.1101 165.581 24.2017 165.197C24.289 164.809 24.3631 164.478 24.4329 164.208C24.494 163.955 24.542 163.75 24.5812 163.584C24.6118 163.44 24.6292 163.366 24.6205 163.362C24.6118 163.362 24.5856 163.432 24.542 163.571C24.494 163.732 24.4329 163.937 24.3544 164.186C24.2715 164.452 24.1886 164.783 24.0883 165.167C23.988 165.55 23.8833 165.99 23.7786 166.479C23.338 168.427 22.8757 171.147 22.5398 174.173C22.2083 177.198 22.06 179.953 22.0469 181.95C22.0338 182.948 22.0556 183.754 22.0818 184.312C22.0992 184.574 22.1123 184.783 22.121 184.953C22.1341 185.101 22.1428 185.175 22.1472 185.175L22.1428 185.171Z" fill="#263238"/>
<path d="M22.1554 179.857C22.1554 179.857 22.1685 179.617 22.1511 179.186C22.1249 178.754 22.0682 178.131 21.946 177.368C21.8195 176.605 21.6363 175.703 21.3572 174.722C21.0867 173.737 20.7203 172.673 20.2492 171.592C19.3288 169.417 18.0813 167.634 16.9995 166.535C16.7465 166.243 16.463 166.03 16.2361 165.825C16.1183 165.724 16.0137 165.628 15.909 165.55C15.8043 165.476 15.704 165.411 15.6124 165.345C15.2547 165.101 15.054 164.97 15.0496 164.983C15.0191 165.027 15.8479 165.515 16.8992 166.631C17.946 167.747 19.1587 169.513 20.0704 171.67C20.5371 172.743 20.9079 173.798 21.1827 174.774C21.4749 175.746 21.6669 176.64 21.8108 177.394C21.9504 178.148 22.0289 178.767 22.0769 179.19C22.1162 179.617 22.1467 179.853 22.1598 179.853L22.1554 179.857Z" fill="#263238"/>
<path d="M86.4504 3.48421L86.45 3.48053L86.4227 3.48375C86.4 3.48352 86.3722 3.48352 86.341 3.48352H86.3381V3.48336L86.3301 3.48368C86.2226 3.48798 86.0902 3.49224 85.9281 3.49224V3.49218L85.9234 3.4923C85.7967 3.49531 85.6509 3.50041 85.4879 3.50611C85.4135 3.50871 85.3355 3.51144 85.2541 3.51415L85.254 3.51373L85.2412 3.515C85.0832 3.53052 84.9063 3.55604 84.7201 3.58291C84.5927 3.6013 84.4609 3.62031 84.3277 3.6372C83.9958 3.66668 83.647 3.75535 83.2842 3.84758C83.2466 3.85714 83.2088 3.86674 83.1709 3.87632C82.7848 3.95328 82.3891 4.0971 81.9827 4.24477C81.9313 4.26347 81.8797 4.28224 81.8279 4.30093C81.4712 4.41896 81.1118 4.59585 80.7495 4.77423C80.6142 4.84081 80.4786 4.90759 80.3425 4.97159L80.3329 4.9761L80.3238 4.98159C80.2285 5.03943 80.1302 5.09774 80.0297 5.15731C79.6268 5.3962 79.1901 5.65519 78.7785 5.98386C77.743 6.7582 76.7028 7.77582 75.826 9.06358C74.9482 10.3529 74.2479 11.9121 73.8977 13.6662L73.8977 13.6666C73.5524 15.4141 73.5342 17.3489 74.0175 19.2767C74.4774 21.1446 75.403 22.986 76.7618 24.5643C76.1855 26.4156 75.5861 28.3399 74.9673 30.3262L74.8359 30.3718L74.9262 30.4582C74.9225 30.47 74.9188 30.4818 74.9151 30.4936C74.915 30.4938 74.915 30.494 74.9149 30.4942L74.8194 30.7937L74.6978 31.1747L75.0756 31.0434L75.3765 30.9388C75.3765 30.9388 75.3765 30.9388 75.3765 30.9388C75.3892 30.9344 75.402 30.93 75.4147 30.9256L75.5112 31.0179L75.5547 30.877C77.0417 30.3608 78.5625 29.8345 80.1097 29.299C80.9382 29.0123 81.7743 28.7229 82.6168 28.4311L82.6279 28.4344C82.6283 28.4345 82.6286 28.4346 82.6289 28.4347C84.0835 28.8853 85.6079 29.0941 87.096 28.9879C88.5772 28.917 90.035 28.6118 91.367 28.0483L91.3671 28.0483C94.0171 26.9253 96.2109 25.001 97.5252 22.6943C98.876 20.4187 99.4166 17.8517 99.2707 15.5128C99.1727 13.1544 98.37 11.0381 97.3078 9.36158C96.2441 7.66531 94.8925 6.41198 93.5718 5.54378C92.2487 4.66094 90.9492 4.19171 89.8857 3.89623L89.8857 3.89616L89.8806 3.89489C89.7933 3.87307 89.7063 3.8511 89.6203 3.82937C89.451 3.78659 89.2856 3.74478 89.1287 3.70703L89.1287 3.707L89.1252 3.70624C88.9446 3.66612 88.7644 3.64245 88.6033 3.62128C88.5462 3.61378 88.4914 3.60659 88.44 3.5991C88.0202 3.53358 87.6561 3.49253 87.3534 3.49224C87.2947 3.49038 87.2385 3.4885 87.1846 3.4867C86.9923 3.48028 86.8307 3.47488 86.6988 3.47481C86.6211 3.4726 86.5616 3.47372 86.5202 3.47554C86.4992 3.47647 86.4829 3.47757 86.4712 3.47852L86.4571 3.47977L86.4527 3.48023L86.4511 3.4804L86.4505 3.48047L86.4503 3.4805L86.4501 3.48052L86.4501 3.48052L86.4505 3.48421C86.4505 3.48421 86.4505 3.48421 86.4504 3.48421ZM82.7266 27.7129L82.6762 27.6962L82.6129 27.6751L82.5497 27.6962L82.4974 27.7136L82.4951 27.7144C80.2145 28.5043 77.9805 29.28 75.8158 30.0316C76.1762 28.865 76.5298 27.7214 76.8758 26.6025C77.023 26.1264 77.1688 25.6547 77.3132 25.1876L77.3893 25.2733L77.3483 25.0741C77.3989 24.9104 77.4493 24.7472 77.4996 24.5846C77.4997 24.5844 77.4997 24.5842 77.4998 24.584L77.5256 24.5024L77.5593 24.3957L77.486 24.3111L77.4293 24.2457L77.4293 24.2457L77.4273 24.2435C76.0706 22.7246 75.1437 20.9272 74.6892 19.1102L74.689 19.1095C74.2259 17.2884 74.2341 15.4526 74.552 13.7911C74.8738 12.1277 75.5302 10.6442 76.3538 9.41381C77.1777 8.1831 78.1608 7.20483 79.1444 6.45364L79.1444 6.45374L79.1499 6.44928C79.5153 6.14927 79.8975 5.91683 80.2782 5.68525C80.3896 5.61748 80.5009 5.54977 80.6117 5.48047C80.7721 5.40288 80.9241 5.32514 81.0706 5.25015C81.4009 5.08112 81.7039 4.92611 82.0152 4.8185L82.0153 4.81858L82.0205 4.81661C82.0781 4.79489 82.1347 4.77339 82.1905 4.75221C82.5898 4.60059 82.9449 4.46573 83.293 4.38884L83.293 4.38904L83.3017 4.3867C83.3615 4.37063 83.4199 4.35474 83.477 4.3392C83.8163 4.24686 84.1105 4.1668 84.3891 4.13507L84.3891 4.13523L84.3969 4.13403C84.5398 4.11207 84.6707 4.08954 84.7931 4.0685C84.9738 4.03742 85.1357 4.00957 85.2895 3.99152C85.4684 3.9764 85.629 3.96561 85.7732 3.95593C85.8339 3.95185 85.8917 3.94797 85.9467 3.94405L85.9482 3.94393C86.0519 3.93575 86.1468 3.92729 86.2278 3.92009C86.2752 3.91586 86.3179 3.91205 86.3547 3.909L86.3571 3.90878C86.3956 3.90511 86.4288 3.90127 86.4556 3.89742C86.4561 3.8975 86.4565 3.89758 86.4569 3.89765C86.472 3.90032 86.4906 3.90276 86.51 3.90504C86.5501 3.90975 86.608 3.91541 86.6826 3.92198V3.92199L86.684 3.9221C86.7564 3.92796 86.8397 3.93381 86.9323 3.94031L86.9702 3.94297C87.0786 3.95059 87.1999 3.95925 87.3341 3.97006L87.334 3.97031L87.3441 3.97062C87.6156 3.97884 87.9515 4.02858 88.3605 4.10247C88.4449 4.11861 88.5326 4.1327 88.6194 4.14662C88.6414 4.15015 88.6633 4.15366 88.685 4.1572C88.7936 4.17484 88.9022 4.19349 89.0129 4.21794C89.0605 4.2305 89.1088 4.24324 89.1578 4.25616C89.345 4.30556 89.5422 4.35756 89.7475 4.41228C90.7689 4.71392 92.0071 5.18153 93.2522 6.03672L93.254 6.03794C94.5065 6.87815 95.7811 8.08745 96.7809 9.70418L96.7813 9.70479C97.7821 11.3102 98.528 13.3212 98.6094 15.5522L98.6093 15.5522L98.6096 15.5562C98.7339 17.772 98.2147 20.1993 96.9278 22.3472L96.9277 22.3471L96.9257 22.3506C95.6841 24.52 93.6036 26.3355 91.098 27.3965C89.8439 27.9225 88.467 28.2103 87.0655 28.279L87.0655 28.279L87.0619 28.2792C85.667 28.3733 84.2304 28.181 82.8512 27.7516L82.851 27.7515L82.7266 27.7129Z" fill="#E8505B" stroke="#E63946" stroke-width="0.4"/>
<path d="M79.084 17.0794L81.0164 15.1483L84.7459 18.4613L92.0654 11.4211L93.8626 13.3523L84.4711 22.1884L79.084 17.0794Z" fill="#E8505B"/>
</g>
<defs>
<clipPath id="clip0_1333_3687">
<rect width="200" height="193" fill="white"/>
</clipPath>
</defs>
</svg>
