<svg width="387" height="288" viewBox="0 0 387 288" fill="none" xmlns="http://www.w3.org/2000/svg">
<g clip-path="url(#clip0_1250_2163)">
<path d="M387 253.095H0V253.288H387V253.095Z" fill="#EBEBEB"/>
<path d="M348.223 265.531H305.475V265.724H348.223V265.531Z" fill="#EBEBEB"/>
<path d="M255.806 261.48H249.08V261.674H255.806V261.48Z" fill="#EBEBEB"/>
<path d="M303.144 258.358H288.291V258.552H303.144V258.358Z" fill="#EBEBEB"/>
<path d="M74.0326 259.657H40.6035V259.85H74.0326V259.657Z" fill="#EBEBEB"/>
<path d="M202.053 264.643H166.666V264.836H202.053V264.643Z" fill="#EBEBEB"/>
<path d="M181.225 261.381H108.717V261.574H181.225V261.381Z" fill="#EBEBEB"/>
<path d="M187.865 214.209C187.865 216.643 185.883 218.622 183.445 218.622H33.9859C31.5478 218.622 29.5664 216.643 29.5664 214.209V4.41341C29.5664 1.97869 31.5478 0 33.9859 0H183.445C185.883 0 187.865 1.97869 187.865 4.41341M187.671 4.41341C187.671 2.0869 185.775 0.193232 183.445 0.193232H33.9859C31.6562 0.193232 29.7599 2.0869 29.7599 4.41341V214.209C29.7599 216.535 31.6562 218.429 33.9859 218.429H183.445C185.775 218.429 187.671 216.535 187.671 214.209" fill="#EBEBEB"/>
<path d="M350.861 218.622H201.402C198.964 218.622 196.982 216.643 196.982 214.209V4.41341C196.982 1.97869 198.964 0 201.402 0H350.861C353.299 0 355.281 1.97869 355.281 4.41341V214.209C355.281 216.643 353.299 218.622 350.861 218.622ZM201.402 0.193232C199.072 0.193232 197.176 2.0869 197.176 4.41341V214.209C197.176 216.535 199.072 218.429 201.402 218.429H350.861C353.191 218.429 355.087 216.535 355.087 214.209V4.41341C355.087 2.0869 353.191 0.193232 350.861 0.193232H201.402Z" fill="#EBEBEB"/>
<path d="M149.499 71.5811C149.398 59.5312 139.592 49.8 127.502 49.8C124.591 49.8 121.813 50.372 119.266 51.4C114.947 42.5732 105.868 36.4902 95.3729 36.4902C82.6716 36.4902 72.06 45.3866 69.4207 57.2742C57.4779 58.0394 48.0273 67.9483 48.0273 80.0678C48.0273 92.1873 58.2751 102.915 70.9068 102.915H143.717C152.672 102.915 159.94 95.6655 159.94 86.715C159.94 79.805 155.598 73.8999 149.499 71.5811Z" fill="#E0E0E0"/>
<path d="M335.948 177.047C335.847 164.997 326.041 155.266 313.951 155.266C311.041 155.266 308.262 155.838 305.716 156.866C301.397 148.039 292.318 141.956 281.822 141.956C269.121 141.956 258.509 150.852 255.87 162.74C243.927 163.505 234.477 173.414 234.477 185.534C234.477 197.653 244.724 208.381 257.356 208.381H330.166C339.121 208.381 346.389 201.131 346.389 192.181C346.389 185.271 342.047 179.366 335.948 177.047Z" fill="#F5F5F5"/>
<path d="M266.226 105.822C266.172 99.5763 261.086 94.5214 254.817 94.5214C253.308 94.5214 251.868 94.8151 250.545 95.3484C248.3 90.7727 243.594 87.6191 238.153 87.6191C231.566 87.6191 226.063 92.2335 224.693 98.3937C218.501 98.7879 213.594 103.928 213.594 110.22C213.594 116.511 218.911 122.068 225.459 122.068H263.223C267.867 122.068 271.636 118.304 271.636 113.667C271.636 110.08 269.384 107.02 266.218 105.814L266.226 105.822Z" fill="#E0E0E0"/>
<path d="M319.486 37.7734C319.416 29.5185 312.698 22.8482 304.416 22.8482C302.419 22.8482 300.515 23.2423 298.773 23.9457C295.817 17.9014 289.594 13.7354 282.403 13.7354C273.703 13.7354 266.428 19.826 264.624 27.9726C256.443 28.4982 249.965 35.2923 249.965 43.5935C249.965 51.8947 256.985 59.253 265.646 59.253H315.538C321.676 59.253 326.653 54.2831 326.653 48.1538C326.653 43.4157 323.681 39.3733 319.493 37.7811L319.486 37.7734Z" fill="#EBEBEB"/>
<path d="M159.515 170.253C159.445 161.998 152.727 155.328 144.445 155.328C142.448 155.328 140.544 155.722 138.803 156.425C135.846 150.381 129.623 146.215 122.432 146.215C113.733 146.215 106.457 152.306 104.654 160.452C96.4725 160.978 89.9941 167.772 89.9941 176.073C89.9941 184.374 97.0143 191.732 105.675 191.732H155.567C161.705 191.732 166.682 186.763 166.682 180.633C166.682 175.895 163.71 171.853 159.523 170.261L159.515 170.253Z" fill="#F5F5F5"/>
<path d="M101.395 92.8367C101.294 92.8367 101.194 92.7904 101.124 92.7208C101.085 92.6822 101.054 92.6435 101.039 92.5971C101.016 92.5508 101.008 92.4967 101.008 92.4503C101.008 92.3962 101.008 92.3498 101.039 92.2957C101.054 92.2493 101.085 92.2107 101.124 92.172C101.225 92.0715 101.395 92.0329 101.542 92.087C101.588 92.1102 101.635 92.1411 101.666 92.172C101.743 92.2493 101.782 92.3421 101.782 92.4503C101.782 92.4967 101.774 92.5508 101.751 92.5971C101.735 92.6435 101.704 92.6822 101.666 92.7208C101.596 92.7904 101.495 92.8367 101.395 92.8367Z" fill="#E0E0E0"/>
<path d="M101.008 109.485C101.008 109.269 101.186 109.099 101.395 109.099C101.612 109.099 101.782 109.269 101.782 109.485C101.782 109.702 101.612 109.872 101.395 109.872C101.186 109.872 101.008 109.702 101.008 109.485ZM101.008 105.226C101.008 105.01 101.186 104.84 101.395 104.84C101.612 104.84 101.782 105.01 101.782 105.226C101.782 105.435 101.612 105.613 101.395 105.613C101.186 105.613 101.008 105.435 101.008 105.226ZM101.008 100.968C101.008 100.751 101.186 100.581 101.395 100.581C101.612 100.581 101.782 100.751 101.782 100.968C101.782 101.176 101.612 101.354 101.395 101.354C101.186 101.354 101.008 101.176 101.008 100.968ZM101.008 96.7087C101.008 96.4923 101.186 96.3223 101.395 96.3223C101.612 96.3223 101.782 96.4923 101.782 96.7087C101.782 96.9174 101.612 97.0952 101.395 97.0952C101.186 97.0952 101.008 96.9174 101.008 96.7087Z" fill="#E0E0E0"/>
<path d="M101.395 114.13C101.348 114.13 101.294 114.13 101.248 114.099C101.201 114.084 101.155 114.053 101.124 114.014C101.085 113.984 101.054 113.937 101.039 113.891C101.016 113.844 101.008 113.798 101.008 113.744C101.008 113.698 101.008 113.643 101.039 113.597C101.054 113.551 101.085 113.504 101.124 113.473C101.155 113.435 101.201 113.412 101.248 113.388C101.341 113.35 101.449 113.35 101.542 113.388C101.588 113.412 101.635 113.435 101.666 113.473C101.704 113.504 101.735 113.551 101.751 113.597C101.774 113.643 101.782 113.698 101.782 113.744C101.782 113.844 101.743 113.945 101.666 114.014C101.635 114.053 101.588 114.084 101.542 114.099C101.495 114.123 101.449 114.13 101.395 114.13Z" fill="#E0E0E0"/>
<path d="M171.96 113.744C171.96 113.535 172.13 113.357 172.339 113.357C172.556 113.357 172.734 113.535 172.734 113.744C172.734 113.96 172.556 114.13 172.339 114.13C172.13 114.13 171.96 113.96 171.96 113.744ZM167.231 113.744C167.231 113.535 167.401 113.357 167.618 113.357C167.827 113.357 167.997 113.535 167.997 113.744C167.997 113.96 167.827 114.13 167.618 114.13C167.401 114.13 167.231 113.96 167.231 113.744ZM162.501 113.744C162.501 113.535 162.672 113.357 162.888 113.357C163.097 113.357 163.275 113.535 163.275 113.744C163.275 113.96 163.097 114.13 162.888 114.13C162.672 114.13 162.501 113.96 162.501 113.744ZM157.765 113.744C157.765 113.535 157.943 113.357 158.152 113.357C158.368 113.357 158.539 113.535 158.539 113.744C158.539 113.96 158.368 114.13 158.152 114.13C157.943 114.13 157.765 113.96 157.765 113.744ZM153.035 113.744C153.035 113.535 153.213 113.357 153.422 113.357C153.639 113.357 153.809 113.535 153.809 113.744C153.809 113.96 153.639 114.13 153.422 114.13C153.213 114.13 153.035 113.96 153.035 113.744ZM148.306 113.744C148.306 113.535 148.477 113.357 148.693 113.357C148.91 113.357 149.08 113.535 149.08 113.744C149.08 113.96 148.91 114.13 148.693 114.13C148.477 114.13 148.306 113.96 148.306 113.744ZM143.577 113.744C143.577 113.535 143.747 113.357 143.964 113.357C144.181 113.357 144.351 113.535 144.351 113.744C144.351 113.96 144.181 114.13 143.964 114.13C143.747 114.13 143.577 113.96 143.577 113.744ZM138.848 113.744C138.848 113.535 139.018 113.357 139.235 113.357C139.444 113.357 139.622 113.535 139.622 113.744C139.622 113.96 139.444 114.13 139.235 114.13C139.018 114.13 138.848 113.96 138.848 113.744ZM134.119 113.744C134.119 113.535 134.289 113.357 134.506 113.357C134.715 113.357 134.893 113.535 134.893 113.744C134.893 113.96 134.715 114.13 134.506 114.13C134.289 114.13 134.119 113.96 134.119 113.744ZM129.39 113.744C129.39 113.535 129.56 113.357 129.777 113.357C129.986 113.357 130.164 113.535 130.164 113.744C130.164 113.96 129.986 114.13 129.777 114.13C129.56 114.13 129.39 113.96 129.39 113.744ZM124.653 113.744C124.653 113.535 124.831 113.357 125.04 113.357C125.257 113.357 125.435 113.535 125.435 113.744C125.435 113.96 125.257 114.13 125.04 114.13C124.831 114.13 124.653 113.96 124.653 113.744ZM119.931 113.744C119.931 113.535 120.102 113.357 120.318 113.357C120.527 113.357 120.698 113.535 120.698 113.744C120.698 113.96 120.527 114.13 120.318 114.13C120.102 114.13 119.931 113.96 119.931 113.744ZM115.195 113.744C115.195 113.535 115.373 113.357 115.582 113.357C115.798 113.357 115.969 113.535 115.969 113.744C115.969 113.96 115.798 114.13 115.582 114.13C115.373 114.13 115.195 113.96 115.195 113.744ZM110.465 113.744C110.465 113.535 110.643 113.357 110.852 113.357C111.069 113.357 111.239 113.535 111.239 113.744C111.239 113.96 111.069 114.13 110.852 114.13C110.643 114.13 110.465 113.96 110.465 113.744ZM105.736 113.744C105.736 113.535 105.914 113.357 106.123 113.357C106.34 113.357 106.51 113.535 106.51 113.744C106.51 113.96 106.34 114.13 106.123 114.13C105.914 114.13 105.736 113.96 105.736 113.744Z" fill="#E0E0E0"/>
<path d="M177.076 114.13C177.022 114.13 176.976 114.13 176.929 114.099C176.883 114.084 176.837 114.053 176.798 114.014C176.767 113.984 176.736 113.937 176.72 113.891C176.697 113.844 176.689 113.798 176.689 113.744C176.689 113.698 176.697 113.643 176.72 113.597C176.736 113.551 176.767 113.504 176.798 113.473C176.837 113.435 176.883 113.404 176.929 113.388C177.022 113.35 177.131 113.35 177.224 113.388C177.27 113.404 177.316 113.435 177.347 113.473C177.378 113.504 177.409 113.551 177.432 113.597C177.448 113.643 177.463 113.698 177.463 113.744C177.463 113.844 177.417 113.945 177.347 114.014C177.316 114.053 177.27 114.084 177.224 114.099C177.177 114.123 177.123 114.13 177.076 114.13Z" fill="#E0E0E0"/>
<path d="M176.689 109.145C176.689 108.929 176.86 108.759 177.076 108.759C177.285 108.759 177.463 108.929 177.463 109.145C177.463 109.354 177.285 109.532 177.076 109.532C176.86 109.532 176.689 109.354 176.689 109.145ZM176.689 104.538C176.689 104.322 176.86 104.152 177.076 104.152C177.285 104.152 177.463 104.322 177.463 104.538C177.463 104.755 177.285 104.925 177.076 104.925C176.86 104.925 176.689 104.755 176.689 104.538ZM176.689 99.9318C176.689 99.7231 176.86 99.5454 177.076 99.5454C177.285 99.5454 177.463 99.7231 177.463 99.9318C177.463 100.148 177.285 100.318 177.076 100.318C176.86 100.318 176.689 100.148 176.689 99.9318ZM176.689 95.3329C176.689 95.1165 176.86 94.9465 177.076 94.9465C177.285 94.9465 177.463 95.1165 177.463 95.3329C177.463 95.5493 177.285 95.7194 177.076 95.7194C176.86 95.7194 176.689 95.5493 176.689 95.3329ZM176.689 90.7263C176.689 90.5176 176.86 90.3398 177.076 90.3398C177.285 90.3398 177.463 90.5176 177.463 90.7263C177.463 90.9427 177.285 91.1127 177.076 91.1127C176.86 91.1127 176.689 90.9427 176.689 90.7263ZM176.689 86.1274C176.689 85.9109 176.86 85.7409 177.076 85.7409C177.285 85.7409 177.463 85.9109 177.463 86.1274C177.463 86.3361 177.285 86.5138 177.076 86.5138C176.86 86.5138 176.689 86.3361 176.689 86.1274ZM176.689 81.5207C176.689 81.312 176.86 81.1343 177.076 81.1343C177.285 81.1343 177.463 81.312 177.463 81.5207C177.463 81.7371 177.285 81.9072 177.076 81.9072C176.86 81.9072 176.689 81.7371 176.689 81.5207ZM176.689 76.9218C176.689 76.7054 176.86 76.5354 177.076 76.5354C177.285 76.5354 177.463 76.7054 177.463 76.9218C177.463 77.1305 177.285 77.3083 177.076 77.3083C176.86 77.3083 176.689 77.1305 176.689 76.9218ZM176.689 72.3152C176.689 72.0988 176.86 71.9287 177.076 71.9287C177.285 71.9287 177.463 72.0988 177.463 72.3152C177.463 72.5316 177.285 72.7016 177.076 72.7016C176.86 72.7016 176.689 72.5316 176.689 72.3152Z" fill="#E0E0E0"/>
<path d="M177.076 68.1029C177.022 68.1029 176.976 68.0875 176.929 68.072C176.883 68.0488 176.837 68.0179 176.798 67.987C176.767 67.9484 176.736 67.9097 176.72 67.8633C176.697 67.817 176.689 67.7629 176.689 67.7165C176.689 67.6624 176.697 67.616 176.72 67.5619C176.736 67.5155 176.767 67.4769 176.798 67.4382C176.837 67.4073 176.883 67.3764 176.929 67.3532C177.022 67.3146 177.131 67.3146 177.224 67.3532C177.27 67.3764 177.316 67.4073 177.347 67.4382C177.417 67.5155 177.463 67.616 177.463 67.7165C177.463 67.817 177.417 67.9174 177.347 67.987C177.278 68.0566 177.177 68.1029 177.076 68.1029Z" fill="#E0E0E0"/>
<path d="M283.277 67.7165C283.277 67.5 283.448 67.3223 283.664 67.3223C283.873 67.3223 284.051 67.5 284.051 67.7165C284.051 67.9251 283.873 68.1029 283.664 68.1029C283.448 68.1029 283.277 67.9251 283.277 67.7165ZM278.641 67.7165C278.641 67.5 278.811 67.3223 279.028 67.3223C279.245 67.3223 279.415 67.5 279.415 67.7165C279.415 67.9251 279.245 68.1029 279.028 68.1029C278.811 68.1029 278.641 67.9251 278.641 67.7165ZM274.005 67.7165C274.005 67.5 274.183 67.3223 274.392 67.3223C274.609 67.3223 274.779 67.5 274.779 67.7165C274.779 67.9251 274.609 68.1029 274.392 68.1029C274.183 68.1029 274.005 67.9251 274.005 67.7165ZM269.376 67.7165C269.376 67.5 269.547 67.3223 269.763 67.3223C269.972 67.3223 270.143 67.5 270.143 67.7165C270.143 67.9251 269.972 68.1029 269.763 68.1029C269.547 68.1029 269.376 67.9251 269.376 67.7165ZM264.74 67.7165C264.74 67.5 264.91 67.3223 265.127 67.3223C265.336 67.3223 265.514 67.5 265.514 67.7165C265.514 67.9251 265.336 68.1029 265.127 68.1029C264.91 68.1029 264.74 67.9251 264.74 67.7165ZM260.104 67.7165C260.104 67.5 260.274 67.3223 260.491 67.3223C260.708 67.3223 260.878 67.5 260.878 67.7165C260.878 67.9251 260.708 68.1029 260.491 68.1029C260.274 68.1029 260.104 67.9251 260.104 67.7165ZM255.468 67.7165C255.468 67.5 255.646 67.3223 255.855 67.3223C256.071 67.3223 256.242 67.5 256.242 67.7165C256.242 67.9251 256.071 68.1029 255.855 68.1029C255.646 68.1029 255.468 67.9251 255.468 67.7165ZM250.839 67.7165C250.839 67.5 251.009 67.3223 251.226 67.3223C251.435 67.3223 251.613 67.5 251.613 67.7165C251.613 67.9251 251.435 68.1029 251.226 68.1029C251.009 68.1029 250.839 67.9251 250.839 67.7165ZM246.203 67.7165C246.203 67.5 246.373 67.3223 246.59 67.3223C246.799 67.3223 246.977 67.5 246.977 67.7165C246.977 67.9251 246.799 68.1029 246.59 68.1029C246.373 68.1029 246.203 67.9251 246.203 67.7165ZM241.567 67.7165C241.567 67.5 241.745 67.3223 241.954 67.3223C242.17 67.3223 242.341 67.5 242.341 67.7165C242.341 67.9251 242.17 68.1029 241.954 68.1029C241.745 68.1029 241.567 67.9251 241.567 67.7165ZM236.93 67.7165C236.93 67.5 237.108 67.3223 237.325 67.3223C237.534 67.3223 237.704 67.5 237.704 67.7165C237.704 67.9251 237.534 68.1029 237.325 68.1029C237.108 68.1029 236.93 67.9251 236.93 67.7165ZM232.302 67.7165C232.302 67.5 232.472 67.3223 232.689 67.3223C232.898 67.3223 233.076 67.5 233.076 67.7165C233.076 67.9251 232.898 68.1029 232.689 68.1029C232.472 68.1029 232.302 67.9251 232.302 67.7165ZM227.666 67.7165C227.666 67.5 227.836 67.3223 228.053 67.3223C228.269 67.3223 228.44 67.5 228.44 67.7165C228.44 67.9251 228.269 68.1029 228.053 68.1029C227.836 68.1029 227.666 67.9251 227.666 67.7165ZM223.029 67.7165C223.029 67.5 223.207 67.3223 223.416 67.3223C223.633 67.3223 223.803 67.5 223.803 67.7165C223.803 67.9251 223.633 68.1029 223.416 68.1029C223.207 68.1029 223.029 67.9251 223.029 67.7165ZM218.393 67.7165C218.393 67.5 218.571 67.3223 218.78 67.3223C218.997 67.3223 219.175 67.5 219.175 67.7165C219.175 67.9251 218.997 68.1029 218.78 68.1029C218.571 68.1029 218.393 67.9251 218.393 67.7165ZM213.765 67.7165C213.765 67.5 213.935 67.3223 214.152 67.3223C214.36 67.3223 214.539 67.5 214.539 67.7165C214.539 67.9251 214.36 68.1029 214.152 68.1029C213.935 68.1029 213.765 67.9251 213.765 67.7165ZM209.128 67.7165C209.128 67.5 209.299 67.3223 209.515 67.3223C209.724 67.3223 209.902 67.5 209.902 67.7165C209.902 67.9251 209.724 68.1029 209.515 68.1029C209.299 68.1029 209.128 67.9251 209.128 67.7165ZM204.492 67.7165C204.492 67.5 204.67 67.3223 204.879 67.3223C205.096 67.3223 205.266 67.5 205.266 67.7165C205.266 67.9251 205.096 68.1029 204.879 68.1029C204.67 68.1029 204.492 67.9251 204.492 67.7165ZM199.863 67.7165C199.863 67.5 200.034 67.3223 200.25 67.3223C200.459 67.3223 200.63 67.5 200.63 67.7165C200.63 67.9251 200.459 68.1029 200.25 68.1029C200.034 68.1029 199.863 67.9251 199.863 67.7165ZM195.227 67.7165C195.227 67.5 195.397 67.3223 195.614 67.3223C195.823 67.3223 196.001 67.5 196.001 67.7165C196.001 67.9251 195.823 68.1029 195.614 68.1029C195.397 68.1029 195.227 67.9251 195.227 67.7165ZM190.591 67.7165C190.591 67.5 190.761 67.3223 190.978 67.3223C191.195 67.3223 191.365 67.5 191.365 67.7165C191.365 67.9251 191.195 68.1029 190.978 68.1029C190.761 68.1029 190.591 67.9251 190.591 67.7165ZM185.955 67.7165C185.955 67.5 186.133 67.3223 186.342 67.3223C186.558 67.3223 186.729 67.5 186.729 67.7165C186.729 67.9251 186.558 68.1029 186.342 68.1029C186.133 68.1029 185.955 67.9251 185.955 67.7165ZM181.326 67.7165C181.326 67.5 181.496 67.3223 181.713 67.3223C181.922 67.3223 182.1 67.5 182.1 67.7165C182.1 67.9251 181.922 68.1029 181.713 68.1029C181.496 68.1029 181.326 67.9251 181.326 67.7165Z" fill="#E0E0E0"/>
<path d="M288.301 68.103C288.193 68.103 288.092 68.0566 288.022 67.987C287.953 67.9097 287.914 67.817 287.914 67.7165C287.914 67.616 287.953 67.5155 288.022 67.4382C288.061 67.4073 288.1 67.3764 288.146 67.3532C288.293 67.2991 288.471 67.33 288.572 67.4382C288.603 67.4769 288.634 67.5155 288.657 67.5696C288.673 67.616 288.68 67.6624 288.68 67.7165C288.68 67.817 288.642 67.9175 288.572 67.987C288.502 68.0566 288.402 68.103 288.301 68.103Z" fill="#E0E0E0"/>
<path d="M287.906 63.2489C287.906 63.0402 288.084 62.8701 288.293 62.8701C288.51 62.8701 288.688 63.0402 288.688 63.2489C288.688 63.4653 288.51 63.6353 288.293 63.6353C288.084 63.6353 287.906 63.4653 287.906 63.2489ZM287.906 58.7891C287.906 58.5804 288.084 58.4026 288.293 58.4026C288.51 58.4026 288.688 58.5804 288.688 58.7891C288.688 59.0055 288.51 59.1833 288.293 59.1833C288.084 59.1833 287.906 59.0055 287.906 58.7891ZM287.906 54.3293C287.906 54.1206 288.084 53.9428 288.293 53.9428C288.51 53.9428 288.688 54.1206 288.688 54.3293C288.688 54.5457 288.51 54.7158 288.293 54.7158C288.084 54.7158 287.906 54.5457 287.906 54.3293ZM287.906 49.8695C287.906 49.6608 288.084 49.483 288.293 49.483C288.51 49.483 288.688 49.6608 288.688 49.8695C288.688 50.0859 288.51 50.256 288.293 50.256C288.084 50.256 287.906 50.0859 287.906 49.8695ZM287.906 45.4097C287.906 45.201 288.084 45.0233 288.293 45.0233C288.51 45.0233 288.688 45.201 288.688 45.4097C288.688 45.6261 288.51 45.7962 288.293 45.7962C288.084 45.7962 287.906 45.6261 287.906 45.4097ZM287.906 40.9499C287.906 40.7412 288.084 40.5635 288.293 40.5635C288.51 40.5635 288.688 40.7412 288.688 40.9499C288.688 41.1664 288.51 41.3364 288.293 41.3364C288.084 41.3364 287.906 41.1664 287.906 40.9499Z" fill="#E0E0E0"/>
<path d="M288.301 36.8765C288.193 36.8765 288.1 36.8379 288.022 36.7606C287.953 36.691 287.914 36.5905 287.914 36.49C287.914 36.4359 287.914 36.3896 287.937 36.3432C287.961 36.2968 287.991 36.2504 288.022 36.2195C288.169 36.0727 288.433 36.0727 288.572 36.2195C288.642 36.2891 288.68 36.3896 288.68 36.49C288.68 36.5441 288.68 36.5905 288.657 36.6369C288.634 36.6833 288.603 36.7296 288.572 36.7606C288.533 36.7992 288.495 36.8301 288.448 36.8456C288.402 36.8688 288.348 36.8765 288.301 36.8765Z" fill="#E0E0E0"/>
<path d="M128.33 182.318C128.222 182.318 128.121 182.279 128.052 182.21C128.013 182.171 127.99 182.132 127.967 182.078C127.951 182.032 127.936 181.986 127.936 181.931C127.936 181.831 127.982 181.73 128.052 181.661C128.16 181.553 128.33 181.522 128.477 181.576C128.524 181.599 128.562 181.622 128.601 181.661C128.671 181.73 128.71 181.831 128.71 181.931C128.71 181.986 128.702 182.032 128.686 182.078C128.663 182.132 128.632 182.171 128.601 182.21C128.562 182.241 128.524 182.272 128.477 182.287C128.431 182.31 128.377 182.318 128.33 182.318Z" fill="#E0E0E0"/>
<path d="M127.943 200.899C127.943 200.683 128.114 200.513 128.33 200.513C128.539 200.513 128.71 200.683 128.71 200.899C128.71 201.108 128.539 201.286 128.33 201.286C128.114 201.286 127.943 201.108 127.943 200.899ZM127.943 196.154C127.943 195.945 128.114 195.767 128.33 195.767C128.539 195.767 128.71 195.945 128.71 196.154C128.71 196.37 128.539 196.54 128.33 196.54C128.114 196.54 127.943 196.37 127.943 196.154ZM127.943 191.416C127.943 191.207 128.114 191.029 128.33 191.029C128.539 191.029 128.71 191.207 128.71 191.416C128.71 191.624 128.539 191.802 128.33 191.802C128.114 191.802 127.943 191.624 127.943 191.416ZM127.943 186.677C127.943 186.461 128.114 186.291 128.33 186.291C128.539 186.291 128.71 186.461 128.71 186.677C128.71 186.886 128.539 187.064 128.33 187.064C128.114 187.064 127.943 186.886 127.943 186.677Z" fill="#E0E0E0"/>
<path d="M128.33 206.023C128.222 206.023 128.121 205.985 128.052 205.908C128.013 205.877 127.99 205.83 127.967 205.784C127.951 205.737 127.936 205.691 127.936 205.637C127.936 205.591 127.951 205.537 127.967 205.49C127.99 205.444 128.013 205.397 128.052 205.366C128.16 205.258 128.33 205.22 128.477 205.281C128.524 205.297 128.562 205.328 128.601 205.366C128.632 205.397 128.663 205.444 128.686 205.49C128.702 205.537 128.71 205.591 128.71 205.637C128.71 205.691 128.702 205.737 128.686 205.784C128.663 205.83 128.632 205.877 128.601 205.908C128.562 205.946 128.524 205.977 128.477 205.993C128.431 206.016 128.377 206.023 128.33 206.023Z" fill="#E0E0E0"/>
<path d="M172.255 205.637C172.255 205.421 172.433 205.251 172.642 205.251C172.859 205.251 173.029 205.421 173.029 205.637C173.029 205.854 172.859 206.024 172.642 206.024C172.433 206.024 172.255 205.854 172.255 205.637ZM167.828 205.637C167.828 205.421 167.998 205.251 168.215 205.251C168.424 205.251 168.602 205.421 168.602 205.637C168.602 205.854 168.424 206.024 168.215 206.024C167.998 206.024 167.828 205.854 167.828 205.637ZM163.393 205.637C163.393 205.421 163.571 205.251 163.78 205.251C163.997 205.251 164.167 205.421 164.167 205.637C164.167 205.854 163.997 206.024 163.78 206.024C163.571 206.024 163.393 205.854 163.393 205.637ZM158.966 205.637C158.966 205.421 159.136 205.251 159.353 205.251C159.562 205.251 159.74 205.421 159.74 205.637C159.74 205.854 159.562 206.024 159.353 206.024C159.136 206.024 158.966 205.854 158.966 205.637ZM154.531 205.637C154.531 205.421 154.701 205.251 154.918 205.251C155.127 205.251 155.305 205.421 155.305 205.637C155.305 205.854 155.127 206.024 154.918 206.024C154.701 206.024 154.531 205.854 154.531 205.637ZM150.096 205.637C150.096 205.421 150.274 205.251 150.49 205.251C150.699 205.251 150.87 205.421 150.87 205.637C150.87 205.854 150.699 206.024 150.49 206.024C150.274 206.024 150.096 205.854 150.096 205.637ZM145.668 205.637C145.668 205.421 145.839 205.251 146.055 205.251C146.264 205.251 146.442 205.421 146.442 205.637C146.442 205.854 146.264 206.024 146.055 206.024C145.839 206.024 145.668 205.854 145.668 205.637ZM141.233 205.637C141.233 205.421 141.411 205.251 141.62 205.251C141.837 205.251 142.007 205.421 142.007 205.637C142.007 205.854 141.837 206.024 141.62 206.024C141.411 206.024 141.233 205.854 141.233 205.637ZM136.806 205.637C136.806 205.421 136.976 205.251 137.193 205.251C137.402 205.251 137.58 205.421 137.58 205.637C137.58 205.854 137.402 206.024 137.193 206.024C136.976 206.024 136.806 205.854 136.806 205.637ZM132.371 205.637C132.371 205.421 132.549 205.251 132.758 205.251C132.975 205.251 133.145 205.421 133.145 205.637C133.145 205.854 132.975 206.024 132.758 206.024C132.549 206.024 132.371 205.854 132.371 205.637Z" fill="#E0E0E0"/>
<path d="M177.076 206.024C177.022 206.024 176.976 206.016 176.929 205.993C176.883 205.978 176.837 205.947 176.798 205.908C176.767 205.877 176.736 205.831 176.72 205.784C176.697 205.738 176.689 205.692 176.689 205.637C176.689 205.537 176.728 205.437 176.798 205.367C176.837 205.328 176.883 205.297 176.929 205.282C177.022 205.243 177.131 205.243 177.224 205.282C177.27 205.297 177.316 205.328 177.347 205.367C177.417 205.437 177.463 205.537 177.463 205.637C177.463 205.684 177.463 205.738 177.432 205.784C177.409 205.831 177.386 205.877 177.347 205.908C177.316 205.947 177.27 205.978 177.224 205.993C177.177 206.016 177.123 206.024 177.076 206.024Z" fill="#E0E0E0"/>
<path d="M176.689 201.138C176.689 200.922 176.86 200.752 177.076 200.752C177.285 200.752 177.463 200.922 177.463 201.138C177.463 201.347 177.285 201.525 177.076 201.525C176.86 201.525 176.689 201.347 176.689 201.138ZM176.689 196.64C176.689 196.423 176.86 196.246 177.076 196.246C177.285 196.246 177.463 196.423 177.463 196.64C177.463 196.849 177.285 197.026 177.076 197.026C176.86 197.026 176.689 196.849 176.689 196.64ZM176.689 192.134C176.689 191.925 176.86 191.747 177.076 191.747C177.285 191.747 177.463 191.925 177.463 192.134C177.463 192.35 177.285 192.52 177.076 192.52C176.86 192.52 176.689 192.35 176.689 192.134ZM176.689 187.635C176.689 187.427 176.86 187.249 177.076 187.249C177.285 187.249 177.463 187.427 177.463 187.635C177.463 187.852 177.285 188.022 177.076 188.022C176.86 188.022 176.689 187.852 176.689 187.635ZM176.689 183.137C176.689 182.92 176.86 182.75 177.076 182.75C177.285 182.75 177.463 182.92 177.463 183.137C177.463 183.346 177.285 183.523 177.076 183.523C176.86 183.523 176.689 183.346 176.689 183.137ZM176.689 178.638C176.689 178.422 176.86 178.252 177.076 178.252C177.285 178.252 177.463 178.422 177.463 178.638C177.463 178.847 177.285 179.025 177.076 179.025C176.86 179.025 176.689 178.847 176.689 178.638ZM176.689 174.14C176.689 173.924 176.86 173.753 177.076 173.753C177.285 173.753 177.463 173.924 177.463 174.14C177.463 174.349 177.285 174.526 177.076 174.526C176.86 174.526 176.689 174.349 176.689 174.14ZM176.689 169.634C176.689 169.425 176.86 169.247 177.076 169.247C177.285 169.247 177.463 169.425 177.463 169.634C177.463 169.85 177.285 170.02 177.076 170.02C176.86 170.02 176.689 169.85 176.689 169.634ZM176.689 165.135C176.689 164.919 176.86 164.749 177.076 164.749C177.285 164.749 177.463 164.919 177.463 165.135C177.463 165.352 177.285 165.522 177.076 165.522C176.86 165.522 176.689 165.352 176.689 165.135ZM176.689 160.637C176.689 160.421 176.86 160.25 177.076 160.25C177.285 160.25 177.463 160.421 177.463 160.637C177.463 160.846 177.285 161.023 177.076 161.023C176.86 161.023 176.689 160.846 176.689 160.637ZM176.689 156.139C176.689 155.922 176.86 155.752 177.076 155.752C177.285 155.752 177.463 155.922 177.463 156.139C177.463 156.347 177.285 156.525 177.076 156.525C176.86 156.525 176.689 156.347 176.689 156.139ZM176.689 151.632C176.689 151.424 176.86 151.246 177.076 151.246C177.285 151.246 177.463 151.424 177.463 151.632C177.463 151.849 177.285 152.019 177.076 152.019C176.86 152.019 176.689 151.849 176.689 151.632ZM176.689 147.134C176.689 146.918 176.86 146.747 177.076 146.747C177.285 146.747 177.463 146.918 177.463 147.134C177.463 147.35 177.285 147.52 177.076 147.52C176.86 147.52 176.689 147.35 176.689 147.134ZM176.689 142.635C176.689 142.419 176.86 142.249 177.076 142.249C177.285 142.249 177.463 142.419 177.463 142.635C177.463 142.852 177.285 143.022 177.076 143.022C176.86 143.022 176.689 142.852 176.689 142.635Z" fill="#E0E0E0"/>
<path d="M177.076 138.524C177.022 138.524 176.976 138.508 176.929 138.493C176.883 138.47 176.837 138.447 176.798 138.408C176.767 138.369 176.736 138.331 176.72 138.284C176.697 138.238 176.689 138.184 176.689 138.137C176.689 138.029 176.728 137.937 176.798 137.859C176.837 137.828 176.883 137.797 176.929 137.782C177.022 137.743 177.131 137.743 177.224 137.782C177.27 137.797 177.316 137.828 177.347 137.859C177.417 137.937 177.463 138.037 177.463 138.137C177.463 138.184 177.463 138.238 177.432 138.284C177.409 138.331 177.386 138.369 177.347 138.408C177.316 138.439 177.27 138.47 177.224 138.493C177.177 138.508 177.123 138.524 177.076 138.524Z" fill="#E0E0E0"/>
<path d="M237.55 138.137C237.55 137.921 237.728 137.751 237.937 137.751C238.154 137.751 238.324 137.921 238.324 138.137C238.324 138.346 238.154 138.524 237.937 138.524C237.728 138.524 237.55 138.346 237.55 138.137ZM232.867 138.137C232.867 137.921 233.045 137.751 233.254 137.751C233.471 137.751 233.649 137.921 233.649 138.137C233.649 138.346 233.471 138.524 233.254 138.524C233.045 138.524 232.867 138.346 232.867 138.137ZM228.185 138.137C228.185 137.921 228.363 137.751 228.572 137.751C228.788 137.751 228.959 137.921 228.959 138.137C228.959 138.346 228.788 138.524 228.572 138.524C228.363 138.524 228.185 138.346 228.185 138.137ZM223.51 138.137C223.51 137.921 223.68 137.751 223.889 137.751C224.106 137.751 224.276 137.921 224.276 138.137C224.276 138.346 224.106 138.524 223.889 138.524C223.68 138.524 223.51 138.346 223.51 138.137ZM218.827 138.137C218.827 137.921 218.997 137.751 219.214 137.751C219.423 137.751 219.601 137.921 219.601 138.137C219.601 138.346 219.423 138.524 219.214 138.524C218.997 138.524 218.827 138.346 218.827 138.137ZM214.144 138.137C214.144 137.921 214.314 137.751 214.531 137.751C214.74 137.751 214.918 137.921 214.918 138.137C214.918 138.346 214.74 138.524 214.531 138.524C214.314 138.524 214.144 138.346 214.144 138.137ZM209.462 138.137C209.462 137.921 209.632 137.751 209.849 137.751C210.057 137.751 210.236 137.921 210.236 138.137C210.236 138.346 210.057 138.524 209.849 138.524C209.632 138.524 209.462 138.346 209.462 138.137ZM204.779 138.137C204.779 137.921 204.957 137.751 205.166 137.751C205.383 137.751 205.553 137.921 205.553 138.137C205.553 138.346 205.383 138.524 205.166 138.524C204.957 138.524 204.779 138.346 204.779 138.137ZM200.096 138.137C200.096 137.921 200.266 137.751 200.483 137.751C200.7 137.751 200.87 137.921 200.87 138.137C200.87 138.346 200.7 138.524 200.483 138.524C200.266 138.524 200.096 138.346 200.096 138.137ZM195.413 138.137C195.413 137.921 195.591 137.751 195.8 137.751C196.017 137.751 196.187 137.921 196.187 138.137C196.187 138.346 196.017 138.524 195.8 138.524C195.591 138.524 195.413 138.346 195.413 138.137ZM190.731 138.137C190.731 137.921 190.909 137.751 191.118 137.751C191.334 137.751 191.505 137.921 191.505 138.137C191.505 138.346 191.334 138.524 191.118 138.524C190.909 138.524 190.731 138.346 190.731 138.137ZM186.056 138.137C186.056 137.921 186.226 137.751 186.443 137.751C186.652 137.751 186.83 137.921 186.83 138.137C186.83 138.346 186.652 138.524 186.443 138.524C186.226 138.524 186.056 138.346 186.056 138.137ZM181.373 138.137C181.373 137.921 181.543 137.751 181.76 137.751C181.969 137.751 182.147 137.921 182.147 138.137C182.147 138.346 181.969 138.524 181.76 138.524C181.543 138.524 181.373 138.346 181.373 138.137Z" fill="#E0E0E0"/>
<path d="M242.619 138.524C242.519 138.524 242.418 138.477 242.349 138.408C242.31 138.369 242.287 138.331 242.263 138.284C242.248 138.238 242.232 138.184 242.232 138.137C242.232 138.083 242.248 138.037 242.263 137.991C242.287 137.936 242.31 137.898 242.349 137.859C242.379 137.828 242.426 137.797 242.472 137.782C242.573 137.735 242.674 137.735 242.766 137.782C242.813 137.797 242.859 137.828 242.898 137.859C242.929 137.898 242.96 137.936 242.975 137.991C242.999 138.037 243.006 138.083 243.006 138.137C243.006 138.238 242.968 138.338 242.898 138.408C242.821 138.477 242.72 138.524 242.619 138.524Z" fill="#E0E0E0"/>
<path d="M242.232 133.26C242.232 133.044 242.41 132.874 242.619 132.874C242.836 132.874 243.006 133.044 243.006 133.26C243.006 133.469 242.836 133.647 242.619 133.647C242.41 133.647 242.232 133.469 242.232 133.26ZM242.232 128.383C242.232 128.166 242.41 127.996 242.619 127.996C242.836 127.996 243.006 128.166 243.006 128.383C243.006 128.592 242.836 128.762 242.619 128.762C242.41 128.762 242.232 128.592 242.232 128.383ZM242.232 123.498C242.232 123.289 242.41 123.112 242.619 123.112C242.836 123.112 243.006 123.289 243.006 123.498C243.006 123.714 242.836 123.884 242.619 123.884C242.41 123.884 242.232 123.714 242.232 123.498ZM242.232 118.621C242.232 118.412 242.41 118.234 242.619 118.234C242.836 118.234 243.006 118.412 243.006 118.621C243.006 118.837 242.836 119.007 242.619 119.007C242.41 119.007 242.232 118.837 242.232 118.621Z" fill="#E0E0E0"/>
<path d="M242.619 114.13C242.519 114.13 242.418 114.092 242.349 114.022C242.31 113.984 242.287 113.937 242.263 113.891C242.248 113.844 242.232 113.798 242.232 113.744C242.232 113.698 242.248 113.643 242.263 113.597C242.287 113.551 242.31 113.504 242.349 113.473C242.379 113.435 242.426 113.412 242.472 113.388C242.573 113.35 242.674 113.35 242.766 113.388C242.821 113.412 242.859 113.435 242.898 113.473C242.929 113.504 242.96 113.551 242.975 113.597C242.999 113.643 243.006 113.698 243.006 113.744C243.006 113.844 242.968 113.945 242.898 114.022C242.821 114.092 242.72 114.13 242.619 114.13Z" fill="#E0E0E0"/>
<path d="M288.301 199.585C288.193 199.585 288.092 199.539 288.022 199.469C287.953 199.4 287.914 199.299 287.914 199.199C287.914 199.098 287.953 198.998 288.022 198.921C288.131 198.82 288.301 198.781 288.448 198.843C288.495 198.859 288.533 198.89 288.572 198.921C288.603 198.959 288.634 198.998 288.657 199.052C288.673 199.098 288.68 199.145 288.68 199.199C288.68 199.299 288.642 199.4 288.572 199.469C288.502 199.539 288.402 199.585 288.301 199.585Z" fill="#E0E0E0"/>
<path d="M287.906 225.919C287.906 225.703 288.084 225.533 288.293 225.533C288.51 225.533 288.688 225.703 288.688 225.919C288.688 226.136 288.51 226.306 288.293 226.306C288.084 226.306 287.906 226.136 287.906 225.919ZM287.906 221.467C287.906 221.251 288.084 221.081 288.293 221.081C288.51 221.081 288.688 221.251 288.688 221.467C288.688 221.676 288.51 221.854 288.293 221.854C288.084 221.854 287.906 221.676 287.906 221.467ZM287.906 217.007C287.906 216.799 288.084 216.621 288.293 216.621C288.51 216.621 288.688 216.799 288.688 217.007C288.688 217.224 288.51 217.401 288.293 217.401C288.084 217.401 287.906 217.224 287.906 217.007ZM287.906 212.555C287.906 212.347 288.084 212.169 288.293 212.169C288.51 212.169 288.688 212.347 288.688 212.555C288.688 212.772 288.51 212.942 288.293 212.942C288.084 212.942 287.906 212.772 287.906 212.555ZM287.906 208.103C287.906 207.887 288.084 207.717 288.293 207.717C288.51 207.717 288.688 207.887 288.688 208.103C288.688 208.32 288.51 208.49 288.293 208.49C288.084 208.49 287.906 208.32 287.906 208.103ZM287.906 203.651C287.906 203.435 288.084 203.265 288.293 203.265C288.51 203.265 288.688 203.435 288.688 203.651C288.688 203.86 288.51 204.038 288.293 204.038C288.084 204.038 287.906 203.86 287.906 203.651Z" fill="#E0E0E0"/>
<path d="M288.301 230.757C288.193 230.757 288.1 230.719 288.022 230.641C287.953 230.572 287.914 230.471 287.914 230.371C287.914 230.317 287.914 230.27 287.937 230.224C287.961 230.178 287.991 230.131 288.022 230.1C288.169 229.954 288.433 229.954 288.572 230.1C288.642 230.17 288.68 230.27 288.68 230.371C288.68 230.417 288.68 230.471 288.657 230.518C288.634 230.564 288.603 230.61 288.572 230.641C288.533 230.68 288.495 230.711 288.448 230.726C288.402 230.75 288.348 230.757 288.301 230.757Z" fill="#E0E0E0"/>
<path d="M283.277 230.371C283.277 230.154 283.448 229.984 283.664 229.984C283.873 229.984 284.051 230.154 284.051 230.371C284.051 230.587 283.873 230.757 283.664 230.757C283.448 230.757 283.277 230.587 283.277 230.371ZM278.641 230.371C278.641 230.154 278.811 229.984 279.028 229.984C279.237 229.984 279.415 230.154 279.415 230.371C279.415 230.587 279.237 230.757 279.028 230.757C278.811 230.757 278.641 230.587 278.641 230.371ZM274.005 230.371C274.005 230.154 274.175 229.984 274.392 229.984C274.609 229.984 274.779 230.154 274.779 230.371C274.779 230.587 274.609 230.757 274.392 230.757C274.175 230.757 274.005 230.587 274.005 230.371ZM269.369 230.371C269.369 230.154 269.547 229.984 269.756 229.984C269.972 229.984 270.143 230.154 270.143 230.371C270.143 230.587 269.972 230.757 269.756 230.757C269.547 230.757 269.369 230.587 269.369 230.371ZM264.74 230.371C264.74 230.154 264.91 229.984 265.127 229.984C265.336 229.984 265.514 230.154 265.514 230.371C265.514 230.587 265.336 230.757 265.127 230.757C264.91 230.757 264.74 230.587 264.74 230.371ZM260.104 230.371C260.104 230.154 260.274 229.984 260.491 229.984C260.7 229.984 260.878 230.154 260.878 230.371C260.878 230.587 260.7 230.757 260.491 230.757C260.274 230.757 260.104 230.587 260.104 230.371ZM255.468 230.371C255.468 230.154 255.646 229.984 255.855 229.984C256.071 229.984 256.242 230.154 256.242 230.371C256.242 230.587 256.071 230.757 255.855 230.757C255.646 230.757 255.468 230.587 255.468 230.371ZM250.831 230.371C250.831 230.154 251.009 229.984 251.226 229.984C251.435 229.984 251.613 230.154 251.613 230.371C251.613 230.587 251.435 230.757 251.226 230.757C251.009 230.757 250.831 230.587 250.831 230.371ZM246.203 230.371C246.203 230.154 246.373 229.984 246.59 229.984C246.799 229.984 246.977 230.154 246.977 230.371C246.977 230.587 246.799 230.757 246.59 230.757C246.373 230.757 246.203 230.587 246.203 230.371ZM241.567 230.371C241.567 230.154 241.737 229.984 241.954 229.984C242.17 229.984 242.341 230.154 242.341 230.371C242.341 230.587 242.17 230.757 241.954 230.757C241.737 230.757 241.567 230.587 241.567 230.371ZM236.93 230.371C236.93 230.154 237.108 229.984 237.317 229.984C237.534 229.984 237.704 230.154 237.704 230.371C237.704 230.587 237.534 230.757 237.317 230.757C237.108 230.757 236.93 230.587 236.93 230.371ZM232.294 230.371C232.294 230.154 232.472 229.984 232.681 229.984C232.898 229.984 233.076 230.154 233.076 230.371C233.076 230.587 232.898 230.757 232.681 230.757C232.472 230.757 232.294 230.587 232.294 230.371ZM227.665 230.371C227.665 230.154 227.836 229.984 228.052 229.984C228.261 229.984 228.439 230.154 228.439 230.371C228.439 230.587 228.261 230.757 228.052 230.757C227.836 230.757 227.665 230.587 227.665 230.371ZM223.029 230.371C223.029 230.154 223.207 229.984 223.416 229.984C223.625 229.984 223.803 230.154 223.803 230.371C223.803 230.587 223.625 230.757 223.416 230.757C223.207 230.757 223.029 230.587 223.029 230.371ZM218.393 230.371C218.393 230.154 218.571 229.984 218.78 229.984C218.997 229.984 219.167 230.154 219.167 230.371C219.167 230.587 218.997 230.757 218.78 230.757C218.571 230.757 218.393 230.587 218.393 230.371ZM213.764 230.371C213.764 230.154 213.935 229.984 214.151 229.984C214.36 229.984 214.538 230.154 214.538 230.371C214.538 230.587 214.36 230.757 214.151 230.757C213.935 230.757 213.764 230.587 213.764 230.371ZM209.128 230.371C209.128 230.154 209.298 229.984 209.515 229.984C209.724 229.984 209.902 230.154 209.902 230.371C209.902 230.587 209.724 230.757 209.515 230.757C209.298 230.757 209.128 230.587 209.128 230.371ZM204.492 230.371C204.492 230.154 204.662 229.984 204.879 229.984C205.096 229.984 205.266 230.154 205.266 230.371C205.266 230.587 205.096 230.757 204.879 230.757C204.662 230.757 204.492 230.587 204.492 230.371ZM199.863 230.371C199.863 230.154 200.034 229.984 200.243 229.984C200.459 229.984 200.63 230.154 200.63 230.371C200.63 230.587 200.459 230.757 200.243 230.757C200.034 230.757 199.863 230.587 199.863 230.371ZM195.227 230.371C195.227 230.154 195.397 229.984 195.614 229.984C195.823 229.984 196.001 230.154 196.001 230.371C196.001 230.587 195.823 230.757 195.614 230.757C195.397 230.757 195.227 230.587 195.227 230.371ZM190.591 230.371C190.591 230.154 190.761 229.984 190.978 229.984C191.187 229.984 191.365 230.154 191.365 230.371C191.365 230.587 191.187 230.757 190.978 230.757C190.761 230.757 190.591 230.587 190.591 230.371ZM185.955 230.371C185.955 230.154 186.133 229.984 186.342 229.984C186.558 229.984 186.729 230.154 186.729 230.371C186.729 230.587 186.558 230.757 186.342 230.757C186.133 230.757 185.955 230.587 185.955 230.371ZM181.318 230.371C181.318 230.154 181.496 229.984 181.705 229.984C181.922 229.984 182.1 230.154 182.1 230.371C182.1 230.587 181.922 230.757 181.705 230.757C181.496 230.757 181.318 230.587 181.318 230.371Z" fill="#E0E0E0"/>
<path d="M177.076 230.757C177.022 230.757 176.976 230.75 176.929 230.726C176.883 230.711 176.837 230.68 176.798 230.641C176.767 230.61 176.736 230.564 176.72 230.518C176.697 230.471 176.689 230.417 176.689 230.371C176.689 230.324 176.697 230.27 176.72 230.224C176.736 230.178 176.767 230.131 176.798 230.1C176.837 230.062 176.883 230.031 176.929 230.015C177.022 229.977 177.131 229.977 177.224 230.015C177.27 230.031 177.316 230.062 177.347 230.1C177.378 230.131 177.409 230.178 177.432 230.224C177.448 230.27 177.463 230.324 177.463 230.371C177.463 230.417 177.448 230.471 177.432 230.518C177.409 230.564 177.378 230.61 177.347 230.641C177.316 230.68 177.27 230.711 177.224 230.726C177.177 230.75 177.123 230.757 177.076 230.757Z" fill="#E0E0E0"/>
<path d="M176.689 225.424C176.689 225.207 176.86 225.037 177.076 225.037C177.285 225.037 177.463 225.207 177.463 225.424C177.463 225.64 177.285 225.81 177.076 225.81C176.86 225.81 176.689 225.64 176.689 225.424ZM176.689 220.477C176.689 220.261 176.86 220.091 177.076 220.091C177.285 220.091 177.463 220.261 177.463 220.477C177.463 220.694 177.285 220.864 177.076 220.864C176.86 220.864 176.689 220.694 176.689 220.477ZM176.689 215.53C176.689 215.314 176.86 215.144 177.076 215.144C177.285 215.144 177.463 215.314 177.463 215.53C177.463 215.747 177.285 215.917 177.076 215.917C176.86 215.917 176.689 215.747 176.689 215.53ZM176.689 210.584C176.689 210.367 176.86 210.197 177.076 210.197C177.285 210.197 177.463 210.367 177.463 210.584C177.463 210.8 177.285 210.97 177.076 210.97C176.86 210.97 176.689 210.8 176.689 210.584Z" fill="#E0E0E0"/>
<path d="M177.076 206.024C177.022 206.024 176.976 206.016 176.929 205.993C176.883 205.978 176.837 205.947 176.798 205.908C176.767 205.877 176.736 205.831 176.72 205.784C176.697 205.738 176.689 205.692 176.689 205.637C176.689 205.537 176.728 205.437 176.798 205.367C176.837 205.328 176.883 205.297 176.929 205.282C177.022 205.243 177.131 205.243 177.224 205.282C177.27 205.297 177.316 205.328 177.347 205.367C177.417 205.437 177.463 205.537 177.463 205.637C177.463 205.684 177.463 205.738 177.432 205.784C177.409 205.831 177.386 205.877 177.347 205.908C177.316 205.947 177.27 205.978 177.224 205.993C177.177 206.016 177.123 206.024 177.076 206.024Z" fill="#E0E0E0"/>
<path d="M177.076 114.13C177.022 114.13 176.976 114.13 176.929 114.099C176.883 114.084 176.837 114.053 176.798 114.014C176.767 113.984 176.736 113.937 176.72 113.891C176.697 113.844 176.689 113.798 176.689 113.744C176.689 113.698 176.697 113.643 176.72 113.597C176.736 113.551 176.767 113.504 176.798 113.473C176.837 113.435 176.883 113.404 176.929 113.388C177.022 113.35 177.131 113.35 177.224 113.388C177.27 113.404 177.316 113.435 177.347 113.473C177.378 113.504 177.409 113.551 177.432 113.597C177.448 113.643 177.463 113.698 177.463 113.744C177.463 113.844 177.417 113.945 177.347 114.014C177.316 114.053 177.27 114.084 177.224 114.099C177.177 114.123 177.123 114.13 177.076 114.13Z" fill="#E0E0E0"/>
<path d="M176.689 133.26C176.689 133.044 176.86 132.866 177.076 132.866C177.285 132.866 177.463 133.044 177.463 133.26C177.463 133.469 177.285 133.647 177.076 133.647C176.86 133.647 176.689 133.469 176.689 133.26ZM176.689 128.383C176.689 128.166 176.86 127.996 177.076 127.996C177.285 127.996 177.463 128.166 177.463 128.383C177.463 128.592 177.285 128.769 177.076 128.769C176.86 128.769 176.689 128.592 176.689 128.383ZM176.689 123.498C176.689 123.289 176.86 123.112 177.076 123.112C177.285 123.112 177.463 123.289 177.463 123.498C177.463 123.714 177.285 123.884 177.076 123.884C176.86 123.884 176.689 123.714 176.689 123.498ZM176.689 118.621C176.689 118.412 176.86 118.234 177.076 118.234C177.285 118.234 177.463 118.412 177.463 118.621C177.463 118.837 177.285 119.007 177.076 119.007C176.86 119.007 176.689 118.837 176.689 118.621Z" fill="#E0E0E0"/>
<path d="M177.076 138.524C177.022 138.524 176.976 138.508 176.929 138.493C176.883 138.47 176.837 138.447 176.798 138.408C176.767 138.369 176.736 138.331 176.72 138.284C176.697 138.238 176.689 138.184 176.689 138.137C176.689 138.029 176.728 137.937 176.798 137.859C176.837 137.828 176.883 137.797 176.929 137.782C177.022 137.743 177.131 137.743 177.224 137.782C177.27 137.797 177.316 137.828 177.347 137.859C177.417 137.937 177.463 138.037 177.463 138.137C177.463 138.184 177.463 138.238 177.432 138.284C177.409 138.331 177.386 138.369 177.347 138.408C177.316 138.439 177.27 138.47 177.224 138.493C177.177 138.508 177.123 138.524 177.076 138.524Z" fill="#E0E0E0"/>
<path d="M95.436 230.741L96.953 204.277C97.0381 202.731 98.3694 201.479 99.9174 201.479H142.921C144.469 201.479 145.653 202.731 145.568 204.277L144.051 230.741C143.966 232.287 142.634 233.539 141.086 233.539H98.083C96.535 233.539 95.3508 232.287 95.436 230.741Z" fill="#E63946"/>
<path d="M93.2602 230.741L94.7772 204.277C94.8624 202.731 96.1936 201.479 97.7416 201.479H142.471C144.019 201.479 145.203 202.731 145.118 204.277L143.601 230.741C143.516 232.287 142.185 233.539 140.637 233.539H95.9073C94.3593 233.539 93.175 232.287 93.2602 230.741Z" fill="white"/>
<path opacity="0.3" d="M93.2602 230.741L94.7772 204.277C94.8624 202.731 96.1936 201.479 97.7416 201.479H142.471C144.019 201.479 145.203 202.731 145.118 204.277L143.601 230.741C143.516 232.287 142.185 233.539 140.637 233.539H95.9073C94.3593 233.539 93.175 232.287 93.2602 230.741Z" fill="#E63946"/>
<path d="M133.408 239.236V238.88C133.408 237.335 132.154 236.082 130.606 236.082H114.422C112.875 236.082 111.62 237.335 111.62 238.88V239.236C111.62 240.781 112.875 242.034 114.422 242.034H130.606C132.154 242.034 133.408 240.781 133.408 239.236Z" fill="#E63946"/>
<g opacity="0.6">
<path d="M133.408 239.236V238.88C133.408 237.335 132.154 236.082 130.606 236.082H114.422C112.875 236.082 111.62 237.335 111.62 238.88V239.236C111.62 240.781 112.875 242.034 114.422 242.034H130.606C132.154 242.034 133.408 240.781 133.408 239.236Z" fill="white"/>
</g>
<path d="M128.484 239.236V238.88C128.484 237.335 127.23 236.082 125.682 236.082H107.772C106.225 236.082 104.97 237.335 104.97 238.88V239.236C104.97 240.781 106.225 242.034 107.772 242.034H125.682C127.23 242.034 128.484 240.781 128.484 239.236Z" fill="white"/>
<path opacity="0.3" d="M128.484 239.236V238.88C128.484 237.335 127.23 236.082 125.682 236.082H107.772C106.225 236.082 104.97 237.335 104.97 238.88V239.236C104.97 240.781 106.225 242.034 107.772 242.034H125.682C127.23 242.034 128.484 240.781 128.484 239.236Z" fill="#E63946"/>
<path opacity="0.9" d="M141.271 232.187H95.4344C94.7533 232.187 94.227 231.63 94.2657 230.95L95.8059 204.068C95.8446 203.388 96.4329 202.831 97.114 202.831H142.95C143.631 202.831 144.158 203.388 144.119 204.068L142.579 230.95C142.54 231.63 141.952 232.187 141.271 232.187Z" fill="white"/>
<path opacity="0.1" d="M108.639 232.187H99.5293L107.865 202.831H116.983L108.639 232.187Z" fill="#E63946"/>
<path opacity="0.1" d="M116.108 232.187H109.738L118.074 202.831H124.444L116.108 232.187Z" fill="#E63946"/>
<path opacity="0.1" d="M129.993 232.187H123.623L131.959 202.831H138.329L129.993 232.187Z" fill="#E63946"/>
<path d="M169.524 230.741L171.041 204.277C171.126 202.731 172.457 201.479 174.005 201.479H217.009C218.557 201.479 219.741 202.731 219.656 204.277L218.139 230.741C218.054 232.287 216.722 233.539 215.174 233.539H172.171C170.623 233.539 169.439 232.287 169.524 230.741Z" fill="#E63946"/>
<path d="M167.348 230.741L168.865 204.277C168.95 202.731 170.282 201.479 171.83 201.479H216.559C218.107 201.479 219.291 202.731 219.206 204.277L217.689 230.741C217.604 232.287 216.273 233.539 214.725 233.539H169.995C168.447 233.539 167.263 232.287 167.348 230.741Z" fill="white"/>
<path opacity="0.3" d="M167.348 230.741L168.865 204.277C168.95 202.731 170.282 201.479 171.83 201.479H216.559C218.107 201.479 219.291 202.731 219.206 204.277L217.689 230.741C217.604 232.287 216.273 233.539 214.725 233.539H169.995C168.447 233.539 167.263 232.287 167.348 230.741Z" fill="#E63946"/>
<path d="M207.496 239.228V238.872C207.496 237.327 206.242 236.074 204.694 236.074H188.51C186.962 236.074 185.708 237.327 185.708 238.872V239.228C185.708 240.773 186.962 242.026 188.51 242.026H204.694C206.242 242.026 207.496 240.773 207.496 239.228Z" fill="#E63946"/>
<g opacity="0.6">
<path d="M207.496 239.228V238.872C207.496 237.327 206.242 236.074 204.694 236.074H188.51C186.962 236.074 185.708 237.327 185.708 238.872V239.228C185.708 240.773 186.962 242.026 188.51 242.026H204.694C206.242 242.026 207.496 240.773 207.496 239.228Z" fill="white"/>
</g>
<path d="M202.572 239.228V238.872C202.572 237.327 201.318 236.074 199.77 236.074H181.86C180.313 236.074 179.058 237.327 179.058 238.872V239.228C179.058 240.773 180.313 242.026 181.86 242.026H199.77C201.318 242.026 202.572 240.773 202.572 239.228Z" fill="white"/>
<path opacity="0.3" d="M202.572 239.228V238.872C202.572 237.327 201.318 236.074 199.77 236.074H181.86C180.313 236.074 179.058 237.327 179.058 238.872V239.228C179.058 240.773 180.313 242.026 181.86 242.026H199.77C201.318 242.026 202.572 240.773 202.572 239.228Z" fill="#E63946"/>
<path opacity="0.9" d="M215.351 232.187H169.514C168.833 232.187 168.307 231.63 168.346 230.95L169.886 204.068C169.925 203.388 170.513 202.831 171.194 202.831H217.03C217.711 202.831 218.238 203.388 218.199 204.068L216.659 230.95C216.62 231.63 216.032 232.187 215.351 232.187Z" fill="white"/>
<path opacity="0.1" d="M182.727 232.187H173.609L181.953 202.831H191.063L182.727 232.187Z" fill="#E63946"/>
<path opacity="0.1" d="M190.188 232.187H183.826L192.162 202.831H198.532L190.188 232.187Z" fill="#E63946"/>
<path opacity="0.1" d="M204.073 232.187H197.711L206.047 202.831H212.417L204.073 232.187Z" fill="#E63946"/>
<path d="M243.602 230.741L245.119 204.277C245.204 202.731 246.535 201.479 248.083 201.479H291.087C292.635 201.479 293.819 202.731 293.734 204.277L292.217 230.741C292.132 232.287 290.8 233.539 289.252 233.539H246.249C244.701 233.539 243.517 232.287 243.602 230.741Z" fill="#E63946"/>
<path d="M241.434 230.741L242.951 204.277C243.036 202.731 244.367 201.479 245.915 201.479H290.645C292.193 201.479 293.377 202.731 293.292 204.277L291.775 230.741C291.69 232.287 290.359 233.539 288.811 233.539H244.081C242.533 233.539 241.349 232.287 241.434 230.741Z" fill="white"/>
<path opacity="0.3" d="M241.434 230.741L242.951 204.277C243.036 202.731 244.367 201.479 245.915 201.479H290.645C292.193 201.479 293.377 202.731 293.292 204.277L291.775 230.741C291.69 232.287 290.359 233.539 288.811 233.539H244.081C242.533 233.539 241.349 232.287 241.434 230.741Z" fill="#E63946"/>
<path d="M281.582 239.236V238.88C281.582 237.335 280.328 236.082 278.78 236.082H262.596C261.048 236.082 259.794 237.335 259.794 238.88V239.236C259.794 240.781 261.048 242.034 262.596 242.034H278.78C280.328 242.034 281.582 240.781 281.582 239.236Z" fill="#E63946"/>
<g opacity="0.6">
<path d="M281.582 239.236V238.88C281.582 237.335 280.328 236.082 278.78 236.082H262.596C261.048 236.082 259.794 237.335 259.794 238.88V239.236C259.794 240.781 261.048 242.034 262.596 242.034H278.78C280.328 242.034 281.582 240.781 281.582 239.236Z" fill="white"/>
</g>
<path d="M276.658 239.236V238.88C276.658 237.335 275.404 236.082 273.856 236.082H255.946C254.399 236.082 253.144 237.335 253.144 238.88V239.236C253.144 240.781 254.399 242.034 255.946 242.034H273.856C275.404 242.034 276.658 240.781 276.658 239.236Z" fill="white"/>
<path opacity="0.3" d="M276.658 239.236V238.88C276.658 237.335 275.404 236.082 273.856 236.082H255.946C254.399 236.082 253.144 237.335 253.144 238.88V239.236C253.144 240.781 254.399 242.034 255.946 242.034H273.856C275.404 242.034 276.658 240.781 276.658 239.236Z" fill="#E63946"/>
<path opacity="0.9" d="M289.437 232.187H243.6C242.919 232.187 242.393 231.63 242.432 230.95L243.972 204.068C244.011 203.388 244.599 202.831 245.28 202.831H291.116C291.797 202.831 292.324 203.388 292.285 204.068L290.745 230.95C290.706 231.63 290.118 232.187 289.437 232.187Z" fill="white"/>
<path opacity="0.1" d="M256.813 232.187H247.695L256.031 202.831H265.149L256.813 232.187Z" fill="#E63946"/>
<path opacity="0.1" d="M264.274 232.187H257.904L266.248 202.831H272.61L264.274 232.187Z" fill="#E63946"/>
<path opacity="0.1" d="M278.159 232.187H271.789L280.125 202.831H286.495L278.159 232.187Z" fill="#E63946"/>
<path d="M118.948 196.208C118.893 196.208 118.847 196.193 118.8 196.178C118.754 196.154 118.708 196.123 118.669 196.092C118.638 196.054 118.607 196.015 118.592 195.969C118.568 195.915 118.561 195.868 118.561 195.822C118.561 195.714 118.599 195.613 118.669 195.544C118.777 195.436 118.948 195.405 119.095 195.459C119.141 195.482 119.187 195.505 119.218 195.544C119.257 195.582 119.288 195.621 119.304 195.667C119.327 195.714 119.335 195.768 119.335 195.822C119.335 195.868 119.335 195.915 119.304 195.969C119.288 196.015 119.257 196.054 119.218 196.092C119.187 196.123 119.141 196.154 119.095 196.178C119.048 196.193 118.994 196.208 118.948 196.208Z" fill="#E63946"/>
<path d="M118.561 192.985C118.561 192.776 118.731 192.599 118.948 192.599C119.164 192.599 119.335 192.776 119.335 192.985C119.335 193.202 119.164 193.372 118.948 193.372C118.731 193.372 118.561 193.202 118.561 192.985Z" fill="#E63946"/>
<path d="M118.948 190.543C118.847 190.543 118.746 190.504 118.669 190.427C118.638 190.396 118.607 190.35 118.592 190.303C118.568 190.257 118.561 190.211 118.561 190.157C118.561 190.056 118.599 189.956 118.669 189.886C118.777 189.778 118.948 189.739 119.095 189.801C119.141 189.824 119.187 189.847 119.218 189.886C119.257 189.917 119.288 189.963 119.304 190.01C119.327 190.056 119.335 190.11 119.335 190.157C119.335 190.211 119.335 190.257 119.304 190.303C119.288 190.35 119.257 190.396 119.218 190.427C119.187 190.466 119.141 190.497 119.095 190.512C119.048 190.535 118.994 190.543 118.948 190.543Z" fill="#E63946"/>
<path d="M190.008 190.156C190.008 189.947 190.179 189.77 190.388 189.77C190.604 189.77 190.775 189.947 190.775 190.156C190.775 190.372 190.604 190.542 190.388 190.542C190.179 190.542 190.008 190.372 190.008 190.156ZM186.897 190.156C186.897 189.947 187.075 189.77 187.284 189.77C187.501 189.77 187.671 189.947 187.671 190.156C187.671 190.372 187.501 190.542 187.284 190.542C187.075 190.542 186.897 190.372 186.897 190.156ZM183.793 190.156C183.793 189.947 183.963 189.77 184.18 189.77C184.389 189.77 184.567 189.947 184.567 190.156C184.567 190.372 184.389 190.542 184.18 190.542C183.963 190.542 183.793 190.372 183.793 190.156ZM180.689 190.156C180.689 189.947 180.86 189.77 181.076 189.77C181.285 189.77 181.456 189.947 181.456 190.156C181.456 190.372 181.285 190.542 181.076 190.542C180.86 190.542 180.689 190.372 180.689 190.156ZM177.578 190.156C177.578 189.947 177.756 189.77 177.965 189.77C178.182 189.77 178.352 189.947 178.352 190.156C178.352 190.372 178.182 190.542 177.965 190.542C177.756 190.542 177.578 190.372 177.578 190.156ZM174.474 190.156C174.474 189.947 174.644 189.77 174.861 189.77C175.07 189.77 175.248 189.947 175.248 190.156C175.248 190.372 175.07 190.542 174.861 190.542C174.644 190.542 174.474 190.372 174.474 190.156ZM171.37 190.156C171.37 189.947 171.541 189.77 171.757 189.77C171.966 189.77 172.144 189.947 172.144 190.156C172.144 190.372 171.966 190.542 171.757 190.542C171.541 190.542 171.37 190.372 171.37 190.156ZM168.259 190.156C168.259 189.947 168.437 189.77 168.646 189.77C168.863 189.77 169.033 189.947 169.033 190.156C169.033 190.372 168.863 190.542 168.646 190.542C168.437 190.542 168.259 190.372 168.259 190.156ZM165.155 190.156C165.155 189.947 165.325 189.77 165.542 189.77C165.751 189.77 165.929 189.947 165.929 190.156C165.929 190.372 165.751 190.542 165.542 190.542C165.325 190.542 165.155 190.372 165.155 190.156ZM162.051 190.156C162.051 189.947 162.222 189.77 162.438 189.77C162.647 189.77 162.825 189.947 162.825 190.156C162.825 190.372 162.647 190.542 162.438 190.542C162.222 190.542 162.051 190.372 162.051 190.156ZM158.94 190.156C158.94 189.947 159.118 189.77 159.327 189.77C159.544 189.77 159.714 189.947 159.714 190.156C159.714 190.372 159.544 190.542 159.327 190.542C159.118 190.542 158.94 190.372 158.94 190.156ZM155.836 190.156C155.836 189.947 156.006 189.77 156.223 189.77C156.432 189.77 156.61 189.947 156.61 190.156C156.61 190.372 156.432 190.542 156.223 190.542C156.006 190.542 155.836 190.372 155.836 190.156ZM152.725 190.156C152.725 189.947 152.903 189.77 153.119 189.77C153.328 189.77 153.506 189.947 153.506 190.156C153.506 190.372 153.328 190.542 153.119 190.542C152.903 190.542 152.725 190.372 152.725 190.156ZM149.621 190.156C149.621 189.947 149.799 189.77 150.008 189.77C150.225 189.77 150.395 189.947 150.395 190.156C150.395 190.372 150.225 190.542 150.008 190.542C149.799 190.542 149.621 190.372 149.621 190.156ZM146.517 190.156C146.517 189.947 146.687 189.77 146.904 189.77C147.121 189.77 147.291 189.947 147.291 190.156C147.291 190.372 147.121 190.542 146.904 190.542C146.687 190.542 146.517 190.372 146.517 190.156ZM143.406 190.156C143.406 189.947 143.584 189.77 143.793 189.77C144.009 189.77 144.187 189.947 144.187 190.156C144.187 190.372 144.009 190.542 143.793 190.542C143.584 190.542 143.406 190.372 143.406 190.156ZM140.302 190.156C140.302 189.947 140.472 189.77 140.689 189.77C140.906 189.77 141.076 189.947 141.076 190.156C141.076 190.372 140.906 190.542 140.689 190.542C140.472 190.542 140.302 190.372 140.302 190.156ZM137.198 190.156C137.198 189.947 137.369 189.77 137.585 189.77C137.794 189.77 137.972 189.947 137.972 190.156C137.972 190.372 137.794 190.542 137.585 190.542C137.369 190.542 137.198 190.372 137.198 190.156ZM134.087 190.156C134.087 189.947 134.265 189.77 134.474 189.77C134.69 189.77 134.861 189.947 134.861 190.156C134.861 190.372 134.69 190.542 134.474 190.542C134.265 190.542 134.087 190.372 134.087 190.156ZM130.983 190.156C130.983 189.947 131.161 189.77 131.37 189.77C131.587 189.77 131.757 189.947 131.757 190.156C131.757 190.372 131.587 190.542 131.37 190.542C131.161 190.542 130.983 190.372 130.983 190.156ZM127.879 190.156C127.879 189.947 128.05 189.77 128.266 189.77C128.475 189.77 128.653 189.947 128.653 190.156C128.653 190.372 128.475 190.542 128.266 190.542C128.05 190.542 127.879 190.372 127.879 190.156ZM124.776 190.156C124.776 189.947 124.946 189.77 125.155 189.77C125.372 189.77 125.542 189.947 125.542 190.156C125.542 190.372 125.372 190.542 125.155 190.542C124.946 190.542 124.776 190.372 124.776 190.156ZM121.664 190.156C121.664 189.947 121.842 189.77 122.051 189.77C122.268 189.77 122.438 189.947 122.438 190.156C122.438 190.372 122.268 190.542 122.051 190.542C121.842 190.542 121.664 190.372 121.664 190.156Z" fill="#E63946"/>
<path d="M193.498 190.542C193.444 190.542 193.398 190.535 193.351 190.512C193.305 190.496 193.258 190.465 193.227 190.434C193.189 190.396 193.158 190.349 193.142 190.303C193.119 190.257 193.111 190.21 193.111 190.156C193.111 190.11 193.111 190.056 193.142 190.009C193.158 189.963 193.189 189.924 193.227 189.885C193.258 189.847 193.305 189.824 193.351 189.8C193.444 189.762 193.553 189.762 193.645 189.8C193.692 189.824 193.738 189.847 193.769 189.885C193.847 189.955 193.885 190.056 193.885 190.156C193.885 190.21 193.878 190.257 193.854 190.303C193.839 190.349 193.808 190.396 193.769 190.434C193.738 190.465 193.692 190.496 193.645 190.512C193.599 190.535 193.553 190.542 193.498 190.542Z" fill="#E63946"/>
<path d="M193.498 190.542C193.444 190.542 193.398 190.535 193.351 190.512C193.305 190.496 193.258 190.465 193.227 190.434C193.189 190.396 193.158 190.349 193.142 190.303C193.119 190.257 193.111 190.21 193.111 190.156C193.111 190.11 193.111 190.056 193.142 190.009C193.158 189.963 193.189 189.924 193.227 189.885C193.258 189.847 193.305 189.824 193.351 189.8C193.444 189.762 193.553 189.762 193.645 189.8C193.692 189.824 193.738 189.847 193.769 189.885C193.847 189.955 193.885 190.056 193.885 190.156C193.885 190.21 193.878 190.257 193.854 190.303C193.839 190.349 193.808 190.396 193.769 190.434C193.738 190.465 193.692 190.496 193.645 190.512C193.599 190.535 193.553 190.542 193.498 190.542Z" fill="#E63946"/>
<path d="M193.111 187.473C193.111 187.257 193.289 187.087 193.498 187.087C193.715 187.087 193.885 187.257 193.885 187.473C193.885 187.69 193.715 187.86 193.498 187.86C193.289 187.86 193.111 187.69 193.111 187.473ZM193.111 184.791C193.111 184.575 193.289 184.405 193.498 184.405C193.715 184.405 193.885 184.575 193.885 184.791C193.885 185.008 193.715 185.178 193.498 185.178C193.289 185.178 193.111 185.008 193.111 184.791ZM193.111 182.109C193.111 181.893 193.289 181.723 193.498 181.723C193.715 181.723 193.885 181.893 193.885 182.109C193.885 182.326 193.715 182.496 193.498 182.496C193.289 182.496 193.111 182.326 193.111 182.109Z" fill="#E63946"/>
<path d="M193.498 179.814C193.398 179.814 193.297 179.775 193.227 179.698C193.189 179.667 193.158 179.621 193.142 179.574C193.119 179.528 193.111 179.474 193.111 179.428C193.111 179.373 193.111 179.327 193.142 179.281C193.158 179.227 193.189 179.188 193.227 179.149C193.258 179.118 193.305 179.087 193.351 179.072C193.444 179.033 193.553 179.026 193.645 179.072C193.692 179.087 193.738 179.118 193.769 179.149C193.808 179.188 193.839 179.234 193.854 179.281C193.878 179.327 193.885 179.373 193.885 179.428C193.885 179.474 193.878 179.528 193.854 179.574C193.839 179.621 193.808 179.667 193.769 179.698C193.7 179.775 193.599 179.814 193.498 179.814Z" fill="#E63946"/>
<path d="M193.498 190.542C193.444 190.542 193.398 190.535 193.351 190.512C193.305 190.496 193.258 190.465 193.227 190.434C193.189 190.396 193.158 190.349 193.142 190.303C193.119 190.257 193.111 190.21 193.111 190.156C193.111 190.11 193.111 190.056 193.142 190.009C193.158 189.963 193.189 189.924 193.227 189.885C193.258 189.847 193.305 189.824 193.351 189.8C193.444 189.762 193.553 189.762 193.645 189.8C193.692 189.824 193.738 189.847 193.769 189.885C193.847 189.955 193.885 190.056 193.885 190.156C193.885 190.21 193.878 190.257 193.854 190.303C193.839 190.349 193.808 190.396 193.769 190.434C193.738 190.465 193.692 190.496 193.645 190.512C193.599 190.535 193.553 190.542 193.498 190.542Z" fill="#E63946"/>
<path d="M193.111 192.985C193.111 192.776 193.289 192.599 193.498 192.599C193.715 192.599 193.885 192.776 193.885 192.985C193.885 193.202 193.715 193.372 193.498 193.372C193.289 193.372 193.111 193.202 193.111 192.985Z" fill="#E63946"/>
<path d="M193.498 196.209C193.398 196.209 193.297 196.162 193.227 196.093C193.189 196.054 193.158 196.015 193.142 195.969C193.119 195.923 193.111 195.868 193.111 195.814C193.111 195.768 193.111 195.714 193.142 195.667C193.158 195.621 193.189 195.582 193.227 195.544C193.367 195.405 193.622 195.397 193.769 195.544C193.808 195.582 193.839 195.621 193.854 195.667C193.878 195.714 193.885 195.768 193.885 195.814C193.885 195.868 193.878 195.923 193.854 195.969C193.839 196.015 193.808 196.054 193.769 196.093C193.7 196.162 193.599 196.209 193.498 196.209Z" fill="#E63946"/>
<path d="M268.049 196.208C267.948 196.208 267.848 196.161 267.778 196.092C267.709 196.014 267.662 195.914 267.662 195.813C267.662 195.713 267.709 195.612 267.778 195.543C267.918 195.404 268.181 195.396 268.32 195.543C268.359 195.581 268.39 195.62 268.405 195.666C268.428 195.713 268.436 195.767 268.436 195.813C268.436 195.914 268.397 196.014 268.32 196.092C268.25 196.161 268.15 196.208 268.049 196.208Z" fill="#E63946"/>
<path d="M267.662 192.985C267.662 192.776 267.84 192.599 268.049 192.599C268.266 192.599 268.436 192.776 268.436 192.985C268.436 193.202 268.266 193.372 268.049 193.372C267.84 193.372 267.662 193.202 267.662 192.985Z" fill="#E63946"/>
<path d="M268.049 190.543C267.948 190.543 267.848 190.504 267.778 190.434C267.709 190.357 267.662 190.257 267.662 190.156C267.662 190.056 267.709 189.955 267.778 189.886C267.918 189.739 268.173 189.739 268.32 189.886C268.397 189.955 268.436 190.056 268.436 190.156C268.436 190.257 268.397 190.357 268.32 190.434C268.25 190.504 268.15 190.543 268.049 190.543Z" fill="#E63946"/>
<path d="M264.559 190.156C264.559 189.94 264.729 189.77 264.946 189.77C265.155 189.77 265.333 189.94 265.333 190.156C265.333 190.372 265.155 190.542 264.946 190.542C264.729 190.542 264.559 190.372 264.559 190.156ZM261.448 190.156C261.448 189.94 261.626 189.77 261.842 189.77C262.051 189.77 262.229 189.94 262.229 190.156C262.229 190.372 262.051 190.542 261.842 190.542C261.626 190.542 261.448 190.372 261.448 190.156ZM258.344 190.156C258.344 189.94 258.522 189.77 258.731 189.77C258.948 189.77 259.118 189.94 259.118 190.156C259.118 190.372 258.948 190.542 258.731 190.542C258.522 190.542 258.344 190.372 258.344 190.156ZM255.24 190.156C255.24 189.94 255.41 189.77 255.627 189.77C255.836 189.77 256.014 189.94 256.014 190.156C256.014 190.372 255.836 190.542 255.627 190.542C255.41 190.542 255.24 190.372 255.24 190.156ZM252.129 190.156C252.129 189.94 252.307 189.77 252.516 189.77C252.732 189.77 252.91 189.94 252.91 190.156C252.91 190.372 252.732 190.542 252.516 190.542C252.307 190.542 252.129 190.372 252.129 190.156ZM249.025 190.156C249.025 189.94 249.203 189.77 249.412 189.77C249.629 189.77 249.799 189.94 249.799 190.156C249.799 190.372 249.629 190.542 249.412 190.542C249.203 190.542 249.025 190.372 249.025 190.156ZM245.921 190.156C245.921 189.94 246.091 189.77 246.308 189.77C246.517 189.77 246.695 189.94 246.695 190.156C246.695 190.372 246.517 190.542 246.308 190.542C246.091 190.542 245.921 190.372 245.921 190.156ZM242.81 190.156C242.81 189.94 242.988 189.77 243.197 189.77C243.413 189.77 243.591 189.94 243.591 190.156C243.591 190.372 243.413 190.542 243.197 190.542C242.988 190.542 242.81 190.372 242.81 190.156ZM239.706 190.156C239.706 189.94 239.884 189.77 240.093 189.77C240.31 189.77 240.48 189.94 240.48 190.156C240.48 190.372 240.31 190.542 240.093 190.542C239.884 190.542 239.706 190.372 239.706 190.156ZM236.602 190.156C236.602 189.94 236.772 189.77 236.989 189.77C237.198 189.77 237.376 189.94 237.376 190.156C237.376 190.372 237.198 190.542 236.989 190.542C236.772 190.542 236.602 190.372 236.602 190.156ZM233.491 190.156C233.491 189.94 233.669 189.77 233.878 189.77C234.094 189.77 234.265 189.94 234.265 190.156C234.265 190.372 234.094 190.542 233.878 190.542C233.669 190.542 233.491 190.372 233.491 190.156ZM230.387 190.156C230.387 189.94 230.565 189.77 230.774 189.77C230.991 189.77 231.161 189.94 231.161 190.156C231.161 190.372 230.991 190.542 230.774 190.542C230.565 190.542 230.387 190.372 230.387 190.156ZM227.283 190.156C227.283 189.94 227.453 189.77 227.67 189.77C227.879 189.77 228.057 189.94 228.057 190.156C228.057 190.372 227.879 190.542 227.67 190.542C227.453 190.542 227.283 190.372 227.283 190.156ZM224.172 190.156C224.172 189.94 224.35 189.77 224.559 189.77C224.775 189.77 224.946 189.94 224.946 190.156C224.946 190.372 224.775 190.542 224.559 190.542C224.35 190.542 224.172 190.372 224.172 190.156ZM221.068 190.156C221.068 189.94 221.246 189.77 221.455 189.77C221.672 189.77 221.842 189.94 221.842 190.156C221.842 190.372 221.672 190.542 221.455 190.542C221.246 190.542 221.068 190.372 221.068 190.156ZM217.964 190.156C217.964 189.94 218.135 189.77 218.351 189.77C218.56 189.77 218.738 189.94 218.738 190.156C218.738 190.372 218.56 190.542 218.351 190.542C218.135 190.542 217.964 190.372 217.964 190.156ZM214.853 190.156C214.853 189.94 215.031 189.77 215.24 189.77C215.456 189.77 215.635 189.94 215.635 190.156C215.635 190.372 215.456 190.542 215.24 190.542C215.031 190.542 214.853 190.372 214.853 190.156ZM211.749 190.156C211.749 189.94 211.927 189.77 212.136 189.77C212.353 189.77 212.523 189.94 212.523 190.156C212.523 190.372 212.353 190.542 212.136 190.542C211.927 190.542 211.749 190.372 211.749 190.156ZM208.645 190.156C208.645 189.94 208.816 189.77 209.032 189.77C209.241 189.77 209.419 189.94 209.419 190.156C209.419 190.372 209.241 190.542 209.032 190.542C208.816 190.542 208.645 190.372 208.645 190.156ZM205.534 190.156C205.534 189.94 205.712 189.77 205.921 189.77C206.138 189.77 206.316 189.94 206.316 190.156C206.316 190.372 206.138 190.542 205.921 190.542C205.712 190.542 205.534 190.372 205.534 190.156ZM202.43 190.156C202.43 189.94 202.6 189.77 202.817 189.77C203.034 189.77 203.204 189.94 203.204 190.156C203.204 190.372 203.034 190.542 202.817 190.542C202.6 190.542 202.43 190.372 202.43 190.156ZM199.326 190.156C199.326 189.94 199.497 189.77 199.713 189.77C199.922 189.77 200.1 189.94 200.1 190.156C200.1 190.372 199.922 190.542 199.713 190.542C199.497 190.542 199.326 190.372 199.326 190.156ZM196.215 190.156C196.215 189.94 196.393 189.77 196.602 189.77C196.819 189.77 196.997 189.94 196.997 190.156C196.997 190.372 196.819 190.542 196.602 190.542C196.393 190.542 196.215 190.372 196.215 190.156Z" fill="#E63946"/>
<path d="M193.498 190.542C193.444 190.542 193.398 190.535 193.351 190.512C193.305 190.496 193.258 190.465 193.227 190.434C193.189 190.396 193.158 190.349 193.142 190.303C193.119 190.257 193.111 190.21 193.111 190.156C193.111 190.11 193.111 190.056 193.142 190.009C193.158 189.963 193.189 189.924 193.227 189.885C193.258 189.847 193.305 189.824 193.351 189.8C193.444 189.762 193.553 189.762 193.645 189.8C193.692 189.824 193.738 189.847 193.769 189.885C193.847 189.955 193.885 190.056 193.885 190.156C193.885 190.21 193.878 190.257 193.854 190.303C193.839 190.349 193.808 190.396 193.769 190.434C193.738 190.465 193.692 190.496 193.645 190.512C193.599 190.535 193.553 190.542 193.498 190.542Z" fill="#E63946"/>
<path d="M311.574 108.643C311.358 83.2444 290.684 62.7232 265.204 62.7232H246.048C236.365 45.9585 218.238 34.666 197.464 34.666H160.18V48.8569C151.573 56.5321 145.342 66.8197 142.757 78.4755C117.579 80.0909 97.6562 100.983 97.6562 126.536C97.6562 152.089 119.251 174.705 145.892 174.705H299.392C318.277 174.705 333.587 159.416 333.587 140.557C333.587 125.98 324.438 113.543 311.567 108.643H311.574Z" fill="#E63946"/>
<path opacity="0.7" d="M311.574 108.643C311.358 83.2444 290.684 62.7232 265.204 62.7232H246.048C236.365 45.9585 218.238 34.666 197.464 34.666H160.18V48.8569C151.573 56.5321 145.342 66.8197 142.757 78.4755C117.579 80.0909 97.6562 100.983 97.6562 126.536C97.6562 152.089 119.251 174.705 145.892 174.705H299.392C318.277 174.705 333.587 159.416 333.587 140.557C333.587 125.98 324.438 113.543 311.567 108.643H311.574Z" fill="white"/>
<path d="M274.289 108.643C274.073 83.2444 253.399 62.7232 227.919 62.7232C221.781 62.7232 215.922 63.929 210.558 66.0932C201.448 47.4889 182.315 34.666 160.178 34.666C133.406 34.666 111.037 53.4172 105.472 78.4755C80.2939 80.0909 60.3711 100.983 60.3711 126.536C60.3711 152.089 81.9657 174.705 108.607 174.705H262.106C280.992 174.705 296.302 159.416 296.302 140.557C296.302 125.98 287.153 113.551 274.281 108.643H274.289Z" fill="#E63946"/>
<mask id="mask0_1250_2163" style="mask-type:luminance" maskUnits="userSpaceOnUse" x="60" y="34" width="237" height="141">
<path d="M274.289 108.643C274.073 83.2444 253.399 62.7232 227.919 62.7232C221.781 62.7232 215.922 63.929 210.558 66.0932C201.448 47.4889 182.315 34.666 160.178 34.666C133.406 34.666 111.037 53.4172 105.472 78.4755C80.2939 80.0909 60.3711 100.983 60.3711 126.536C60.3711 152.089 81.9657 174.705 108.607 174.705H262.106C280.992 174.705 296.302 159.416 296.302 140.557C296.302 125.98 287.153 113.551 274.281 108.643H274.289Z" fill="white"/>
</mask>
<g mask="url(#mask0_1250_2163)">
<path opacity="0.1" d="M311.572 108.643C311.356 83.2444 290.682 62.7232 265.202 62.7232C259.064 62.7232 253.205 63.929 247.841 66.0932C238.731 47.4889 219.598 34.666 197.462 34.666C170.689 34.666 148.32 53.4172 142.755 78.4755C117.577 80.0909 97.6543 100.983 97.6543 126.536C97.6543 152.089 119.249 174.705 145.89 174.705H299.39C318.275 174.705 333.585 159.416 333.585 140.557C333.585 125.98 324.436 113.551 311.565 108.643H311.572Z" fill="black"/>
</g>
<path d="M262.115 175.446H108.615C81.6028 175.446 59.6289 153.503 59.6289 126.52C59.6289 100.99 79.4588 79.6731 104.869 77.7485C107.702 65.5594 114.622 54.5066 124.405 46.5764C134.475 38.4065 147.184 33.9004 160.187 33.9004C181.828 33.9004 201.209 45.8498 210.93 65.1266C216.364 63.0243 222.076 61.9576 227.927 61.9576C253.524 61.9576 274.561 82.6179 275.049 108.117C288.245 113.365 297.077 126.335 297.077 140.541C297.077 159.787 281.403 175.439 262.131 175.439L262.115 175.446ZM160.187 35.4076C134.475 35.4076 111.773 53.5868 106.216 78.6296C106.146 78.9543 105.86 79.1939 105.527 79.217C80.6353 80.817 61.1305 101.593 61.1305 126.528C61.1305 152.676 82.4309 173.947 108.615 173.947H262.115C280.559 173.947 295.56 158.968 295.56 140.549C295.56 126.783 286.906 114.246 274.027 109.338C273.741 109.23 273.547 108.952 273.547 108.642C273.338 83.7309 252.873 63.4648 227.927 63.4648C222.045 63.4648 216.294 64.5778 210.845 66.7807C210.482 66.9275 210.064 66.7652 209.886 66.4174C200.52 47.2952 181.48 35.4153 160.187 35.4153V35.4076Z" fill="#E63946"/>
<path opacity="0.7" d="M262.115 175.446H108.615C81.6028 175.446 59.6289 153.503 59.6289 126.52C59.6289 100.99 79.4588 79.6731 104.869 77.7485C107.702 65.5594 114.622 54.5066 124.405 46.5764C134.475 38.4065 147.184 33.9004 160.187 33.9004C181.828 33.9004 201.209 45.8498 210.93 65.1266C216.364 63.0243 222.076 61.9576 227.927 61.9576C253.524 61.9576 274.561 82.6179 275.049 108.117C288.245 113.365 297.077 126.335 297.077 140.541C297.077 159.787 281.403 175.439 262.131 175.439L262.115 175.446ZM160.187 35.4076C134.475 35.4076 111.773 53.5868 106.216 78.6296C106.146 78.9543 105.86 79.1939 105.527 79.217C80.6353 80.817 61.1305 101.593 61.1305 126.528C61.1305 152.676 82.4309 173.947 108.615 173.947H262.115C280.559 173.947 295.56 158.968 295.56 140.549C295.56 126.783 286.906 114.246 274.027 109.338C273.741 109.23 273.547 108.952 273.547 108.642C273.338 83.7309 252.873 63.4648 227.927 63.4648C222.045 63.4648 216.294 64.5778 210.845 66.7807C210.482 66.9275 210.064 66.7652 209.886 66.4174C200.52 47.2952 181.48 35.4153 160.187 35.4153V35.4076Z" fill="white"/>
<path d="M152.94 173.955H140.611V106.394H152.94C154.837 106.394 156.385 107.932 156.385 109.833V170.523C156.385 172.417 154.845 173.963 152.94 173.963V173.955Z" fill="#E0E0E0"/>
<path d="M141.842 106.386H115.31C113.407 106.386 111.865 107.926 111.865 109.825V170.508C111.865 172.407 113.407 173.947 115.31 173.947H141.842C143.744 173.947 145.287 172.407 145.287 170.508V109.825C145.287 107.926 143.744 106.386 141.842 106.386Z" fill="white"/>
<path d="M145.287 159.934H111.865V160.56H145.287V159.934Z" fill="#E0E0E0"/>
<path d="M145.287 146.547H111.865V147.173H145.287V146.547Z" fill="#E0E0E0"/>
<path d="M145.287 133.16H111.865V133.786H145.287V133.16Z" fill="#E0E0E0"/>
<path d="M145.287 119.772H111.865V120.399H145.287V119.772Z" fill="#E0E0E0"/>
<path opacity="0.6" d="M128.53 115.437H117.353C116.649 115.437 116.076 116.008 116.076 116.712C116.076 117.415 116.649 117.987 117.353 117.987H128.53C129.234 117.987 129.807 117.415 129.807 116.712C129.807 116.008 129.234 115.437 128.53 115.437Z" fill="#E63946"/>
<path opacity="0.6" d="M128.53 112.12H117.353C116.649 112.12 116.076 112.692 116.076 113.395C116.076 114.099 116.649 114.671 117.353 114.671H128.53C129.234 114.671 129.807 114.099 129.807 113.395C129.807 112.692 129.234 112.12 128.53 112.12Z" fill="#E63946"/>
<path opacity="0.6" d="M128.53 108.805H117.353C116.649 108.805 116.076 109.377 116.076 110.08C116.076 110.783 116.649 111.355 117.353 111.355H128.53C129.234 111.355 129.807 110.783 129.807 110.08C129.807 109.377 129.234 108.805 128.53 108.805Z" fill="#E63946"/>
<path d="M130.983 117.979H135.65V115.429H130.983V117.979Z" fill="#EBEBEB"/>
<path d="M130.983 114.671H135.65V112.12H130.983V114.671Z" fill="#E63946"/>
<path d="M130.983 111.363H135.65V108.813H130.983V111.363Z" fill="#EBEBEB"/>
<path d="M136.409 117.979H141.076V115.429H136.409V117.979Z" fill="#EBEBEB"/>
<path d="M136.409 114.671H141.076V112.12H136.409V114.671Z" fill="#EBEBEB"/>
<path d="M136.409 111.363H141.076V108.813H136.409V111.363Z" fill="#E63946"/>
<path d="M128.53 128.816H117.353C116.649 128.816 116.076 129.388 116.076 130.092C116.076 130.795 116.649 131.367 117.353 131.367H128.53C129.234 131.367 129.807 130.795 129.807 130.092C129.807 129.388 129.234 128.816 128.53 128.816Z" fill="#EBEBEB"/>
<path opacity="0.6" d="M128.53 125.508H117.353C116.649 125.508 116.076 126.08 116.076 126.783C116.076 127.486 116.649 128.058 117.353 128.058H128.53C129.234 128.058 129.807 127.486 129.807 126.783C129.807 126.08 129.234 125.508 128.53 125.508Z" fill="#E63946"/>
<path opacity="0.6" d="M128.53 122.192H117.353C116.649 122.192 116.076 122.764 116.076 123.468C116.076 124.171 116.649 124.743 117.353 124.743H128.53C129.234 124.743 129.807 124.171 129.807 123.468C129.807 122.764 129.234 122.192 128.53 122.192Z" fill="#E63946"/>
<path d="M130.983 131.375H135.65V128.824H130.983V131.375Z" fill="#EBEBEB"/>
<path d="M130.983 128.059H135.65V125.508H130.983V128.059Z" fill="#EBEBEB"/>
<path d="M130.983 124.751H135.65V122.2H130.983V124.751Z" fill="#E63946"/>
<path d="M136.409 131.375H141.076V128.824H136.409V131.375Z" fill="#EBEBEB"/>
<path d="M136.409 128.059H141.076V125.508H136.409V128.059Z" fill="#EBEBEB"/>
<path d="M136.409 124.751H141.076V122.2H136.409V124.751Z" fill="#EBEBEB"/>
<path opacity="0.6" d="M128.53 142.203H117.353C116.649 142.203 116.076 142.775 116.076 143.478C116.076 144.182 116.649 144.754 117.353 144.754H128.53C129.234 144.754 129.807 144.182 129.807 143.478C129.807 142.775 129.234 142.203 128.53 142.203Z" fill="#E63946"/>
<path opacity="0.6" d="M128.53 138.895H117.353C116.649 138.895 116.076 139.467 116.076 140.17C116.076 140.873 116.649 141.445 117.353 141.445H128.53C129.234 141.445 129.807 140.873 129.807 140.17C129.807 139.467 129.234 138.895 128.53 138.895Z" fill="#E63946"/>
<path opacity="0.6" d="M128.53 135.579H117.353C116.649 135.579 116.076 136.151 116.076 136.854C116.076 137.558 116.649 138.13 117.353 138.13H128.53C129.234 138.13 129.807 137.558 129.807 136.854C129.807 136.151 129.234 135.579 128.53 135.579Z" fill="#E63946"/>
<path d="M130.983 144.762H135.65V142.211H130.983V144.762Z" fill="#EBEBEB"/>
<path d="M130.983 141.445H135.65V138.895H130.983V141.445Z" fill="#E63946"/>
<path d="M130.983 138.138H135.65V135.587H130.983V138.138Z" fill="#EBEBEB"/>
<path d="M136.409 144.762H141.076V142.211H136.409V144.762Z" fill="#EBEBEB"/>
<path d="M136.409 141.445H141.076V138.895H136.409V141.445Z" fill="#EBEBEB"/>
<path d="M136.409 138.138H141.076V135.587H136.409V138.138Z" fill="#E63946"/>
<path opacity="0.6" d="M128.53 155.59H117.353C116.649 155.59 116.076 156.162 116.076 156.865C116.076 157.569 116.649 158.141 117.353 158.141H128.53C129.234 158.141 129.807 157.569 129.807 156.865C129.807 156.162 129.234 155.59 128.53 155.59Z" fill="#E63946"/>
<path opacity="0.6" d="M128.53 152.281H117.353C116.648 152.281 116.076 152.852 116.076 153.557C116.076 154.261 116.648 154.832 117.353 154.832H128.53C129.235 154.832 129.807 154.261 129.807 153.557C129.807 152.852 129.235 152.281 128.53 152.281Z" fill="#E63946"/>
<path opacity="0.6" d="M128.53 148.966H117.353C116.649 148.966 116.076 149.538 116.076 150.241C116.076 150.945 116.649 151.516 117.353 151.516H128.53C129.234 151.516 129.807 150.945 129.807 150.241C129.807 149.538 129.234 148.966 128.53 148.966Z" fill="#E63946"/>
<path d="M130.983 158.148H135.65V155.598H130.983V158.148Z" fill="#EBEBEB"/>
<path d="M130.983 154.832H135.65V152.281H130.983V154.832Z" fill="#E63946"/>
<path d="M130.983 151.517H135.65V148.966H130.983V151.517Z" fill="#EBEBEB"/>
<path d="M136.409 158.148H141.076V155.598H136.409V158.148Z" fill="#E63946"/>
<path d="M136.409 154.832H141.076V152.281H136.409V154.832Z" fill="#EBEBEB"/>
<path d="M136.409 151.517H141.076V148.966H136.409V151.517Z" fill="#E63946"/>
<path opacity="0.6" d="M128.53 168.978H117.353C116.649 168.978 116.076 169.55 116.076 170.253C116.076 170.956 116.649 171.528 117.353 171.528H128.53C129.234 171.528 129.807 170.956 129.807 170.253C129.807 169.55 129.234 168.978 128.53 168.978Z" fill="#E63946"/>
<path opacity="0.6" d="M128.53 165.669H117.353C116.649 165.669 116.076 166.241 116.076 166.944C116.076 167.648 116.649 168.22 117.353 168.22H128.53C129.234 168.22 129.807 167.648 129.807 166.944C129.807 166.241 129.234 165.669 128.53 165.669Z" fill="#E63946"/>
<path opacity="0.6" d="M128.53 162.354H117.353C116.649 162.354 116.076 162.925 116.076 163.629C116.076 164.332 116.649 164.904 117.353 164.904H128.53C129.234 164.904 129.807 164.332 129.807 163.629C129.807 162.925 129.234 162.354 128.53 162.354Z" fill="#E63946"/>
<path d="M130.983 171.536H135.65V168.985H130.983V171.536Z" fill="#E63946"/>
<path d="M130.983 168.212H135.65V165.661H130.983V168.212Z" fill="#EBEBEB"/>
<path d="M130.983 164.904H135.65V162.354H130.983V164.904Z" fill="#EBEBEB"/>
<path d="M136.409 171.536H141.076V168.985H136.409V171.536Z" fill="#EBEBEB"/>
<path d="M136.409 168.212H141.076V165.661H136.409V168.212Z" fill="#EBEBEB"/>
<path d="M136.409 164.904H141.076V162.354H136.409V164.904Z" fill="#E63946"/>
<path d="M206.922 173.946H188.78V74.4862H206.922C209.717 74.4862 211.984 76.7508 211.984 79.5411V168.884C211.984 171.674 209.717 173.939 206.922 173.939V173.946Z" fill="#E0E0E0"/>
<path d="M190.575 74.4863H151.503C148.708 74.4863 146.441 76.7495 146.441 79.5413V168.892C146.441 171.683 148.708 173.946 151.503 173.946H190.575C193.371 173.946 195.637 171.683 195.637 168.892V79.5413C195.637 76.7495 193.371 74.4863 190.575 74.4863Z" fill="white"/>
<path d="M195.637 153.317H146.441V154.245H195.637V153.317Z" fill="#E0E0E0"/>
<path d="M195.637 133.607H146.441V134.527H195.637V133.607Z" fill="#E0E0E0"/>
<path d="M195.637 113.905H146.441V114.825H195.637V113.905Z" fill="#E0E0E0"/>
<path d="M195.637 94.1963H146.441V95.1238H195.637V94.1963Z" fill="#E0E0E0"/>
<path opacity="0.6" d="M170.977 87.8037H154.521C153.484 87.8037 152.641 88.6462 152.641 89.6819C152.641 90.7176 153.484 91.5601 154.521 91.5601H170.977C172.014 91.5601 172.858 90.7176 172.858 89.6819C172.858 88.6462 172.014 87.8037 170.977 87.8037Z" fill="#E63946"/>
<path opacity="0.6" d="M170.977 82.9268H154.521C153.484 82.9268 152.641 83.7692 152.641 84.805C152.641 85.8407 153.484 86.6832 154.521 86.6832H170.977C172.014 86.6832 172.858 85.8407 172.858 84.805C172.858 83.7692 172.014 82.9268 170.977 82.9268Z" fill="#E63946"/>
<path opacity="0.6" d="M170.977 78.0498H154.521C153.484 78.0498 152.641 78.8923 152.641 79.928C152.641 80.9637 153.484 81.8062 154.521 81.8062H170.977C172.014 81.8062 172.858 80.9637 172.858 79.928C172.858 78.8923 172.014 78.0498 170.977 78.0498Z" fill="#E63946"/>
<path d="M174.576 91.5527H181.449V87.7963H174.576V91.5527Z" fill="#EBEBEB"/>
<path d="M174.576 86.6836H181.449V82.9272H174.576V86.6836Z" fill="#E63946"/>
<path d="M174.576 81.8066H181.449V78.0502H174.576V81.8066Z" fill="#EBEBEB"/>
<path d="M182.57 91.5527H189.443V87.7963H182.57V91.5527Z" fill="#EBEBEB"/>
<path d="M182.57 86.6836H189.443V82.9272H182.57V86.6836Z" fill="#EBEBEB"/>
<path d="M182.57 81.8066H189.443V78.0502H182.57V81.8066Z" fill="#E63946"/>
<path opacity="0.6" d="M170.977 107.513H154.521C153.484 107.513 152.641 108.355 152.641 109.391C152.641 110.427 153.484 111.269 154.521 111.269H170.977C172.014 111.269 172.858 110.427 172.858 109.391C172.858 108.355 172.014 107.513 170.977 107.513Z" fill="#E63946"/>
<path opacity="0.6" d="M170.977 102.636H154.521C153.484 102.636 152.641 103.478 152.641 104.514C152.641 105.55 153.484 106.392 154.521 106.392H170.977C172.014 106.392 172.858 105.55 172.858 104.514C172.858 103.478 172.014 102.636 170.977 102.636Z" fill="#E63946"/>
<path opacity="0.6" d="M170.977 97.7588H154.521C153.484 97.7588 152.641 98.6013 152.641 99.637C152.641 100.673 153.484 101.515 154.521 101.515H170.977C172.014 101.515 172.858 100.673 172.858 99.637C172.858 98.6013 172.014 97.7588 170.977 97.7588Z" fill="#E63946"/>
<path d="M174.576 111.262H181.449V107.505H174.576V111.262Z" fill="#EBEBEB"/>
<path d="M174.576 106.385H181.449V102.628H174.576V106.385Z" fill="#EBEBEB"/>
<path d="M174.576 101.508H181.449V97.7514H174.576V101.508Z" fill="#E63946"/>
<path d="M182.57 111.262H189.443V107.505H182.57V111.262Z" fill="#E63946"/>
<path d="M182.57 106.385H189.443V102.628H182.57V106.385Z" fill="#EBEBEB"/>
<path d="M182.57 101.508H189.443V97.7514H182.57V101.508Z" fill="#E63946"/>
<path opacity="0.6" d="M170.977 127.215H154.521C153.484 127.215 152.641 128.057 152.641 129.093C152.641 130.129 153.484 130.971 154.521 130.971H170.977C172.014 130.971 172.858 130.129 172.858 129.093C172.858 128.057 172.014 127.215 170.977 127.215Z" fill="#E63946"/>
<path opacity="0.6" d="M170.977 122.338H154.521C153.484 122.338 152.641 123.18 152.641 124.216C152.641 125.252 153.484 126.094 154.521 126.094H170.977C172.014 126.094 172.858 125.252 172.858 124.216C172.858 123.18 172.014 122.338 170.977 122.338Z" fill="#E63946"/>
<path opacity="0.6" d="M170.977 117.461H154.521C153.484 117.461 152.641 118.303 152.641 119.339C152.641 120.375 153.484 121.217 154.521 121.217H170.977C172.014 121.217 172.858 120.375 172.858 119.339C172.858 118.303 172.014 117.461 170.977 117.461Z" fill="#E63946"/>
<path d="M174.576 130.972H181.449V127.215H174.576V130.972Z" fill="#E63946"/>
<path d="M174.576 126.095H181.449V122.338H174.576V126.095Z" fill="#EBEBEB"/>
<path d="M174.576 121.225H181.449V117.468H174.576V121.225Z" fill="#EBEBEB"/>
<path d="M182.57 130.972H189.443V127.215H182.57V130.972Z" fill="#EBEBEB"/>
<path d="M182.57 126.095H189.443V122.338H182.57V126.095Z" fill="#EBEBEB"/>
<path d="M182.57 121.225H189.443V117.468H182.57V121.225Z" fill="#E63946"/>
<path opacity="0.6" d="M170.977 146.925H154.521C153.484 146.925 152.641 147.767 152.641 148.803C152.641 149.839 153.484 150.681 154.521 150.681H170.977C172.014 150.681 172.858 149.839 172.858 148.803C172.858 147.767 172.014 146.925 170.977 146.925Z" fill="#E63946"/>
<path d="M170.977 142.048H154.521C153.484 142.048 152.641 142.89 152.641 143.926C152.641 144.962 153.484 145.804 154.521 145.804H170.977C172.014 145.804 172.858 144.962 172.858 143.926C172.858 142.89 172.014 142.048 170.977 142.048Z" fill="#EBEBEB"/>
<path opacity="0.6" d="M170.977 137.171H154.521C153.484 137.171 152.641 138.013 152.641 139.049C152.641 140.085 153.484 140.927 154.521 140.927H170.977C172.014 140.927 172.858 140.085 172.858 139.049C172.858 138.013 172.014 137.171 170.977 137.171Z" fill="#E63946"/>
<path d="M174.576 150.682H181.449V146.925H174.576V150.682Z" fill="#EBEBEB"/>
<path d="M174.576 145.805H181.449V142.048H174.576V145.805Z" fill="#E63946"/>
<path d="M174.576 140.928H181.449V137.171H174.576V140.928Z" fill="#EBEBEB"/>
<path d="M182.57 150.682H189.443V146.925H182.57V150.682Z" fill="#E63946"/>
<path d="M182.57 145.805H189.443V142.048H182.57V145.805Z" fill="#E63946"/>
<path d="M182.57 140.928H189.443V137.171H182.57V140.928Z" fill="#EBEBEB"/>
<path opacity="0.6" d="M170.977 166.634H154.521C153.484 166.634 152.641 167.476 152.641 168.512C152.641 169.548 153.484 170.39 154.521 170.39H170.977C172.014 170.39 172.858 169.548 172.858 168.512C172.858 167.476 172.014 166.634 170.977 166.634Z" fill="#E63946"/>
<path opacity="0.6" d="M170.977 161.757H154.521C153.484 161.757 152.641 162.599 152.641 163.635C152.641 164.671 153.484 165.513 154.521 165.513H170.977C172.014 165.513 172.858 164.671 172.858 163.635C172.858 162.599 172.014 161.757 170.977 161.757Z" fill="#E63946"/>
<path opacity="0.6" d="M170.977 156.88H154.521C153.484 156.88 152.641 157.722 152.641 158.758C152.641 159.794 153.484 160.636 154.521 160.636H170.977C172.014 160.636 172.858 159.794 172.858 158.758C172.858 157.722 172.014 156.88 170.977 156.88Z" fill="#E63946"/>
<path d="M174.576 170.383H181.449V166.626H174.576V170.383Z" fill="#EBEBEB"/>
<path d="M174.576 165.506H181.449V161.749H174.576V165.506Z" fill="#EBEBEB"/>
<path d="M174.576 160.637H181.449V156.88H174.576V160.637Z" fill="#EBEBEB"/>
<path d="M182.57 170.383H189.443V166.626H182.57V170.383Z" fill="#EBEBEB"/>
<path d="M182.57 165.506H189.443V161.749H182.57V165.506Z" fill="#EBEBEB"/>
<path d="M182.57 160.637H189.443V156.88H182.57V160.637Z" fill="#E63946"/>
<path d="M249.701 173.947H233.92V87.4414H249.701C252.132 87.4414 254.105 89.4123 254.105 91.8393V169.549C254.105 171.976 252.132 173.947 249.701 173.947Z" fill="#E0E0E0"/>
<path d="M235.482 87.4414H201.504C199.071 87.4414 197.1 89.4104 197.1 91.8394V169.549C197.1 171.978 199.071 173.947 201.504 173.947H235.482C237.915 173.947 239.886 171.978 239.886 169.549V91.8394C239.886 89.4104 237.915 87.4414 235.482 87.4414Z" fill="white"/>
<path d="M239.886 156.008H197.1V156.812H239.886V156.008Z" fill="#E0E0E0"/>
<path d="M239.886 138.864H197.1V139.668H239.886V138.864Z" fill="#E0E0E0"/>
<path d="M239.886 121.721H197.1V122.525H239.886V121.721Z" fill="#E0E0E0"/>
<path d="M239.886 104.585H197.1V105.389H239.886V104.585Z" fill="#E0E0E0"/>
<path opacity="0.6" d="M218.439 99.0195H204.127C203.222 99.0195 202.494 99.7538 202.494 100.65C202.494 101.555 203.229 102.281 204.127 102.281H218.439C219.344 102.281 220.072 101.547 220.072 100.65C220.072 99.7461 219.336 99.0195 218.439 99.0195Z" fill="#E63946"/>
<path opacity="0.6" d="M218.439 94.7842H204.127C203.222 94.7842 202.494 95.5185 202.494 96.4151C202.494 97.3194 203.229 98.0459 204.127 98.0459H218.439C219.344 98.0459 220.072 97.3116 220.072 96.4151C220.072 95.5107 219.336 94.7842 218.439 94.7842Z" fill="#E63946"/>
<path opacity="0.6" d="M218.439 90.541H204.127C203.222 90.541 202.494 91.2753 202.494 92.1719C202.494 93.0762 203.229 93.8028 204.127 93.8028H218.439C219.344 93.8028 220.072 93.0685 220.072 92.1719C220.072 91.2676 219.336 90.541 218.439 90.541Z" fill="#E63946"/>
<path d="M221.574 162.369H227.549V159.107H221.574V162.369Z" fill="#EBEBEB"/>
<path d="M221.574 166.612H227.549V163.351H221.574V166.612Z" fill="#E63946"/>
<path d="M221.574 170.848H227.549V167.586H221.574V170.848Z" fill="#EBEBEB"/>
<path d="M228.531 162.369H234.506V159.107H228.531V162.369Z" fill="#EBEBEB"/>
<path d="M228.531 166.612H234.506V163.351H228.531V166.612Z" fill="#EBEBEB"/>
<path d="M228.531 170.848H234.506V167.586H228.531V170.848Z" fill="#E63946"/>
<path d="M218.439 116.163H204.127C203.222 116.163 202.494 116.897 202.494 117.794C202.494 118.698 203.229 119.425 204.127 119.425H218.439C219.344 119.425 220.072 118.691 220.072 117.794C220.072 116.89 219.336 116.163 218.439 116.163Z" fill="#EBEBEB"/>
<path opacity="0.6" d="M218.439 111.92H204.127C203.222 111.92 202.494 112.654 202.494 113.551C202.494 114.455 203.229 115.182 204.127 115.182H218.439C219.344 115.182 220.072 114.447 220.072 113.551C220.072 112.646 219.336 111.92 218.439 111.92Z" fill="#E63946"/>
<path opacity="0.6" d="M218.439 107.685H204.127C203.222 107.685 202.494 108.419 202.494 109.315C202.494 110.22 203.229 110.946 204.127 110.946H218.439C219.344 110.946 220.072 110.212 220.072 109.315C220.072 108.411 219.336 107.685 218.439 107.685Z" fill="#E63946"/>
<path d="M221.574 145.226H227.549V141.964H221.574V145.226Z" fill="#EBEBEB"/>
<path d="M221.574 149.469H227.549V146.207H221.574V149.469Z" fill="#EBEBEB"/>
<path d="M221.574 153.712H227.549V150.45H221.574V153.712Z" fill="#E63946"/>
<path d="M228.531 145.226H234.506V141.964H228.531V145.226Z" fill="#E63946"/>
<path d="M228.531 149.469H234.506V146.207H228.531V149.469Z" fill="#EBEBEB"/>
<path d="M228.531 153.712H234.506V150.45H228.531V153.712Z" fill="#E63946"/>
<path opacity="0.6" d="M218.439 133.307H204.127C203.222 133.307 202.494 134.041 202.494 134.938C202.494 135.842 203.229 136.568 204.127 136.568H218.439C219.344 136.568 220.072 135.834 220.072 134.938C220.072 134.033 219.336 133.307 218.439 133.307Z" fill="#E63946"/>
<path opacity="0.6" d="M218.439 129.063H204.127C203.222 129.063 202.494 129.798 202.494 130.694C202.494 131.599 203.229 132.325 204.127 132.325H218.439C219.344 132.325 220.072 131.591 220.072 130.694C220.072 129.79 219.336 129.063 218.439 129.063Z" fill="#E63946"/>
<path opacity="0.6" d="M218.439 124.82H204.127C203.222 124.82 202.494 125.555 202.494 126.451C202.494 127.356 203.229 128.082 204.127 128.082H218.439C219.344 128.082 220.072 127.348 220.072 126.451C220.072 125.547 219.336 124.82 218.439 124.82Z" fill="#E63946"/>
<path d="M221.574 128.09H227.549V124.828H221.574V128.09Z" fill="#E63946"/>
<path d="M221.574 132.325H227.549V129.063H221.574V132.325Z" fill="#EBEBEB"/>
<path d="M221.574 136.568H227.549V133.307H221.574V136.568Z" fill="#EBEBEB"/>
<path d="M228.531 128.09H234.506V124.828H228.531V128.09Z" fill="#EBEBEB"/>
<path d="M228.531 132.325H234.506V129.063H228.531V132.325Z" fill="#EBEBEB"/>
<path d="M228.531 136.568H234.506V133.307H228.531V136.568Z" fill="#E63946"/>
<path opacity="0.6" d="M218.439 150.442H204.127C203.222 150.442 202.494 151.177 202.494 152.073C202.494 152.978 203.229 153.704 204.127 153.704H218.439C219.344 153.704 220.072 152.97 220.072 152.073C220.072 151.169 219.336 150.442 218.439 150.442Z" fill="#E63946"/>
<path opacity="0.6" d="M218.439 146.207H204.127C203.222 146.207 202.494 146.941 202.494 147.838C202.494 148.742 203.229 149.469 204.127 149.469H218.439C219.344 149.469 220.072 148.735 220.072 147.838C220.072 146.934 219.336 146.207 218.439 146.207Z" fill="#E63946"/>
<path opacity="0.6" d="M218.439 141.964H204.127C203.222 141.964 202.494 142.698 202.494 143.595C202.494 144.499 203.229 145.226 204.127 145.226H218.439C219.344 145.226 220.072 144.491 220.072 143.595C220.072 142.69 219.336 141.964 218.439 141.964Z" fill="#E63946"/>
<path d="M221.574 110.946H227.549V107.685H221.574V110.946Z" fill="#EBEBEB"/>
<path d="M221.574 115.189H227.549V111.928H221.574V115.189Z" fill="#E63946"/>
<path d="M221.574 119.433H227.549V116.171H221.574V119.433Z" fill="#EBEBEB"/>
<path d="M228.531 110.946H234.506V107.685H228.531V110.946Z" fill="#E63946"/>
<path d="M228.531 115.189H234.506V111.928H228.531V115.189Z" fill="#EBEBEB"/>
<path d="M228.531 119.433H234.506V116.171H228.531V119.433Z" fill="#EBEBEB"/>
<path opacity="0.6" d="M218.439 167.586H204.127C203.222 167.586 202.494 168.32 202.494 169.217C202.494 170.121 203.229 170.848 204.127 170.848H218.439C219.344 170.848 220.072 170.113 220.072 169.217C220.072 168.312 219.336 167.586 218.439 167.586Z" fill="#E63946"/>
<path opacity="0.6" d="M218.439 163.343H204.127C203.222 163.343 202.494 164.077 202.494 164.974C202.494 165.878 203.229 166.605 204.127 166.605H218.439C219.344 166.605 220.072 165.87 220.072 164.974C220.072 164.069 219.336 163.343 218.439 163.343Z" fill="#E63946"/>
<path opacity="0.6" d="M218.438 159.107H204.119C203.218 159.107 202.486 159.838 202.486 160.738C202.486 161.639 203.218 162.369 204.119 162.369H218.438C219.34 162.369 220.072 161.639 220.072 160.738C220.072 159.838 219.34 159.107 218.438 159.107Z" fill="#E63946"/>
<path d="M221.574 93.8027H227.549V90.541H221.574V93.8027Z" fill="#E63946"/>
<path d="M221.574 98.0459H227.549V94.7841H221.574V98.0459Z" fill="#EBEBEB"/>
<path d="M221.574 102.289H227.549V99.0273H221.574V102.289Z" fill="#EBEBEB"/>
<path d="M228.531 93.8027H234.506V90.541H228.531V93.8027Z" fill="#EBEBEB"/>
<path d="M228.531 98.0459H234.506V94.7841H228.531V98.0459Z" fill="#EBEBEB"/>
<path d="M228.531 102.289H234.506V99.0273H228.531V102.289Z" fill="#E63946"/>
</g>
<defs>
<clipPath id="clip0_1250_2163">
<rect width="387" height="288" fill="white"/>
</clipPath>
</defs>
</svg>
