<svg width="417" height="327" viewBox="0 0 417 327" fill="none" xmlns="http://www.w3.org/2000/svg">
<g clip-path="url(#clip0_1041_5203)">
<path d="M319.815 201.24C330.663 201.626 341.415 203.877 351.545 207.78C361.675 211.682 371.162 217.225 379.524 224.141C384.208 228.011 388.507 232.332 392.377 237.017C392.752 237.478 393.449 236.867 393.074 236.416C386.117 227.989 377.712 220.774 368.386 215.07C359.06 209.377 348.812 205.164 338.156 202.73C332.153 201.358 326.043 200.543 319.89 200.328C319.3 200.307 319.225 201.229 319.815 201.251V201.24Z" fill="#FEBB09"/>
<path d="M341.33 204.509C347.848 198.227 356.799 191.161 365.964 187.184C371.153 184.932 376.888 183.077 382.837 183.131C385.646 183.163 388.669 183.731 390.384 185.382C392.935 187.838 391.509 191.612 388.765 194.013C385.785 196.618 381.604 198.237 377.434 199.61C366.339 203.266 353.315 203.48 341.33 204.499" fill="#FEBB09"/>
<path d="M368.836 215.949C374.796 212.132 382.729 208.101 390.361 206.46C394.681 205.528 399.355 204.992 403.9 205.946C406.055 206.396 408.274 207.297 409.335 208.83C410.911 211.103 409.239 213.772 406.773 215.188C404.093 216.721 400.642 217.321 397.233 217.739C388.174 218.844 378.173 217 368.836 215.949Z" fill="#FEBB09"/>
<path d="M372.599 218.082C381.292 220.612 391.873 224.858 399.88 230.84C404.415 234.228 408.874 238.27 411.779 243.47C413.152 245.925 414.159 248.831 413.58 251.136C412.723 254.577 408.735 255.21 405.283 254.02C401.542 252.733 398.058 249.903 394.789 246.965C386.095 239.16 379.438 227.956 372.588 218.071" fill="#FEBB09"/>
<path d="M350.613 206.696C355.823 212.175 361.794 219.766 365.428 227.699C367.486 232.192 369.266 237.188 369.609 242.463C369.77 244.961 369.534 247.662 368.387 249.271C366.682 251.661 363.713 250.579 361.698 248.252C359.521 245.743 358.01 242.109 356.691 238.474C353.186 228.814 352.178 217.267 350.624 206.686" fill="#FEBB09"/>
<path d="M334.609 202.279C337.954 205.796 341.781 210.663 344.107 215.756C345.426 218.64 346.573 221.846 346.787 225.234C346.894 226.831 346.733 228.568 346.004 229.597C344.911 231.13 343.003 230.433 341.717 228.943C340.323 227.335 339.347 224.998 338.501 222.671C336.249 216.474 335.606 209.066 334.609 202.279Z" fill="#FEBB09"/>
<g opacity="0.09">
<path d="M205.724 249.485C202.486 255.532 198.231 261.011 193.192 265.664C188.165 270.328 182.387 274.166 176.137 276.996C172.642 278.572 168.998 279.816 165.256 280.706C164.892 280.792 165.042 281.36 165.407 281.263C172.128 279.655 178.549 276.9 184.37 273.19C190.191 269.481 195.422 264.838 199.774 259.467C202.218 256.444 204.384 253.195 206.217 249.775C206.388 249.443 205.895 249.142 205.713 249.475L205.724 249.485Z" fill="#DBDBDB"/>
<path d="M197.887 260.774C199.634 266.221 201.157 273.265 200.867 279.569C200.706 283.139 200.16 286.913 198.477 290.269C197.673 291.855 196.515 293.41 195.1 293.925C192.999 294.697 191.252 292.831 190.651 290.601C189.997 288.189 190.244 285.358 190.63 282.614C191.637 275.302 195.143 267.85 197.887 260.774Z" fill="#DBDBDB"/>
<path d="M183.759 273.201C184.262 277.64 184.348 283.268 183.158 288.05C182.483 290.763 181.497 293.561 179.685 295.877C178.827 296.97 177.702 297.978 176.544 298.16C174.818 298.428 173.768 296.734 173.65 294.933C173.521 292.982 174.143 290.859 174.85 288.811C176.737 283.365 180.564 278.197 183.759 273.201Z" fill="#DBDBDB"/>
<path d="M181.496 274.744C177.648 278.968 172.288 283.793 166.671 286.677C163.487 288.307 159.95 289.711 156.198 289.915C154.418 290.011 152.499 289.775 151.342 288.8C149.626 287.352 150.377 284.919 152.006 283.289C153.775 281.531 156.348 280.33 158.92 279.29C165.76 276.524 173.971 275.859 181.475 274.723" fill="#DBDBDB"/>
<path d="M194.069 265.439C189.513 266.876 183.553 268.152 178.033 268.002C174.913 267.916 171.579 267.541 168.492 266.265C167.034 265.664 165.565 264.774 164.976 263.681C164.097 262.051 165.533 260.668 167.409 260.164C169.435 259.628 171.922 259.778 174.345 260.046C180.798 260.743 187.627 263.381 194.059 265.439" fill="#DBDBDB"/>
<path d="M201.027 257.591C198.1 258.513 194.273 259.328 190.746 259.242C188.742 259.189 186.608 258.953 184.625 258.127C183.693 257.741 182.749 257.173 182.363 256.465C181.795 255.415 182.717 254.525 183.928 254.214C185.236 253.871 186.823 253.967 188.377 254.139C192.515 254.579 196.899 256.272 201.027 257.602" fill="#DBDBDB"/>
</g>
<g opacity="0.09">
<path d="M249.032 50.2188C251.937 44.0004 255.903 38.3181 260.673 33.3863C265.444 28.4652 271.018 24.3161 277.107 21.164C280.516 19.4057 284.085 17.9584 287.773 16.8755C288.127 16.7683 287.955 16.2215 287.591 16.318C280.966 18.28 274.695 21.3785 269.078 25.3882C263.46 29.398 258.486 34.3191 254.434 39.9049C252.151 43.057 250.168 46.4127 248.517 49.9293C248.356 50.2724 248.871 50.5404 249.032 50.1973V50.2188Z" fill="#DBDBDB"/>
<path d="M256.255 38.5211C254.219 33.1711 252.321 26.2237 252.278 19.9089C252.257 16.3387 252.589 12.5433 254.101 9.10178C254.819 7.47214 255.891 5.86394 257.274 5.26355C259.332 4.3844 261.176 6.15342 261.894 8.34056C262.666 10.71 262.58 13.5511 262.344 16.3172C261.733 23.672 258.624 31.2949 256.255 38.5211Z" fill="#DBDBDB"/>
<path d="M269.711 25.3559C268.971 20.9494 268.585 15.3422 269.518 10.4962C270.043 7.7515 270.89 4.89963 272.573 2.49805C273.366 1.3616 274.438 0.289465 275.596 0.0535958C277.311 -0.300208 278.447 1.32943 278.662 3.11989C278.897 5.06045 278.383 7.21543 277.783 9.29537C276.185 14.8276 272.637 20.1989 269.721 25.3666" fill="#DBDBDB"/>
<path d="M271.875 23.6945C275.498 19.2666 280.579 14.1633 286.036 10.9898C289.123 9.1886 292.586 7.60184 296.316 7.19443C298.085 7.00145 300.014 7.13011 301.226 8.04142C303.016 9.3923 302.394 11.8689 300.851 13.5736C299.178 15.4284 296.67 16.7578 294.161 17.9265C287.472 21.0464 279.315 22.1507 271.875 23.6838" fill="#DBDBDB"/>
<path d="M259.826 33.6651C264.296 31.9925 270.181 30.3951 275.702 30.245C278.822 30.1592 282.166 30.3629 285.318 31.4672C286.808 31.9925 288.319 32.7966 288.973 33.8688C289.938 35.4555 288.577 36.9136 286.733 37.5033C284.739 38.1466 282.252 38.1251 279.808 37.9965C273.322 37.6534 266.365 35.3805 259.826 33.6651Z" fill="#DBDBDB"/>
<path d="M253.287 41.8767C256.16 40.8045 259.933 39.7753 263.471 39.6895C265.476 39.6359 267.619 39.7646 269.635 40.4722C270.589 40.8045 271.564 41.3299 271.982 42.0053C272.604 43.0238 271.725 43.9566 270.546 44.3426C269.26 44.7607 267.673 44.7392 266.108 44.6535C261.949 44.4283 257.489 42.9702 253.298 41.8767" fill="#DBDBDB"/>
</g>
<path d="M93.7669 79.6707C84.2477 82.0187 74.3534 82.7156 64.5984 81.8257C54.8433 80.9359 45.2277 78.47 36.2552 74.5245C31.2384 72.3159 26.4252 69.6356 21.9121 66.5157C21.4726 66.2155 21.0117 66.9017 21.4619 67.2126C29.5875 72.8198 38.6672 77.0119 48.1649 79.66C57.6734 82.3082 67.6106 83.4339 77.4621 82.9193C83.015 82.6298 88.5249 81.8257 93.9277 80.4963C94.4423 80.3676 94.2922 79.5528 93.7669 79.6815V79.6707Z" fill="#FEBB09"/>
<path d="M74.2787 82.1357C70.1623 89.201 64.1378 97.5529 57.1592 103.267C53.2036 106.505 48.6799 109.529 43.5022 110.944C41.0474 111.609 38.2924 111.866 36.3843 110.847C33.5542 109.346 33.8651 105.712 35.666 102.946C37.6063 99.9545 40.8437 97.5101 44.1239 95.28C52.8499 89.3619 64.1164 85.9632 74.2787 82.1143" fill="#FEBB09"/>
<path d="M47.5641 78.9951C43.3298 83.7768 37.4339 89.2447 31.2164 92.5576C27.6896 94.4338 23.7662 96.0527 19.5854 96.3422C17.6023 96.4816 15.4583 96.2457 14.1505 95.1843C12.2209 93.5975 13.0142 90.8636 14.8044 89.0195C16.7554 87.0254 19.6069 85.653 22.4583 84.4523C30.048 81.2573 39.2027 80.3889 47.5641 78.9951Z" fill="#FEBB09"/>
<path d="M43.7583 78.0729C35.5791 78.0193 25.3417 76.9471 16.9052 73.7308C12.1349 71.9081 7.25741 69.4958 3.45188 65.7005C1.66168 63.8993 0.0751496 61.6371 0.000111078 59.4821C-0.0963671 56.2872 3.20533 54.7433 6.49631 54.9256C10.066 55.1186 13.7858 56.716 17.3555 58.4529C26.8318 63.0845 35.3754 71.1684 43.769 78.0729" fill="#FEBB09"/>
<path d="M65.6695 82.5331C59.7843 79.0594 52.7307 73.9453 47.6174 67.9414C44.723 64.5427 41.9359 60.6509 40.3386 56.1479C39.5882 54.0144 39.1166 51.6128 39.7276 49.9296C40.6281 47.4315 43.4688 47.6352 45.7843 49.1576C48.2927 50.798 50.501 53.5855 52.5485 56.416C57.9834 63.9423 61.7032 73.7202 65.6695 82.5224" fill="#FEBB09"/>
<path d="M80.6669 82.4257C76.8935 80.1956 72.3697 76.9149 69.0895 73.066C67.235 70.8895 65.4448 68.3915 64.4264 65.4967C63.944 64.1351 63.6438 62.5912 64.0297 61.5084C64.6086 59.9109 66.431 60.0396 67.921 61.0152C69.529 62.0659 70.944 63.8563 72.2626 65.6683C75.7465 70.4928 78.137 76.7648 80.6776 82.4149" fill="#FEBB09"/>
<path opacity="0.09" d="M144.288 23.9092L59.4297 155.095L229.145 153.701L144.288 23.9092Z" fill="#DBDBDB"/>
<path opacity="0.45" d="M151.46 261.943C182.743 261.943 208.103 236.58 208.103 205.292C208.103 174.004 182.743 148.641 151.46 148.641C120.177 148.641 94.8164 174.004 94.8164 205.292C94.8164 236.58 120.177 261.943 151.46 261.943Z" fill="#FF756E"/>
<path opacity="0.45" d="M361.643 78.2012H204.662V224.376H361.643V78.2012Z" fill="#FF756E"/>
<path d="M398.487 47.0137H266.998V169.451H398.487V47.0137Z" stroke="#02A2CB" stroke-miterlimit="10"/>
<path d="M87.1738 225.94H62.8613V250.256H87.1738V225.94Z" fill="#1B1A1B"/>
<path d="M111.486 225.94H87.1738V250.256H111.486V225.94Z" fill="#FEBB09"/>
<path d="M135.787 225.94H111.475V250.256H135.787V225.94Z" fill="#FF0B00"/>
<path d="M160.1 225.94H135.787V250.256H160.1V225.94Z" fill="#02A2CB"/>
<path d="M319.203 232.556C319.203 244.199 309.77 253.634 298.128 253.634C286.486 253.634 277.053 244.199 277.053 232.556C277.053 220.912 286.486 211.478 298.128 211.478C309.77 211.478 319.203 220.912 319.203 232.556Z" stroke="#FEBB09" stroke-miterlimit="10"/>
<path d="M297.903 205.291V246.879C297.903 248.959 297.903 251.039 297.903 253.119V257.59C297.903 258.297 297.892 259.016 297.903 259.723C297.903 259.755 297.903 259.787 297.903 259.82C297.903 260.87 299.543 260.881 299.543 259.82V218.232C299.543 216.152 299.543 214.072 299.543 211.992V207.521C299.543 206.813 299.554 206.095 299.543 205.388C299.543 205.355 299.543 205.323 299.543 205.291C299.543 204.24 297.903 204.23 297.903 205.291Z" fill="#010305"/>
<path d="M325.99 231.74H291.793C289.328 231.74 286.862 231.74 284.407 231.74H273.688C272.98 231.74 272.262 231.729 271.554 231.74C271.522 231.74 271.49 231.74 271.458 231.74C270.407 231.74 270.397 233.38 271.458 233.38H297.732C300.369 233.38 303.017 233.38 305.654 233.38H313.04C315.12 233.38 317.199 233.38 319.279 233.38H323.749C324.457 233.38 325.175 233.391 325.882 233.38C325.915 233.38 325.947 233.38 325.979 233.38C327.029 233.38 327.04 231.74 325.979 231.74H325.99Z" fill="#010305"/>
<path d="M46.1813 190.646C38.3558 190.646 31.9883 184.277 31.9883 176.451C31.9883 168.624 38.3558 162.256 46.1813 162.256C54.0067 162.256 60.3743 168.624 60.3743 176.451C60.3743 184.277 54.0067 190.646 46.1813 190.646ZM46.1813 162.963C38.7418 162.963 32.6958 169.01 32.6958 176.451C32.6958 183.891 38.7418 189.938 46.1813 189.938C53.6208 189.938 59.6668 183.891 59.6668 176.451C59.6668 169.01 53.6208 162.963 46.1813 162.963Z" fill="#FF0B00"/>
<path d="M46.041 158.546V192.897C46.041 193.358 46.041 193.83 46.041 194.291C46.041 194.312 46.041 194.334 46.041 194.355C46.041 195.052 47.1237 195.052 47.1237 194.355V160.004C47.1237 159.543 47.1237 159.071 47.1237 158.61C47.1237 158.589 47.1237 158.568 47.1237 158.546C47.1237 157.849 46.041 157.849 46.041 158.546Z" fill="#010305"/>
<path d="M64.479 175.915H30.1328C29.6719 175.915 29.2002 175.915 28.7393 175.915C28.7178 175.915 28.6964 175.915 28.6749 175.915C27.9781 175.915 27.9781 176.998 28.6749 176.998H63.0212C63.4821 176.998 63.9538 176.998 64.4147 176.998C64.4362 176.998 64.4576 176.998 64.479 176.998C65.1758 176.998 65.1758 175.915 64.479 175.915Z" fill="#010305"/>
<path d="M320.467 33.3973H354.127C356.4 33.3973 358.34 35.0269 358.737 37.257L361.213 51.0553C362.606 58.7854 369.328 64.4033 377.175 64.4033L375.717 31.9928C375.449 25.9996 370.518 21.2822 364.515 21.2822H254.304C247.98 21.2822 242.77 26.2676 242.48 32.5932L241.055 64.4033C248.902 64.4033 255.634 58.7747 257.016 51.0553L259.621 36.5708C259.954 34.7375 261.551 33.3973 263.416 33.3973H297.762C298.191 54.3789 298.213 75.457 298.213 96.385V108.5C298.213 129.675 298.191 150.667 297.762 171.23L282.412 172.871C276.934 173.461 272.775 178.081 272.775 183.592H345.433C345.433 178.081 341.274 173.461 335.796 172.871L320.445 171.23C320.027 150.335 319.995 129.342 319.995 108.5V96.385C319.995 75.1139 320.017 54.0466 320.445 33.3973H320.467Z" fill="#FF0B00"/>
<path d="M143.088 213.59H87.5808C87.1306 213.59 86.7768 213.183 86.8519 212.743L90.0678 191.869C90.1214 191.504 90.4323 191.247 90.7968 191.247H137.921C138.275 191.247 138.575 191.494 138.65 191.837L143.099 213.601L143.088 213.59Z" stroke="#DBDBDB" stroke-width="2" stroke-miterlimit="10"/>
<path d="M164.26 117.774L119.944 44.4725C119.247 43.3253 117.489 43.8185 117.489 45.1587V110.526C120.233 111.309 122.238 113.829 122.238 116.82C122.238 120.444 119.301 123.371 115.688 123.371C112.076 123.371 109.138 120.433 109.138 116.82C109.138 113.775 111.229 111.213 114.048 110.484V44.955C114.048 43.6362 112.322 43.1323 111.615 44.2366L63.858 118.353C63.6222 118.718 63.5793 119.168 63.7508 119.575L89.8642 183.249C90.0679 183.742 90.5503 184.075 91.0863 184.075H137.61C138.157 184.075 138.639 183.742 138.843 183.238L164.378 118.953C164.528 118.567 164.495 118.139 164.281 117.774H164.26Z" stroke="#DBDBDB" stroke-width="2" stroke-miterlimit="10"/>
<path d="M44.3359 40.1307C44.3359 40.1307 108.001 -23.5325 187.574 40.1307" stroke="#DBDBDB" stroke-width="2" stroke-miterlimit="10"/>
<path d="M46.5764 41.7595C46.5764 44.0538 44.7111 45.9193 42.4171 45.9193C40.1231 45.9193 38.2578 44.0538 38.2578 41.7595C38.2578 39.4651 40.1231 37.5996 42.4171 37.5996C44.7111 37.5996 46.5764 39.4651 46.5764 41.7595Z" fill="#DBDBDB"/>
<path d="M187.573 45.9193C189.87 45.9193 191.733 44.0569 191.733 41.7595C191.733 39.462 189.87 37.5996 187.573 37.5996C185.276 37.5996 183.414 39.462 183.414 41.7595C183.414 44.0569 185.276 45.9193 187.573 45.9193Z" fill="#DBDBDB"/>
<path d="M119.471 8.32031H112.428V15.3642H119.471V8.32031Z" fill="#DBDBDB"/>
<path d="M66.4621 281.272C91.9216 301.643 114.669 300.592 129.269 296.111C145.124 291.243 155.083 281.423 155.179 281.326L156.122 282.28C156.026 282.377 145.864 292.412 129.709 297.387C114.787 301.975 91.5571 303.09 65.6152 282.334L66.4514 281.283L66.4621 281.272Z" fill="#02A2CB"/>
<path d="M154.248 280.78C154.248 279.343 155.417 278.175 156.853 278.175C158.289 278.175 159.458 279.343 159.458 280.78C159.458 282.217 158.289 283.385 156.853 283.385C155.417 283.385 154.248 282.217 154.248 280.78Z" fill="#02A2CB"/>
<path d="M63.4395 280.78C63.4395 279.343 64.6079 278.175 66.0444 278.175C67.4808 278.175 68.6493 279.343 68.6493 280.78C68.6493 282.217 67.4808 283.385 66.0444 283.385C64.6079 283.385 63.4395 282.217 63.4395 280.78Z" fill="#02A2CB"/>
<path d="M108.645 301.708H113.051V297.302H108.645V301.708Z" fill="#02A2CB"/>
<path d="M411.726 112.659C394.628 98.9788 379.352 99.6864 369.554 102.699C358.909 105.969 352.22 112.563 352.156 112.627L351.523 111.994C351.588 111.93 358.416 105.186 369.265 101.852C379.288 98.7644 394.885 98.0246 412.305 111.962L411.737 112.67L411.726 112.659Z" fill="#02A2CB"/>
<path d="M351.031 114.74C351.996 114.74 352.778 113.958 352.778 112.993C352.778 112.028 351.996 111.245 351.031 111.245C350.066 111.245 349.283 112.028 349.283 112.993C349.283 113.958 350.066 114.74 351.031 114.74Z" fill="#02A2CB"/>
<path d="M412.017 114.74C412.982 114.74 413.764 113.958 413.764 112.993C413.764 112.028 412.982 111.245 412.017 111.245C411.052 111.245 410.27 112.028 410.27 112.993C410.27 113.958 411.052 114.74 412.017 114.74Z" fill="#02A2CB"/>
<path d="M383.404 98.9365H380.445V101.896H383.404V98.9365Z" fill="#02A2CB"/>
<path d="M202.841 113.196L188.241 116.187C188.123 116.209 188.005 116.123 188.005 116.005L187.727 110.344C187.727 110.248 187.791 110.162 187.887 110.14L200.279 107.61C200.376 107.589 200.462 107.642 200.505 107.728L202.841 113.207V113.196Z" fill="#DBDBDB"/>
<path d="M203.249 86.8536L187.652 69.9568C187.405 69.6888 186.966 69.9139 187.041 70.2677L190.557 87.4647C191.318 87.5183 191.982 88.0758 192.143 88.8692C192.336 89.8234 191.725 90.7455 190.771 90.9492C189.817 91.1421 188.895 90.531 188.691 89.5768C188.531 88.7727 188.938 87.9901 189.646 87.647L186.119 70.4178C186.044 70.0748 185.572 70.0319 185.443 70.3642L176.868 92.4287C176.825 92.5359 176.835 92.6538 176.9 92.7503L187.191 108.093C187.266 108.21 187.416 108.275 187.555 108.243L199.786 105.745C199.926 105.712 200.044 105.605 200.065 105.455L203.324 87.1753C203.345 87.068 203.313 86.9501 203.238 86.8751L203.249 86.8536Z" fill="#DBDBDB"/>
<path d="M202.791 112.974L188.004 115.999L203.061 189.62L217.848 186.595L202.791 112.974Z" fill="#F60034"/>
<path d="M224.916 92.0452L209.828 92.4482L211.834 167.567L226.922 167.164L224.916 92.0452Z" fill="#FEB604"/>
<path d="M224.924 92.2892L210.035 92.6859C209.917 92.6859 209.82 92.5787 209.831 92.4607L210.549 86.832C210.56 86.7355 210.646 86.6605 210.742 86.6605L223.391 86.3281C223.488 86.3281 223.574 86.3925 223.595 86.4782L224.946 92.2892H224.924Z" stroke="#DBDBDB" stroke-miterlimit="10"/>
<path d="M229.919 66.4292L217.505 47.0773C217.312 46.7771 216.841 46.9164 216.851 47.281L217.323 64.821C218.063 65.014 218.62 65.6787 218.642 66.4721C218.663 67.4478 217.902 68.2519 216.927 68.2733C215.951 68.2947 215.147 67.5335 215.126 66.5579C215.104 65.7431 215.64 65.0355 216.401 64.821L215.93 47.2381C215.93 46.8843 215.458 46.7556 215.276 47.0665L202.991 67.2977C202.926 67.3941 202.926 67.5228 202.969 67.63L210.43 84.5268C210.484 84.6555 210.623 84.7412 210.763 84.7412L223.251 84.4089C223.401 84.4089 223.53 84.3124 223.573 84.173L229.962 66.7401C230.005 66.6329 229.983 66.515 229.93 66.4292H229.919Z" stroke="#DBDBDB" stroke-miterlimit="10"/>
<path d="M250.599 112.231L235.902 108.596L237.414 102.442L251.982 106.227L250.599 112.231Z" fill="#DBDBDB"/>
<path d="M250.648 111.996L235.998 108.364L217.923 181.303L232.573 184.935L250.648 111.996Z" fill="#F60034"/>
<path d="M251.874 103.911L254.511 92.4176L250.384 78.2012L241.144 89.1262L238.324 100.544L251.874 103.911Z" stroke="#DBDBDB" stroke-miterlimit="10"/>
<path d="M245.035 84.4629L252.7 86.1676" stroke="#DBDBDB" stroke-miterlimit="10"/>
<path d="M186.012 161.013H248.584C250.556 161.013 252.164 162.621 252.164 164.594V234.025C252.164 249.035 239.976 261.225 224.968 261.225H208.695C194.223 261.225 182.475 249.474 182.475 235V164.551C182.475 162.599 184.061 161.023 186.001 161.023L186.012 161.013Z" fill="#DBDBDB"/>
<path opacity="0.2" d="M252.174 171.798H182.484V181.104H252.174V171.798Z" fill="#FDF6E6"/>
<path opacity="0.2" d="M252.174 187.301H182.484V196.607H252.174V187.301Z" fill="#FDF6E6"/>
<path d="M382.096 151.288V300.036" stroke="#DBDBDB" stroke-width="2" stroke-miterlimit="10"/>
<path d="M400.835 283.557H195.283" stroke="#DBDBDB" stroke-width="2" stroke-miterlimit="10"/>
<path d="M346.827 273.78L345.605 270.199C344.801 267.84 342.947 265.986 340.588 265.182L337.008 263.959L340.663 262.63C342.914 261.804 344.683 260.035 345.509 257.784L346.838 254.128L347.77 257.055C348.671 259.896 350.901 262.115 353.731 263.016L356.657 263.949L353.645 265.139C351.072 266.157 349.261 266.972 348.017 270.767L346.827 273.78Z" fill="#DBDBDB"/>
<path d="M408.907 189.575L408.103 187.227C407.578 185.683 406.356 184.46 404.812 183.935L402.465 183.131L404.855 182.263C406.335 181.727 407.492 180.558 408.028 179.089L408.897 176.698L409.508 178.617C410.097 180.472 411.555 181.93 413.41 182.52L415.329 183.131L413.356 183.914C411.673 184.578 410.483 185.114 409.669 187.602L408.886 189.575H408.907Z" fill="#FCB610"/>
<path d="M319.408 277.274C316.653 277.274 314.412 275.034 314.412 272.278C314.412 269.523 316.653 267.282 319.408 267.282C322.163 267.282 324.403 269.523 324.403 272.278C324.403 275.034 322.163 277.274 319.408 277.274ZM319.408 268.772C317.478 268.772 315.913 270.338 315.913 272.268C315.913 274.197 317.478 275.763 319.408 275.763C321.337 275.763 322.902 274.197 322.902 272.268C322.902 270.338 321.337 268.772 319.408 268.772Z" fill="#FCB610"/>
<path d="M415.306 159.512C414.084 159.512 413.098 158.526 413.098 157.303C413.098 156.081 414.084 155.095 415.306 155.095C416.528 155.095 417.514 156.081 417.514 157.303C417.514 158.526 416.528 159.512 415.306 159.512ZM415.306 155.759C414.459 155.759 413.762 156.456 413.762 157.303C413.762 158.15 414.459 158.847 415.306 158.847C416.153 158.847 416.85 158.15 416.85 157.303C416.85 156.456 416.153 155.759 415.306 155.759Z" fill="#FCB610"/>
<path d="M260.931 264.978C259.709 264.978 258.723 263.991 258.723 262.769C258.723 261.547 259.709 260.561 260.931 260.561C262.153 260.561 263.139 261.547 263.139 262.769C263.139 263.991 262.153 264.978 260.931 264.978ZM260.931 261.225C260.084 261.225 259.387 261.922 259.387 262.769C259.387 263.616 260.084 264.313 260.931 264.313C261.778 264.313 262.475 263.616 262.475 262.769C262.475 261.922 261.778 261.225 260.931 261.225Z" fill="#FCB610"/>
<path d="M203.345 25.1844L202.123 21.6035C201.319 19.2448 199.464 17.39 197.106 16.5859L193.525 15.3637L197.181 14.0342C199.432 13.2087 201.211 11.4397 202.026 9.18819L203.355 5.53223L204.288 8.45914C205.189 11.3003 207.418 13.5196 210.248 14.4202L213.175 15.3529L210.163 16.543C207.59 17.5615 205.778 18.3764 204.535 22.1717L203.345 25.1844Z" fill="#FCB610"/>
<path d="M22.8662 130.875L21.6442 127.294C20.8402 124.935 18.9856 123.08 16.6273 122.276L13.0469 121.054L16.7023 119.725C18.9535 118.899 20.733 117.13 21.5477 114.879L22.8769 111.223L23.8095 114.15C24.71 116.991 26.9397 119.21 29.7698 120.111L32.6963 121.043L29.684 122.233C27.1112 123.252 25.2996 124.067 24.0561 127.862L22.8662 130.875Z" fill="#FF0B00"/>
<path d="M89.2532 276.535L88.3956 274.026C87.8275 272.375 86.5304 271.078 84.8795 270.509L82.3711 269.652L84.9331 268.719C86.5089 268.14 87.7524 266.896 88.3313 265.32L89.2639 262.758L89.9178 264.816C90.5503 266.8 92.1047 268.365 94.0986 268.998L96.1567 269.652L94.045 270.488C92.244 271.195 90.9684 271.774 90.1001 274.433L89.2639 276.545L89.2532 276.535Z" fill="#DBDBDB"/>
<path d="M225.995 37.5997C223.24 37.5997 221 35.3589 221 32.6036C221 29.8482 223.24 27.6074 225.995 27.6074C228.75 27.6074 230.991 29.8482 230.991 32.6036C230.991 35.3589 228.75 37.5997 225.995 37.5997ZM225.995 29.1084C224.066 29.1084 222.501 30.6737 222.501 32.6036C222.501 34.5334 224.066 36.0987 225.995 36.0987C227.925 36.0987 229.49 34.5334 229.49 32.6036C229.49 30.6737 227.925 29.1084 225.995 29.1084Z" fill="#FCB610"/>
<path d="M42.4193 230.937C39.6643 230.937 37.4238 228.696 37.4238 225.94C37.4238 223.185 39.6643 220.944 42.4193 220.944C45.1742 220.944 47.4147 223.185 47.4147 225.94C47.4147 228.696 45.1742 230.937 42.4193 230.937ZM42.4193 222.445C40.4897 222.445 38.9246 224.011 38.9246 225.94C38.9246 227.87 40.4897 229.436 42.4193 229.436C44.3488 229.436 45.9139 227.87 45.9139 225.94C45.9139 224.011 44.3488 222.445 42.4193 222.445Z" fill="#FCB610"/>
<path d="M108.646 267.486C107.424 267.486 106.438 266.499 106.438 265.277C106.438 264.055 107.424 263.068 108.646 263.068C109.868 263.068 110.854 264.055 110.854 265.277C110.854 266.499 109.868 267.486 108.646 267.486ZM108.646 263.733C107.799 263.733 107.102 264.43 107.102 265.277C107.102 266.124 107.799 266.821 108.646 266.821C109.493 266.821 110.189 266.124 110.189 265.277C110.189 264.43 109.493 263.733 108.646 263.733Z" fill="#FCB610"/>
<path d="M85.2122 46.1769C84.0008 46.1769 83.0039 45.1906 83.0039 43.9684C83.0039 42.7461 83.9901 41.7598 85.2122 41.7598C86.4342 41.7598 87.4205 42.7461 87.4205 43.9684C87.4205 45.1906 86.4342 46.1769 85.2122 46.1769ZM85.2122 42.4245C84.3653 42.4245 83.6685 43.1214 83.6685 43.9684C83.6685 44.8153 84.3653 45.5122 85.2122 45.5122C86.059 45.5122 86.7558 44.8153 86.7558 43.9684C86.7558 43.1214 86.059 42.4245 85.2122 42.4245Z" fill="#FCB610"/>
<path d="M229.146 10.5285C227.924 10.5285 226.938 9.54215 226.938 8.31992C226.938 7.09769 227.924 6.11133 229.146 6.11133C230.368 6.11133 231.354 7.09769 231.354 8.31992C231.354 9.54215 230.368 10.5285 229.146 10.5285ZM229.146 6.77605C228.299 6.77605 227.602 7.47294 227.602 8.31992C227.602 9.1669 228.299 9.86379 229.146 9.86379C229.993 9.86379 230.689 9.1669 230.689 8.31992C230.689 7.47294 229.993 6.77605 229.146 6.77605Z" fill="#FCB610"/>
<path d="M39.7083 147.601C36.9533 147.601 34.7129 145.36 34.7129 142.605C34.7129 139.849 36.9533 137.608 39.7083 137.608C42.4633 137.608 44.7037 139.849 44.7037 142.605C44.7037 145.36 42.4633 147.601 39.7083 147.601ZM39.7083 139.099C37.7788 139.099 36.2137 140.664 36.2137 142.594C36.2137 144.524 37.7788 146.089 39.7083 146.089C41.6379 146.089 43.203 144.524 43.203 142.594C43.203 140.664 41.6379 139.099 39.7083 139.099Z" fill="#FCB610"/>
</g>
<defs>
<clipPath id="clip0_1041_5203">
<rect width="417" height="327" fill="white"/>
</clipPath>
</defs>
</svg>
